<svg width="24" height="24" viewBox="0 0 24 24" fill="none" xmlns="http://www.w3.org/2000/svg">
<g clip-path="url(#clip0_174_45)">
<path d="M0.266602 13.7764C0.510018 15.3831 1.07694 16.8831 1.89728 18.21H22.0763C22.8967 16.8831 23.4636 15.3831 23.707 13.7764H0.266602Z" fill="#F3F4F5"/>
<path d="M18.4772 21.9043H5.49609C7.36097 23.1272 9.58991 23.8408 11.9867 23.8408C14.3834 23.8408 16.6124 23.1272 18.4772 21.9043Z" fill="#F3F4F5"/>
<path d="M1.89697 18.21C2.81163 19.6897 4.04293 20.9518 5.49579 21.9047H18.4769C19.9301 20.9518 21.1611 19.6897 22.0758 18.21H1.89697Z" fill="#DC3027"/>
<path d="M13.206 0.194007C12.805 0.152911 12.3983 0.131836 11.9865 0.131836C5.43931 0.131836 0.131836 5.43931 0.131836 11.9865C0.131836 12.5948 0.177937 13.1925 0.266452 13.7763H13.206V0.194007Z" fill="#283991"/>
<path d="M3.73753 6.21539L3.37083 5.08946L4.32579 4.3953H3.1448L3.07288 4.1748C2.69827 4.60184 2.35422 5.05574 2.04337 5.53362L1.82129 6.21539L2.77915 5.51913L3.73753 6.21539Z" fill="#F3F4F5"/>
<path d="M6.12295 2.67656L7.0766 3.36966L6.71095 2.24689L7.66485 1.54984H6.48386L6.46648 1.49609C6.09398 1.69262 5.73228 1.90653 5.38454 2.13993L5.53417 2.24873L5.17432 3.36966L6.12295 2.67656Z" fill="#F3F4F5"/>
<path d="M2.18919 10.7826L1.82301 11.9074L2.77929 11.212L3.7382 11.9074L3.37202 10.7826L4.32567 10.0871H3.14547L2.77929 8.96484L2.41311 10.0871H1.23291L2.18919 10.7826Z" fill="#F3F4F5"/>
<path d="M8.88059 10.7826L8.51442 11.9074L9.47069 11.212L10.4296 11.9074L10.0634 10.7826L11.0171 10.0871H9.83687L9.47069 8.96484L9.10715 10.0871H7.92432L8.88059 10.7826Z" fill="#F3F4F5"/>
<path d="M8.88059 5.0895L8.51442 6.21438L9.47069 5.5189L10.4296 6.21438L10.0634 5.0895L11.0171 4.39402H9.83687L9.47069 3.27441L9.10715 4.39402H7.92432L8.88059 5.0895Z" fill="#F3F4F5"/>
<path d="M5.52689 7.9352L5.16071 9.06271L6.11962 8.36724L7.0759 9.06271L6.70972 7.9352L7.666 7.24236H6.48316L6.11962 6.12012L5.75344 7.24236H4.57324L5.52689 7.9352Z" fill="#F3F4F5"/>
<path d="M23.6869 10.0811H13.2061V13.7758H23.7067C23.7952 13.1923 23.8413 12.5945 23.8413 11.9862C23.8413 11.3374 23.787 10.7017 23.6869 10.0811Z" fill="#DC3027"/>
<path d="M13.2061 10.0811H23.6869C23.4266 8.47125 22.8415 6.97097 22.0022 5.64746H13.2061V10.0811Z" fill="#F3F4F5"/>
<path d="M13.2061 5.64784H22.002C21.057 4.15783 19.7899 2.89386 18.297 1.95312H13.2061V5.64784Z" fill="#DC3027"/>
<path d="M13.2061 0.195312V1.95323H18.2972C16.7938 1.00565 15.0638 0.385778 13.2061 0.195312Z" fill="#F3F4F5"/>
</g>
<defs>
<clipPath id="clip0_174_45">
<rect width="24" height="24" fill="white"/>
</clipPath>
</defs>
</svg>
