<svg width="231" height="226" viewBox="0 0 231 226" fill="none" xmlns="http://www.w3.org/2000/svg">
<circle cx="115.5" cy="112.5" r="97.5" fill="white"/>
<mask id="mask0_1012_2" style="mask-type:luminance" maskUnits="userSpaceOnUse" x="50" y="140" width="131" height="66">
<path d="M50.8315 140.793H180.167V205.602H50.8315V140.793Z" fill="white"/>
</mask>
<g mask="url(#mask0_1012_2)">
<path d="M179.96 179.741C178.89 180.77 177.796 181.772 176.679 182.748C175.561 183.723 174.42 184.672 173.257 185.593C172.094 186.514 170.909 187.407 169.704 188.271C168.497 189.136 167.272 189.971 166.026 190.776C164.78 191.583 163.516 192.358 162.232 193.104C160.95 193.849 159.649 194.563 158.331 195.247C157.015 195.93 155.682 196.581 154.333 197.2C152.985 197.819 151.623 198.406 150.246 198.961C148.869 199.514 147.48 200.035 146.079 200.523C144.677 201.011 143.265 201.465 141.841 201.885C140.419 202.305 138.985 202.691 137.544 203.042C136.102 203.394 134.653 203.711 133.196 203.993C131.739 204.275 130.276 204.522 128.807 204.734C127.339 204.947 125.866 205.124 124.389 205.266C122.911 205.408 121.432 205.513 119.95 205.585C118.467 205.656 116.984 205.692 115.499 205.692C114.016 205.692 112.533 205.656 111.05 205.585C109.568 205.513 108.089 205.408 106.611 205.266C105.134 205.124 103.661 204.947 102.192 204.734C100.723 204.522 99.26 204.275 97.8031 203.993C96.3462 203.711 94.8971 203.394 93.4559 203.042C92.0137 202.691 90.5812 202.305 89.1576 201.885C87.735 201.465 86.3221 201.011 84.921 200.523C83.5189 200.035 82.1306 199.514 80.7539 198.961C79.3773 198.406 78.0144 197.819 76.6662 197.2C75.3179 196.581 73.9854 195.93 72.6675 195.247C71.3506 194.563 70.0504 193.849 68.7667 193.104C67.4841 192.358 66.2201 191.583 64.9737 190.776C63.7283 189.971 62.5015 189.136 61.2962 188.271C60.0899 187.407 58.9052 186.514 57.742 185.593C56.5788 184.672 55.4392 183.723 54.321 182.748C53.2029 181.772 52.1092 180.77 51.04 179.741L71.6561 159.136C74.7618 156.028 78.1583 153.281 81.8476 150.894C102.26 137.681 128.739 137.681 149.152 150.894C152.841 153.281 156.238 156.028 159.344 159.136L179.96 179.741Z" fill="#00537D"/>
</g>
<mask id="mask1_1012_2" style="mask-type:luminance" maskUnits="userSpaceOnUse" x="50" y="19" width="131" height="66">
<path d="M50.833 19.7754H180.169V84.6766H50.833V19.7754Z" fill="white"/>
</mask>
<g mask="url(#mask1_1012_2)">
<path d="M179.96 45.7245L159.344 66.3303C156.239 69.4384 152.841 72.1864 149.153 74.5733C128.739 87.7856 102.26 87.7856 81.8481 74.5733C78.1588 72.1864 74.7623 69.4384 71.6566 66.3303L51.0405 45.7245C52.1097 44.6969 53.2034 43.6948 54.3215 42.7192C55.4396 41.7435 56.5793 40.7952 57.7425 39.8733C58.9057 38.9524 60.0904 38.0599 61.2967 37.1948C62.5019 36.3307 63.7288 35.496 64.9742 34.6896C66.2206 33.8842 67.4846 33.1081 68.7672 32.3634C70.0508 31.6177 71.3511 30.9033 72.668 30.2202C73.9859 29.5371 75.3184 28.8864 76.6667 28.2669C78.0149 27.6474 79.3778 27.0602 80.7544 26.5063C82.1311 25.9524 83.5194 25.4308 84.9215 24.9435C86.3226 24.4561 87.7355 24.0021 89.1581 23.5822C90.5817 23.1614 92.0141 22.7758 93.4564 22.4245C94.8976 22.0722 96.3467 21.7561 97.8036 21.4733C99.2605 21.1915 100.723 20.9439 102.193 20.7315C103.662 20.5191 105.134 20.343 106.612 20.2011C108.089 20.0592 109.569 19.9525 111.051 19.8821C112.533 19.8106 114.017 19.7754 115.5 19.7754C116.984 19.7754 118.468 19.8106 119.95 19.8821C121.432 19.9525 122.912 20.0592 124.389 20.2011C125.867 20.343 127.339 20.5191 128.808 20.7315C130.277 20.9439 131.739 21.1915 133.196 21.4733C134.653 21.7561 136.102 22.0722 137.545 22.4245C138.986 22.7758 140.418 23.1614 141.842 23.5822C143.265 24.0021 144.677 24.4561 146.079 24.9435C147.48 25.4308 148.87 25.9524 150.246 26.5063C151.623 27.0602 152.985 27.6474 154.333 28.2669C155.682 28.8864 157.015 29.5371 158.332 30.2202C159.65 30.9033 160.95 31.6177 162.233 32.3634C163.516 33.1081 164.78 33.8842 166.027 34.6896C167.272 35.496 168.498 36.3307 169.704 37.1948C170.91 38.0599 172.094 38.9524 173.257 39.8733C174.421 40.7952 175.561 41.7435 176.679 42.7192C177.797 43.6948 178.89 44.6969 179.96 45.7245Z" fill="#038FBD"/>
</g>
<mask id="mask2_1012_2" style="mask-type:luminance" maskUnits="userSpaceOnUse" x="143" y="48" width="66" height="130">
<path d="M143.572 48.1035H208.413V177.375H143.572V48.1035Z" fill="white"/>
</mask>
<g mask="url(#mask2_1012_2)">
<path d="M208.505 112.734C208.507 114.218 208.473 115.7 208.404 117.183C208.334 118.665 208.23 120.144 208.09 121.621C207.949 123.098 207.773 124.571 207.562 126.039C207.35 127.507 207.105 128.969 206.823 130.427C206.542 131.883 206.225 133.332 205.874 134.774C205.523 136.215 205.138 137.647 204.718 139.07C204.298 140.493 203.844 141.905 203.356 143.306C202.868 144.708 202.347 146.096 201.793 147.472C201.238 148.848 200.65 150.21 200.031 151.558C199.411 152.907 198.759 154.238 198.074 155.555C197.391 156.872 196.675 158.172 195.929 159.454C195.182 160.736 194.406 161.999 193.599 163.245C192.791 164.49 191.955 165.714 191.088 166.918C190.223 168.124 189.328 169.307 188.405 170.469C187.482 171.631 186.532 172.77 185.554 173.886C184.576 175.002 183.573 176.094 182.542 177.163L161.926 156.557C158.817 153.453 156.068 150.057 153.68 146.37C140.461 125.967 140.461 99.5013 153.68 79.099C156.068 75.4115 158.817 72.0167 161.926 68.9125L182.542 48.3066C183.573 49.3743 184.576 50.4665 185.554 51.5831C186.532 52.6987 187.482 53.8378 188.405 55.0004C189.328 56.162 190.223 57.3452 191.088 58.5499C191.955 59.7546 192.791 60.9798 193.599 62.2246C194.406 63.4694 195.182 64.7328 195.929 66.0158C196.675 67.2978 197.391 68.5974 198.074 69.9136C198.759 71.2308 199.411 72.5627 200.031 73.9103C200.65 75.2589 201.238 76.6201 201.793 77.997C202.347 79.373 202.868 80.7616 203.356 82.163C203.844 83.5634 204.298 84.9756 204.718 86.3985C205.138 87.8214 205.523 89.2541 205.874 90.6956C206.225 92.1371 206.542 93.5855 206.823 95.0427C207.105 96.4988 207.35 97.9619 207.562 99.4298C207.773 100.899 207.949 102.372 208.09 103.848C208.23 105.325 208.334 106.805 208.404 108.286C208.473 109.768 208.507 111.251 208.505 112.734Z" fill="#1FBEDE"/>
</g>
<mask id="mask3_1012_2" style="mask-type:luminance" maskUnits="userSpaceOnUse" x="22" y="48" width="66" height="130">
<path d="M22.4946 48.1035H87.4279V177.375H22.4946V48.1035Z" fill="white"/>
</mask>
<g mask="url(#mask3_1012_2)">
<path d="M77.3192 146.37C74.9311 150.057 72.1818 153.453 69.0721 156.557L48.4561 177.163C47.428 176.093 46.4254 175 45.4493 173.883C44.4731 172.766 43.5243 171.626 42.602 170.463C41.6807 169.3 40.7877 168.116 39.9222 166.912C39.0577 165.706 38.2225 164.481 37.4157 163.236C36.6099 161.99 35.8335 160.727 35.0884 159.444C34.3423 158.162 33.6275 156.862 32.9441 155.545C32.2607 154.229 31.6096 152.897 30.9898 151.548C30.3701 150.201 29.7826 148.839 29.2284 147.463C28.6743 146.088 28.1524 144.699 27.6648 143.298C27.1772 141.897 26.7229 140.486 26.3029 139.063C25.8818 137.64 25.4961 136.208 25.1446 134.768C24.7921 133.326 24.4759 131.878 24.1929 130.422C23.9109 128.966 23.6632 127.504 23.4507 126.036C23.2383 124.568 23.062 123.096 22.9201 121.619C22.7781 120.142 22.6714 118.664 22.6009 117.182C22.5294 115.7 22.4941 114.218 22.4941 112.734C22.4941 111.252 22.5294 109.769 22.6009 108.287C22.6714 106.806 22.7781 105.327 22.9201 103.85C23.062 102.374 23.2383 100.902 23.4507 99.4337C23.6632 97.9648 23.9109 96.5028 24.1929 95.0466C24.4759 93.5904 24.7921 92.142 25.1446 90.7015C25.4961 89.26 25.8818 87.8283 26.3029 86.4053C26.7229 84.9834 27.1772 83.5713 27.6648 82.1709C28.1524 80.7695 28.6743 79.3818 29.2284 78.0058C29.7826 76.6299 30.3701 75.2677 30.9898 73.9201C31.6096 72.5725 32.2607 71.2406 32.9441 69.9234C33.6275 68.6072 34.3423 67.3076 35.0884 66.0246C35.8335 64.7426 36.6099 63.4792 37.4157 62.2334C38.2225 60.9886 39.0577 59.7624 39.9222 58.5577C40.7877 57.352 41.6807 56.1679 42.602 55.0053C43.5243 53.8427 44.4731 52.7036 45.4493 51.586C46.4254 50.4684 47.428 49.3753 48.4561 48.3066L69.0721 68.9125C72.1818 72.0167 74.9311 75.4115 77.3192 79.099C90.5381 99.5013 90.5381 125.967 77.3192 146.37Z" fill="#0074A0"/>
</g>
<mask id="mask4_1012_2" style="mask-type:luminance" maskUnits="userSpaceOnUse" x="0" y="0" width="231" height="226">
<path d="M231 0H0V225.474H231V0Z" fill="black" fill-opacity="0.5"/>
</mask>
<g mask="url(#mask4_1012_2)">
<mask id="mask5_1012_2" style="mask-type:luminance" maskUnits="userSpaceOnUse" x="64" y="61" width="103" height="103">
<path d="M166.634 61.6367H64.3687V163.852H166.634V61.6367Z" fill="white"/>
</mask>
<g mask="url(#mask5_1012_2)">
<mask id="mask6_1012_2" style="mask-type:luminance" maskUnits="userSpaceOnUse" x="64" y="61" width="103" height="103">
<path d="M64.4883 61.7891H166.513V163.703H64.4883V61.7891Z" fill="white"/>
</mask>
<g mask="url(#mask6_1012_2)">
<path d="M77.3196 146.381C76.8134 145.806 76.32 145.221 75.8392 144.624C75.3595 144.027 74.8924 143.421 74.4401 142.802C73.9877 142.185 73.5491 141.557 73.1242 140.919C72.7002 140.282 72.291 139.635 71.8954 138.979C71.4998 138.323 71.1199 137.658 70.7547 136.985C70.3905 136.312 70.04 135.631 69.7061 134.942C69.3722 134.253 69.0531 133.556 68.7505 132.852C68.447 132.15 68.1611 131.439 67.8899 130.723C67.6187 130.007 67.3651 129.284 67.1262 128.557C66.8883 127.829 66.667 127.096 66.4614 126.358C66.2567 125.62 66.0687 124.879 65.8974 124.132C65.7251 123.386 65.5704 122.636 65.4333 121.883C65.2953 121.13 65.1748 120.373 65.072 119.615C64.9682 118.856 64.8821 118.095 64.8126 117.332C64.744 116.57 64.6921 115.806 64.6569 115.042C64.6226 114.276 64.605 113.511 64.605 112.745C64.605 111.979 64.6226 111.214 64.6569 110.449C64.6921 109.684 64.744 108.92 64.8126 108.157C64.8821 107.395 64.9682 106.634 65.072 105.876C65.1748 105.116 65.2953 104.361 65.4333 103.607C65.5704 102.854 65.7251 102.104 65.8974 101.357C66.0687 100.612 66.2567 99.869 66.4614 99.1311C66.667 98.3932 66.8883 97.6612 67.1262 96.9331C67.3651 96.205 67.6187 95.4828 67.8899 94.7665C68.1611 94.0501 68.447 93.3406 68.7505 92.637C69.0531 91.9333 69.3722 91.2375 69.7061 90.5486C70.04 89.8596 70.3905 89.1785 70.7547 88.5052C71.1199 87.8319 71.4998 87.1675 71.8954 86.5108C72.291 85.8551 72.7002 85.2083 73.1242 84.5702C73.5491 83.9331 73.9877 83.3058 74.4401 82.6873C74.8924 82.0698 75.3595 81.4631 75.8392 80.8661C76.32 80.2692 76.8134 79.6839 77.3196 79.1095C90.5385 99.5118 90.5385 125.978 77.3196 146.381ZM81.848 150.907C82.4227 151.413 83.0082 151.906 83.6055 152.386C84.2018 152.866 84.8098 153.332 85.4276 153.784C86.0464 154.237 86.674 154.676 87.3114 155.099C87.9498 155.523 88.597 155.933 89.253 156.329C89.91 156.723 90.5748 157.103 91.2484 157.468C91.922 157.833 92.6035 158.182 93.2928 158.517C93.9821 158.85 94.6782 159.169 95.3822 159.472C96.0862 159.774 96.796 160.061 97.5127 160.332C98.2294 160.602 98.952 160.857 99.6805 161.094C100.409 161.332 101.141 161.554 101.88 161.759C102.618 161.964 103.361 162.152 104.107 162.324C104.854 162.495 105.604 162.649 106.358 162.787C107.112 162.924 107.868 163.045 108.628 163.149C109.386 163.252 110.147 163.338 110.91 163.407C111.674 163.476 112.437 163.528 113.203 163.563C113.969 163.598 114.734 163.614 115.5 163.614C116.267 163.614 117.032 163.598 117.798 163.563C118.563 163.528 119.327 163.476 120.09 163.407C120.853 163.338 121.614 163.252 122.373 163.149C123.132 163.045 123.889 162.924 124.643 162.787C125.396 162.649 126.147 162.495 126.893 162.324C127.64 162.152 128.382 161.964 129.12 161.759C129.858 161.554 130.592 161.332 131.32 161.094C132.048 160.857 132.77 160.602 133.487 160.332C134.204 160.061 134.915 159.774 135.618 159.472C136.322 159.169 137.019 158.85 137.708 158.517C138.397 158.182 139.079 157.833 139.752 157.468C140.426 157.103 141.091 156.723 141.747 156.329C142.404 155.933 143.051 155.523 143.688 155.099C144.327 154.676 144.954 154.237 145.572 153.784C146.191 153.332 146.798 152.866 147.395 152.386C147.992 151.906 148.578 151.413 149.153 150.907C128.739 137.695 102.26 137.695 81.848 150.907ZM149.153 74.5834C148.578 74.0774 147.992 73.5842 147.395 73.1037C146.798 72.6242 146.191 72.1574 145.572 71.7052C144.954 71.2531 144.327 70.8147 143.688 70.39C143.051 69.9662 142.404 69.5572 141.747 69.1618C141.091 68.7664 140.426 68.3867 139.752 68.0217C139.079 67.6577 138.397 67.3073 137.708 66.9736C137.019 66.6399 136.322 66.3209 135.618 66.0185C134.915 65.7161 134.204 65.4294 133.487 65.1583C132.77 64.8872 132.048 64.6337 131.32 64.3949C130.592 64.1571 129.858 63.936 129.12 63.7305C128.382 63.5259 127.64 63.338 126.893 63.1668C126.147 62.9945 125.396 62.8399 124.643 62.7029C123.889 62.5649 123.132 62.4446 122.373 62.3418C121.614 62.2381 120.853 62.1519 120.09 62.0825C119.327 62.014 118.563 61.9621 117.798 61.9269C117.032 61.8926 116.267 61.875 115.5 61.875C114.734 61.875 113.969 61.8926 113.203 61.9269C112.437 61.9621 111.674 62.014 110.91 62.0825C110.147 62.1519 109.386 62.2381 108.628 62.3418C107.868 62.4446 107.112 62.5649 106.358 62.7029C105.604 62.8399 104.854 62.9945 104.107 63.1668C103.361 63.338 102.618 63.5259 101.88 63.7305C101.141 63.936 100.409 64.1571 99.6805 64.3949C98.952 64.6337 98.2294 64.8872 97.5127 65.1583C96.796 65.4294 96.0862 65.7161 95.3822 66.0185C94.6782 66.3209 93.9821 66.6399 93.2928 66.9736C92.6035 67.3073 91.922 67.6577 91.2484 68.0217C90.5748 68.3867 89.91 68.7674 89.253 69.1618C88.597 69.5572 87.9498 69.9662 87.3114 70.39C86.674 70.8147 86.0464 71.2531 85.4276 71.7052C84.8098 72.1574 84.2018 72.6242 83.6055 73.1037C83.0082 73.5842 82.4227 74.0774 81.848 74.5834C102.26 87.7957 128.739 87.7957 149.153 74.5834ZM153.681 79.1095C140.462 99.5118 140.462 125.978 153.681 146.381C154.187 145.806 154.681 145.221 155.16 144.624C155.641 144.027 156.107 143.421 156.56 142.802C157.013 142.185 157.452 141.557 157.876 140.919C158.3 140.282 158.71 139.635 159.105 138.979C159.5 138.323 159.88 137.658 160.245 136.985C160.61 136.312 160.96 135.631 161.295 134.942C161.628 134.253 161.947 133.556 162.25 132.852C162.553 132.15 162.84 131.439 163.111 130.723C163.381 130.007 163.636 129.284 163.874 128.557C164.111 127.829 164.334 127.096 164.538 126.358C164.744 125.62 164.932 124.879 165.103 124.132C165.275 123.386 165.429 122.636 165.567 121.883C165.704 121.13 165.825 120.373 165.929 119.615C166.032 118.856 166.119 118.095 166.187 117.332C166.257 116.57 166.309 115.806 166.343 115.042C166.378 114.276 166.395 113.511 166.395 112.745C166.395 111.979 166.378 111.214 166.343 110.449C166.309 109.684 166.257 108.92 166.187 108.157C166.119 107.395 166.032 106.634 165.929 105.876C165.825 105.116 165.704 104.361 165.567 103.607C165.429 102.854 165.275 102.104 165.103 101.357C164.932 100.612 164.744 99.869 164.538 99.1311C164.334 98.3932 164.111 97.6612 163.874 96.9331C163.636 96.205 163.381 95.4828 163.111 94.7665C162.84 94.0501 162.553 93.3406 162.25 92.637C161.947 91.9333 161.628 91.2375 161.295 90.5486C160.96 89.8596 160.61 89.1785 160.245 88.5052C159.88 87.8319 159.5 87.1675 159.105 86.5108C158.71 85.8551 158.3 85.2083 157.876 84.5702C157.452 83.9331 157.013 83.3058 156.56 82.6873C156.107 82.0698 155.641 81.4631 155.16 80.8661C154.681 80.2692 154.187 79.6839 153.681 79.1095Z" fill="#F2F2F2"/>
</g>
</g>
</g>
<mask id="mask7_1012_2" style="mask-type:luminance" maskUnits="userSpaceOnUse" x="109" y="66" width="13" height="12">
<path d="M109.006 66.3926H121.977V77.4158H109.006V66.3926Z" fill="white"/>
</mask>
<g mask="url(#mask7_1012_2)">
<path d="M121.223 67.7086C121.917 68.5766 121.671 70.0397 120.605 71.2688C120.243 71.6867 119.875 72.0684 119.513 72.4118V72.4128C118.448 73.4306 117.453 74.1274 116.899 74.5071C116.873 75.0267 116.442 75.4397 115.916 75.4397C115.526 75.4397 115.19 75.2136 115.03 74.8848C115.029 74.8829 115.028 74.8809 115.027 74.878C114.966 74.7508 114.932 74.6079 114.932 74.4572C114.932 73.914 115.373 73.4737 115.916 73.4737C116.02 73.4737 116.12 73.4893 116.213 73.5196H116.214C116.268 73.5363 116.321 73.5588 116.371 73.5852C117.026 73.2202 118.499 72.3022 119.578 71.17C120.357 70.3518 120.93 69.4212 120.837 68.5062C120.631 66.4853 118.381 65.8776 115.916 67.2222C115.704 67.1909 115.485 67.1743 115.262 67.1743C113.226 67.1743 111.557 68.5375 111.073 70.4086V70.4096C109.152 71.8902 109.007 73.2437 109.215 74.1293C109.063 72.7632 109.962 71.581 111.006 70.7179V70.7169C111.681 70.1581 112.419 69.7324 112.971 69.476C113.013 68.972 113.435 68.5766 113.951 68.5766C114.103 68.5766 114.247 68.6109 114.376 68.6725C114.706 68.8311 114.934 69.1687 114.934 69.5592C114.934 70.1023 114.493 70.5427 113.951 70.5427C113.713 70.5427 113.495 70.4585 113.324 70.3176V70.3186C112.693 70.5789 111.703 71.2179 110.955 72.0175C110.368 72.6428 109.932 73.367 109.932 74.0843C109.932 75.2215 111.083 76.385 112.868 76.0827C113.044 76.4643 113.188 76.8851 113.275 77.3744C113.275 77.3744 114.53 77.3744 115.262 77.3744C115.994 77.3744 117.249 77.3744 117.249 77.3744C117.602 75.379 118.916 74.51 119.406 72.8601C120.251 72.1114 120.973 71.3246 121.319 70.6973C121.994 69.473 121.879 68.3838 121.223 67.7086ZM120.42 68.9397C120.403 69.1031 120.369 69.2626 120.32 69.4202V69.4212C120.174 69.8909 119.894 70.3401 119.528 70.7717C119.334 69.6316 118.708 68.65 117.821 68.0022C117.496 67.7634 117.136 67.5706 116.749 67.4316C119.277 66.2769 120.561 67.5755 120.42 68.9397ZM110.471 73.4746V73.4737C110.495 73.3905 110.525 73.3092 110.562 73.229C110.677 72.9775 110.836 72.7221 111.022 72.4745C111.233 73.5236 111.776 74.2517 112.287 75.0492C112.404 75.2313 112.519 75.4162 112.626 75.61C110.974 75.8135 110.156 74.5717 110.471 73.4746Z" fill="#F2F2F2"/>
</g>
<path d="M114.451 69.5596C114.451 69.8366 114.226 70.0617 113.95 70.0617C113.673 70.0617 113.448 69.8366 113.448 69.5596C113.448 69.2837 113.673 69.0586 113.95 69.0586C114.226 69.0586 114.451 69.2837 114.451 69.5596Z" fill="#038FBD"/>
<path d="M116.417 74.4571C116.417 74.7331 116.192 74.9582 115.915 74.9582C115.638 74.9582 115.414 74.7331 115.414 74.4571C115.414 74.1802 115.638 73.9551 115.915 73.9551C116.192 73.9551 116.417 74.1802 116.417 74.4571Z" fill="#038FBD"/>
<path d="M119.909 67.6476C119.587 67.2904 119.108 67.1016 118.527 67.1016C118.082 67.1016 117.589 67.2102 117.057 67.4255C117.351 67.5537 117.63 67.7142 117.89 67.904C117.904 67.9148 117.918 67.9256 117.932 67.9353C118.941 67.3951 120.103 67.7886 120.31 68.7956C120.323 68.361 120.181 67.949 119.909 67.6476Z" fill="#038FBD"/>
<path d="M112.187 75.1087C112.176 75.0891 112.163 75.0705 112.15 75.0509C111.354 75.0627 110.727 74.6497 110.528 74.0508C110.548 74.3424 110.651 74.6243 110.827 74.8591C111.144 75.279 111.658 75.5099 112.276 75.5099C112.327 75.5099 112.379 75.5079 112.432 75.505C112.362 75.3856 112.283 75.2584 112.187 75.1087Z" fill="#038FBD"/>
<path d="M117.248 78.2402C117.248 78.4868 117.048 78.6864 116.802 78.6864H113.721C113.475 78.6864 113.275 78.4868 113.275 78.2402C113.275 77.9936 113.475 77.793 113.721 77.793H116.802C117.048 77.793 117.248 77.9936 117.248 78.2402Z" fill="#038FBD"/>
<path d="M117.033 79.4863C117.033 79.7329 116.833 79.9325 116.586 79.9325H113.937C113.69 79.9325 113.489 79.7329 113.489 79.4863C113.489 79.2397 113.69 79.0391 113.937 79.0391H116.586C116.833 79.0391 117.033 79.2397 117.033 79.4863Z" fill="#038FBD"/>
<mask id="mask8_1012_2" style="mask-type:luminance" maskUnits="userSpaceOnUse" x="113" y="80" width="4" height="2">
<path d="M113.996 80.1719H116.503V81.6555H113.996V80.1719Z" fill="white"/>
</mask>
<g mask="url(#mask8_1012_2)">
<path d="M116.341 80.2852H114.085V80.5474C114.085 81.1786 114.597 81.6895 115.229 81.6895C115.859 81.6895 116.371 81.1786 116.371 80.5474V80.2852H116.341Z" fill="#038FBD"/>
</g>
<mask id="mask9_1012_2" style="mask-type:luminance" maskUnits="userSpaceOnUse" x="156" y="114" width="7" height="5">
<path d="M156.858 114.236H162.623V118.663H156.858V114.236Z" fill="white"/>
</mask>
<g mask="url(#mask9_1012_2)">
<path d="M161.506 114.441L159.109 116.836L158.049 115.777L157.104 116.722L159.109 118.726L162.451 115.386L161.506 114.441Z" fill="#1FBEDE"/>
</g>
<mask id="mask10_1012_2" style="mask-type:luminance" maskUnits="userSpaceOnUse" x="148" y="106" width="11" height="13">
<path d="M148.416 106.479H158.361V118.671H148.416V106.479Z" fill="white"/>
</mask>
<g mask="url(#mask10_1012_2)">
<path d="M158.182 108.026C157.154 107.203 155.851 106.709 154.43 106.709C151.107 106.709 148.416 109.399 148.416 112.722C148.416 116.042 151.107 118.733 154.43 118.733V117.397C151.845 117.397 149.752 115.304 149.752 112.722C149.752 110.137 151.845 108.045 154.43 108.045C155.482 108.045 156.447 108.395 157.228 108.979L158.182 108.026Z" fill="#F2F2F2"/>
</g>
<path d="M158.175 109.92C158.76 110.701 159.11 111.667 159.11 112.718H160.447C160.447 111.298 159.952 109.995 159.129 108.967L158.175 109.92Z" fill="#F2F2F2"/>
<path d="M156.235 111.859C156.36 112.12 156.435 112.409 156.435 112.718C156.435 113.825 155.537 114.722 154.43 114.722C153.323 114.722 152.425 113.825 152.425 112.718C152.425 111.61 153.323 110.714 154.43 110.714C154.739 110.714 155.028 110.789 155.29 110.913L156.271 109.933C155.744 109.582 155.112 109.377 154.43 109.377C152.584 109.377 151.088 110.872 151.088 112.717C151.088 114.563 152.584 116.058 154.43 116.058C156.277 116.058 157.773 114.563 157.773 112.718C157.773 112.037 157.566 111.405 157.217 110.877L156.235 111.859Z" fill="#F2F2F2"/>
<mask id="mask11_1012_2" style="mask-type:luminance" maskUnits="userSpaceOnUse" x="153" y="102" width="12" height="12">
<path d="M153.599 102.701H164.395V113.494H153.599V102.701Z" fill="white"/>
</mask>
<g mask="url(#mask11_1012_2)">
<path d="M154.904 113.194C154.642 113.455 154.219 113.455 153.959 113.194C153.697 112.934 153.697 112.511 153.959 112.25L159.11 107.1L159.111 105.373L161.784 102.701L161.783 105.374L164.457 105.375L161.783 108.045H160.055L154.904 113.194Z" fill="#1FBEDE"/>
</g>
<path d="M119.333 154.634C119.281 154.345 119.381 154.047 119.592 153.84L121.966 151.528C122.497 151.01 122.204 150.102 121.468 149.994L118.187 149.519C117.894 149.476 117.643 149.294 117.514 149.026L116.048 146.058C115.719 145.392 114.764 145.392 114.435 146.058L112.971 149.026C112.84 149.29 112.586 149.476 112.296 149.519L109.015 149.994C108.28 150.102 107.982 151.006 108.518 151.528L110.891 153.84C111.103 154.047 111.198 154.345 111.151 154.634L110.589 157.901C110.463 158.635 111.233 159.193 111.894 158.847L114.829 157.305C115.092 157.166 115.404 157.166 115.663 157.305L118.599 158.847C119.256 159.193 120.029 158.635 119.904 157.901L119.342 154.634H119.333ZM115.239 149.229C115.896 149.229 116.429 149.761 116.429 150.417C116.429 151.074 115.896 151.605 115.239 151.605C114.582 151.605 114.051 151.074 114.051 150.417C114.051 149.761 114.582 149.229 115.239 149.229ZM116.968 155.407C116.968 155.455 116.93 155.495 116.882 155.495H113.597C113.549 155.495 113.51 155.455 113.51 155.407V153.117C113.51 152.521 113.995 152.038 114.591 152.038H115.888C116.485 152.038 116.968 152.521 116.968 153.117V155.407Z" fill="#F2F2F2"/>
<mask id="mask12_1012_2" style="mask-type:luminance" maskUnits="userSpaceOnUse" x="69" y="109" width="14" height="12">
<path d="M69.5776 109.121H82.5488V120.958H69.5776V109.121Z" fill="white"/>
</mask>
<g mask="url(#mask12_1012_2)">
<path d="M70.7614 109.121C70.1083 109.121 69.5796 109.65 69.5796 110.302V117.39C69.5796 118.043 70.1083 118.572 70.7614 118.572H74.8991V119.753H74.3077C73.9816 119.753 73.7163 120.018 73.7163 120.344C73.7163 120.67 73.9816 120.935 74.3077 120.935H77.854C78.1801 120.935 78.4444 120.67 78.4444 120.344C78.4444 120.018 78.1801 119.753 77.854 119.753H77.2626V118.572H81.3994C82.0524 118.572 82.5811 118.043 82.5811 117.39V110.302C82.5811 109.65 82.0524 109.121 81.3994 109.121H70.7614ZM70.7614 110.302H81.3994V117.39H70.7614V110.302ZM76.496 111.476C76.3256 111.502 76.1797 111.628 76.1347 111.806L75.1673 115.673C75.1076 115.91 75.2525 116.15 75.4895 116.209C75.7274 116.269 75.9673 116.123 76.026 115.886L76.9934 112.02C77.0531 111.783 76.9092 111.543 76.6713 111.483C76.6125 111.469 76.5528 111.467 76.496 111.476ZM73.7163 112.075C73.6067 112.075 73.497 112.116 73.4128 112.2L72.0695 113.542C71.902 113.71 71.902 113.982 72.0695 114.149L73.4118 115.491C73.5802 115.659 73.8524 115.659 74.0198 115.491C74.1882 115.324 74.1882 115.053 74.0198 114.884L72.983 113.846L74.0198 112.808C74.1892 112.639 74.1892 112.367 74.0218 112.2C73.9376 112.116 73.8269 112.075 73.7163 112.075ZM78.4415 112.075C78.3308 112.075 78.2202 112.116 78.136 112.2C77.9686 112.367 77.9686 112.639 78.136 112.808L79.1748 113.846L78.136 114.884C77.9686 115.053 77.9686 115.324 78.136 115.491C78.3044 115.659 78.5766 115.659 78.745 115.491L80.0873 114.149C80.2548 113.982 80.2548 113.71 80.0873 113.542L78.745 112.2C78.6608 112.116 78.5511 112.075 78.4415 112.075Z" fill="#F2F2F2"/>
</g>
<path d="M84.1455 46.2487L81.498 40.373H82.767L84.361 44.0174L84.7213 45.0195L85.0972 44.0174L86.374 41.2655H87.2239L88.5437 44.0253L88.9197 45.0274L89.28 44.0174L90.8152 40.373H92.1037L89.4719 46.2487H88.4184L87.0672 43.4029L86.8009 42.6239L86.5424 43.4029L85.2226 46.2487H84.1455Z" fill="white"/>
<path d="M93.9457 46.2881C93.6735 46.2822 93.4092 46.2353 93.1507 46.1472C92.8942 46.0591 92.6856 45.9192 92.5241 45.7283C92.3645 45.5355 92.2852 45.2821 92.2852 44.9689C92.2852 44.6636 92.3674 44.4238 92.5319 44.2487C92.6964 44.0745 92.9098 43.9472 93.1742 43.869C93.4376 43.7907 93.7147 43.7515 94.0045 43.7515H95.2656C95.1921 43.5196 95.055 43.3483 94.8543 43.2387C94.6556 43.1291 94.4411 43.0743 94.212 43.0743C94.0103 43.0743 93.8145 43.1154 93.6246 43.1957C93.4366 43.2769 93.2878 43.3904 93.1781 43.5362L92.4927 42.9412C92.7042 42.6153 92.9705 42.3932 93.2917 42.2758C93.6148 42.1583 93.9467 42.0996 94.2864 42.0996C94.542 42.0996 94.7936 42.1378 95.0423 42.2131C95.29 42.2895 95.5142 42.401 95.7159 42.5498C95.9167 42.6966 96.0763 42.8776 96.1937 43.0939C96.3132 43.3111 96.3739 43.5617 96.3739 43.8455V45.3565L96.417 46.2059H95.4496L95.3478 45.6461C95.2088 45.8634 95.008 46.0249 94.7447 46.1315C94.4832 46.2353 94.2169 46.2881 93.9457 46.2881ZM94.0554 45.3721C94.2218 45.3721 94.3942 45.3506 94.5723 45.3056C94.7496 45.2615 94.9062 45.1784 95.0423 45.055C95.1804 44.9327 95.2626 44.7605 95.2891 44.5383H93.9692C93.8253 44.5383 93.6882 44.5755 93.558 44.6479C93.4268 44.7184 93.3622 44.8231 93.3622 44.9611C93.3622 45.0629 93.3994 45.1451 93.4757 45.2077C93.5541 45.2684 93.6481 45.3114 93.7577 45.3369C93.8674 45.3604 93.9663 45.3721 94.0554 45.3721Z" fill="white"/>
<path d="M98.882 46.2232L96.7593 42.2774V42.2422H97.9381L98.9407 44.1877L99.3402 45.2055L99.7083 44.2033L100.719 42.2422H101.913V42.2774L99.7671 46.2232H98.882Z" fill="white"/>
<path d="M104.148 46.2801C103.741 46.2801 103.377 46.194 103.059 46.0218C102.743 45.8495 102.495 45.6098 102.315 45.3015C102.135 44.9913 102.045 44.6341 102.045 44.2289C102.045 43.8218 102.135 43.4646 102.315 43.1564C102.495 42.8461 102.746 42.6044 103.067 42.4322C103.39 42.2599 103.758 42.1738 104.172 42.1738C104.599 42.1738 104.969 42.2658 105.28 42.4478C105.593 42.6279 105.834 42.8814 106.004 43.2073C106.174 43.5312 106.259 43.9138 106.259 44.3542C106.259 44.3914 106.259 44.4344 106.259 44.4834C106.259 44.5303 106.256 44.5763 106.251 44.6204H103.145C103.179 44.8141 103.253 44.9649 103.369 45.0745C103.486 45.1841 103.623 45.2614 103.78 45.3054C103.937 45.3504 104.089 45.372 104.238 45.372C104.423 45.372 104.6 45.3446 104.771 45.2898C104.94 45.233 105.069 45.1253 105.158 44.9688L106.036 45.278C105.895 45.5393 105.722 45.7438 105.519 45.8926C105.317 46.0394 105.1 46.1412 104.865 46.1979C104.632 46.2527 104.393 46.2801 104.148 46.2801ZM103.145 43.8101H105.217C105.159 43.5596 105.027 43.3746 104.822 43.2542C104.618 43.1348 104.404 43.0742 104.179 43.0742C103.941 43.0742 103.723 43.1368 103.525 43.2621C103.327 43.3873 103.2 43.5703 103.145 43.8101Z" fill="white"/>
<path d="M109.29 46.2057V40.3457H112.032C112.608 40.3457 113.116 40.4739 113.555 40.7293C113.996 40.9857 114.339 41.3351 114.585 41.7784C114.83 42.2198 114.953 42.7198 114.953 43.2777C114.953 43.8335 114.83 44.3336 114.585 44.7769C114.339 45.2183 113.998 45.5666 113.559 45.8221C113.122 46.0785 112.613 46.2057 112.032 46.2057H109.29ZM110.477 45.2192H112.047C112.397 45.2192 112.702 45.137 112.964 44.9726C113.227 44.8063 113.431 44.5792 113.575 44.2915C113.718 44.0048 113.79 43.6799 113.79 43.3168C113.79 42.9518 113.72 42.62 113.579 42.3225C113.438 42.0231 113.235 41.7853 112.971 41.6101C112.71 41.4359 112.402 41.3478 112.047 41.3478H110.477V45.2192Z" fill="white"/>
<path d="M115.619 41.657V40.373H116.688V41.657H115.619ZM115.619 46.2135V42.2403H116.688V46.2135H115.619Z" fill="white"/>
<path d="M119.384 46.2841C119.039 46.2841 118.718 46.241 118.42 46.1549C118.123 46.0688 117.877 45.9259 117.684 45.7243C117.493 45.5208 117.386 45.2458 117.363 44.8984L118.401 44.9179C118.41 45.051 118.463 45.1548 118.557 45.2272C118.653 45.2976 118.778 45.3476 118.929 45.3759C119.083 45.4053 119.244 45.419 119.411 45.419C119.701 45.419 119.929 45.3798 120.096 45.3016C120.263 45.2233 120.347 45.1234 120.347 45.0001C120.347 44.9013 120.275 44.8201 120.132 44.7574C119.991 44.6929 119.753 44.6537 119.419 44.64C119.197 44.6302 118.97 44.6077 118.737 44.5735C118.507 44.5402 118.293 44.4834 118.095 44.4051C117.896 44.3249 117.737 44.2075 117.617 44.0528C117.5 43.8992 117.441 43.6947 117.441 43.4383C117.441 43.1877 117.501 42.9822 117.621 42.8198C117.744 42.6554 117.903 42.5242 118.099 42.4244C118.295 42.3226 118.503 42.2512 118.726 42.2091C118.947 42.168 119.161 42.1465 119.368 42.1465C119.589 42.1465 119.813 42.1661 120.038 42.2052C120.265 42.2443 120.473 42.3138 120.664 42.4127C120.857 42.5125 121.015 42.6505 121.138 42.8276C121.261 43.0028 121.334 43.223 121.358 43.4892L120.355 43.5244C120.326 43.3678 120.249 43.2533 120.124 43.1799C119.999 43.1075 119.862 43.0605 119.717 43.039C119.573 43.0155 119.459 43.0038 119.376 43.0038C119.149 43.0038 118.947 43.038 118.773 43.1055C118.597 43.174 118.51 43.2817 118.51 43.4304C118.51 43.5195 118.557 43.589 118.651 43.6379C118.745 43.6849 118.869 43.7181 119.023 43.7358C119.18 43.7544 119.348 43.77 119.529 43.7827C119.761 43.7984 119.993 43.8248 120.226 43.861C120.461 43.8982 120.673 43.9589 120.864 44.045C121.057 44.1311 121.209 44.2583 121.318 44.4247C121.428 44.5921 121.473 44.8181 121.455 45.1019C121.416 45.3681 121.292 45.5893 121.083 45.7635C120.874 45.9386 120.618 46.0688 120.316 46.1549C120.012 46.241 119.702 46.2841 119.384 46.2841Z" fill="white"/>
<path d="M123.984 46.2841C123.577 46.2841 123.214 46.198 122.896 46.0257C122.579 45.8535 122.329 45.6137 122.144 45.3055C121.961 44.9952 121.87 44.6381 121.87 44.2329C121.87 43.816 121.957 43.452 122.132 43.1408C122.309 42.8276 122.556 42.5839 122.872 42.4088C123.19 42.2346 123.562 42.1465 123.984 42.1465C124.268 42.1465 124.538 42.1895 124.791 42.2757C125.044 42.3618 125.267 42.5056 125.461 42.7063C125.657 42.9049 125.802 43.174 125.896 43.5126L124.968 43.6731C124.902 43.5009 124.815 43.3747 124.705 43.2934C124.597 43.2132 124.48 43.1594 124.353 43.1329C124.224 43.1046 124.102 43.0899 123.984 43.0899C123.66 43.0899 123.409 43.1995 123.229 43.4187C123.048 43.6379 122.958 43.91 122.958 44.2329C122.958 44.5382 123.05 44.8025 123.236 45.0236C123.422 45.2428 123.671 45.3524 123.984 45.3524C124.094 45.3524 124.21 45.3387 124.333 45.3094C124.455 45.281 124.574 45.2194 124.689 45.1254C124.804 45.0315 124.901 44.8866 124.979 44.6909L125.919 44.8984C125.825 45.2331 125.677 45.5012 125.477 45.7047C125.278 45.9083 125.048 46.0561 124.787 46.1471C124.529 46.2381 124.261 46.2841 123.984 46.2841Z" fill="white"/>
<path d="M128.503 46.2762C128.085 46.2762 127.71 46.1891 127.379 46.014C127.047 45.8398 126.785 45.598 126.595 45.2898C126.407 44.9796 126.313 44.6204 126.313 44.2133C126.313 43.8091 126.407 43.4539 126.595 43.1486C126.785 42.8413 127.047 42.5996 127.379 42.4244C127.71 42.2502 128.085 42.1621 128.503 42.1621C128.92 42.1621 129.291 42.2502 129.615 42.4244C129.941 42.5996 130.199 42.8413 130.387 43.1486C130.577 43.4539 130.672 43.8091 130.672 44.2133C130.672 44.6204 130.577 44.9796 130.387 45.2898C130.199 45.598 129.941 45.8398 129.615 46.014C129.291 46.1891 128.92 46.2762 128.503 46.2762ZM128.503 45.3485C128.813 45.3485 129.071 45.2418 129.274 45.0275C129.478 44.8142 129.58 44.5421 129.58 44.2133C129.58 43.8874 129.478 43.6183 129.274 43.4069C129.071 43.1955 128.813 43.0898 128.503 43.0898C128.184 43.0898 127.923 43.1955 127.719 43.4069C127.518 43.6183 127.418 43.8874 127.418 44.2133C127.418 44.5421 127.518 44.8142 127.719 45.0275C127.923 45.2418 128.184 45.3485 128.503 45.3485Z" fill="white"/>
<path d="M132.978 46.2232L130.855 42.2774V42.2422H132.034L133.036 44.1877L133.436 45.2055L133.804 44.2033L134.814 42.2422H136.009V42.2774L133.863 46.2232H132.978Z" fill="white"/>
<path d="M138.244 46.2801C137.837 46.2801 137.474 46.194 137.155 46.0218C136.839 45.8495 136.592 45.6098 136.411 45.3015C136.231 44.9913 136.141 44.6341 136.141 44.2289C136.141 43.8218 136.231 43.4646 136.411 43.1564C136.592 42.8461 136.842 42.6044 137.163 42.4322C137.486 42.2599 137.855 42.1738 138.268 42.1738C138.696 42.1738 139.065 42.2658 139.376 42.4478C139.689 42.6279 139.93 42.8814 140.101 43.2073C140.27 43.5312 140.355 43.9138 140.355 44.3542C140.355 44.3914 140.355 44.4344 140.355 44.4834C140.355 44.5303 140.352 44.5763 140.347 44.6204H137.242C137.275 44.8141 137.349 44.9649 137.465 45.0745C137.582 45.1841 137.719 45.2614 137.876 45.3054C138.033 45.3504 138.185 45.372 138.334 45.372C138.519 45.372 138.697 45.3446 138.867 45.2898C139.036 45.233 139.166 45.1253 139.255 44.9688L140.132 45.278C139.991 45.5393 139.819 45.7438 139.615 45.8926C139.413 46.0394 139.196 46.1412 138.961 46.1979C138.728 46.2527 138.489 46.2801 138.244 46.2801ZM137.242 43.8101H139.313C139.256 43.5596 139.123 43.3746 138.918 43.2542C138.714 43.1348 138.5 43.0742 138.276 43.0742C138.038 43.0742 137.819 43.1368 137.622 43.2621C137.423 43.3873 137.296 43.5703 137.242 43.8101Z" fill="white"/>
<path d="M141.105 46.2097V42.2365H142.025L142.092 42.7063C142.235 42.4773 142.406 42.3266 142.605 42.2561C142.803 42.1837 142.979 42.1465 143.134 42.1465C143.33 42.1465 143.543 42.1856 143.776 42.2639C144.011 42.3403 144.207 42.4753 144.363 42.671L143.886 43.3874C143.692 43.2102 143.464 43.1212 143.2 43.1212C142.934 43.1212 142.7 43.2112 142.499 43.3913C142.3 43.5694 142.195 43.8052 142.182 44.0998V46.2097H141.105Z" fill="white"/>
<path d="M145.09 48.02L146.218 45.9414L144.154 42.2578V42.2422H145.372L146.543 44.3873L146.793 45.0215L147.044 44.3952L148.196 42.2422H149.382V42.2774L146.277 48.02H145.09Z" fill="white"/>
<path d="M91.4473 183.876L88.7998 178H90.0687L91.6627 181.644L92.023 182.646L92.399 181.644L93.6758 178.893H94.5256L95.8454 181.652L96.2214 182.654L96.5817 181.644L98.117 178H99.4055L96.7736 183.876H95.7201L94.369 181.03L94.1026 180.251L93.8442 181.03L92.5243 183.876H91.4473Z" fill="white"/>
<path d="M101.246 183.917C100.973 183.911 100.709 183.864 100.45 183.776C100.194 183.688 99.9854 183.548 99.8239 183.357C99.6643 183.164 99.585 182.911 99.585 182.598C99.585 182.293 99.6672 182.053 99.8317 181.878C99.9962 181.703 100.21 181.576 100.474 181.498C100.737 181.42 101.014 181.38 101.304 181.38H102.565C102.492 181.148 102.355 180.977 102.154 180.868C101.955 180.758 101.741 180.703 101.512 180.703C101.31 180.703 101.114 180.744 100.924 180.825C100.736 180.906 100.588 181.019 100.478 181.165L99.7925 180.57C100.004 180.244 100.27 180.022 100.591 179.905C100.915 179.787 101.247 179.729 101.586 179.729C101.842 179.729 102.093 179.767 102.342 179.842C102.59 179.918 102.814 180.03 103.016 180.179C103.216 180.325 103.376 180.507 103.494 180.723C103.613 180.94 103.674 181.191 103.674 181.474V182.985L103.717 183.835H102.749L102.648 183.275C102.509 183.492 102.308 183.654 102.044 183.76C101.783 183.864 101.517 183.917 101.246 183.917ZM101.355 183.001C101.522 183.001 101.694 182.979 101.872 182.934C102.049 182.89 102.206 182.807 102.342 182.684C102.48 182.562 102.562 182.389 102.589 182.167H101.269C101.125 182.167 100.988 182.204 100.858 182.277C100.727 182.347 100.662 182.452 100.662 182.59C100.662 182.692 100.699 182.774 100.776 182.837C100.854 182.897 100.948 182.94 101.058 182.966C101.167 182.989 101.266 183.001 101.355 183.001Z" fill="white"/>
<path d="M106.184 183.842L104.062 179.897V179.861H105.24L106.243 181.807L106.642 182.825L107.011 181.822L108.021 179.861H109.216V179.897L107.069 183.842H106.184Z" fill="white"/>
<path d="M111.449 183.903C111.042 183.903 110.678 183.817 110.36 183.645C110.044 183.473 109.796 183.233 109.616 182.925C109.436 182.614 109.346 182.257 109.346 181.852C109.346 181.445 109.436 181.088 109.616 180.779C109.796 180.469 110.047 180.227 110.368 180.055C110.691 179.883 111.059 179.797 111.472 179.797C111.9 179.797 112.269 179.889 112.581 180.071C112.894 180.251 113.135 180.504 113.305 180.83C113.475 181.154 113.56 181.537 113.56 181.977C113.56 182.014 113.56 182.057 113.56 182.106C113.56 182.153 113.557 182.199 113.552 182.243H110.446C110.48 182.437 110.554 182.588 110.669 182.698C110.787 182.807 110.924 182.884 111.081 182.928C111.237 182.973 111.39 182.995 111.539 182.995C111.724 182.995 111.901 182.968 112.072 182.913C112.241 182.856 112.37 182.748 112.459 182.592L113.337 182.901C113.196 183.162 113.023 183.367 112.82 183.516C112.618 183.662 112.401 183.764 112.166 183.821C111.933 183.876 111.694 183.903 111.449 183.903ZM110.446 181.433H112.518C112.46 181.183 112.328 180.998 112.122 180.877C111.919 180.758 111.704 180.697 111.48 180.697C111.242 180.697 111.024 180.76 110.826 180.885C110.627 181.01 110.501 181.193 110.446 181.433Z" fill="white"/>
<path d="M118.455 183.84V178.99H116.184V178H121.886V178.99H119.622V183.84H118.455Z" fill="white"/>
<path d="M123.798 183.917C123.526 183.911 123.261 183.864 123.003 183.776C122.746 183.688 122.538 183.548 122.376 183.357C122.217 183.164 122.137 182.911 122.137 182.598C122.137 182.293 122.219 182.053 122.384 181.878C122.548 181.703 122.762 181.576 123.026 181.498C123.29 181.42 123.567 181.38 123.857 181.38H125.118C125.044 181.148 124.907 180.977 124.706 180.868C124.508 180.758 124.293 180.703 124.064 180.703C123.862 180.703 123.667 180.744 123.477 180.825C123.289 180.906 123.14 181.019 123.03 181.165L122.345 180.57C122.556 180.244 122.823 180.022 123.144 179.905C123.467 179.787 123.799 179.729 124.138 179.729C124.394 179.729 124.646 179.767 124.894 179.842C125.142 179.918 125.366 180.03 125.568 180.179C125.769 180.325 125.928 180.507 126.046 180.723C126.165 180.94 126.226 181.191 126.226 181.474V182.985L126.269 183.835H125.302L125.2 183.275C125.061 183.492 124.86 183.654 124.597 183.76C124.335 183.864 124.069 183.917 123.798 183.917ZM123.907 183.001C124.074 183.001 124.246 182.979 124.424 182.934C124.602 182.89 124.758 182.807 124.894 182.684C125.032 182.562 125.115 182.389 125.141 182.167H123.821C123.677 182.167 123.54 182.204 123.41 182.277C123.279 182.347 123.214 182.452 123.214 182.59C123.214 182.692 123.251 182.774 123.328 182.837C123.406 182.897 123.5 182.94 123.61 182.966C123.719 182.989 123.818 183.001 123.907 183.001Z" fill="white"/>
<path d="M127.125 183.84V178H128.203V183.84H127.125Z" fill="white"/>
<path d="M130.968 183.903C130.561 183.903 130.198 183.817 129.88 183.645C129.563 183.473 129.316 183.233 129.135 182.925C128.955 182.614 128.865 182.257 128.865 181.852C128.865 181.445 128.955 181.088 129.135 180.779C129.316 180.469 129.566 180.227 129.887 180.055C130.211 179.883 130.579 179.797 130.992 179.797C131.42 179.797 131.789 179.889 132.1 180.071C132.414 180.251 132.654 180.504 132.825 180.83C132.994 181.154 133.079 181.537 133.079 181.977C133.079 182.014 133.079 182.057 133.079 182.106C133.079 182.153 133.076 182.199 133.071 182.243H129.966C129.999 182.437 130.073 182.588 130.189 182.698C130.306 182.807 130.444 182.884 130.6 182.928C130.757 182.973 130.91 182.995 131.058 182.995C131.243 182.995 131.421 182.968 131.591 182.913C131.76 182.856 131.89 182.748 131.979 182.592L132.856 182.901C132.715 183.162 132.543 183.367 132.339 183.516C132.137 183.662 131.92 183.764 131.685 183.821C131.452 183.876 131.213 183.903 130.968 183.903ZM129.966 181.433H132.038C131.98 181.183 131.848 180.998 131.642 180.877C131.438 180.758 131.224 180.697 131 180.697C130.762 180.697 130.543 180.76 130.346 180.885C130.147 181.01 130.021 181.193 129.966 181.433Z" fill="white"/>
<path d="M133.828 183.837V179.863H134.756L134.858 180.349C134.968 180.153 135.125 180.012 135.332 179.926C135.538 179.84 135.744 179.797 135.951 179.797C136.196 179.797 136.435 179.831 136.668 179.899C136.903 179.964 137.115 180.075 137.306 180.231C137.499 180.388 137.652 180.595 137.764 180.854C137.879 181.112 137.936 181.431 137.936 181.809V183.837H136.844V181.785C136.849 181.522 136.807 181.314 136.718 181.159C136.629 181.003 136.515 180.888 136.374 180.815C136.235 180.742 136.089 180.705 135.935 180.705C135.768 180.705 135.606 180.742 135.45 180.815C135.293 180.888 135.164 181.004 135.062 181.163C134.962 181.32 134.913 181.527 134.913 181.785V183.837H133.828Z" fill="white"/>
<path d="M140.954 183.915C140.39 183.909 139.959 183.745 139.662 183.422C139.364 183.096 139.215 182.68 139.215 182.173V180.678H138.483V179.867H139.215V178H140.277V179.867H141.698V180.678H140.277V182.173C140.271 182.411 140.345 182.609 140.5 182.768C140.657 182.927 140.854 183.007 141.095 183.007C141.178 183.007 141.266 182.997 141.358 182.975C141.449 182.952 141.543 182.916 141.64 182.866L141.922 183.649C141.734 183.743 141.559 183.811 141.401 183.852C141.241 183.893 141.092 183.915 140.954 183.915Z" fill="white"/>
<path d="M184.724 81.6755L190.602 79.0293V80.2976L186.956 81.8908L185.953 82.2509L186.956 82.6267L189.709 83.9028V84.7523L186.948 86.0715L185.946 86.4472L186.956 86.8074L190.602 88.3419V89.6297L184.724 86.9992V85.9462L187.571 84.5957L188.35 84.3295L187.571 84.0712L184.724 82.752V81.6755Z" fill="white"/>
<path d="M184.675 91.4761C184.681 91.2041 184.728 90.9399 184.816 90.6815C184.904 90.4251 185.044 90.2167 185.235 90.0552C185.428 89.8957 185.682 89.8164 185.995 89.8164C186.301 89.8164 186.54 89.8986 186.716 90.063C186.89 90.2274 187.017 90.4408 187.096 90.705C187.174 90.9682 187.213 91.2452 187.213 91.5349V92.7953C187.445 92.7219 187.617 92.5849 187.726 92.3843C187.836 92.1856 187.891 91.9713 187.891 91.7423C187.891 91.5407 187.85 91.345 187.769 91.1552C187.688 90.9673 187.574 90.8185 187.429 90.7089L188.024 90.0239C188.35 90.2353 188.572 90.5014 188.69 90.8224C188.807 91.1454 188.866 91.4771 188.866 91.8167C188.866 92.0721 188.828 92.3236 188.752 92.5722C188.676 92.8198 188.564 93.0439 188.415 93.2455C188.269 93.4461 188.087 93.6056 187.871 93.7231C187.654 93.8425 187.403 93.9031 187.119 93.9031H185.607L184.758 93.9462V92.9793L185.318 92.8775C185.1 92.7386 184.939 92.538 184.832 92.2747C184.728 92.0134 184.675 91.7472 184.675 91.4761ZM185.592 91.5858C185.592 91.7521 185.613 91.9244 185.658 92.1025C185.702 92.2796 185.786 92.4362 185.909 92.5722C186.031 92.7102 186.204 92.7924 186.426 92.8188V91.4996C186.426 91.3558 186.389 91.2188 186.316 91.0886C186.246 90.9575 186.141 90.8929 186.003 90.8929C185.901 90.8929 185.819 90.9301 185.756 91.0064C185.696 91.0847 185.652 91.1786 185.627 91.2883C185.603 91.3979 185.592 91.4967 185.592 91.5858Z" fill="white"/>
<path d="M184.751 96.4068L188.699 94.2852H188.734V95.4634L186.788 96.4655L185.769 96.8648L186.772 97.2328L188.734 98.2427V99.4366H188.699L184.751 97.2915V96.4068Z" fill="white"/>
<path d="M184.691 101.678C184.691 101.271 184.778 100.908 184.95 100.59C185.122 100.274 185.362 100.026 185.671 99.8463C185.981 99.6662 186.338 99.5762 186.744 99.5762C187.151 99.5762 187.508 99.6662 187.817 99.8463C188.127 100.026 188.369 100.277 188.541 100.598C188.714 100.921 188.8 101.289 188.8 101.702C188.8 102.129 188.708 102.498 188.526 102.81C188.345 103.123 188.092 103.363 187.766 103.534C187.442 103.703 187.059 103.788 186.618 103.788C186.581 103.788 186.538 103.788 186.489 103.788C186.442 103.788 186.396 103.785 186.352 103.78V100.676C186.158 100.709 186.007 100.784 185.898 100.899C185.788 101.017 185.711 101.154 185.667 101.31C185.622 101.467 185.6 101.62 185.6 101.768C185.6 101.953 185.627 102.13 185.682 102.301C185.739 102.47 185.847 102.599 186.003 102.688L185.694 103.565C185.433 103.424 185.228 103.252 185.079 103.048C184.932 102.847 184.83 102.629 184.774 102.395C184.719 102.162 184.691 101.923 184.691 101.678ZM187.163 100.676V102.747C187.413 102.689 187.598 102.557 187.719 102.352C187.838 102.148 187.899 101.934 187.899 101.71C187.899 101.472 187.836 101.254 187.711 101.056C187.586 100.857 187.403 100.731 187.163 100.676Z" fill="white"/>
<path d="M184.759 106.9H190.602V109.918C190.602 110.302 190.541 110.641 190.422 110.936C190.304 111.231 190.122 111.463 189.878 111.633C189.632 111.805 189.315 111.891 188.926 111.891C188.748 111.891 188.56 111.835 188.362 111.723C188.163 111.61 188.009 111.449 187.9 111.238C187.842 111.454 187.74 111.634 187.594 111.778C187.45 111.924 187.287 112.034 187.105 112.111C186.922 112.186 186.741 112.224 186.564 112.224C186.24 112.224 185.962 112.161 185.73 112.036C185.5 111.911 185.313 111.743 185.17 111.531C185.029 111.32 184.924 111.082 184.857 110.819C184.791 110.557 184.759 110.288 184.759 110.012V106.9ZM188.276 108.024V109.985C188.281 110.209 188.331 110.397 188.425 110.549C188.519 110.702 188.691 110.78 188.942 110.78C189.119 110.78 189.257 110.738 189.357 110.654C189.458 110.57 189.531 110.465 189.576 110.337C189.62 110.209 189.643 110.073 189.643 109.93V108.024H188.276ZM185.718 108.024V110.012C185.723 110.2 185.751 110.376 185.801 110.541C185.852 110.705 185.936 110.836 186.051 110.936C186.169 111.038 186.33 111.089 186.537 111.089C186.742 111.089 186.905 111.035 187.022 110.928C187.14 110.824 187.222 110.69 187.269 110.525C187.316 110.361 187.34 110.19 187.34 110.012V108.024H185.718Z" fill="white"/>
<path d="M184.691 114.866C184.691 114.625 184.725 114.386 184.789 114.149C184.857 113.914 184.969 113.7 185.126 113.507C185.283 113.316 185.49 113.164 185.749 113.049C186.007 112.934 186.326 112.877 186.704 112.877H188.733V113.969H186.677C186.416 113.969 186.207 114.012 186.05 114.098C185.896 114.186 185.784 114.3 185.714 114.439C185.643 114.577 185.605 114.725 185.6 114.881C185.6 115.048 185.636 115.208 185.71 115.363C185.782 115.519 185.898 115.646 186.054 115.746C186.213 115.848 186.421 115.899 186.677 115.899H188.733V116.983H184.758V116.056L185.244 115.958C185.053 115.845 184.913 115.686 184.825 115.48C184.736 115.274 184.691 115.069 184.691 114.866Z" fill="white"/>
<path d="M184.676 119.68C184.676 119.336 184.719 119.015 184.805 118.717C184.891 118.42 185.034 118.174 185.236 117.981C185.439 117.79 185.715 117.684 186.062 117.66L186.043 118.697C185.909 118.707 185.806 118.76 185.733 118.854C185.663 118.95 185.613 119.074 185.584 119.226C185.555 119.38 185.541 119.54 185.541 119.707C185.541 119.997 185.58 120.225 185.659 120.392C185.737 120.559 185.837 120.643 185.96 120.643C186.059 120.643 186.141 120.571 186.203 120.428C186.268 120.287 186.307 120.049 186.321 119.715C186.33 119.493 186.353 119.266 186.387 119.034C186.421 118.804 186.477 118.59 186.556 118.392C186.636 118.194 186.753 118.034 186.908 117.915C187.062 117.797 187.266 117.738 187.523 117.738C187.774 117.738 187.979 117.798 188.142 117.919C188.306 118.041 188.438 118.2 188.537 118.396C188.639 118.592 188.711 118.8 188.753 119.022C188.794 119.244 188.815 119.458 188.815 119.664C188.815 119.886 188.796 120.109 188.757 120.334C188.718 120.561 188.648 120.769 188.549 120.96C188.449 121.153 188.311 121.31 188.134 121.434C187.959 121.556 187.738 121.629 187.472 121.653L187.437 120.651C187.594 120.621 187.708 120.545 187.782 120.42C187.854 120.295 187.901 120.159 187.922 120.013C187.946 119.869 187.958 119.755 187.958 119.672C187.958 119.445 187.923 119.244 187.856 119.069C187.787 118.894 187.68 118.807 187.531 118.807C187.442 118.807 187.372 118.854 187.323 118.948C187.276 119.042 187.243 119.165 187.225 119.32C187.207 119.476 187.191 119.645 187.178 119.825C187.163 120.057 187.136 120.289 187.1 120.522C187.063 120.757 187.002 120.969 186.916 121.16C186.83 121.352 186.703 121.504 186.536 121.614C186.369 121.723 186.142 121.768 185.859 121.751C185.592 121.712 185.371 121.587 185.197 121.379C185.021 121.169 184.891 120.914 184.805 120.612C184.719 120.308 184.676 119.998 184.676 119.68Z" fill="white"/>
<path d="M189.318 122.416H190.603V123.485H189.318V122.416ZM184.76 122.416H188.735V123.485H184.76V122.416Z" fill="white"/>
<path d="M184.758 124.395H188.733V125.322L188.248 125.424C188.444 125.534 188.585 125.691 188.671 125.898C188.757 126.103 188.8 126.31 188.8 126.516C188.8 126.761 188.766 127 188.698 127.233C188.633 127.467 188.522 127.68 188.365 127.871C188.209 128.063 188.001 128.216 187.743 128.329C187.484 128.443 187.165 128.501 186.787 128.501H184.758V127.409H186.811C187.074 127.414 187.282 127.371 187.437 127.283C187.594 127.194 187.708 127.08 187.782 126.939C187.854 126.8 187.891 126.654 187.891 126.501C187.891 126.333 187.854 126.172 187.782 126.015C187.708 125.859 187.592 125.729 187.433 125.628C187.277 125.528 187.069 125.479 186.811 125.479H184.758V124.395Z" fill="white"/>
<path d="M184.691 131.264C184.691 130.857 184.778 130.494 184.95 130.176C185.122 129.86 185.362 129.612 185.671 129.432C185.981 129.252 186.338 129.162 186.744 129.162C187.151 129.162 187.508 129.252 187.817 129.432C188.127 129.612 188.369 129.863 188.541 130.184C188.714 130.507 188.8 130.875 188.8 131.288C188.8 131.715 188.708 132.084 188.526 132.395C188.345 132.709 188.092 132.949 187.766 133.12C187.442 133.289 187.059 133.374 186.618 133.374C186.581 133.374 186.538 133.374 186.489 133.374C186.442 133.374 186.396 133.371 186.352 133.366V130.262C186.158 130.295 186.007 130.37 185.898 130.485C185.788 130.603 185.711 130.74 185.667 130.896C185.622 131.053 185.6 131.205 185.6 131.354C185.6 131.539 185.627 131.716 185.682 131.887C185.739 132.056 185.847 132.185 186.003 132.274L185.694 133.151C185.433 133.01 185.228 132.838 185.079 132.634C184.932 132.433 184.83 132.215 184.774 131.981C184.719 131.748 184.691 131.509 184.691 131.264ZM187.163 130.262V132.333C187.413 132.275 187.598 132.143 187.719 131.937C187.838 131.734 187.899 131.52 187.899 131.296C187.899 131.058 187.836 130.839 187.711 130.642C187.586 130.443 187.403 130.317 187.163 130.262Z" fill="white"/>
<path d="M184.675 135.899C184.675 135.554 184.718 135.233 184.804 134.936C184.89 134.638 185.033 134.393 185.235 134.2C185.439 134.009 185.714 133.902 186.061 133.879L186.042 134.916C185.908 134.926 185.805 134.979 185.732 135.073C185.662 135.169 185.612 135.293 185.583 135.445C185.554 135.598 185.54 135.759 185.54 135.926C185.54 136.216 185.579 136.444 185.658 136.611C185.736 136.778 185.836 136.862 185.959 136.862C186.058 136.862 186.14 136.789 186.202 136.646C186.267 136.506 186.306 136.268 186.32 135.934C186.329 135.712 186.352 135.485 186.386 135.253C186.42 135.023 186.476 134.809 186.555 134.611C186.635 134.412 186.752 134.253 186.907 134.133C187.061 134.016 187.266 133.957 187.522 133.957C187.773 133.957 187.978 134.017 188.141 134.137C188.305 134.26 188.437 134.419 188.536 134.615C188.638 134.811 188.71 135.019 188.752 135.241C188.793 135.462 188.814 135.677 188.814 135.883C188.814 136.104 188.795 136.327 188.756 136.552C188.717 136.78 188.647 136.988 188.548 137.179C188.448 137.372 188.31 137.529 188.133 137.652C187.958 137.775 187.737 137.848 187.471 137.872L187.436 136.87C187.593 136.84 187.707 136.764 187.781 136.639C187.853 136.513 187.9 136.377 187.922 136.232C187.945 136.088 187.957 135.974 187.957 135.891C187.957 135.664 187.922 135.462 187.855 135.288C187.786 135.113 187.679 135.026 187.53 135.026C187.441 135.026 187.371 135.073 187.322 135.167C187.275 135.261 187.242 135.384 187.224 135.539C187.206 135.695 187.19 135.864 187.177 136.044C187.162 136.276 187.135 136.507 187.099 136.74C187.062 136.975 187.001 137.188 186.915 137.378C186.829 137.571 186.702 137.723 186.535 137.833C186.368 137.942 186.142 137.987 185.858 137.97C185.591 137.93 185.37 137.806 185.196 137.598C185.02 137.388 184.89 137.133 184.804 136.83C184.718 136.527 184.675 136.217 184.675 135.899Z" fill="white"/>
<path d="M184.676 140.409C184.676 140.064 184.719 139.743 184.805 139.446C184.891 139.148 185.034 138.902 185.236 138.71C185.439 138.519 185.715 138.412 186.062 138.389L186.043 139.426C185.909 139.436 185.806 139.489 185.733 139.583C185.663 139.678 185.613 139.803 185.584 139.954C185.555 140.108 185.541 140.269 185.541 140.436C185.541 140.726 185.58 140.954 185.659 141.121C185.737 141.287 185.837 141.372 185.96 141.372C186.059 141.372 186.141 141.299 186.203 141.156C186.268 141.015 186.307 140.777 186.321 140.444C186.33 140.222 186.353 139.995 186.387 139.763C186.421 139.533 186.477 139.318 186.556 139.121C186.636 138.922 186.753 138.763 186.908 138.643C187.062 138.526 187.266 138.467 187.523 138.467C187.774 138.467 187.979 138.527 188.142 138.647C188.306 138.769 188.438 138.929 188.537 139.125C188.639 139.32 188.711 139.529 188.753 139.751C188.794 139.972 188.815 140.186 188.815 140.393C188.815 140.614 188.796 140.837 188.757 141.062C188.718 141.289 188.648 141.498 188.549 141.689C188.449 141.881 188.311 142.039 188.134 142.162C187.959 142.285 187.738 142.358 187.472 142.381L187.437 141.379C187.594 141.35 187.708 141.274 187.782 141.148C187.854 141.023 187.901 140.887 187.922 140.741C187.946 140.597 187.958 140.484 187.958 140.401C187.958 140.174 187.923 139.972 187.856 139.798C187.787 139.623 187.68 139.536 187.531 139.536C187.442 139.536 187.372 139.583 187.323 139.677C187.276 139.77 187.243 139.894 187.225 140.048C187.207 140.205 187.191 140.373 187.178 140.553C187.163 140.785 187.136 141.017 187.1 141.25C187.063 141.485 187.002 141.697 186.916 141.888C186.83 142.081 186.703 142.233 186.536 142.342C186.369 142.452 186.142 142.497 185.859 142.479C185.592 142.44 185.371 142.316 185.197 142.107C185.021 141.898 184.891 141.643 184.805 141.34C184.719 141.037 184.676 140.727 184.676 140.409Z" fill="white"/>
<path d="M173.051 93.0935C173.051 92.7588 173.085 92.4339 173.153 92.1188C173.217 91.8056 173.325 91.5218 173.474 91.2693C173.625 91.0158 173.822 90.8152 174.065 90.6665C174.308 90.5197 174.604 90.4473 174.954 90.4473C175.249 90.4473 175.523 90.5383 175.777 90.7213C176.029 90.9062 176.229 91.146 176.376 91.4415C176.454 91.3339 176.55 91.2458 176.666 91.1754C176.783 91.1069 176.905 91.0579 177.03 91.0266C177.155 90.9953 177.262 90.9796 177.351 90.9796C177.651 90.9796 177.909 91.0423 178.126 91.1675C178.346 91.2928 178.527 91.4582 178.671 91.6647C178.814 91.8702 178.921 92.0962 178.992 92.3419C179.062 92.5865 179.098 92.8283 179.098 93.0661C179.098 93.4497 179.035 93.803 178.91 94.1269C178.784 94.4498 178.587 94.7072 178.318 94.898C178.052 95.0908 177.704 95.1877 177.277 95.1877V94.1543C177.493 94.1543 177.668 94.0995 177.801 93.9899C177.935 93.8803 178.031 93.7442 178.091 93.5828C178.154 93.4233 178.185 93.2598 178.185 93.0935C178.185 92.7744 178.105 92.5278 177.946 92.3536C177.79 92.1784 177.588 92.0913 177.343 92.0913C177.215 92.0913 177.102 92.1246 177.006 92.1931C176.912 92.2636 176.832 92.3429 176.767 92.4319L174.954 94.7454C175.037 94.7786 175.135 94.806 175.248 94.8276C175.36 94.8511 175.535 94.8628 175.773 94.8628V95.8727C175.162 95.8727 174.682 95.7719 174.335 95.5713L173.219 96.8044H173.168V95.3639L173.587 94.8628C173.392 94.6015 173.252 94.3148 173.172 94.0016C173.092 93.6904 173.051 93.388 173.051 93.0935ZM173.995 92.9839C173.995 93.3675 174.078 93.7119 174.245 94.0173L175.722 92.0913C175.633 91.9083 175.523 91.7713 175.393 91.6803C175.262 91.5913 175.127 91.5472 174.989 91.5472C174.709 91.5472 174.47 91.694 174.269 91.9896C174.175 92.1354 174.105 92.2949 174.061 92.4671C174.016 92.6394 173.995 92.8116 173.995 92.9839Z" fill="white"/>
<path d="M173.17 99.5527H179.013V102.434C179.013 102.89 178.941 103.292 178.798 103.639C178.654 103.986 178.436 104.259 178.144 104.458C177.851 104.655 177.476 104.755 177.02 104.755C176.552 104.755 176.168 104.649 175.868 104.438C175.568 104.227 175.345 103.943 175.199 103.589C175.055 103.236 174.983 102.846 174.983 102.418V100.708H173.17V99.5527ZM175.951 100.708V102.426C175.955 102.77 176.035 103.054 176.189 103.279C176.346 103.506 176.622 103.62 177.02 103.62C177.275 103.62 177.475 103.566 177.619 103.459C177.765 103.355 177.867 103.213 177.924 103.033C177.984 102.855 178.015 102.655 178.015 102.434V100.708H175.951Z" fill="white"/>
<path d="M173.169 105.42H177.144V106.34L176.674 106.406C176.903 106.549 177.054 106.721 177.125 106.919C177.197 107.117 177.234 107.293 177.234 107.448C177.234 107.643 177.195 107.857 177.117 108.09C177.04 108.324 176.905 108.52 176.709 108.677L175.993 108.199C176.17 108.005 176.259 107.777 176.259 107.514C176.259 107.248 176.169 107.014 175.989 106.813C175.811 106.615 175.575 106.509 175.28 106.496H173.169V105.42Z" fill="white"/>
<path d="M173.104 111.042C173.104 110.624 173.192 110.249 173.367 109.918C173.541 109.587 173.783 109.325 174.091 109.135C174.402 108.947 174.761 108.854 175.168 108.854C175.573 108.854 175.928 108.947 176.234 109.135C176.541 109.325 176.783 109.587 176.958 109.918C177.133 110.249 177.221 110.624 177.221 111.042C177.221 111.459 177.133 111.83 176.958 112.153C176.783 112.479 176.541 112.737 176.234 112.925C175.928 113.114 175.573 113.21 175.168 113.21C174.761 113.21 174.402 113.114 174.091 112.925C173.783 112.737 173.541 112.479 173.367 112.153C173.192 111.83 173.104 111.459 173.104 111.042ZM174.033 111.042C174.033 111.352 174.139 111.609 174.354 111.813C174.567 112.016 174.839 112.118 175.168 112.118C175.494 112.118 175.764 112.016 175.975 111.813C176.187 111.609 176.292 111.352 176.292 111.042C176.292 110.723 176.187 110.462 175.975 110.259C175.764 110.057 175.494 109.957 175.168 109.957C174.839 109.957 174.567 110.057 174.354 110.259C174.139 110.462 174.033 110.723 174.033 111.042Z" fill="white"/>
<path d="M173.087 115.784C173.087 115.377 173.174 115.014 173.346 114.696C173.518 114.379 173.758 114.129 174.067 113.944C174.377 113.761 174.734 113.67 175.14 113.67C175.557 113.67 175.921 113.757 176.232 113.932C176.546 114.109 176.789 114.356 176.965 114.672C177.139 114.99 177.227 115.361 177.227 115.784C177.227 116.068 177.184 116.337 177.098 116.59C177.012 116.843 176.868 117.066 176.667 117.26C176.468 117.455 176.199 117.6 175.86 117.694L175.7 116.766C175.872 116.701 175.998 116.614 176.08 116.504C176.16 116.396 176.214 116.279 176.24 116.152C176.269 116.024 176.283 115.901 176.283 115.784C176.283 115.46 176.174 115.208 175.954 115.028C175.735 114.848 175.463 114.758 175.14 114.758C174.834 114.758 174.57 114.85 174.348 115.036C174.129 115.221 174.02 115.471 174.02 115.784C174.02 115.893 174.033 116.009 174.063 116.132C174.091 116.254 174.153 116.373 174.247 116.488C174.341 116.603 174.486 116.7 174.681 116.778L174.474 117.717C174.139 117.624 173.871 117.476 173.667 117.275C173.463 117.077 173.316 116.847 173.224 116.586C173.133 116.328 173.087 116.06 173.087 115.784Z" fill="white"/>
<path d="M173.104 120.174C173.104 119.767 173.191 119.404 173.363 119.086C173.535 118.77 173.775 118.522 174.084 118.342C174.394 118.162 174.751 118.072 175.157 118.072C175.564 118.072 175.921 118.162 176.23 118.342C176.54 118.522 176.782 118.773 176.954 119.094C177.127 119.417 177.213 119.785 177.213 120.198C177.213 120.625 177.121 120.994 176.939 121.306C176.759 121.619 176.505 121.86 176.179 122.03C175.855 122.199 175.472 122.284 175.031 122.284C174.994 122.284 174.951 122.284 174.902 122.284C174.855 122.284 174.809 122.281 174.765 122.276V119.172C174.571 119.206 174.42 119.28 174.311 119.395C174.201 119.513 174.124 119.65 174.08 119.806C174.035 119.963 174.013 120.116 174.013 120.264C174.013 120.449 174.041 120.626 174.095 120.797C174.152 120.966 174.26 121.095 174.416 121.184L174.107 122.061C173.846 121.92 173.641 121.748 173.492 121.544C173.345 121.343 173.244 121.126 173.187 120.891C173.132 120.658 173.104 120.419 173.104 120.174ZM175.576 119.172V121.243C175.826 121.185 176.011 121.053 176.132 120.848C176.251 120.644 176.312 120.43 176.312 120.206C176.312 119.968 176.249 119.75 176.124 119.552C175.999 119.353 175.816 119.227 175.576 119.172Z" fill="white"/>
<path d="M173.087 124.807C173.087 124.463 173.13 124.142 173.217 123.844C173.303 123.547 173.446 123.301 173.647 123.108C173.851 122.917 174.126 122.811 174.474 122.787L174.454 123.824C174.321 123.834 174.217 123.887 174.145 123.981C174.074 124.077 174.024 124.201 173.996 124.353C173.967 124.507 173.953 124.667 173.953 124.834C173.953 125.124 173.992 125.352 174.07 125.519C174.149 125.686 174.249 125.77 174.372 125.77C174.471 125.77 174.552 125.698 174.615 125.555C174.679 125.414 174.719 125.176 174.732 124.842C174.742 124.62 174.765 124.393 174.799 124.161C174.832 123.931 174.889 123.717 174.967 123.519C175.048 123.32 175.165 123.161 175.32 123.042C175.473 122.924 175.678 122.865 175.935 122.865C176.185 122.865 176.391 122.925 176.553 123.045C176.718 123.168 176.849 123.327 176.949 123.523C177.051 123.719 177.122 123.927 177.164 124.149C177.206 124.371 177.227 124.585 177.227 124.791C177.227 125.012 177.207 125.236 177.168 125.461C177.129 125.688 177.06 125.896 176.961 126.087C176.861 126.28 176.723 126.437 176.546 126.561C176.37 126.683 176.15 126.756 175.884 126.78L175.848 125.778C176.005 125.748 176.12 125.672 176.193 125.547C176.266 125.422 176.313 125.286 176.334 125.14C176.358 124.996 176.369 124.882 176.369 124.799C176.369 124.572 176.335 124.371 176.268 124.196C176.199 124.021 176.091 123.934 175.942 123.934C175.853 123.934 175.784 123.981 175.735 124.075C175.688 124.169 175.655 124.292 175.637 124.447C175.618 124.603 175.603 124.772 175.59 124.952C175.574 125.184 175.548 125.416 175.512 125.649C175.474 125.883 175.414 126.096 175.328 126.287C175.241 126.479 175.114 126.631 174.948 126.741C174.78 126.85 174.554 126.895 174.27 126.878C174.004 126.839 173.783 126.714 173.608 126.506C173.433 126.296 173.303 126.041 173.217 125.739C173.13 125.435 173.087 125.125 173.087 124.807Z" fill="white"/>
<path d="M173.088 129.311C173.088 128.966 173.131 128.645 173.217 128.348C173.303 128.05 173.446 127.805 173.648 127.612C173.852 127.421 174.127 127.315 174.474 127.291L174.455 128.328C174.322 128.338 174.218 128.391 174.145 128.485C174.075 128.581 174.025 128.705 173.997 128.857C173.967 129.01 173.953 129.171 173.953 129.338C173.953 129.628 173.993 129.856 174.071 130.023C174.149 130.19 174.249 130.274 174.372 130.274C174.471 130.274 174.553 130.201 174.615 130.059C174.68 129.918 174.719 129.68 174.733 129.346C174.743 129.124 174.765 128.897 174.799 128.665C174.833 128.435 174.889 128.221 174.968 128.023C175.048 127.824 175.166 127.665 175.32 127.545C175.474 127.428 175.679 127.369 175.935 127.369C176.186 127.369 176.391 127.429 176.554 127.549C176.718 127.672 176.85 127.831 176.949 128.027C177.051 128.223 177.123 128.431 177.165 128.653C177.206 128.874 177.228 129.089 177.228 129.295C177.228 129.516 177.208 129.74 177.169 129.965C177.13 130.192 177.06 130.4 176.961 130.591C176.861 130.784 176.723 130.941 176.546 131.065C176.371 131.187 176.151 131.26 175.884 131.284L175.849 130.282C176.006 130.252 176.12 130.176 176.194 130.051C176.266 129.925 176.313 129.789 176.335 129.644C176.358 129.5 176.37 129.386 176.37 129.303C176.37 129.076 176.336 128.874 176.268 128.7C176.199 128.525 176.092 128.438 175.943 128.438C175.854 128.438 175.784 128.485 175.735 128.579C175.688 128.673 175.655 128.796 175.637 128.951C175.619 129.107 175.603 129.276 175.59 129.456C175.575 129.688 175.548 129.92 175.512 130.153C175.475 130.387 175.414 130.6 175.328 130.791C175.242 130.983 175.115 131.135 174.948 131.245C174.781 131.354 174.555 131.399 174.271 131.382C174.004 131.343 173.783 131.218 173.609 131.01C173.434 130.8 173.303 130.545 173.217 130.243C173.131 129.939 173.088 129.629 173.088 129.311Z" fill="white"/>
<path d="M45.5685 132.085L39.6899 134.731V133.463L43.3361 131.87L44.3387 131.51L43.3361 131.134L40.5829 129.858V129.008L43.344 127.689L44.3466 127.313L43.3361 126.953L39.6899 125.419V124.131L45.5685 126.761V127.814L42.7213 129.165L41.9419 129.431L42.7213 129.689L45.5685 131.009V132.085Z" fill="white"/>
<path d="M45.6154 122.29C45.6095 122.562 45.5625 122.827 45.4744 123.085C45.3863 123.341 45.2463 123.55 45.0553 123.711C44.8624 123.871 44.6089 123.95 44.2955 123.95C43.9901 123.95 43.7502 123.868 43.5749 123.703C43.4006 123.539 43.2734 123.326 43.195 123.062C43.1167 122.798 43.0775 122.521 43.0775 122.232V120.971C42.8455 121.045 42.6741 121.182 42.5645 121.382C42.4548 121.581 42.4 121.795 42.4 122.024C42.4 122.226 42.4411 122.421 42.5214 122.611C42.6027 122.799 42.7162 122.948 42.8621 123.058L42.2668 123.743C41.9408 123.531 41.7185 123.265 41.601 122.944C41.4836 122.621 41.4248 122.289 41.4248 121.95C41.4248 121.694 41.463 121.443 41.5384 121.194C41.6148 120.947 41.7264 120.723 41.8752 120.521C42.0221 120.32 42.2032 120.161 42.4196 120.043C42.6369 119.924 42.8876 119.863 43.1715 119.863H44.6833L45.5331 119.82V120.787L44.9731 120.889C45.1904 121.028 45.352 121.229 45.4587 121.492C45.5625 121.753 45.6154 122.019 45.6154 122.29ZM44.6989 122.181C44.6989 122.014 44.6774 121.842 44.6324 121.664C44.5883 121.487 44.5051 121.33 44.3817 121.194C44.2593 121.056 44.087 120.974 43.8647 120.948V122.267C43.8647 122.411 43.9019 122.548 43.9744 122.678C44.0449 122.809 44.1497 122.874 44.2877 122.874C44.3895 122.874 44.4718 122.836 44.5344 122.76C44.5951 122.682 44.6382 122.588 44.6637 122.478C44.6872 122.369 44.6989 122.27 44.6989 122.181Z" fill="white"/>
<path d="M45.5421 117.338L41.5943 119.46H41.5591V118.282L43.5055 117.28L44.5238 116.88L43.5212 116.512L41.5591 115.503V114.309H41.5943L45.5421 116.454V117.338Z" fill="white"/>
<path d="M45.6005 112.09C45.6005 112.497 45.5144 112.861 45.342 113.179C45.1697 113.495 44.9298 113.742 44.6214 113.922C44.311 114.102 43.9537 114.192 43.5483 114.192C43.141 114.192 42.7836 114.102 42.4752 113.922C42.1648 113.742 41.923 113.492 41.7507 113.171C41.5783 112.848 41.4922 112.48 41.4922 112.067C41.4922 111.639 41.5842 111.27 41.7663 110.959C41.9465 110.646 42.2001 110.405 42.5261 110.235C42.8502 110.066 43.233 109.98 43.6736 109.98C43.7108 109.98 43.7539 109.98 43.8029 109.98C43.8499 109.98 43.8959 109.983 43.94 109.988V113.092C44.1338 113.059 44.2846 112.985 44.3943 112.869C44.5039 112.752 44.5813 112.615 44.6253 112.458C44.6704 112.302 44.6919 112.149 44.6919 112C44.6919 111.815 44.6645 111.638 44.6097 111.468C44.5529 111.299 44.4452 111.169 44.2885 111.08L44.5979 110.204C44.8593 110.345 45.064 110.517 45.2128 110.72C45.3597 110.922 45.4615 111.139 45.5183 111.374C45.5731 111.607 45.6005 111.846 45.6005 112.09ZM43.1293 113.092V111.022C42.8786 111.079 42.6936 111.212 42.5731 111.417C42.4537 111.621 42.393 111.835 42.393 112.059C42.393 112.297 42.4556 112.515 42.581 112.713C42.7063 112.911 42.8894 113.038 43.1293 113.092Z" fill="white"/>
<path d="M45.5328 105.091H40.6803V107.362H39.6895V101.662H40.6803V103.925H45.5328V105.091Z" fill="white"/>
<path d="M45.601 99.3013C45.601 99.7084 45.5148 100.071 45.3425 100.39C45.1702 100.706 44.9303 100.953 44.6219 101.133C44.3115 101.313 43.9541 101.403 43.5488 101.403C43.1415 101.403 42.7841 101.313 42.4757 101.133C42.1653 100.953 41.9235 100.703 41.7512 100.382C41.5788 100.059 41.4927 99.6908 41.4927 99.2778C41.4927 98.8502 41.5847 98.4812 41.7668 98.17C41.947 97.8569 42.2006 97.6161 42.5266 97.4458C42.8507 97.2765 43.2335 97.1914 43.6741 97.1914C43.7113 97.1914 43.7544 97.1914 43.8034 97.1914C43.8504 97.1914 43.8964 97.1943 43.9404 97.1992V100.303C44.1343 100.27 44.2851 100.196 44.3947 100.08C44.5044 99.9629 44.5818 99.8259 44.6258 99.6693C44.6709 99.5127 44.6924 99.36 44.6924 99.2113C44.6924 99.0263 44.665 98.8492 44.6101 98.6789C44.5534 98.5096 44.4457 98.3804 44.289 98.2914L44.5984 97.4145C44.8598 97.5555 45.0645 97.7277 45.2133 97.9312C45.3601 98.1328 45.462 98.3501 45.5188 98.585C45.5736 98.8179 45.601 99.0567 45.601 99.3013ZM43.1297 100.303V98.2327C42.8791 98.2904 42.694 98.4225 42.5736 98.628C42.4542 98.8316 42.3935 99.0459 42.3935 99.27C42.3935 99.5078 42.4561 99.726 42.5814 99.9237C42.7068 100.122 42.8899 100.249 43.1297 100.303Z" fill="white"/>
<path d="M45.6167 94.5744C45.6167 94.9815 45.5305 95.3446 45.3582 95.6626C45.1859 95.9787 44.946 96.2292 44.6376 96.4142C44.3272 96.5972 43.9699 96.6882 43.5645 96.6882C43.1474 96.6882 42.7832 96.6011 42.4718 96.4259C42.1585 96.2488 41.9147 96.0022 41.7395 95.6861C41.5652 95.368 41.4771 94.9971 41.4771 94.5744C41.4771 94.2906 41.5201 94.0215 41.6063 93.768C41.6925 93.5155 41.8364 93.2924 42.0371 93.0986C42.2359 92.9029 42.5051 92.7581 42.8439 92.6641L43.0045 93.5918C42.8321 93.6574 42.7058 93.7445 42.6246 93.8541C42.5443 93.9618 42.4904 94.0792 42.464 94.2064C42.4356 94.3346 42.4209 94.4569 42.4209 94.5744C42.4209 94.8983 42.5306 95.1498 42.7499 95.3299C42.9692 95.5099 43.2414 95.6 43.5645 95.6C43.87 95.6 44.1343 95.508 44.3556 95.322C44.5749 95.1371 44.6846 94.8875 44.6846 94.5744C44.6846 94.4648 44.6709 94.3493 44.6415 94.226C44.6131 94.1037 44.5514 93.9853 44.4574 93.8698C44.3635 93.7553 44.2185 93.6584 44.0227 93.5801L44.2303 92.6406C44.5651 92.7346 44.8334 92.8823 45.0371 93.083C45.2407 93.2816 45.3886 93.5116 45.4796 93.7719C45.5707 94.0303 45.6167 94.2984 45.6167 94.5744Z" fill="white"/>
<path d="M45.5323 92.0536H39.689V90.9692H42.0075C41.8459 90.8733 41.7196 90.7265 41.6276 90.5308C41.5365 90.3331 41.4905 90.1335 41.4905 89.9319C41.4905 89.6873 41.5248 89.4485 41.5923 89.2156C41.6579 88.9807 41.7686 88.7683 41.9252 88.5775C42.0819 88.3847 42.2895 88.232 42.548 88.1195C42.8064 88.005 43.1256 87.9473 43.5036 87.9473H45.5323V89.0394H43.4957C43.2353 89.0345 43.0248 89.0766 42.8652 89.1647C42.7066 89.2537 42.5891 89.3682 42.5127 89.5091C42.4373 89.6481 42.3991 89.7939 42.3991 89.9476C42.3991 90.1149 42.4373 90.2764 42.5127 90.433C42.5891 90.5895 42.7066 90.7187 42.8652 90.8205C43.0248 90.9203 43.2323 90.9692 43.4879 90.9692H45.5323V92.0536Z" fill="white"/>
<path d="M100.442 107.185L96.8706 99.25H98.5821L100.736 104.174L101.222 105.525L101.727 104.174L103.454 100.456H104.602L106.384 104.186L106.889 105.537L107.374 104.174L109.45 99.25H111.185L107.633 107.185H106.215L104.39 103.341L104.026 102.292L103.677 103.341L101.899 107.185H100.442Z" fill="#41A3E0"/>
<path d="M113.671 107.25C113.303 107.242 112.944 107.178 112.598 107.058C112.253 106.939 111.971 106.749 111.752 106.491C111.534 106.23 111.427 105.89 111.427 105.469C111.427 105.057 111.537 104.732 111.76 104.494C111.981 104.258 112.271 104.086 112.629 103.982C112.986 103.878 113.36 103.825 113.749 103.825H115.453C115.353 103.51 115.168 103.279 114.897 103.132C114.627 102.986 114.339 102.913 114.031 102.913C113.762 102.913 113.5 102.968 113.244 103.077C112.987 103.185 112.784 103.336 112.633 103.531L111.709 102.733C111.996 102.29 112.357 101.989 112.794 101.833C113.229 101.674 113.676 101.594 114.133 101.594C114.48 101.594 114.82 101.645 115.155 101.746C115.489 101.848 115.791 101.999 116.06 102.197C116.331 102.395 116.547 102.642 116.71 102.936C116.872 103.229 116.953 103.567 116.953 103.95V105.986L117.008 107.137H115.7L115.566 106.381C115.378 106.674 115.106 106.892 114.752 107.035C114.399 107.178 114.039 107.25 113.671 107.25ZM113.82 106.009C114.044 106.009 114.276 105.98 114.517 105.919C114.757 105.86 114.968 105.747 115.151 105.583C115.336 105.418 115.447 105.185 115.484 104.882H113.706C113.51 104.882 113.323 104.932 113.146 105.031C112.971 105.128 112.884 105.269 112.884 105.457C112.884 105.593 112.936 105.703 113.04 105.786C113.144 105.867 113.269 105.925 113.416 105.958C113.565 105.993 113.699 106.009 113.82 106.009Z" fill="#41A3E0"/>
<path d="M120.332 107.162L117.469 101.834V101.787H119.055L120.41 104.414L120.95 105.788L121.448 104.433L122.811 101.787H124.42V101.834L121.526 107.162H120.332Z" fill="#41A3E0"/>
<path d="M127.443 107.213C126.895 107.213 126.406 107.097 125.978 106.864C125.549 106.633 125.213 106.308 124.968 105.89C124.725 105.473 124.604 104.989 124.604 104.441C124.604 103.893 124.725 103.411 124.968 102.993C125.213 102.576 125.552 102.251 125.986 102.018C126.422 101.786 126.918 101.67 127.474 101.67C128.054 101.67 128.553 101.793 128.974 102.038C129.394 102.281 129.719 102.623 129.949 103.063C130.179 103.502 130.294 104.018 130.294 104.61C130.294 104.663 130.294 104.721 130.294 104.786C130.294 104.848 130.29 104.91 130.282 104.97H126.088C126.135 105.234 126.237 105.439 126.393 105.584C126.552 105.731 126.736 105.834 126.946 105.894C127.157 105.954 127.363 105.984 127.564 105.984C127.812 105.984 128.051 105.947 128.281 105.874C128.51 105.799 128.685 105.655 128.806 105.443L129.989 105.862C129.801 106.215 129.57 106.491 129.295 106.688C129.021 106.887 128.726 107.024 128.41 107.099C128.094 107.175 127.772 107.213 127.443 107.213ZM126.088 103.878H128.884C128.808 103.541 128.631 103.292 128.352 103.13C128.074 102.969 127.786 102.887 127.486 102.887C127.165 102.887 126.869 102.972 126.601 103.142C126.335 103.309 126.163 103.555 126.088 103.878Z" fill="#41A3E0"/>
<path d="M101.586 123.076C101.157 123.076 100.717 123.038 100.266 122.962C99.8165 122.886 99.3926 122.758 98.9931 122.575C98.5956 122.39 98.2646 122.127 97.9983 121.784C97.732 121.443 97.5714 121.009 97.5166 120.485L99.0753 120.293C99.1037 120.593 99.2007 120.84 99.3652 121.033C99.5316 121.223 99.7392 121.372 99.9879 121.479C100.236 121.584 100.498 121.657 100.775 121.698C101.054 121.737 101.317 121.757 101.566 121.757C101.715 121.757 101.913 121.744 102.161 121.718C102.409 121.692 102.659 121.641 102.91 121.565C103.162 121.49 103.379 121.381 103.56 121.24C103.74 121.097 103.842 120.913 103.865 120.688C103.886 120.425 103.831 120.218 103.701 120.07C103.569 119.919 103.391 119.805 103.164 119.729C102.939 119.654 102.69 119.602 102.416 119.572C102.142 119.541 101.869 119.522 101.598 119.514L101.069 119.494C100.701 119.479 100.315 119.445 99.9135 119.392C99.511 119.341 99.136 119.243 98.7894 119.099C98.4448 118.956 98.1628 118.743 97.9435 118.461C97.7261 118.179 97.6184 117.802 97.6184 117.329C97.6184 116.917 97.7007 116.565 97.8652 116.273C98.0316 115.978 98.2539 115.736 98.531 115.548C98.81 115.36 99.1204 115.215 99.4631 115.11C99.8048 115.006 100.153 114.933 100.509 114.891C100.866 114.85 101.207 114.828 101.531 114.828C101.935 114.828 102.35 114.858 102.776 114.918C103.201 114.979 103.595 115.089 103.955 115.251C104.316 115.413 104.611 115.65 104.844 115.963C105.076 116.275 105.208 116.678 105.24 117.173L103.685 117.329C103.661 117.074 103.572 116.864 103.419 116.699C103.264 116.535 103.074 116.409 102.847 116.32C102.622 116.229 102.39 116.166 102.15 116.132C101.909 116.098 101.692 116.081 101.496 116.081C101.363 116.081 101.172 116.094 100.924 116.12C100.675 116.146 100.421 116.198 100.16 116.276C99.9017 116.355 99.6824 116.475 99.5022 116.637C99.3221 116.799 99.232 117.019 99.232 117.298C99.232 117.559 99.3191 117.754 99.4944 117.881C99.6716 118.01 99.9017 118.097 100.184 118.144C100.466 118.189 100.768 118.217 101.092 118.23C101.633 118.238 102.163 118.271 102.686 118.328C103.208 118.382 103.679 118.487 104.1 118.641C104.52 118.795 104.854 119.023 105.103 119.326C105.35 119.626 105.475 120.025 105.475 120.52C105.475 120.977 105.351 121.375 105.107 121.714C104.864 122.05 104.545 122.324 104.151 122.536C103.756 122.745 103.333 122.89 102.882 122.974C102.522 123.042 102.089 123.076 101.586 123.076Z" fill="#41A3E0"/>
<path d="M109.179 122.982C108.419 122.974 107.837 122.751 107.436 122.312C107.036 121.872 106.837 121.309 106.837 120.625V118.609H105.842V117.517H106.837V114.992H108.266V117.517H110.181V118.609H108.266V120.625C108.258 120.949 108.358 121.218 108.568 121.432C108.779 121.646 109.046 121.753 109.37 121.753C109.482 121.753 109.6 121.739 109.723 121.709C109.848 121.678 109.975 121.629 110.103 121.561L110.487 122.622C110.23 122.75 109.995 122.841 109.782 122.896C109.567 122.952 109.367 122.982 109.179 122.982Z" fill="#41A3E0"/>
<path d="M113.799 122.972C113.475 122.972 113.154 122.927 112.836 122.839C112.517 122.748 112.227 122.599 111.967 122.389C111.708 122.178 111.501 121.898 111.348 121.548C111.193 121.198 111.117 120.768 111.117 120.256V117.52H112.593V120.291C112.593 120.643 112.65 120.925 112.766 121.137C112.883 121.346 113.036 121.497 113.224 121.591C113.412 121.685 113.611 121.735 113.823 121.743C114.047 121.743 114.264 121.695 114.473 121.598C114.685 121.5 114.858 121.343 114.994 121.129C115.129 120.915 115.198 120.635 115.198 120.291V117.52H116.662V122.882H115.413L115.276 122.229C115.127 122.485 114.913 122.673 114.634 122.792C114.357 122.912 114.078 122.972 113.799 122.972Z" fill="#41A3E0"/>
<path d="M120.279 122.97C119.67 122.925 119.169 122.772 118.775 122.508C118.381 122.245 118.087 121.911 117.894 121.506C117.703 121.099 117.608 120.663 117.608 120.198C117.608 119.658 117.724 119.18 117.957 118.762C118.192 118.345 118.525 118.018 118.956 117.783C119.388 117.546 119.901 117.427 120.495 117.427C120.787 117.427 121.078 117.492 121.368 117.619C121.658 117.747 121.881 117.931 122.038 118.171V114.992H123.491V122.88H122.277L122.128 122.136C121.911 122.468 121.635 122.696 121.302 122.821C120.967 122.943 120.626 122.993 120.279 122.97ZM120.573 121.698C121.04 121.698 121.411 121.556 121.685 121.271C121.96 120.984 122.097 120.631 122.097 120.21C122.097 119.79 121.962 119.434 121.693 119.142C121.427 118.847 121.053 118.699 120.573 118.699C120.241 118.699 119.963 118.774 119.739 118.922C119.514 119.069 119.347 119.257 119.238 119.486C119.128 119.713 119.073 119.951 119.073 120.198C119.073 120.431 119.128 120.664 119.238 120.899C119.347 121.132 119.514 121.324 119.739 121.475C119.963 121.623 120.241 121.698 120.573 121.698Z" fill="#41A3E0"/>
<path d="M124.718 116.73V114.992H126.163V116.73H124.718ZM124.718 122.88V117.517H126.163V122.88H124.718Z" fill="#41A3E0"/>
<path d="M130.094 122.963C129.53 122.963 129.025 122.845 128.578 122.611C128.132 122.374 127.78 122.046 127.525 121.628C127.268 121.211 127.141 120.728 127.141 120.18C127.141 119.632 127.268 119.152 127.525 118.739C127.78 118.324 128.132 117.999 128.578 117.764C129.025 117.528 129.53 117.408 130.094 117.408C130.658 117.408 131.159 117.528 131.598 117.764C132.039 117.999 132.386 118.324 132.64 118.739C132.895 119.152 133.024 119.632 133.024 120.18C133.024 120.728 132.895 121.211 132.64 121.628C132.386 122.046 132.039 122.374 131.598 122.611C131.159 122.845 130.658 122.963 130.094 122.963ZM130.094 121.714C130.514 121.714 130.862 121.569 131.136 121.28C131.41 120.99 131.547 120.624 131.547 120.18C131.547 119.736 131.41 119.372 131.136 119.088C130.862 118.804 130.514 118.661 130.094 118.661C129.665 118.661 129.315 118.804 129.041 119.088C128.766 119.372 128.629 119.736 128.629 120.18C128.629 120.624 128.766 120.99 129.041 121.28C129.315 121.569 129.665 121.714 130.094 121.714Z" fill="#41A3E0"/>
</svg>
