<svg width="72" height="66" viewBox="0 0 72 66" fill="none" xmlns="http://www.w3.org/2000/svg">
<mask id="mask0_1297_15319" style="mask-type:luminance" maskUnits="userSpaceOnUse" x="0" y="0" width="72" height="66">
<path d="M0 0.210938H71.5652V65.384H0V0.210938Z" fill="white"/>
</mask>
<g mask="url(#mask0_1297_15319)">
<path d="M67.2905 26.2773C65.5214 26.2773 63.9387 25.1866 63.3075 23.541C63.1258 23.0626 62.9298 22.5891 62.7146 22.1203C61.9878 20.5082 62.3225 18.6186 63.5801 17.3653H63.5849C65.2488 15.7053 65.2488 13.0169 63.5849 11.3617L60.3525 8.14709C59.5206 7.31951 58.4304 6.90333 57.3402 6.90333H51.2772C50.1822 6.90333 49.092 7.31951 48.26 8.14709H48.2553C48.1788 8.22841 48.0975 8.30495 48.0114 8.3767C46.4144 7.72134 45.3672 6.18099 45.3672 4.45407C45.3672 2.11006 43.4546 0.210938 41.1021 0.210938H36.5357C36.2775 0.210938 36.0289 0.234856 35.785 0.273126C35.5412 0.234856 35.2925 0.210938 35.0391 0.210938H30.4728C28.1155 0.210938 26.2076 2.11006 26.2076 4.45407C26.2076 6.1762 25.1557 7.72134 23.5587 8.3767C23.4774 8.30495 23.3961 8.22841 23.3148 8.14709C22.478 7.31951 21.3878 6.90333 20.2977 6.90333H14.2347C13.1445 6.90333 12.0495 7.31951 11.2175 8.14709L7.99 11.3617C6.32124 13.0169 6.32124 15.7053 7.99 17.3653C9.24754 18.6186 9.58703 20.5082 8.85545 22.1203C8.64507 22.5891 8.44424 23.0626 8.26254 23.541C7.63138 25.1866 6.0487 26.2773 4.27953 26.2773C1.92224 26.2773 0.0144043 28.1812 0.0144043 30.5252V35.0697C0.0144043 37.4137 1.92224 39.3129 4.27953 39.3129C6.0487 39.3129 7.63138 40.4035 8.26254 42.0491C8.44424 42.5323 8.64507 43.0059 8.85545 43.4699C9.58703 45.082 9.24754 46.9763 7.99 48.2249V48.2297C6.32603 49.8848 6.32603 52.5732 7.99 54.2332L11.2175 57.4478C12.0495 58.2754 13.1445 58.6916 14.2347 58.6916H20.2977C21.3878 58.6916 22.478 58.2754 23.3148 57.4478V57.4431C23.3961 57.3665 23.4774 57.29 23.5587 57.2182C25.1557 57.8688 26.2076 59.4139 26.2076 61.1408C26.2076 63.4849 28.1155 65.384 30.4728 65.384H35.0391C35.2925 65.384 35.5412 65.3601 35.785 65.317C36.0289 65.3601 36.2775 65.384 36.5357 65.384H41.1021C43.4546 65.384 45.3672 63.4849 45.3672 61.1408C45.3672 59.4139 46.4144 57.8736 48.0114 57.2182C48.0975 57.29 48.1788 57.3665 48.26 57.4431V57.4478C49.092 58.2754 50.1822 58.6916 51.2772 58.6916H57.3402C58.4304 58.6916 59.5206 58.2754 60.3525 57.4478L63.5849 54.2332C65.2488 52.5732 65.2488 49.8848 63.5849 48.2297L63.5801 48.2249C62.3225 46.9763 61.9878 45.082 62.7146 43.4699C62.9298 43.0059 63.1258 42.5323 63.3075 42.0491C63.9387 40.4035 65.5214 39.3129 67.2953 39.3129C69.6478 39.3129 71.5604 37.4137 71.5604 35.0697V30.5252C71.5557 28.1812 69.6478 26.2773 67.2905 26.2773Z" fill="#5FAA46"/>
</g>
<mask id="mask1_1297_15319" style="mask-type:luminance" maskUnits="userSpaceOnUse" x="0" y="0" width="67" height="66">
<path d="M0 0.210938H66.6689V65.384H0V0.210938Z" fill="white"/>
</mask>
<g mask="url(#mask1_1297_15319)">
<path d="M65.4927 35.0697V30.5252C65.4927 28.1812 63.5849 26.2773 61.2276 26.2773C59.4584 26.2773 57.8757 25.1866 57.2445 23.541C57.0628 23.0626 56.8668 22.5891 56.6516 22.1203C55.9248 20.5082 56.2595 18.6186 57.5171 17.3653H57.5219C59.1858 15.7053 59.1858 13.0169 57.5219 11.3617L54.2896 8.14709C52.6256 6.48714 49.924 6.48714 48.26 8.14709H48.2553C47.0025 9.40041 45.0995 9.73527 43.4785 9.00815C43.0099 8.79767 42.5366 8.60154 42.0536 8.41976C40.3992 7.79309 39.3042 6.21447 39.3042 4.45407C39.3042 2.11006 37.3916 0.210938 35.0391 0.210938H30.4728C28.1155 0.210938 26.2076 2.11006 26.2076 4.45407C26.2076 6.21447 25.1127 7.79309 23.4583 8.41976C22.9753 8.60154 22.4972 8.79767 22.0286 9.00815C20.4076 9.73527 18.5094 9.40041 17.2518 8.14709C15.5831 6.48714 12.8815 6.48714 11.2175 8.14709L7.99 11.3617C6.32603 13.0169 6.32603 15.7053 7.99 17.3653C9.24754 18.6186 9.58703 20.5082 8.85545 22.1203C8.64507 22.5891 8.44424 23.0626 8.26254 23.541C7.63138 25.1866 6.0487 26.2773 4.27953 26.2773C1.92224 26.2773 0.0144043 28.1812 0.0144043 30.5252V35.0697C0.0144043 37.4137 1.92224 39.3129 4.27953 39.3129C6.0487 39.3129 7.63138 40.4035 8.26254 42.0491C8.44424 42.5323 8.64507 43.0059 8.85545 43.4699C9.58703 45.082 9.24754 46.9763 7.99 48.2249V48.2297C6.32603 49.8848 6.32603 52.5732 7.99 54.2332L11.2175 57.4478C12.8815 59.103 15.5831 59.103 17.2518 57.4478V57.4431C18.5094 56.1945 20.4076 55.8549 22.0286 56.582C22.4972 56.7925 22.9753 56.9886 23.4583 57.1752C25.1127 57.8018 26.2076 59.3757 26.2076 61.1408C26.2076 63.4849 28.1155 65.384 30.4728 65.384H35.0391C37.3916 65.384 39.3042 63.4849 39.3042 61.1408C39.3042 59.3757 40.3992 57.8018 42.0536 57.1752C42.5366 56.9886 43.0099 56.7925 43.4785 56.582C45.0995 55.8549 47.0025 56.1945 48.2553 57.4431L48.26 57.4478C49.924 59.103 52.6256 59.103 54.2896 57.4478L57.5219 54.2332C59.1858 52.5732 59.1858 49.8848 57.5219 48.2297L57.5171 48.2249C56.2595 46.9763 55.9248 45.082 56.6516 43.4699C56.8668 43.0059 57.0628 42.5323 57.2445 42.0491C57.8757 40.4035 59.4584 39.3129 61.2276 39.3129C63.5849 39.3129 65.4927 37.4137 65.4927 35.0697Z" fill="#91C83C"/>
</g>
<path d="M32.7535 54.5194C20.7184 54.5194 10.9258 44.775 10.9258 32.7966C10.9258 31.462 12.0112 30.3809 13.3548 30.3809C14.6936 30.3809 15.779 31.462 15.779 32.7966C15.779 42.1105 23.396 49.6926 32.7535 49.6926C37.2911 49.6926 41.5515 47.937 44.7599 44.7415C45.7066 43.7991 47.2415 43.7991 48.1882 44.7415C49.135 45.6887 49.135 47.2147 48.1882 48.1571C44.0666 52.2615 38.5869 54.5194 32.7535 54.5194Z" fill="#64AFE1"/>
<path d="M52.1569 35.2088C50.8181 35.2088 49.7327 34.1277 49.7327 32.7979C49.7327 23.4792 42.1157 15.9018 32.7535 15.9018C28.2206 15.9018 23.9555 17.6575 20.7518 20.8482C19.8051 21.7906 18.2654 21.7906 17.3187 20.8482C16.372 19.9058 16.372 18.3798 17.3187 17.4326C21.4452 13.333 26.9248 11.0703 32.7535 11.0703C44.7886 11.0703 54.5812 20.8195 54.5812 32.7979C54.5812 34.1277 53.4958 35.2088 52.1569 35.2088Z" fill="#64AFE1"/>
<path d="M49.7327 32.7964C49.7327 33.9062 49.6227 35.0017 49.4028 36.0924C49.1876 37.1783 48.8672 38.2355 48.4369 39.264C48.0113 40.2877 47.4902 41.2588 46.8686 42.182C46.2517 43.1053 45.5489 43.9568 44.7599 44.7413C43.971 45.5258 43.1151 46.229 42.1874 46.8461C41.2598 47.4632 40.2796 47.9798 39.2516 48.4056C38.2236 48.8313 37.1621 49.1518 36.0671 49.3671C34.9721 49.5824 33.8676 49.6924 32.7535 49.6924C31.6394 49.6924 30.5349 49.5824 29.4447 49.3671C28.3497 49.1518 27.2882 48.8313 26.2602 48.4056C25.2274 47.9798 24.2519 47.4632 23.3243 46.8461C22.3967 46.229 21.5408 45.5258 20.7518 44.7413C19.9629 43.9568 19.26 43.1053 18.6384 42.182C18.0216 41.2588 17.4956 40.2877 17.0701 39.264C16.6445 38.2355 16.3194 37.1783 16.1042 36.0924C15.889 35.0017 15.7791 33.9062 15.7791 32.7964C15.7791 31.6866 15.889 30.5863 16.1042 29.5004C16.3194 28.4098 16.6445 27.3526 17.0701 26.3288C17.4956 25.3051 18.0216 24.3293 18.6384 23.406C19.26 22.4875 19.9629 21.6313 20.7518 20.8467C21.5408 20.0622 22.3967 19.3638 23.3243 18.7467C24.2519 18.1296 25.2274 17.6082 26.2602 17.1824C27.2882 16.7615 28.3497 16.4409 29.4447 16.2209C30.5349 16.0056 31.6394 15.9004 32.7535 15.9004C33.8676 15.9004 34.9721 16.0056 36.0671 16.2209C37.1621 16.4409 38.2236 16.7615 39.2516 17.1824C40.2796 17.6082 41.2598 18.1296 42.1874 18.7467C43.1151 19.3638 43.971 20.0622 44.7599 20.8467C45.5489 21.6313 46.2517 22.4875 46.8686 23.406C47.4902 24.3293 48.0113 25.3051 48.4369 26.3288C48.8672 27.3526 49.1876 28.4098 49.4028 29.5004C49.6227 30.5863 49.7327 31.6866 49.7327 32.7964Z" fill="#FFD205"/>
<path d="M44.8794 32.7978C44.8794 33.5871 44.8029 34.3764 44.6451 35.1514C44.4921 35.9263 44.2625 36.6821 43.9565 37.414C43.6505 38.1459 43.2776 38.8444 42.8377 39.5045C42.393 40.1599 41.8909 40.7722 41.3267 41.3319C40.7672 41.8916 40.1552 42.3939 39.4906 42.834C38.8307 43.2741 38.1326 43.6424 37.3963 43.9486C36.6599 44.2499 35.8997 44.4796 35.1203 44.6326C34.3409 44.7905 33.5519 44.867 32.7534 44.867C31.9597 44.867 31.1707 44.7905 30.3865 44.6326C29.6072 44.4796 28.8517 44.2499 28.1153 43.9486C27.379 43.6424 26.6809 43.2741 26.0162 42.834C25.3564 42.3939 24.7443 41.8916 24.1801 41.3319C23.6159 40.7722 23.1138 40.1599 22.6739 39.5045C22.2293 38.8444 21.8563 38.1459 21.5503 37.414C21.249 36.6821 21.0147 35.9263 20.8617 35.1514C20.7039 34.3764 20.6274 33.5871 20.6274 32.7978C20.6274 32.0037 20.7039 31.2192 20.8617 30.4442C21.0147 29.6645 21.249 28.9086 21.5503 28.1767C21.8563 27.4448 22.2293 26.7512 22.6739 26.091C23.1138 25.4309 23.6159 24.8234 24.1801 24.2637C24.7443 23.704 25.3564 23.2017 26.0162 22.7616C26.6809 22.3215 27.379 21.9484 28.1153 21.647C28.8517 21.3408 29.6072 21.116 30.3865 20.9581C31.1707 20.8051 31.9597 20.7285 32.7534 20.7285C33.5519 20.7285 34.3409 20.8051 35.1203 20.9581C35.8997 21.116 36.6599 21.3408 37.3963 21.647C38.1326 21.9484 38.8307 22.3215 39.4906 22.7616C40.1552 23.2017 40.7672 23.704 41.3267 24.2637C41.8909 24.8234 42.393 25.4309 42.8377 26.091C43.2776 26.7512 43.6505 27.4448 43.9565 28.1767C44.2625 28.9086 44.4921 29.6645 44.6451 30.4442C44.8029 31.2192 44.8794 32.0037 44.8794 32.7978Z" fill="#FAA019"/>
<path d="M34.5752 31.5867H30.9364C29.9323 31.5867 29.1147 30.7782 29.1147 29.7784C29.1147 28.7786 29.9323 27.9702 30.9364 27.9702H34.5752C35.5745 27.9702 36.3922 28.7786 36.3922 29.7784C36.3922 30.4434 36.9373 30.9839 37.6067 30.9839C38.2761 30.9839 38.8164 30.4434 38.8164 29.7784C38.8164 27.4488 36.9133 25.5544 34.5752 25.5544H33.9679V24.3489C33.9679 23.6792 33.4228 23.1387 32.7534 23.1387C32.084 23.1387 31.5437 23.6792 31.5437 24.3489V25.5544H30.9364C28.5935 25.5544 26.6904 27.4488 26.6904 29.7784C26.6904 32.1081 28.5935 34.0024 30.9364 34.0024H34.5752C35.5745 34.0024 36.3922 34.8157 36.3922 35.8155C36.3922 36.8105 35.5745 37.6237 34.5752 37.6237H30.9364C29.9323 37.6237 29.1147 36.8105 29.1147 35.8155C29.1147 35.1457 28.5744 34.6052 27.9049 34.6052C27.2355 34.6052 26.6904 35.1457 26.6904 35.8155C26.6904 38.1403 28.5935 40.0395 30.9364 40.0395H31.5437V41.245C31.5437 41.9099 32.084 42.4504 32.7534 42.4504C33.4228 42.4504 33.9679 41.9099 33.9679 41.245V40.0395H34.5752C36.9133 40.0395 38.8164 38.1403 38.8164 35.8155C38.8164 33.4858 36.9133 31.5867 34.5752 31.5867Z" fill="#FFD205"/>
<path d="M58.0287 31.8542C57.6461 30.9645 56.7663 30.3809 55.7957 30.3809H48.7286C47.7531 30.3809 46.8733 30.9597 46.4956 31.8542C46.1179 32.7488 46.3091 33.7821 46.9881 34.4757L50.5217 38.097C50.9807 38.5658 51.6071 38.8289 52.2621 38.8289C52.9172 38.8289 53.5436 38.5658 54.0026 38.097L57.5362 34.4757C58.2104 33.7821 58.4064 32.7488 58.0287 31.8542Z" fill="#4182C3"/>
<path d="M18.5189 31.1129L14.9853 27.4917C14.5311 27.0277 13.9047 26.7598 13.2496 26.7598C12.5898 26.7598 11.9634 27.0277 11.5091 27.4917L7.97558 31.1129C7.2966 31.8113 7.10056 32.8446 7.48308 33.7344C7.86082 34.6289 8.74062 35.2078 9.71605 35.2078H16.7784C17.7538 35.2078 18.6336 34.6289 19.0113 33.7344C19.3939 32.8446 19.1978 31.8113 18.5189 31.1129Z" fill="#4182C3"/>
</svg>
