<svg width="908" height="887" viewBox="0 0 908 887" fill="none" xmlns="http://www.w3.org/2000/svg">
<mask id="mask0_1063_4642" style="mask-type:luminance" maskUnits="userSpaceOnUse" x="126" y="126" width="635" height="635">
<path d="M126.505 126.547H760.214V760.456H126.505V126.547Z" fill="white"/>
</mask>
<g mask="url(#mask0_1063_4642)">
<mask id="mask1_1063_4642" style="mask-type:luminance" maskUnits="userSpaceOnUse" x="0" y="-1" width="887" height="888">
<path d="M0 386.834L500.003 -0.00390625L886.719 500.158L386.72 886.996L0 386.834Z" fill="white"/>
</mask>
<g mask="url(#mask1_1063_4642)">
<mask id="mask2_1063_4642" style="mask-type:luminance" maskUnits="userSpaceOnUse" x="127" y="127" width="633" height="633">
<path d="M250.004 193.418C111.93 300.242 86.5705 498.8 193.36 636.918C300.15 775.032 498.65 800.399 636.719 693.58C774.794 586.757 800.153 388.193 693.363 250.08C586.574 111.962 388.073 86.5948 250.004 193.418Z" fill="white"/>
</mask>
<g mask="url(#mask2_1063_4642)">
<path d="M0 386.834L500.003 -0.00390625L886.719 500.158L386.72 886.996L0 386.834Z" fill="#42A3E0"/>
</g>
</g>
</g>
<mask id="mask3_1063_4642" style="mask-type:luminance" maskUnits="userSpaceOnUse" x="156" y="144" width="528" height="529">
<path d="M156.062 144.285H683.365V672.937H156.062V144.285Z" fill="white"/>
</mask>
<g mask="url(#mask3_1063_4642)">
<mask id="mask4_1063_4642" style="mask-type:luminance" maskUnits="userSpaceOnUse" x="50" y="38" width="740" height="741">
<path d="M50.3444 361.368L467.07 38.957L789.383 455.819L372.653 778.23L50.3444 361.368Z" fill="white"/>
</mask>
<g mask="url(#mask4_1063_4642)">
<mask id="mask5_1063_4642" style="mask-type:luminance" maskUnits="userSpaceOnUse" x="156" y="145" width="528" height="528">
<path d="M258.709 200.165C143.63 289.198 122.496 454.688 211.496 569.799C300.501 684.915 465.943 706.056 581.018 617.023C696.093 527.995 717.231 362.5 628.226 247.389C539.222 132.277 373.784 111.133 258.709 200.165Z" fill="white"/>
</mask>
<g mask="url(#mask5_1063_4642)">
<path d="M50.3444 361.368L467.07 38.957L789.383 455.819L372.653 778.23L50.3444 361.368Z" fill="#D0D9DE"/>
</g>
</g>
</g>
<mask id="mask6_1063_4642" style="mask-type:luminance" maskUnits="userSpaceOnUse" x="179" y="170" width="434" height="432">
<path d="M179.708 170.305H612.427V601.978H179.708V170.305Z" fill="white"/>
</mask>
<g mask="url(#mask6_1063_4642)">
<mask id="mask7_1063_4642" style="mask-type:luminance" maskUnits="userSpaceOnUse" x="93" y="83" width="606" height="606">
<path d="M93.9738 347.509L434.802 83.8203L698.407 424.752L357.579 688.445L93.9738 347.509Z" fill="white"/>
</mask>
<g mask="url(#mask7_1063_4642)">
<mask id="mask8_1063_4642" style="mask-type:luminance" maskUnits="userSpaceOnUse" x="180" y="170" width="432" height="432">
<path d="M264.385 215.666C170.269 288.478 152.982 423.829 225.776 517.976C298.57 612.122 433.878 629.414 527.995 556.602C622.112 483.784 639.398 348.434 566.604 254.287C493.81 160.14 358.502 142.848 264.385 215.666Z" fill="white"/>
</mask>
<g mask="url(#mask8_1063_4642)">
<path d="M93.9738 347.509L434.802 83.8203L698.407 424.752L357.579 688.445L93.9738 347.509Z" fill="#B5C3C6"/>
</g>
</g>
</g>
<mask id="mask9_1063_4642" style="mask-type:luminance" maskUnits="userSpaceOnUse" x="210" y="186" width="336" height="336">
<path d="M210.448 186.859H545.036V521.554H210.448V186.859Z" fill="white"/>
</mask>
<g mask="url(#mask9_1063_4642)">
<mask id="mask10_1063_4642" style="mask-type:luminance" maskUnits="userSpaceOnUse" x="143" y="119" width="470" height="470">
<path d="M143.491 324.426L407.78 119.949L612.187 384.326L347.898 588.798L143.491 324.426Z" fill="white"/>
</mask>
<g mask="url(#mask10_1063_4642)">
<mask id="mask11_1063_4642" style="mask-type:luminance" maskUnits="userSpaceOnUse" x="210" y="187" width="335" height="335">
<path d="M275.635 222.191C202.652 278.654 189.25 383.607 245.695 456.613C302.14 529.615 407.064 543.027 480.043 486.564C553.026 430.1 566.428 325.143 509.983 252.137C453.538 179.135 348.614 165.724 275.635 222.191Z" fill="white"/>
</mask>
<g mask="url(#mask11_1063_4642)">
<path d="M143.491 324.426L407.78 119.949L612.187 384.326L347.898 588.798L143.491 324.426Z" fill="#92A3A6"/>
</g>
</g>
</g>
<mask id="mask12_1063_4642" style="mask-type:luminance" maskUnits="userSpaceOnUse" x="230" y="205" width="255" height="256">
<path d="M230.547 205.785H484.74V460.059H230.547V205.785Z" fill="white"/>
</mask>
<g mask="url(#mask12_1063_4642)">
<mask id="mask13_1063_4642" style="mask-type:luminance" maskUnits="userSpaceOnUse" x="180" y="155" width="356" height="356">
<path d="M180.276 310.489L381.054 155.148L535.735 355.209L334.958 510.544L180.276 310.489Z" fill="white"/>
</mask>
<g mask="url(#mask13_1063_4642)">
<mask id="mask14_1063_4642" style="mask-type:luminance" maskUnits="userSpaceOnUse" x="231" y="206" width="254" height="254">
<path d="M280.499 232.947C225.148 275.772 214.9 355.274 257.615 410.518C300.33 465.761 379.83 475.832 435.18 433.007C490.536 390.181 500.779 310.679 458.064 255.436C415.349 200.192 335.849 190.121 280.499 232.947Z" fill="white"/>
</mask>
<g mask="url(#mask14_1063_4642)">
<path d="M180.276 310.489L381.054 155.148L535.735 355.209L334.958 510.544L180.276 310.489Z" fill="#F1F1F1"/>
</g>
</g>
</g>
<mask id="mask15_1063_4642" style="mask-type:luminance" maskUnits="userSpaceOnUse" x="231" y="206" width="255" height="254">
<path d="M231.304 206.148H485.136V459.855H231.304V206.148Z" fill="white"/>
</mask>
<g mask="url(#mask15_1063_4642)">
<mask id="mask16_1063_4642" style="mask-type:luminance" maskUnits="userSpaceOnUse" x="180" y="155" width="357" height="356">
<path d="M180.582 310.516L381.443 155.242L536.191 355.222L335.33 510.497L180.582 310.516Z" fill="white"/>
</mask>
<g mask="url(#mask16_1063_4642)">
<mask id="mask17_1063_4642" style="mask-type:luminance" maskUnits="userSpaceOnUse" x="231" y="206" width="254" height="254">
<path d="M280.849 233.002C225.473 275.811 215.225 355.279 257.957 410.502C300.689 465.727 380.221 475.79 435.595 432.983C490.971 390.176 501.219 310.706 458.487 255.483C415.755 200.26 336.223 190.195 280.849 233.002Z" fill="white"/>
</mask>
<g mask="url(#mask17_1063_4642)">
<path d="M180.582 310.512L381.443 155.238L536.191 355.218L335.33 510.493L180.582 310.512Z" fill="white"/>
</g>
</g>
</g>
<mask id="mask18_1063_4642" style="mask-type:luminance" maskUnits="userSpaceOnUse" x="273" y="369" width="170" height="86">
<path d="M273.451 369.922H442.989V454.663H273.451V369.922Z" fill="white"/>
</mask>
<g mask="url(#mask18_1063_4642)">
<path d="M442.704 420.827C441.302 422.174 439.868 423.487 438.403 424.767C436.938 426.046 435.443 427.289 433.919 428.496C432.394 429.703 430.841 430.874 429.261 432.007C427.681 433.141 426.073 434.235 424.44 435.291C422.807 436.347 421.149 437.364 419.467 438.34C417.786 439.318 416.082 440.254 414.356 441.148C412.629 442.043 410.882 442.898 409.116 443.709C407.347 444.521 405.562 445.29 403.758 446.017C401.953 446.743 400.133 447.426 398.296 448.065C396.459 448.703 394.607 449.299 392.742 449.85C390.876 450.401 388.998 450.905 387.109 451.368C385.219 451.828 383.321 452.242 381.41 452.614C379.501 452.984 377.584 453.307 375.659 453.585C373.733 453.864 371.804 454.095 369.867 454.282C367.93 454.467 365.991 454.607 364.049 454.699C362.105 454.792 360.161 454.838 358.216 454.838C356.27 454.838 354.328 454.792 352.384 454.699C350.441 454.607 348.503 454.467 346.566 454.282C344.629 454.095 342.7 453.864 340.774 453.585C338.848 453.307 336.932 452.984 335.023 452.614C333.112 452.242 331.212 451.828 329.323 451.368C327.433 450.905 325.555 450.401 323.69 449.85C321.826 449.299 319.974 448.703 318.137 448.065C316.3 447.426 314.48 446.743 312.674 446.017C310.871 445.29 309.086 444.521 307.317 443.709C305.55 442.898 303.802 442.043 302.076 441.148C300.35 440.254 298.647 439.318 296.963 438.34C295.282 437.364 293.624 436.347 291.993 435.291C290.359 434.235 288.752 433.141 287.172 432.007C285.59 430.874 284.038 429.703 282.514 428.496C280.99 427.289 279.495 426.046 278.03 424.767C276.565 423.487 275.131 422.174 273.729 420.827L300.75 393.819C304.822 389.746 309.274 386.144 314.108 383.015C340.863 365.698 375.57 365.698 402.325 383.015C407.158 386.144 411.611 389.746 415.683 393.819L442.704 420.827Z" fill="#00537D"/>
</g>
<mask id="mask19_1063_4642" style="mask-type:luminance" maskUnits="userSpaceOnUse" x="273" y="211" width="170" height="86">
<path d="M273.451 211.152H442.989V296.079H273.451V211.152Z" fill="white"/>
</mask>
<g mask="url(#mask19_1063_4642)">
<path d="M442.704 245.166L415.683 272.174C411.611 276.247 407.158 279.849 402.325 282.977C375.57 300.294 340.863 300.294 314.108 282.977C309.274 279.849 304.822 276.247 300.75 272.174L273.729 245.166C275.131 243.818 276.565 242.505 278.03 241.226C279.495 239.946 280.99 238.704 282.514 237.496C284.038 236.289 285.59 235.119 287.172 233.985C288.752 232.852 290.359 231.757 291.993 230.701C293.624 229.646 295.282 228.629 296.963 227.652C298.647 226.674 300.35 225.739 302.076 224.844C303.802 223.949 305.55 223.095 307.317 222.283C309.086 221.471 310.871 220.702 312.674 219.976C314.48 219.249 316.3 218.567 318.137 217.927C319.974 217.287 321.826 216.694 323.69 216.143C325.555 215.592 327.433 215.087 329.323 214.625C331.212 214.164 333.112 213.748 335.023 213.378C336.932 213.009 338.848 212.685 340.774 212.408C342.7 212.129 344.629 211.897 346.566 211.711C348.503 211.526 350.441 211.385 352.384 211.293C354.328 211.2 356.27 211.152 358.216 211.152C360.161 211.152 362.105 211.2 364.049 211.293C365.991 211.385 367.93 211.526 369.867 211.711C371.804 211.897 373.733 212.129 375.659 212.408C377.584 212.685 379.501 213.009 381.41 213.378C383.321 213.748 385.219 214.164 387.109 214.625C388.998 215.087 390.876 215.592 392.742 216.143C394.607 216.694 396.459 217.287 398.296 217.927C400.133 218.567 401.953 219.249 403.758 219.976C405.562 220.702 407.347 221.471 409.116 222.283C410.882 223.095 412.629 223.949 414.356 224.844C416.082 225.739 417.786 226.674 419.467 227.652C421.149 228.629 422.807 229.646 424.44 230.701C426.073 231.757 427.681 232.852 429.261 233.985C430.841 235.119 432.394 236.289 433.919 237.496C435.443 238.704 436.938 239.946 438.403 241.226C439.868 242.505 441.302 243.818 442.704 245.166Z" fill="#B1BFC2"/>
</g>
<mask id="mask20_1063_4642" style="mask-type:luminance" maskUnits="userSpaceOnUse" x="395" y="248" width="85" height="170">
<path d="M395.158 248.273H479.942V417.727H395.158V248.273Z" fill="white"/>
</mask>
<g mask="url(#mask20_1063_4642)">
<path d="M480.117 332.996C480.123 336.887 479.942 340.769 479.574 344.643C479.205 348.517 478.652 352.364 477.914 356.186C477.176 360.006 476.257 363.782 475.154 367.515C474.054 371.246 472.775 374.918 471.321 378.527C469.867 382.136 468.241 385.668 466.449 389.122C464.654 392.574 462.699 395.933 460.581 399.198C458.463 402.465 456.195 405.622 453.773 408.669C451.354 411.716 448.792 414.641 446.089 417.442L419.068 390.434C414.993 386.365 411.389 381.914 408.259 377.083C390.933 350.341 390.933 315.651 408.259 288.91C411.389 284.079 414.993 279.628 419.068 275.559L446.089 248.551C448.792 251.352 451.354 254.277 453.773 257.324C456.195 260.371 458.463 263.527 460.581 266.793C462.699 270.06 464.654 273.417 466.449 276.871C468.241 280.325 469.867 283.857 471.321 287.466C472.775 291.075 474.054 294.745 475.154 298.478C476.257 302.211 477.176 305.987 477.914 309.807C478.652 313.629 479.205 317.474 479.574 321.35C479.942 325.223 480.123 329.104 480.117 332.996Z" fill="#B1BFC2"/>
</g>
<mask id="mask21_1063_4642" style="mask-type:luminance" maskUnits="userSpaceOnUse" x="236" y="248" width="86" height="170">
<path d="M236.313 248.273H321.282V417.727H236.313V248.273Z" fill="white"/>
</mask>
<g mask="url(#mask21_1063_4642)">
<path d="M308.174 377.083C305.044 381.914 301.44 386.365 297.365 390.434L270.344 417.442C268.995 416.041 267.682 414.608 266.402 413.143C265.121 411.679 263.878 410.185 262.67 408.661C261.462 407.138 260.291 405.585 259.157 404.006C258.023 402.427 256.928 400.82 255.872 399.187C254.816 397.555 253.798 395.9 252.822 394.217C251.843 392.537 250.907 390.834 250.012 389.109C249.116 387.382 248.262 385.636 247.45 383.871C246.637 382.103 245.868 380.319 245.141 378.516C244.414 376.711 243.731 374.892 243.091 373.056C242.451 371.22 241.857 369.369 241.306 367.505C240.755 365.64 240.25 363.763 239.787 361.875C239.327 359.986 238.911 358.089 238.541 356.179C238.171 354.271 237.847 352.355 237.569 350.43C237.29 348.505 237.059 346.577 236.872 344.641C236.687 342.705 236.546 340.768 236.454 338.826C236.361 336.883 236.313 334.94 236.313 332.996C236.313 331.051 236.361 329.11 236.454 327.167C236.546 325.225 236.687 323.288 236.872 321.352C237.059 319.416 237.29 317.487 237.569 315.563C237.847 313.638 238.171 311.722 238.541 309.814C238.911 307.904 239.327 306.005 239.787 304.118C240.25 302.228 240.755 300.351 241.306 298.487C241.857 296.624 242.451 294.773 243.091 292.937C243.731 291.101 244.414 289.281 245.141 287.477C245.868 285.674 246.637 283.89 247.45 282.122C248.262 280.357 249.116 278.609 250.012 276.884C250.907 275.159 251.843 273.456 252.822 271.774C253.798 270.093 254.816 268.436 255.872 266.806C256.928 265.173 258.023 263.566 259.157 261.987C260.291 260.406 261.462 258.855 262.67 257.331C263.878 255.808 265.121 254.314 266.402 252.85C267.682 251.385 268.995 249.952 270.344 248.551L297.365 275.559C301.44 279.628 305.044 284.079 308.174 288.91C325.499 315.651 325.499 350.341 308.174 377.083Z" fill="#B1BFC2"/>
</g>
<mask id="mask22_1063_4642" style="mask-type:luminance" maskUnits="userSpaceOnUse" x="140" y="120" width="437" height="426">
<path d="M576.44 120H140V546H576.44V120Z" fill="black" fill-opacity="0.5"/>
</mask>
<g mask="url(#mask22_1063_4642)">
<mask id="mask23_1063_4642" style="mask-type:luminance" maskUnits="userSpaceOnUse" x="290" y="265" width="136" height="136">
<path d="M425.467 265.793H290.973V400.22H425.467V265.793Z" fill="white"/>
</mask>
<g mask="url(#mask23_1063_4642)">
<path d="M308.173 377.09C307.509 376.337 306.862 375.57 306.233 374.786C305.604 374.004 304.992 373.209 304.4 372.399C303.806 371.589 303.231 370.767 302.676 369.931C302.119 369.095 301.582 368.248 301.064 367.389C300.546 366.529 300.047 365.656 299.57 364.774C299.091 363.892 298.632 362.999 298.193 362.097C297.757 361.193 297.339 360.281 296.941 359.358C296.545 358.436 296.168 357.506 295.814 356.567C295.459 355.629 295.124 354.682 294.814 353.728C294.501 352.774 294.211 351.813 293.942 350.846C293.672 349.879 293.426 348.906 293.201 347.928C292.977 346.95 292.773 345.968 292.594 344.981C292.413 343.994 292.255 343.003 292.12 342.008C291.983 341.013 291.871 340.017 291.78 339.016C291.689 338.016 291.623 337.016 291.576 336.014C291.532 335.01 291.508 334.007 291.508 333.003C291.508 331.999 291.532 330.997 291.576 329.993C291.623 328.991 291.689 327.991 291.78 326.991C291.871 325.99 291.983 324.994 292.12 323.999C292.255 323.004 292.413 322.013 292.594 321.026C292.773 320.039 292.977 319.057 293.201 318.079C293.426 317.101 293.672 316.128 293.942 315.161C294.211 314.194 294.501 313.233 294.814 312.278C295.124 311.324 295.459 310.378 295.814 309.44C296.168 308.501 296.545 307.569 296.941 306.648C297.339 305.726 297.757 304.814 298.193 303.91C298.632 303.008 299.091 302.115 299.57 301.233C300.047 300.351 300.546 299.478 301.064 298.618C301.582 297.759 302.119 296.912 302.676 296.076C303.231 295.24 303.806 294.418 304.4 293.608C304.992 292.798 305.604 292.001 306.233 291.219C306.862 290.437 307.509 289.669 308.173 288.917C325.499 315.658 325.499 350.348 308.173 377.09ZM314.108 383.021C314.861 383.685 315.628 384.332 316.411 384.961C317.193 385.59 317.991 386.2 318.801 386.793C319.611 387.387 320.434 387.962 321.271 388.517C322.107 389.073 322.954 389.609 323.814 390.127C324.674 390.645 325.546 391.144 326.43 391.621C327.312 392.1 328.206 392.558 329.108 392.995C330.013 393.433 330.925 393.851 331.848 394.248C332.769 394.644 333.702 395.019 334.64 395.374C335.579 395.729 336.526 396.062 337.481 396.375C338.436 396.687 339.397 396.977 340.365 397.245C341.332 397.514 342.305 397.761 343.284 397.985C344.263 398.211 345.245 398.412 346.233 398.593C347.221 398.773 348.212 398.932 349.207 399.067C350.203 399.202 351.2 399.316 352.2 399.407C353.201 399.498 354.202 399.564 355.205 399.61C356.209 399.655 357.212 399.679 358.216 399.679C359.221 399.679 360.223 399.655 361.228 399.61C362.23 399.564 363.231 399.498 364.232 399.407C365.233 399.316 366.23 399.202 367.225 399.067C368.22 398.932 369.212 398.773 370.2 398.593C371.188 398.412 372.17 398.211 373.148 397.985C374.127 397.761 375.1 397.514 376.068 397.245C377.035 396.977 377.997 396.687 378.951 396.375C379.906 396.062 380.853 395.729 381.791 395.374C382.731 395.019 383.661 394.644 384.584 394.248C385.507 393.851 386.419 393.433 387.324 392.995C388.227 392.558 389.12 392.1 390.003 391.621C390.885 391.144 391.758 390.645 392.618 390.127C393.479 389.609 394.326 389.073 395.162 388.517C395.998 387.962 396.821 387.387 397.631 386.793C398.442 386.2 399.237 385.59 400.02 384.961C400.804 384.332 401.572 383.685 402.325 383.021C375.57 365.704 340.863 365.704 314.108 383.021ZM402.325 282.985C401.572 282.322 400.802 281.674 400.02 281.046C399.237 280.417 398.442 279.805 397.631 279.214C396.821 278.62 395.998 278.045 395.162 277.49C394.326 276.934 393.479 276.398 392.618 275.88C391.758 275.362 390.885 274.863 390.003 274.386C389.12 273.907 388.227 273.448 387.324 273.01C386.419 272.574 385.507 272.156 384.584 271.759C383.661 271.363 382.731 270.986 381.791 270.633C380.853 270.278 379.906 269.943 378.951 269.632C377.997 269.32 377.035 269.029 376.068 268.761C375.1 268.491 374.127 268.245 373.148 268.02C372.17 267.796 371.188 267.593 370.2 267.413C369.212 267.232 368.22 267.075 367.225 266.94C366.23 266.803 365.233 266.691 364.232 266.6C363.231 266.509 362.23 266.443 361.228 266.397C360.223 266.352 359.221 266.328 358.216 266.328C357.212 266.328 356.209 266.352 355.205 266.397C354.202 266.443 353.201 266.509 352.2 266.6C351.2 266.691 350.203 266.803 349.207 266.94C348.212 267.075 347.221 267.232 346.233 267.413C345.245 267.593 344.263 267.796 343.284 268.02C342.305 268.245 341.332 268.491 340.365 268.761C339.397 269.029 338.436 269.32 337.481 269.632C336.526 269.943 335.579 270.278 334.64 270.633C333.702 270.986 332.769 271.363 331.848 271.759C330.925 272.156 330.013 272.574 329.108 273.01C328.206 273.448 327.312 273.907 326.43 274.386C325.546 274.863 324.674 275.362 323.814 275.88C322.954 276.398 322.107 276.934 321.271 277.49C320.434 278.045 319.611 278.62 318.801 279.214C317.991 279.805 317.193 280.417 316.411 281.046C315.628 281.674 314.861 282.322 314.108 282.985C340.863 300.303 375.57 300.303 402.325 282.985ZM408.259 288.917C390.933 315.658 390.933 350.348 408.259 377.09C408.923 376.337 409.571 375.57 410.2 374.786C410.828 374.004 411.439 373.209 412.033 372.399C412.627 371.589 413.202 370.767 413.757 369.931C414.314 369.095 414.85 368.248 415.368 367.389C415.886 366.529 416.386 365.656 416.863 364.774C417.342 363.892 417.801 362.999 418.237 362.097C418.676 361.193 419.094 360.281 419.491 359.358C419.887 358.436 420.263 357.506 420.618 356.567C420.973 355.629 421.306 354.682 421.619 353.728C421.931 352.774 422.222 351.813 422.49 350.846C422.758 349.879 423.006 348.906 423.23 347.928C423.456 346.95 423.657 345.968 423.839 344.981C424.018 343.994 424.177 343.003 424.312 342.008C424.447 341.013 424.562 340.017 424.653 339.016C424.743 338.016 424.81 337.016 424.856 336.014C424.9 335.01 424.925 334.007 424.925 333.003C424.925 331.999 424.9 330.997 424.856 329.993C424.81 328.991 424.743 327.991 424.653 326.991C424.562 325.99 424.447 324.994 424.312 323.999C424.177 323.004 424.018 322.013 423.839 321.026C423.657 320.039 423.456 319.057 423.23 318.079C423.006 317.101 422.758 316.128 422.49 315.161C422.222 314.194 421.931 313.233 421.619 312.278C421.306 311.324 420.973 310.378 420.618 309.44C420.263 308.501 419.887 307.569 419.491 306.648C419.094 305.726 418.676 304.814 418.237 303.91C417.801 303.008 417.342 302.115 416.863 301.233C416.386 300.351 415.886 299.478 415.368 298.618C414.85 297.759 414.314 296.912 413.757 296.076C413.202 295.24 412.627 294.418 412.033 293.608C411.439 292.798 410.828 292.001 410.2 291.219C409.571 290.437 408.923 289.669 408.259 288.917Z" fill="#F2F2F2"/>
</g>
</g>
<mask id="mask24_1063_4642" style="mask-type:luminance" maskUnits="userSpaceOnUse" x="349" y="271" width="18" height="17">
<path d="M349.709 271.941H366.298V287.088H349.709V271.941Z" fill="white"/>
</mask>
<g mask="url(#mask24_1063_4642)">
<path d="M365.714 273.981C366.622 275.119 366.302 277.036 364.904 278.646C364.43 279.194 363.947 279.693 363.474 280.144C362.079 281.477 360.775 282.392 360.048 282.888C360.014 283.57 359.45 284.112 358.76 284.112C358.25 284.112 357.808 283.814 357.6 283.383C357.598 283.382 357.597 283.378 357.595 283.374C357.517 283.208 357.471 283.021 357.471 282.823C357.471 282.111 358.048 281.534 358.76 281.534C358.895 281.534 359.027 281.555 359.151 281.595C359.223 281.618 359.291 281.647 359.358 281.682C360.214 281.202 362.145 280 363.559 278.517C364.58 277.445 365.329 276.226 365.207 275.026C364.939 272.378 361.99 271.581 358.76 273.344C358.481 273.303 358.196 273.281 357.904 273.281C355.236 273.281 353.05 275.069 352.415 277.52C349.899 279.46 349.709 281.233 349.981 282.394C349.783 280.604 350.959 279.055 352.326 277.923C353.212 277.191 354.178 276.633 354.901 276.296C354.957 275.636 355.51 275.119 356.185 275.119C356.385 275.119 356.574 275.163 356.742 275.244C357.175 275.451 357.475 275.895 357.475 276.407C357.475 277.117 356.897 277.694 356.185 277.694C355.874 277.694 355.588 277.585 355.366 277.4C354.539 277.742 353.24 278.58 352.26 279.626C351.492 280.447 350.92 281.396 350.92 282.335C350.92 283.825 352.428 285.349 354.768 284.953C354.998 285.452 355.186 286.005 355.301 286.645C355.301 286.645 356.944 286.645 357.904 286.645C358.864 286.645 360.506 286.645 360.506 286.645C360.969 284.031 362.691 282.892 363.333 280.73C364.441 279.75 365.386 278.718 365.84 277.898C366.724 276.293 366.572 274.865 365.714 273.981ZM364.661 275.596C364.639 275.808 364.595 276.017 364.532 276.224C364.339 276.842 363.973 277.43 363.494 277.994C363.239 276.502 362.419 275.215 361.256 274.366C360.83 274.054 360.359 273.802 359.852 273.619C363.165 272.105 364.846 273.808 364.661 275.596ZM351.627 281.536V281.534C351.659 281.427 351.697 281.32 351.745 281.215C351.897 280.885 352.104 280.551 352.349 280.225C352.624 281.601 353.336 282.553 354.006 283.6C354.158 283.836 354.309 284.08 354.45 284.334C352.288 284.602 351.213 282.973 351.627 281.536Z" fill="#F2F2F2"/>
</g>
<path d="M356.842 276.404C356.842 276.767 356.548 277.061 356.185 277.061C355.823 277.061 355.528 276.767 355.528 276.404C355.528 276.04 355.823 275.746 356.185 275.746C356.548 275.746 356.842 276.04 356.842 276.404Z" fill="#B1BFC2"/>
<path d="M359.417 282.817C359.417 283.179 359.123 283.473 358.76 283.473C358.398 283.473 358.104 283.179 358.104 282.817C358.104 282.454 358.398 282.16 358.76 282.16C359.123 282.16 359.417 282.454 359.417 282.817Z" fill="#B1BFC2"/>
<path d="M363.993 273.903C363.572 273.435 362.945 273.188 362.181 273.188C361.6 273.188 360.952 273.332 360.255 273.613C360.642 273.781 361.008 273.992 361.348 274.24C361.367 274.254 361.385 274.267 361.404 274.282C362.724 273.572 364.247 274.088 364.519 275.408C364.535 274.839 364.351 274.299 363.993 273.903Z" fill="#B1BFC2"/>
<path d="M353.877 283.68C353.86 283.654 353.843 283.63 353.827 283.604C352.783 283.619 351.962 283.079 351.701 282.293C351.729 282.676 351.862 283.045 352.093 283.352C352.508 283.902 353.181 284.205 353.991 284.205C354.058 284.205 354.126 284.203 354.197 284.197C354.104 284.042 354 283.876 353.877 283.68Z" fill="#B1BFC2"/>
<path d="M360.506 287.778C360.506 288.101 360.244 288.362 359.922 288.362H355.885C355.562 288.362 355.301 288.101 355.301 287.778C355.301 287.454 355.562 287.191 355.885 287.191H359.922C360.244 287.191 360.506 287.454 360.506 287.778Z" fill="#B1BFC2"/>
<path d="M360.225 289.408C360.225 289.732 359.963 289.995 359.639 289.995H356.168C355.845 289.995 355.582 289.732 355.582 289.408C355.582 289.087 355.845 288.824 356.168 288.824H359.639C359.963 288.824 360.225 289.087 360.225 289.408Z" fill="#B1BFC2"/>
<mask id="mask25_1063_4642" style="mask-type:luminance" maskUnits="userSpaceOnUse" x="356" y="290" width="4" height="3">
<path d="M356.326 290.402H359.641V292.518H356.326V290.402Z" fill="white"/>
</mask>
<g mask="url(#mask25_1063_4642)">
<path d="M359.317 290.457H356.363V290.801C356.363 291.627 357.032 292.297 357.859 292.297C358.686 292.297 359.358 291.627 359.358 290.801V290.457H359.317Z" fill="#B1BFC2"/>
</g>
<mask id="mask26_1063_4642" style="mask-type:luminance" maskUnits="userSpaceOnUse" x="412" y="334" width="8" height="7">
<path d="M412.68 334.891H419.784V340.783H412.68V334.891Z" fill="white"/>
</mask>
<g mask="url(#mask26_1063_4642)">
<path d="M418.522 335.234L415.379 338.374L413.99 336.985L412.752 338.224L415.379 340.852L419.76 336.473L418.522 335.234Z" fill="#B1BFC2"/>
</g>
<mask id="mask27_1063_4642" style="mask-type:luminance" maskUnits="userSpaceOnUse" x="401" y="324" width="14" height="17">
<path d="M401.363 324.953H414.575V340.786H401.363V324.953Z" fill="white"/>
</mask>
<g mask="url(#mask27_1063_4642)">
<path d="M414.166 326.817C412.817 325.739 411.11 325.09 409.247 325.09C404.89 325.09 401.363 328.618 401.363 332.97C401.363 337.323 404.89 340.852 409.247 340.852V339.099C405.86 339.099 403.115 336.357 403.115 332.97C403.115 329.585 405.86 326.841 409.247 326.841C410.625 326.841 411.89 327.299 412.915 328.067L414.166 326.817Z" fill="#F2F2F2"/>
</g>
<path d="M414.155 329.305C414.921 330.329 415.379 331.595 415.379 332.971H417.131C417.131 331.111 416.484 329.403 415.405 328.055L414.155 329.305Z" fill="#F2F2F2"/>
<path d="M411.613 331.846C411.776 332.188 411.876 332.567 411.876 332.972C411.876 334.424 410.699 335.599 409.247 335.599C407.797 335.599 406.618 334.424 406.618 332.972C406.618 331.521 407.797 330.345 409.247 330.345C409.652 330.345 410.031 330.445 410.373 330.609L411.659 329.322C410.969 328.864 410.14 328.594 409.247 328.594C406.827 328.594 404.866 330.554 404.866 332.972C404.866 335.391 406.827 337.35 409.247 337.35C411.666 337.35 413.627 335.391 413.627 332.972C413.627 332.081 413.357 331.253 412.898 330.561L411.613 331.846Z" fill="#F2F2F2"/>
<mask id="mask28_1063_4642" style="mask-type:luminance" maskUnits="userSpaceOnUse" x="407" y="319" width="16" height="15">
<path d="M407.945 319.84H422.32V333.947H407.945V319.84Z" fill="white"/>
</mask>
<g mask="url(#mask28_1063_4642)">
<path d="M409.867 333.592C409.524 333.934 408.969 333.934 408.627 333.592C408.285 333.25 408.285 332.698 408.627 332.355L415.379 325.605L415.381 323.34L418.885 319.84V323.342L422.388 323.344L418.885 326.844H416.619L409.867 333.592Z" fill="#B1BFC2"/>
</g>
<mask id="mask29_1063_4642" style="mask-type:luminance" maskUnits="userSpaceOnUse" x="348" y="375" width="20" height="19">
<path d="M348.275 375.809H367.218V393.586H348.275V375.809Z" fill="white"/>
</mask>
<g mask="url(#mask29_1063_4642)">
<path d="M363.239 387.916C363.172 387.537 363.302 387.145 363.579 386.874L366.689 383.845C367.386 383.166 367.001 381.978 366.038 381.835L361.738 381.212C361.354 381.157 361.024 380.918 360.854 380.567L358.934 376.677C358.503 375.806 357.253 375.806 356.822 376.677L354.901 380.567C354.731 380.913 354.396 381.157 354.017 381.212L349.718 381.835C348.754 381.978 348.364 383.161 349.067 383.845L352.176 386.874C352.454 387.145 352.578 387.537 352.517 387.916L351.781 392.197C351.616 393.158 352.624 393.889 353.49 393.436L357.338 391.415C357.682 391.233 358.091 391.233 358.431 391.415L362.277 393.436C363.137 393.889 364.151 393.158 363.986 392.197L363.25 387.916H363.239ZM357.874 380.833C358.736 380.833 359.434 381.53 359.434 382.39C359.434 383.251 358.736 383.947 357.874 383.947C357.014 383.947 356.317 383.251 356.317 382.39C356.317 381.53 357.014 380.833 357.874 380.833ZM360.14 388.93C360.14 388.992 360.09 389.042 360.027 389.042H355.723C355.66 389.042 355.61 388.992 355.61 388.93V385.929C355.61 385.147 356.244 384.512 357.025 384.512H358.725C359.506 384.512 360.14 385.147 360.14 385.929V388.93Z" fill="#F2F2F2"/>
</g>
<mask id="mask30_1063_4642" style="mask-type:luminance" maskUnits="userSpaceOnUse" x="298" y="328" width="18" height="16">
<path d="M298.029 328.266H315.125V343.889H298.029V328.266Z" fill="white"/>
</mask>
<g mask="url(#mask30_1063_4642)">
<path d="M299.581 328.266C298.724 328.266 298.032 328.959 298.032 329.815V339.101C298.032 339.957 298.724 340.648 299.581 340.648H305.001V342.198H304.226C303.799 342.198 303.453 342.543 303.453 342.97C303.453 343.398 303.799 343.745 304.226 343.745H308.873C309.3 343.745 309.646 343.398 309.646 342.97C309.646 342.543 309.3 342.198 308.873 342.198H308.098V340.648H313.518C314.374 340.648 315.066 339.957 315.066 339.101V329.815C315.066 328.959 314.374 328.266 313.518 328.266H299.581ZM299.581 329.815H313.518V339.101H299.581V329.815ZM307.093 331.352C306.869 331.387 306.679 331.551 306.62 331.786L305.352 336.85C305.275 337.161 305.463 337.475 305.774 337.553C306.087 337.631 306.401 337.442 306.479 337.13L307.746 332.065C307.824 331.755 307.635 331.44 307.324 331.363C307.245 331.342 307.169 331.34 307.093 331.352ZM303.453 332.135C303.308 332.135 303.164 332.191 303.055 332.3L301.294 334.058C301.074 334.278 301.074 334.635 301.294 334.855L303.053 336.614C303.273 336.834 303.63 336.834 303.85 336.614C304.07 336.394 304.07 336.039 303.85 335.819L302.491 334.458L303.85 333.097C304.07 332.877 304.07 332.52 303.852 332.3C303.741 332.191 303.597 332.135 303.453 332.135ZM309.642 332.135C309.498 332.135 309.352 332.191 309.243 332.3C309.023 332.52 309.023 332.877 309.243 333.097L310.604 334.458L309.243 335.819C309.023 336.039 309.023 336.394 309.243 336.614C309.463 336.834 309.82 336.834 310.04 336.614L311.799 334.855C312.018 334.635 312.018 334.278 311.799 334.058L310.04 332.3C309.929 332.191 309.787 332.135 309.642 332.135Z" fill="#F2F2F2"/>
</g>
<path d="M317.12 245.84L313.649 238.141H315.314L317.408 242.918L317.874 244.235L318.37 242.918L320.042 239.309H321.16L322.891 242.933L323.38 244.242L323.853 242.918L325.866 238.141H327.553L324.105 245.84H322.721L320.952 242.112L320.605 241.092L320.264 242.112L318.533 245.84H317.12Z" fill="white"/>
<path d="M329.971 245.913C329.61 245.902 329.262 245.841 328.928 245.728C328.591 245.61 328.317 245.425 328.106 245.173C327.894 244.922 327.788 244.593 327.788 244.182C327.788 243.783 327.894 243.471 328.106 243.243C328.323 243.012 328.604 242.844 328.95 242.74C329.299 242.637 329.664 242.585 330.045 242.585H331.695C331.601 242.28 331.423 242.056 331.162 241.912C330.9 241.77 330.618 241.697 330.319 241.697C330.056 241.697 329.801 241.753 329.549 241.86C329.301 241.964 329.105 242.112 328.957 242.304L328.062 241.527C328.337 241.095 328.687 240.801 329.113 240.647C329.536 240.496 329.971 240.418 330.415 240.418C330.75 240.418 331.081 240.468 331.406 240.566C331.732 240.666 332.024 240.814 332.287 241.01C332.548 241.202 332.757 241.442 332.916 241.727C333.073 242.008 333.153 242.333 333.153 242.703V244.685L333.205 245.802H331.939L331.806 245.07C331.623 245.357 331.358 245.569 331.014 245.706C330.674 245.843 330.326 245.913 329.971 245.913ZM330.112 244.708C330.328 244.708 330.552 244.678 330.785 244.619C331.022 244.56 331.229 244.452 331.406 244.293C331.584 244.131 331.691 243.905 331.732 243.613H330.001C329.812 243.613 329.632 243.663 329.46 243.761C329.286 243.855 329.201 243.994 329.201 244.175C329.201 244.304 329.249 244.41 329.349 244.493C329.453 244.573 329.575 244.63 329.719 244.663C329.862 244.693 329.993 244.708 330.112 244.708Z" fill="white"/>
<path d="M336.434 245.804L333.652 240.634V240.59H335.198L336.508 243.141L337.033 244.473L337.522 243.164L338.846 240.59H340.408V240.634L337.596 245.804H336.434Z" fill="white"/>
<path d="M343.337 245.888C342.804 245.888 342.33 245.775 341.916 245.548C341.502 245.322 341.176 245.006 340.939 244.601C340.702 244.198 340.584 243.728 340.584 243.196C340.584 242.663 340.702 242.196 340.939 241.791C341.176 241.388 341.503 241.072 341.923 240.844C342.347 240.619 342.83 240.504 343.374 240.504C343.936 240.504 344.419 240.622 344.824 240.859C345.233 241.096 345.549 241.428 345.771 241.857C345.997 242.283 346.111 242.782 346.111 243.359C346.111 243.414 346.111 243.473 346.111 243.536C346.111 243.595 346.106 243.655 346.097 243.714H342.027C342.071 243.965 342.169 244.163 342.323 244.305C342.475 244.45 342.652 244.549 342.856 244.609C343.063 244.668 343.264 244.697 343.462 244.697C343.703 244.697 343.936 244.66 344.158 244.586C344.38 244.512 344.546 244.376 344.661 244.172L345.815 244.572C345.632 244.917 345.408 245.185 345.142 245.378C344.876 245.57 344.589 245.703 344.284 245.777C343.977 245.851 343.662 245.888 343.337 245.888ZM342.027 242.649H344.743C344.669 242.32 344.495 242.077 344.225 241.924C343.958 241.767 343.677 241.687 343.381 241.687C343.07 241.687 342.783 241.769 342.523 241.931C342.266 242.094 342.101 242.334 342.027 242.649Z" fill="white"/>
<path d="M350.079 245.794V238.117H353.668C354.427 238.117 355.096 238.285 355.673 238.62C356.251 238.957 356.698 239.415 357.02 239.996C357.34 240.573 357.501 241.227 357.501 241.956C357.501 242.686 357.34 243.342 357.02 243.923C356.698 244.5 356.252 244.956 355.681 245.291C355.107 245.628 354.438 245.794 353.668 245.794H350.079ZM351.633 244.5H353.69C354.149 244.5 354.549 244.393 354.889 244.174C355.233 243.958 355.499 243.662 355.688 243.287C355.881 242.908 355.977 242.481 355.977 242.007C355.977 241.53 355.882 241.096 355.696 240.706C355.512 240.312 355.248 240.001 354.904 239.774C354.563 239.543 354.158 239.426 353.69 239.426H351.633V244.5Z" fill="white"/>
<path d="M358.374 239.819V238.141H359.773V239.819H358.374ZM358.374 245.795V240.589H359.773V245.795H358.374Z" fill="white"/>
<path d="M363.309 245.913C362.854 245.913 362.432 245.856 362.044 245.743C361.654 245.63 361.334 245.44 361.082 245.173C360.83 244.907 360.69 244.548 360.66 244.094L362.022 244.116C362.037 244.293 362.105 244.43 362.229 244.523C362.351 244.617 362.512 244.683 362.71 244.722C362.912 244.757 363.124 244.774 363.346 244.774C363.726 244.774 364.023 244.726 364.242 244.626C364.458 244.523 364.567 244.389 364.567 244.227C364.567 244.094 364.473 243.986 364.286 243.901C364.103 243.818 363.792 243.768 363.354 243.753C363.061 243.739 362.764 243.713 362.458 243.672C362.157 243.628 361.876 243.554 361.615 243.45C361.358 243.343 361.15 243.188 360.993 242.984C360.84 242.783 360.764 242.515 360.764 242.178C360.764 241.853 360.842 241.585 361.001 241.372C361.163 241.156 361.371 240.98 361.622 240.847C361.877 240.714 362.151 240.621 362.444 240.566C362.74 240.512 363.021 240.484 363.287 240.484C363.578 240.484 363.872 240.512 364.168 240.566C364.464 240.616 364.737 240.706 364.989 240.839C365.241 240.969 365.444 241.148 365.603 241.379C365.766 241.607 365.862 241.895 365.892 242.245L364.582 242.289C364.541 242.087 364.441 241.94 364.279 241.845C364.116 241.747 363.938 241.686 363.746 241.66C363.557 241.631 363.409 241.616 363.302 241.616C363 241.616 362.734 241.66 362.503 241.749C362.275 241.834 362.162 241.975 362.162 242.171C362.162 242.289 362.223 242.381 362.347 242.444C362.469 242.503 362.632 242.546 362.836 242.57C363.043 242.596 363.261 242.614 363.494 242.629C363.8 242.655 364.105 242.692 364.412 242.74C364.723 242.784 365.004 242.864 365.255 242.977C365.507 243.091 365.701 243.256 365.84 243.472C365.982 243.69 366.043 243.986 366.025 244.36C365.975 244.711 365.812 245.001 365.537 245.233C365.265 245.46 364.93 245.63 364.53 245.743C364.131 245.856 363.724 245.913 363.309 245.913Z" fill="white"/>
<path d="M369.337 245.913C368.804 245.913 368.331 245.8 367.916 245.573C367.502 245.347 367.173 245.031 366.932 244.626C366.69 244.223 366.569 243.753 366.569 243.221C366.569 242.674 366.682 242.197 366.91 241.786C367.141 241.377 367.465 241.059 367.879 240.832C368.297 240.601 368.784 240.484 369.337 240.484C369.711 240.484 370.064 240.542 370.395 240.654C370.724 240.769 371.018 240.958 371.276 241.224C371.531 241.487 371.721 241.838 371.845 242.282L370.632 242.489C370.543 242.263 370.426 242.097 370.284 241.993C370.145 241.886 369.992 241.814 369.825 241.779C369.657 241.74 369.494 241.719 369.337 241.719C368.917 241.719 368.59 241.866 368.353 242.156C368.116 242.442 367.998 242.797 367.998 243.221C367.998 243.62 368.118 243.966 368.36 244.256C368.606 244.543 368.932 244.685 369.337 244.685C369.485 244.685 369.637 244.669 369.796 244.633C369.958 244.595 370.114 244.513 370.262 244.389C370.413 244.267 370.539 244.077 370.639 243.82L371.882 244.094C371.753 244.534 371.559 244.885 371.298 245.151C371.035 245.417 370.735 245.613 370.395 245.735C370.055 245.854 369.701 245.913 369.337 245.913Z" fill="white"/>
<path d="M375.263 245.884C374.716 245.884 374.223 245.771 373.791 245.544C373.356 245.312 373.014 244.994 372.762 244.589C372.514 244.181 372.392 243.713 372.392 243.184C372.392 242.652 372.514 242.186 372.762 241.786C373.014 241.383 373.356 241.067 373.791 240.84C374.223 240.609 374.716 240.492 375.263 240.492C375.811 240.492 376.295 240.609 376.721 240.84C377.15 241.067 377.487 241.383 377.735 241.786C377.981 242.186 378.104 242.652 378.104 243.184C378.104 243.713 377.981 244.181 377.735 244.589C377.487 244.994 377.15 245.312 376.721 245.544C376.295 245.771 375.811 245.884 375.263 245.884ZM375.263 244.671C375.666 244.671 376.003 244.53 376.269 244.249C376.536 243.968 376.669 243.613 376.669 243.184C376.669 242.752 376.536 242.397 376.269 242.119C376.003 241.844 375.666 241.705 375.263 241.705C374.843 241.705 374.501 241.844 374.235 242.119C373.968 242.397 373.835 242.752 373.835 243.184C373.835 243.613 373.968 243.968 374.235 244.249C374.501 244.53 374.843 244.671 375.263 244.671Z" fill="white"/>
<path d="M381.125 245.804L378.343 240.634V240.59H379.889L381.199 243.141L381.724 244.473L382.213 243.164L383.537 240.59H385.098V240.634L382.287 245.804H381.125Z" fill="white"/>
<path d="M388.027 245.888C387.495 245.888 387.021 245.775 386.607 245.548C386.192 245.322 385.867 245.006 385.63 244.601C385.393 244.198 385.275 243.728 385.275 243.196C385.275 242.663 385.393 242.196 385.63 241.791C385.867 241.388 386.194 241.072 386.614 240.844C387.038 240.619 387.521 240.504 388.064 240.504C388.627 240.504 389.11 240.622 389.515 240.859C389.924 241.096 390.24 241.428 390.462 241.857C390.688 242.283 390.802 242.782 390.802 243.359C390.802 243.414 390.802 243.473 390.802 243.536C390.802 243.595 390.797 243.655 390.787 243.714H386.718C386.762 243.965 386.86 244.163 387.014 244.305C387.165 244.45 387.343 244.549 387.546 244.609C387.754 244.668 387.955 244.697 388.153 244.697C388.394 244.697 388.627 244.66 388.849 244.586C389.071 244.512 389.237 244.376 389.352 244.172L390.506 244.572C390.323 244.917 390.099 245.185 389.833 245.378C389.566 245.57 389.28 245.703 388.975 245.777C388.667 245.851 388.353 245.888 388.027 245.888ZM386.718 242.649H389.433C389.359 242.32 389.185 242.077 388.915 241.924C388.649 241.767 388.368 241.687 388.072 241.687C387.761 241.687 387.474 241.769 387.213 241.931C386.956 242.094 386.792 242.334 386.718 242.649Z" fill="white"/>
<path d="M391.783 245.798V240.591H392.989L393.078 241.205C393.265 240.905 393.487 240.707 393.744 240.613C394.005 240.521 394.239 240.473 394.447 240.473C394.698 240.473 394.976 240.524 395.283 240.628C395.594 240.728 395.849 240.905 396.052 241.16L395.431 242.1C395.174 241.869 394.872 241.752 394.528 241.752C394.177 241.752 393.871 241.869 393.611 242.1C393.348 242.333 393.211 242.643 393.196 243.032V245.798H391.783Z" fill="white"/>
<path d="M397.006 248.156L398.478 245.434L395.777 240.612V240.59H397.376L398.907 243.4L399.233 244.236L399.566 243.415L401.075 240.59H402.629V240.634L398.559 248.156H397.006Z" fill="white"/>
<path d="M326.69 426.238L323.219 418.539H324.884L326.978 423.317L327.444 424.633L327.94 423.317L329.613 419.708H330.73L332.461 423.332L332.95 424.641L333.423 423.317L335.436 418.539H337.123L333.675 426.238H332.291L330.523 422.511L330.175 421.49L329.835 422.511L328.103 426.238H326.69Z" fill="white"/>
<path d="M339.541 426.304C339.181 426.293 338.833 426.232 338.498 426.119C338.161 426 337.888 425.816 337.677 425.564C337.464 425.313 337.359 424.984 337.359 424.573C337.359 424.174 337.464 423.861 337.677 423.634C337.893 423.403 338.174 423.234 338.52 423.131C338.87 423.027 339.234 422.976 339.615 422.976H341.265C341.171 422.67 340.994 422.447 340.733 422.303C340.47 422.16 340.189 422.088 339.889 422.088C339.626 422.088 339.371 422.144 339.12 422.251C338.872 422.354 338.676 422.502 338.528 422.695L337.632 421.918C337.908 421.485 338.258 421.191 338.683 421.038C339.107 420.886 339.541 420.809 339.985 420.809C340.32 420.809 340.651 420.859 340.977 420.957C341.302 421.056 341.595 421.204 341.857 421.4C342.118 421.593 342.327 421.833 342.486 422.118C342.644 422.399 342.723 422.724 342.723 423.094V425.076L342.775 426.193H341.51L341.376 425.461C341.193 425.747 340.929 425.96 340.585 426.097C340.244 426.233 339.897 426.304 339.541 426.304ZM339.682 425.098C339.898 425.098 340.122 425.069 340.355 425.009C340.592 424.95 340.799 424.843 340.977 424.684C341.154 424.521 341.262 424.296 341.302 424.004H339.571C339.382 424.004 339.203 424.054 339.031 424.152C338.857 424.246 338.772 424.384 338.772 424.566C338.772 424.695 338.82 424.8 338.92 424.884C339.023 424.963 339.145 425.021 339.29 425.054C339.432 425.083 339.564 425.098 339.682 425.098Z" fill="white"/>
<path d="M346.004 426.206L343.222 421.037V420.992H344.769L346.078 423.544L346.604 424.875L347.092 423.566L348.417 420.992H349.978V421.037L347.166 426.206H346.004Z" fill="white"/>
<path d="M352.907 426.29C352.374 426.29 351.9 426.178 351.486 425.95C351.072 425.725 350.746 425.408 350.509 425.004C350.273 424.6 350.154 424.131 350.154 423.598C350.154 423.066 350.273 422.598 350.509 422.193C350.746 421.79 351.074 421.474 351.493 421.246C351.917 421.021 352.4 420.906 352.944 420.906C353.506 420.906 353.989 421.025 354.394 421.261C354.803 421.498 355.119 421.831 355.341 422.26C355.567 422.685 355.682 423.184 355.682 423.761C355.682 423.817 355.682 423.876 355.682 423.939C355.682 423.998 355.676 424.057 355.667 424.116H351.597C351.641 424.368 351.74 424.565 351.893 424.708C352.045 424.852 352.222 424.952 352.426 425.011C352.633 425.07 352.835 425.1 353.033 425.1C353.273 425.1 353.506 425.063 353.728 424.989C353.95 424.915 354.117 424.778 354.231 424.575L355.386 424.974C355.202 425.32 354.979 425.588 354.712 425.78C354.446 425.972 354.159 426.106 353.854 426.179C353.547 426.253 353.232 426.29 352.907 426.29ZM351.597 423.051H354.313C354.239 422.722 354.065 422.48 353.795 422.326C353.528 422.169 353.247 422.09 352.951 422.09C352.64 422.09 352.354 422.171 352.093 422.334C351.836 422.496 351.671 422.737 351.597 423.051Z" fill="white"/>
<path d="M362.091 426.194V419.841H359.117V418.539H366.59V419.841H363.623V426.194H362.091Z" fill="white"/>
<path d="M369.098 426.304C368.737 426.293 368.39 426.232 368.055 426.119C367.718 426 367.444 425.816 367.233 425.564C367.021 425.313 366.915 424.984 366.915 424.573C366.915 424.174 367.021 423.861 367.233 423.634C367.45 423.403 367.731 423.234 368.077 423.131C368.427 423.027 368.791 422.976 369.172 422.976H370.822C370.728 422.67 370.55 422.447 370.289 422.303C370.027 422.16 369.746 422.088 369.446 422.088C369.183 422.088 368.928 422.144 368.676 422.251C368.428 422.354 368.232 422.502 368.084 422.695L367.189 421.918C367.465 421.485 367.814 421.191 368.24 421.038C368.663 420.886 369.098 420.809 369.542 420.809C369.877 420.809 370.208 420.859 370.534 420.957C370.859 421.056 371.151 421.204 371.414 421.4C371.675 421.593 371.884 421.833 372.043 422.118C372.2 422.399 372.28 422.724 372.28 423.094V425.076L372.332 426.193H371.066L370.933 425.461C370.75 425.747 370.486 425.96 370.141 426.097C369.801 426.233 369.453 426.304 369.098 426.304ZM369.239 425.098C369.455 425.098 369.679 425.069 369.912 425.009C370.149 424.95 370.356 424.843 370.534 424.684C370.711 424.521 370.819 424.296 370.859 424.004H369.128C368.939 424.004 368.76 424.054 368.588 424.152C368.414 424.246 368.329 424.384 368.329 424.566C368.329 424.695 368.377 424.8 368.477 424.884C368.58 424.963 368.702 425.021 368.847 425.054C368.989 425.083 369.12 425.098 369.239 425.098Z" fill="white"/>
<path d="M373.46 426.194V418.539H374.873V426.194H373.46Z" fill="white"/>
<path d="M378.491 426.29C377.959 426.29 377.485 426.178 377.071 425.95C376.656 425.725 376.331 425.408 376.094 425.004C375.857 424.6 375.739 424.131 375.739 423.598C375.739 423.066 375.857 422.598 376.094 422.193C376.331 421.79 376.658 421.474 377.078 421.246C377.502 421.021 377.985 420.906 378.528 420.906C379.091 420.906 379.574 421.025 379.979 421.261C380.388 421.498 380.704 421.831 380.926 422.26C381.152 422.685 381.266 423.184 381.266 423.761C381.266 423.817 381.266 423.876 381.266 423.939C381.266 423.998 381.261 424.057 381.251 424.116H377.182C377.226 424.368 377.324 424.565 377.478 424.708C377.629 424.852 377.807 424.952 378.01 425.011C378.218 425.07 378.419 425.1 378.617 425.1C378.858 425.1 379.091 425.063 379.313 424.989C379.535 424.915 379.701 424.778 379.816 424.575L380.97 424.974C380.787 425.32 380.563 425.588 380.297 425.78C380.03 425.972 379.744 426.106 379.439 426.179C379.131 426.253 378.817 426.29 378.491 426.29ZM377.182 423.051H379.897C379.823 422.722 379.649 422.48 379.379 422.326C379.113 422.169 378.832 422.09 378.536 422.09C378.225 422.09 377.938 422.171 377.677 422.334C377.42 422.496 377.256 422.737 377.182 423.051Z" fill="white"/>
<path d="M382.247 426.202V420.995H383.46L383.593 421.631C383.741 421.376 383.949 421.191 384.215 421.076C384.485 420.964 384.757 420.906 385.029 420.906C385.349 420.906 385.662 420.951 385.969 421.039C386.274 421.128 386.553 421.274 386.805 421.476C387.056 421.679 387.256 421.949 387.404 422.289C387.556 422.629 387.634 423.049 387.634 423.547V426.202H386.198V423.51C386.207 423.169 386.154 422.899 386.035 422.696C385.917 422.489 385.765 422.339 385.584 422.245C385.401 422.147 385.208 422.097 385.007 422.097C384.785 422.097 384.572 422.147 384.37 422.245C384.167 422.339 384 422.489 383.867 422.696C383.734 422.903 383.667 423.175 383.667 423.51V426.202H382.247Z" fill="white"/>
<path d="M391.584 426.29C390.844 426.284 390.278 426.072 389.889 425.646C389.499 425.218 389.305 424.67 389.305 424.005V422.045H388.343V420.987H389.305V418.539H390.696V420.987H392.553V422.045H390.696V424.005C390.69 424.321 390.788 424.581 390.992 424.789C391.193 424.996 391.452 425.099 391.769 425.099C391.876 425.099 391.991 425.084 392.109 425.055C392.231 425.025 392.355 424.979 392.479 424.914L392.849 425.942C392.601 426.066 392.375 426.155 392.168 426.209C391.961 426.262 391.765 426.29 391.584 426.29Z" fill="white"/>
<path d="M448.951 292.293L456.654 288.824V290.488L451.873 292.581L450.556 293.047L451.873 293.543L455.484 295.214V296.331L451.859 298.062L450.549 298.55L451.873 299.023L456.654 301.035V302.721L448.951 299.275V297.892L452.68 296.124L453.701 295.776L452.68 295.436L448.951 293.705V292.293Z" fill="white"/>
<path d="M448.884 305.139C448.895 304.778 448.956 304.431 449.069 304.096C449.187 303.759 449.372 303.486 449.624 303.275C449.876 303.062 450.205 302.957 450.616 302.957C451.015 302.957 451.328 303.062 451.555 303.275C451.786 303.491 451.955 303.772 452.058 304.118C452.162 304.468 452.214 304.832 452.214 305.213V306.862C452.519 306.768 452.743 306.59 452.887 306.33C453.03 306.067 453.102 305.786 453.102 305.486C453.102 305.224 453.046 304.969 452.939 304.717C452.835 304.469 452.687 304.273 452.495 304.126L453.272 303.231C453.705 303.506 453.999 303.856 454.152 304.281C454.304 304.704 454.382 305.139 454.382 305.583C454.382 305.917 454.332 306.248 454.234 306.574C454.134 306.899 453.986 307.191 453.79 307.454C453.598 307.714 453.357 307.923 453.072 308.082C452.791 308.24 452.465 308.319 452.095 308.319H450.112L448.995 308.371V307.106L449.728 306.973C449.441 306.79 449.228 306.526 449.091 306.182C448.954 305.841 448.884 305.494 448.884 305.139ZM450.09 305.279C450.09 305.496 450.12 305.719 450.179 305.952C450.238 306.189 450.345 306.396 450.505 306.574C450.667 306.751 450.893 306.858 451.185 306.899V305.168C451.185 304.98 451.135 304.8 451.037 304.628C450.943 304.455 450.804 304.37 450.623 304.37C450.493 304.37 450.388 304.418 450.305 304.518C450.225 304.621 450.168 304.743 450.135 304.887C450.105 305.03 450.09 305.161 450.09 305.279Z" fill="white"/>
<path d="M448.988 311.601L454.16 308.82H454.204V310.366L451.651 311.675L450.32 312.2L451.629 312.688L454.204 314.012V315.573H454.16L448.988 312.762V311.601Z" fill="white"/>
<path d="M448.906 318.501C448.906 317.969 449.019 317.495 449.247 317.081C449.472 316.667 449.789 316.342 450.194 316.105C450.597 315.868 451.067 315.75 451.6 315.75C452.132 315.75 452.6 315.868 453.006 316.105C453.409 316.342 453.725 316.669 453.953 317.089C454.178 317.512 454.293 317.995 454.293 318.538C454.293 319.1 454.175 319.583 453.938 319.988C453.701 320.396 453.368 320.713 452.939 320.934C452.514 321.16 452.014 321.275 451.437 321.275C451.381 321.275 451.322 321.275 451.259 321.275C451.2 321.275 451.141 321.269 451.082 321.26V317.192C450.83 317.237 450.632 317.335 450.49 317.488C450.345 317.64 450.246 317.817 450.186 318.021C450.127 318.228 450.098 318.429 450.098 318.627C450.098 318.867 450.135 319.1 450.209 319.322C450.283 319.544 450.419 319.71 450.623 319.825L450.223 320.979C449.877 320.796 449.609 320.572 449.417 320.306C449.224 320.04 449.091 319.753 449.017 319.448C448.943 319.141 448.906 318.827 448.906 318.501ZM452.147 317.192V319.906C452.477 319.833 452.719 319.659 452.872 319.389C453.03 319.123 453.109 318.841 453.109 318.546C453.109 318.235 453.028 317.948 452.865 317.688C452.702 317.431 452.462 317.266 452.147 317.192Z" fill="white"/>
<path d="M448.995 325.348H456.653V329.304C456.653 329.807 456.574 330.251 456.417 330.636C456.263 331.024 456.026 331.331 455.706 331.553C455.384 331.775 454.968 331.886 454.456 331.886C454.223 331.886 453.977 331.812 453.716 331.664C453.459 331.519 453.257 331.311 453.109 331.035C453.035 331.32 452.902 331.556 452.71 331.745C452.521 331.937 452.306 332.082 452.066 332.181C451.829 332.279 451.592 332.329 451.355 332.329C450.936 332.329 450.573 332.244 450.268 332.078C449.966 331.915 449.722 331.695 449.535 331.42C449.346 331.142 449.21 330.832 449.121 330.488C449.036 330.148 448.995 329.794 448.995 329.43V325.348ZM453.605 326.827V329.393C453.609 329.683 453.673 329.929 453.797 330.133C453.919 330.334 454.147 330.436 454.478 330.436C454.709 330.436 454.892 330.379 455.026 330.266C455.159 330.157 455.251 330.018 455.307 329.852C455.366 329.683 455.396 329.506 455.396 329.319V326.827H453.605ZM450.253 326.827V329.43C450.262 329.676 450.299 329.905 450.364 330.118C450.427 330.334 450.536 330.506 450.689 330.636C450.841 330.769 451.054 330.835 451.326 330.835C451.596 330.835 451.809 330.765 451.962 330.628C452.114 330.49 452.221 330.312 452.28 330.096C452.343 329.883 452.377 329.661 452.377 329.43V326.827H450.253Z" fill="white"/>
<path d="M448.906 335.806C448.906 335.49 448.951 335.178 449.039 334.867C449.128 334.557 449.273 334.276 449.476 334.024C449.678 333.773 449.95 333.573 450.29 333.425C450.63 333.277 451.048 333.203 451.548 333.203H454.204V334.631H451.511C451.17 334.631 450.897 334.686 450.69 334.801C450.486 334.913 450.338 335.061 450.246 335.244C450.157 335.426 450.107 335.622 450.098 335.829C450.098 336.045 450.144 336.254 450.238 336.457C450.336 336.664 450.49 336.831 450.697 336.96C450.904 337.093 451.174 337.16 451.511 337.16H454.204V338.58H448.995V337.367L449.631 337.234C449.38 337.09 449.195 336.883 449.076 336.613C448.964 336.341 448.906 336.073 448.906 335.806Z" fill="white"/>
<path d="M448.884 342.105C448.884 341.65 448.941 341.228 449.054 340.84C449.167 340.45 449.358 340.13 449.624 339.879C449.89 339.627 450.249 339.487 450.704 339.457L450.682 340.818C450.505 340.833 450.368 340.901 450.275 341.025C450.181 341.147 450.114 341.308 450.075 341.506C450.04 341.707 450.024 341.92 450.024 342.142C450.024 342.521 450.072 342.818 450.172 343.037C450.275 343.253 450.408 343.362 450.571 343.362C450.704 343.362 450.812 343.268 450.897 343.081C450.98 342.898 451.03 342.587 451.045 342.149C451.059 341.857 451.085 341.559 451.126 341.254C451.17 340.953 451.244 340.672 451.348 340.411C451.455 340.154 451.611 339.947 451.814 339.79C452.016 339.636 452.284 339.561 452.621 339.561C452.946 339.561 453.215 339.638 453.427 339.797C453.644 339.96 453.819 340.167 453.953 340.418C454.086 340.674 454.178 340.947 454.234 341.239C454.288 341.535 454.315 341.816 454.315 342.083C454.315 342.373 454.288 342.667 454.234 342.963C454.184 343.258 454.093 343.532 453.96 343.784C453.831 344.035 453.651 344.238 453.42 344.397C453.192 344.56 452.904 344.656 452.554 344.686L452.51 343.377C452.711 343.336 452.859 343.236 452.954 343.074C453.052 342.911 453.113 342.733 453.139 342.541C453.168 342.353 453.183 342.205 453.183 342.097C453.183 341.796 453.139 341.53 453.05 341.299C452.965 341.071 452.824 340.958 452.628 340.958C452.51 340.958 452.417 341.019 452.354 341.143C452.295 341.265 452.253 341.428 452.229 341.631C452.203 341.838 452.184 342.057 452.169 342.29C452.144 342.595 452.107 342.9 452.058 343.207C452.014 343.517 451.934 343.798 451.822 344.05C451.707 344.301 451.542 344.495 451.326 344.634C451.108 344.776 450.812 344.838 450.438 344.819C450.086 344.769 449.796 344.606 449.565 344.331C449.337 344.059 449.167 343.724 449.054 343.325C448.941 342.926 448.884 342.519 448.884 342.105Z" fill="white"/>
<path d="M454.974 345.68H456.653V347.078H454.974V345.68ZM448.995 345.68H454.204V347.078H448.995V345.68Z" fill="white"/>
<path d="M448.995 348.285H454.204V349.498L453.568 349.631C453.823 349.779 454.008 349.986 454.123 350.252C454.236 350.522 454.293 350.794 454.293 351.066C454.293 351.386 454.249 351.698 454.16 352.005C454.071 352.31 453.925 352.59 453.723 352.841C453.52 353.092 453.25 353.292 452.909 353.44C452.569 353.592 452.149 353.669 451.651 353.669H448.995V352.235H451.688C452.029 352.244 452.299 352.19 452.502 352.072C452.71 351.953 452.859 351.802 452.954 351.621C453.052 351.438 453.102 351.245 453.102 351.044C453.102 350.822 453.052 350.609 452.954 350.408C452.859 350.204 452.71 350.038 452.502 349.905C452.295 349.772 452.023 349.705 451.688 349.705H448.995V348.285Z" fill="white"/>
<path d="M448.906 357.279C448.906 356.746 449.019 356.273 449.247 355.859C449.472 355.444 449.789 355.119 450.194 354.882C450.597 354.646 451.067 354.527 451.6 354.527C452.132 354.527 452.6 354.646 453.006 354.882C453.409 355.119 453.725 355.446 453.953 355.866C454.178 356.289 454.293 356.772 454.293 357.316C454.293 357.878 454.175 358.36 453.938 358.765C453.701 359.174 453.368 359.49 452.939 359.712C452.514 359.937 452.014 360.052 451.437 360.052C451.381 360.052 451.322 360.052 451.259 360.052C451.2 360.052 451.141 360.046 451.082 360.037V355.97C450.83 356.014 450.632 356.112 450.49 356.265C450.345 356.417 450.246 356.594 450.186 356.798C450.127 357.005 450.098 357.206 450.098 357.404C450.098 357.645 450.135 357.878 450.209 358.1C450.283 358.321 450.419 358.488 450.623 358.602L450.223 359.756C449.877 359.573 449.609 359.349 449.417 359.083C449.224 358.817 449.091 358.53 449.017 358.225C448.943 357.918 448.906 357.604 448.906 357.279ZM452.147 355.97V358.684C452.477 358.61 452.719 358.436 452.872 358.166C453.03 357.9 453.109 357.619 453.109 357.323C453.109 357.012 453.028 356.726 452.865 356.465C452.702 356.208 452.462 356.043 452.147 355.97Z" fill="white"/>
<path d="M448.884 363.37C448.884 362.916 448.941 362.494 449.054 362.106C449.167 361.716 449.358 361.396 449.624 361.144C449.89 360.893 450.249 360.752 450.704 360.723L450.682 362.083C450.505 362.098 450.368 362.167 450.275 362.291C450.181 362.413 450.114 362.573 450.075 362.771C450.04 362.973 450.024 363.185 450.024 363.407C450.024 363.786 450.072 364.084 450.172 364.302C450.275 364.519 450.408 364.628 450.571 364.628C450.704 364.628 450.812 364.533 450.897 364.347C450.98 364.164 451.03 363.853 451.045 363.415C451.059 363.123 451.085 362.825 451.126 362.52C451.17 362.218 451.244 361.937 451.348 361.677C451.455 361.42 451.611 361.213 451.814 361.055C452.016 360.902 452.284 360.826 452.621 360.826C452.946 360.826 453.215 360.904 453.427 361.063C453.644 361.226 453.819 361.433 453.953 361.684C454.086 361.939 454.178 362.213 454.234 362.505C454.288 362.801 454.315 363.082 454.315 363.348C454.315 363.638 454.288 363.932 454.234 364.228C454.184 364.524 454.093 364.798 453.96 365.049C453.831 365.301 453.651 365.504 453.42 365.663C453.192 365.826 452.904 365.922 452.554 365.952L452.51 364.642C452.711 364.602 452.859 364.502 452.954 364.339C453.052 364.177 453.113 363.999 453.139 363.807C453.168 363.618 453.183 363.47 453.183 363.363C453.183 363.062 453.139 362.795 453.05 362.564C452.965 362.337 452.824 362.224 452.628 362.224C452.51 362.224 452.417 362.285 452.354 362.409C452.295 362.531 452.253 362.694 452.229 362.897C452.203 363.104 452.184 363.322 452.169 363.555C452.144 363.86 452.107 364.165 452.058 364.472C452.014 364.783 451.934 365.064 451.822 365.315C451.707 365.567 451.542 365.761 451.326 365.9C451.108 366.042 450.812 366.103 450.438 366.085C450.086 366.035 449.796 365.872 449.565 365.597C449.337 365.325 449.167 364.99 449.054 364.591C448.941 364.191 448.884 363.785 448.884 363.37Z" fill="white"/>
<path d="M448.884 369.277C448.884 368.822 448.941 368.4 449.054 368.012C449.167 367.622 449.358 367.302 449.624 367.05C449.89 366.799 450.249 366.658 450.704 366.629L450.682 367.99C450.505 368.005 450.368 368.073 450.275 368.197C450.181 368.319 450.114 368.48 450.075 368.678C450.04 368.879 450.024 369.092 450.024 369.314C450.024 369.693 450.072 369.99 450.172 370.208C450.275 370.425 450.408 370.534 450.571 370.534C450.704 370.534 450.812 370.44 450.897 370.253C450.98 370.07 451.03 369.759 451.045 369.321C451.059 369.029 451.085 368.731 451.126 368.426C451.17 368.125 451.244 367.844 451.348 367.583C451.455 367.326 451.611 367.119 451.814 366.962C452.016 366.808 452.284 366.732 452.621 366.732C452.946 366.732 453.215 366.81 453.427 366.969C453.644 367.132 453.819 367.339 453.953 367.59C454.086 367.846 454.178 368.119 454.234 368.411C454.288 368.707 454.315 368.988 454.315 369.254C454.315 369.545 454.288 369.839 454.234 370.135C454.184 370.43 454.093 370.704 453.96 370.955C453.831 371.207 453.651 371.41 453.42 371.569C453.192 371.732 452.904 371.828 452.554 371.858L452.51 370.549C452.711 370.508 452.859 370.408 452.954 370.245C453.052 370.083 453.113 369.905 453.139 369.713C453.168 369.524 453.183 369.376 453.183 369.269C453.183 368.968 453.139 368.702 453.05 368.47C452.965 368.243 452.824 368.13 452.628 368.13C452.51 368.13 452.417 368.191 452.354 368.315C452.295 368.437 452.253 368.6 452.229 368.803C452.203 369.01 452.184 369.229 452.169 369.462C452.144 369.767 452.107 370.072 452.058 370.379C452.014 370.689 451.934 370.97 451.822 371.222C451.707 371.473 451.542 371.667 451.326 371.806C451.108 371.948 450.812 372.009 450.438 371.991C450.086 371.941 449.796 371.778 449.565 371.503C449.337 371.231 449.167 370.896 449.054 370.497C448.941 370.098 448.884 369.691 448.884 369.277Z" fill="white"/>
<path d="M433.65 307.258C433.65 306.824 433.695 306.4 433.784 305.986C433.872 305.576 434.015 305.204 434.213 304.869C434.409 304.538 434.666 304.278 434.982 304.085C435.297 303.893 435.687 303.797 436.151 303.797C436.536 303.797 436.893 303.915 437.224 304.152C437.554 304.392 437.816 304.708 438.009 305.099C438.112 304.954 438.24 304.836 438.393 304.744C438.545 304.655 438.704 304.59 438.867 304.551C439.03 304.511 439.17 304.492 439.289 304.492C439.683 304.492 440.021 304.573 440.303 304.736C440.587 304.903 440.824 305.121 441.013 305.387C441.205 305.657 441.346 305.953 441.435 306.274C441.527 306.594 441.575 306.912 441.575 307.229C441.575 307.731 441.494 308.194 441.331 308.619C441.168 309.042 440.911 309.381 440.562 309.632C440.21 309.884 439.755 310.009 439.193 310.009V308.649C439.474 308.649 439.699 308.576 439.873 308.434C440.051 308.295 440.179 308.12 440.258 307.909C440.341 307.696 440.384 307.48 440.384 307.258C440.384 306.844 440.28 306.52 440.073 306.289C439.866 306.062 439.601 305.949 439.281 305.949C439.108 305.949 438.96 305.993 438.837 306.082C438.713 306.175 438.608 306.282 438.519 306.4L436.151 309.425C436.259 309.469 436.385 309.506 436.529 309.536C436.677 309.566 436.906 309.58 437.217 309.58V310.904C436.418 310.904 435.791 310.773 435.337 310.512L433.872 312.132H433.806V310.239L434.353 309.58C434.096 309.235 433.913 308.857 433.806 308.449C433.702 308.044 433.65 307.646 433.65 307.258ZM434.886 307.118C434.886 307.621 434.997 308.074 435.219 308.478L437.158 305.949C437.039 305.707 436.893 305.528 436.721 305.409C436.547 305.295 436.37 305.239 436.188 305.239C435.822 305.239 435.51 305.431 435.249 305.816C435.125 306.008 435.034 306.215 434.975 306.437C434.916 306.663 434.886 306.89 434.886 307.118Z" fill="white"/>
<path d="M433.806 315.723H441.464V319.502C441.464 320.097 441.368 320.622 441.176 321.077C440.987 321.536 440.702 321.893 440.317 322.15C439.936 322.41 439.448 322.542 438.852 322.542C438.24 322.542 437.737 322.401 437.343 322.12C436.947 321.843 436.655 321.473 436.462 321.011C436.274 320.552 436.181 320.042 436.181 319.48V317.239H433.806V315.723ZM437.454 317.239V319.487C437.457 319.94 437.561 320.315 437.765 320.611C437.972 320.907 438.334 321.055 438.852 321.055C439.187 321.055 439.448 320.985 439.637 320.848C439.829 320.709 439.962 320.523 440.036 320.286C440.114 320.053 440.155 319.792 440.155 319.502V317.239H437.454Z" fill="white"/>
<path d="M433.806 323.414H439.015V324.62L438.401 324.708C438.701 324.895 438.898 325.117 438.993 325.374C439.085 325.635 439.133 325.869 439.133 326.077C439.133 326.328 439.082 326.605 438.978 326.912C438.878 327.223 438.701 327.478 438.445 327.681L437.506 327.06C437.737 326.803 437.853 326.502 437.853 326.158C437.853 325.807 437.737 325.502 437.506 325.241C437.272 324.978 436.962 324.841 436.573 324.827H433.806V323.414Z" fill="white"/>
<path d="M433.717 330.776C433.717 330.229 433.83 329.737 434.057 329.304C434.289 328.87 434.607 328.528 435.012 328.276C435.421 328.028 435.889 327.906 436.418 327.906C436.951 327.906 437.417 328.028 437.816 328.276C438.22 328.528 438.536 328.87 438.763 329.304C438.995 329.737 439.111 330.229 439.111 330.776C439.111 331.323 438.995 331.808 438.763 332.233C438.536 332.662 438.22 332.998 437.816 333.246C437.417 333.492 436.951 333.616 436.418 333.616C435.889 333.616 435.421 333.492 435.012 333.246C434.607 332.998 434.289 332.662 434.057 332.233C433.83 331.808 433.717 331.323 433.717 330.776ZM434.931 330.776C434.931 331.179 435.071 331.515 435.352 331.782C435.634 332.048 435.989 332.181 436.418 332.181C436.851 332.181 437.206 332.048 437.483 331.782C437.759 331.515 437.898 331.179 437.898 330.776C437.898 330.356 437.759 330.014 437.483 329.748C437.206 329.482 436.851 329.348 436.418 329.348C435.989 329.348 435.634 329.482 435.352 329.748C435.071 330.014 434.931 330.356 434.931 330.776Z" fill="white"/>
<path d="M433.695 336.993C433.695 336.46 433.808 335.987 434.035 335.573C434.261 335.158 434.577 334.829 434.982 334.589C435.385 334.347 435.855 334.227 436.388 334.227C436.936 334.227 437.413 334.339 437.824 334.567C438.232 334.798 438.551 335.121 438.778 335.536C439.009 335.953 439.126 336.44 439.126 336.993C439.126 337.366 439.069 337.719 438.956 338.05C438.841 338.379 438.652 338.673 438.386 338.93C438.123 339.185 437.772 339.376 437.328 339.5L437.121 338.287C437.346 338.198 437.513 338.082 437.616 337.939C437.724 337.801 437.796 337.647 437.831 337.481C437.87 337.312 437.89 337.15 437.89 336.993C437.89 336.573 437.744 336.246 437.454 336.009C437.167 335.772 436.812 335.654 436.388 335.654C435.989 335.654 435.643 335.774 435.352 336.016C435.065 336.262 434.923 336.588 434.923 336.993C434.923 337.141 434.94 337.292 434.975 337.451C435.014 337.614 435.095 337.769 435.219 337.917C435.341 338.069 435.532 338.194 435.789 338.294L435.515 339.537C435.075 339.407 434.723 339.213 434.457 338.953C434.19 338.69 433.994 338.39 433.872 338.05C433.754 337.71 433.695 337.357 433.695 336.993Z" fill="white"/>
<path d="M433.717 342.736C433.717 342.203 433.83 341.73 434.057 341.316C434.283 340.901 434.599 340.576 435.005 340.339C435.408 340.103 435.878 339.984 436.41 339.984C436.943 339.984 437.411 340.103 437.816 340.339C438.22 340.576 438.536 340.903 438.763 341.323C438.989 341.746 439.104 342.229 439.104 342.773C439.104 343.335 438.985 343.817 438.749 344.222C438.512 344.631 438.179 344.947 437.75 345.169C437.324 345.394 436.825 345.509 436.248 345.509C436.192 345.509 436.133 345.509 436.07 345.509C436.011 345.509 435.952 345.504 435.892 345.494V341.427C435.641 341.471 435.443 341.569 435.301 341.722C435.156 341.874 435.056 342.052 434.997 342.255C434.938 342.462 434.908 342.664 434.908 342.861C434.908 343.102 434.945 343.335 435.019 343.557C435.093 343.778 435.23 343.945 435.434 344.059L435.034 345.213C434.688 345.03 434.42 344.806 434.228 344.54C434.035 344.274 433.902 343.987 433.828 343.682C433.754 343.375 433.717 343.061 433.717 342.736ZM436.958 341.427V344.141C437.287 344.067 437.53 343.893 437.683 343.623C437.84 343.357 437.92 343.076 437.92 342.78C437.92 342.469 437.839 342.183 437.676 341.922C437.513 341.665 437.272 341.501 436.958 341.427Z" fill="white"/>
<path d="M433.695 348.816C433.695 348.361 433.752 347.939 433.865 347.551C433.978 347.161 434.168 346.841 434.435 346.59C434.701 346.338 435.06 346.198 435.515 346.168L435.493 347.529C435.315 347.544 435.178 347.612 435.086 347.736C434.991 347.858 434.925 348.019 434.886 348.217C434.851 348.418 434.834 348.631 434.834 348.853C434.834 349.232 434.882 349.529 434.982 349.748C435.086 349.964 435.219 350.073 435.382 350.073C435.515 350.073 435.622 349.979 435.707 349.792C435.791 349.609 435.841 349.298 435.855 348.86C435.87 348.568 435.896 348.27 435.937 347.965C435.981 347.664 436.055 347.383 436.159 347.122C436.266 346.865 436.421 346.658 436.625 346.501C436.827 346.347 437.095 346.272 437.431 346.272C437.757 346.272 438.025 346.349 438.238 346.508C438.454 346.671 438.63 346.878 438.763 347.129C438.897 347.385 438.989 347.658 439.045 347.95C439.098 348.246 439.126 348.527 439.126 348.793C439.126 349.084 439.098 349.378 439.045 349.674C438.995 349.969 438.904 350.243 438.771 350.495C438.641 350.746 438.462 350.949 438.231 351.108C438.003 351.271 437.714 351.367 437.365 351.397L437.32 350.088C437.522 350.047 437.67 349.947 437.764 349.785C437.862 349.622 437.924 349.444 437.949 349.252C437.979 349.063 437.994 348.916 437.994 348.808C437.994 348.507 437.949 348.241 437.861 348.01C437.776 347.782 437.635 347.669 437.439 347.669C437.32 347.669 437.228 347.73 437.165 347.854C437.106 347.976 437.063 348.139 437.039 348.342C437.013 348.549 436.995 348.768 436.98 349.001C436.954 349.306 436.917 349.611 436.869 349.918C436.825 350.228 436.745 350.509 436.632 350.761C436.518 351.012 436.353 351.206 436.137 351.345C435.918 351.487 435.622 351.548 435.249 351.53C434.897 351.48 434.607 351.317 434.375 351.042C434.148 350.77 433.978 350.435 433.865 350.036C433.752 349.637 433.695 349.23 433.695 348.816Z" fill="white"/>
<path d="M433.695 354.734C433.695 354.279 433.752 353.857 433.865 353.469C433.978 353.079 434.168 352.759 434.435 352.508C434.701 352.256 435.06 352.116 435.515 352.086L435.493 353.447C435.315 353.462 435.178 353.53 435.086 353.654C434.991 353.776 434.925 353.937 434.886 354.135C434.851 354.336 434.834 354.549 434.834 354.771C434.834 355.15 434.882 355.447 434.982 355.666C435.086 355.882 435.219 355.991 435.382 355.991C435.515 355.991 435.622 355.897 435.707 355.71C435.791 355.527 435.841 355.216 435.855 354.778C435.87 354.486 435.896 354.188 435.937 353.883C435.981 353.582 436.055 353.301 436.159 353.04C436.266 352.783 436.421 352.576 436.625 352.419C436.827 352.265 437.095 352.189 437.431 352.189C437.757 352.189 438.025 352.267 438.238 352.426C438.454 352.589 438.63 352.796 438.763 353.047C438.897 353.303 438.989 353.576 439.045 353.868C439.098 354.164 439.126 354.445 439.126 354.711C439.126 355.002 439.098 355.296 439.045 355.592C438.995 355.887 438.904 356.161 438.771 356.413C438.641 356.664 438.462 356.867 438.231 357.026C438.003 357.189 437.714 357.285 437.365 357.315L437.32 356.006C437.522 355.965 437.67 355.865 437.764 355.703C437.862 355.54 437.924 355.362 437.949 355.17C437.979 354.981 437.994 354.833 437.994 354.726C437.994 354.425 437.949 354.159 437.861 353.928C437.776 353.7 437.635 353.587 437.439 353.587C437.32 353.587 437.228 353.648 437.165 353.772C437.106 353.894 437.063 354.057 437.039 354.26C437.013 354.467 436.995 354.686 436.98 354.919C436.954 355.224 436.917 355.529 436.869 355.836C436.825 356.146 436.745 356.427 436.632 356.679C436.518 356.93 436.353 357.124 436.137 357.263C435.918 357.405 435.622 357.466 435.249 357.448C434.897 357.398 434.607 357.235 434.375 356.96C434.148 356.688 433.978 356.353 433.865 355.954C433.752 355.555 433.695 355.148 433.695 354.734Z" fill="white"/>
<path d="M266.563 358.354L258.86 361.823V360.158L263.64 358.065L264.957 357.6L263.64 357.104L260.029 355.433V354.316L263.655 352.585L264.964 352.097L263.64 351.624L258.86 349.612V347.926L266.563 351.372V352.755L262.833 354.523L261.812 354.87L262.833 355.211L266.563 356.941V358.354Z" fill="white"/>
<path d="M266.629 345.509C266.618 345.87 266.557 346.217 266.444 346.552C266.326 346.889 266.141 347.162 265.889 347.373C265.638 347.586 265.308 347.691 264.898 347.691C264.498 347.691 264.186 347.586 263.958 347.373C263.727 347.157 263.559 346.876 263.455 346.53C263.351 346.18 263.3 345.816 263.3 345.435V343.786C262.994 343.88 262.77 344.058 262.626 344.319C262.484 344.581 262.412 344.862 262.412 345.162C262.412 345.424 262.467 345.679 262.574 345.931C262.678 346.179 262.826 346.375 263.018 346.523L262.241 347.417C261.809 347.142 261.514 346.793 261.361 346.367C261.209 345.944 261.131 345.509 261.131 345.066C261.131 344.731 261.181 344.4 261.279 344.075C261.379 343.749 261.527 343.457 261.723 343.194C261.916 342.934 262.156 342.725 262.441 342.566C262.722 342.409 263.048 342.329 263.418 342.329H265.401L266.518 342.277V343.542L265.786 343.675C266.072 343.858 266.285 344.123 266.422 344.467C266.559 344.807 266.629 345.154 266.629 345.509ZM265.423 345.369C265.423 345.152 265.394 344.929 265.334 344.696C265.275 344.459 265.168 344.252 265.009 344.075C264.846 343.897 264.62 343.79 264.328 343.749V345.48C264.328 345.668 264.378 345.848 264.476 346.02C264.57 346.193 264.709 346.278 264.89 346.278C265.02 346.278 265.125 346.23 265.209 346.131C265.288 346.027 265.345 345.905 265.379 345.761C265.408 345.618 265.423 345.487 265.423 345.369Z" fill="white"/>
<path d="M266.526 339.046L261.353 341.827H261.309V340.281L263.862 338.972L265.194 338.447L263.884 337.959L261.309 336.635V335.074H261.353L266.526 337.885V339.046Z" fill="white"/>
<path d="M266.607 332.141C266.607 332.673 266.494 333.146 266.267 333.561C266.041 333.975 265.725 334.3 265.32 334.537C264.916 334.774 264.447 334.892 263.914 334.892C263.381 334.892 262.913 334.774 262.508 334.537C262.105 334.3 261.788 333.973 261.561 333.553C261.335 333.13 261.22 332.647 261.22 332.104C261.22 331.542 261.339 331.059 261.576 330.654C261.812 330.245 262.145 329.929 262.574 329.707C263 329.482 263.499 329.367 264.077 329.367C264.132 329.367 264.191 329.367 264.254 329.367C264.313 329.367 264.373 329.373 264.432 329.382V333.45C264.683 333.405 264.881 333.307 265.024 333.154C265.168 333.002 265.268 332.825 265.327 332.621C265.386 332.414 265.416 332.213 265.416 332.015C265.416 331.775 265.379 331.542 265.305 331.32C265.231 331.098 265.094 330.931 264.89 330.817L265.29 329.663C265.636 329.846 265.904 330.07 266.097 330.336C266.289 330.602 266.422 330.889 266.496 331.194C266.57 331.501 266.607 331.815 266.607 332.141ZM263.366 333.45V330.735C263.037 330.809 262.795 330.983 262.641 331.253C262.484 331.519 262.404 331.8 262.404 332.096C262.404 332.407 262.486 332.693 262.648 332.954C262.811 333.211 263.052 333.376 263.366 333.45Z" fill="white"/>
<path d="M266.518 322.973H260.162V325.946H258.86V318.477H260.162V321.442H266.518V322.973Z" fill="white"/>
<path d="M266.607 315.398C266.607 315.931 266.494 316.404 266.267 316.818C266.041 317.233 265.725 317.558 265.32 317.795C264.916 318.031 264.447 318.15 263.914 318.15C263.381 318.15 262.913 318.031 262.508 317.795C262.105 317.558 261.788 317.231 261.561 316.811C261.335 316.388 261.22 315.905 261.22 315.361C261.22 314.799 261.339 314.317 261.576 313.912C261.812 313.503 262.145 313.187 262.574 312.965C263 312.74 263.499 312.625 264.077 312.625C264.132 312.625 264.191 312.625 264.254 312.625C264.313 312.625 264.373 312.631 264.432 312.64V316.708C264.683 316.663 264.881 316.565 265.024 316.412C265.168 316.26 265.268 316.083 265.327 315.879C265.386 315.672 265.416 315.471 265.416 315.273C265.416 315.032 265.379 314.799 265.305 314.578C265.231 314.356 265.094 314.189 264.89 314.075L265.29 312.921C265.636 313.104 265.904 313.328 266.097 313.594C266.289 313.86 266.422 314.147 266.496 314.452C266.57 314.759 266.607 315.073 266.607 315.398ZM263.366 316.708V313.993C263.037 314.067 262.795 314.241 262.641 314.511C262.484 314.777 262.404 315.058 262.404 315.354C262.404 315.665 262.486 315.951 262.648 316.212C262.811 316.469 263.052 316.634 263.366 316.708Z" fill="white"/>
<path d="M266.629 309.2C266.629 309.733 266.516 310.206 266.289 310.62C266.063 311.035 265.747 311.364 265.342 311.604C264.938 311.846 264.469 311.966 263.936 311.966C263.388 311.966 262.911 311.854 262.5 311.626C262.091 311.395 261.773 311.072 261.546 310.657C261.315 310.24 261.198 309.753 261.198 309.2C261.198 308.827 261.255 308.474 261.368 308.143C261.483 307.814 261.672 307.52 261.938 307.263C262.201 307.008 262.552 306.817 262.996 306.693L263.203 307.906C262.978 307.995 262.811 308.111 262.707 308.254C262.6 308.392 262.528 308.546 262.493 308.712C262.454 308.881 262.434 309.043 262.434 309.2C262.434 309.62 262.58 309.947 262.87 310.184C263.157 310.421 263.512 310.539 263.936 310.539C264.335 310.539 264.681 310.419 264.972 310.177C265.258 309.931 265.401 309.605 265.401 309.2C265.401 309.053 265.384 308.901 265.349 308.742C265.31 308.579 265.229 308.424 265.105 308.276C264.983 308.124 264.792 307.999 264.535 307.899L264.809 306.656C265.249 306.786 265.601 306.98 265.867 307.241C266.133 307.503 266.33 307.803 266.452 308.143C266.57 308.483 266.629 308.836 266.629 309.2Z" fill="white"/>
<path d="M266.518 305.892H258.86V304.472H261.901C261.69 304.344 261.524 304.152 261.405 303.895C261.283 303.634 261.22 303.374 261.22 303.111C261.22 302.791 261.265 302.479 261.353 302.172C261.442 301.867 261.588 301.588 261.79 301.336C261.993 301.085 262.264 300.885 262.604 300.737C262.944 300.585 263.364 300.508 263.862 300.508H266.518V301.943H263.847C263.507 301.933 263.233 301.987 263.026 302.105C262.815 302.224 262.659 302.375 262.559 302.556C262.461 302.74 262.411 302.932 262.411 303.133C262.411 303.355 262.461 303.568 262.559 303.769C262.659 303.973 262.815 304.139 263.026 304.272C263.233 304.405 263.505 304.472 263.84 304.472H266.518V305.892Z" fill="white"/>
<path d="M338.486 325.715L333.802 315.316H336.052L338.871 321.773L339.507 323.541L340.173 321.773L342.43 316.899H343.94L346.278 321.788L346.936 323.555L347.573 321.773L350.296 315.316H352.567L347.913 325.715H346.056L343.658 320.678L343.185 319.303L342.726 320.678L340.395 325.715H338.486Z" fill="#41A3E0"/>
<path d="M355.822 325.809C355.343 325.798 354.877 325.714 354.423 325.557C353.968 325.4 353.598 325.15 353.313 324.81C353.027 324.47 352.884 324.024 352.884 323.472C352.884 322.935 353.029 322.51 353.321 322.199C353.611 321.889 353.989 321.665 354.453 321.526C354.921 321.39 355.411 321.319 355.925 321.319H358.16C358.031 320.905 357.79 320.602 357.435 320.41C357.08 320.217 356.699 320.121 356.295 320.121C355.94 320.121 355.594 320.193 355.26 320.336C354.928 320.48 354.664 320.68 354.468 320.935L353.254 319.885C353.628 319.304 354.1 318.908 354.668 318.701C355.239 318.494 355.826 318.391 356.429 318.391C356.882 318.391 357.328 318.457 357.768 318.59C358.206 318.723 358.604 318.921 358.959 319.182C359.314 319.445 359.596 319.766 359.803 320.151C360.014 320.535 360.121 320.979 360.121 321.482V324.152L360.195 325.661H358.486L358.308 324.67C358.06 325.054 357.705 325.341 357.243 325.528C356.778 325.714 356.305 325.809 355.822 325.809ZM356.014 324.182C356.31 324.182 356.615 324.143 356.932 324.063C357.246 323.986 357.526 323.838 357.768 323.619C358.008 323.403 358.155 323.1 358.205 322.71H355.866C355.609 322.71 355.365 322.775 355.134 322.902C354.906 323.032 354.793 323.216 354.793 323.457C354.793 323.634 354.86 323.778 354.993 323.886C355.13 323.995 355.297 324.071 355.489 324.115C355.681 324.159 355.855 324.182 356.014 324.182Z" fill="#41A3E0"/>
<path d="M364.551 325.669L360.799 318.68V318.621H362.886L364.654 322.068L365.365 323.865L366.016 322.097L367.807 318.621H369.915V318.68L366.12 325.669H364.551Z" fill="#41A3E0"/>
<path d="M373.871 325.778C373.149 325.778 372.509 325.626 371.947 325.319C371.388 325.014 370.95 324.587 370.63 324.04C370.308 323.493 370.149 322.862 370.149 322.147C370.149 321.427 370.308 320.793 370.63 320.246C370.95 319.699 371.394 319.273 371.962 318.966C372.533 318.661 373.185 318.508 373.915 318.508C374.674 318.508 375.33 318.669 375.884 318.989C376.435 319.31 376.86 319.758 377.156 320.335C377.456 320.911 377.608 321.59 377.608 322.368C377.608 322.439 377.608 322.515 377.608 322.598C377.608 322.683 377.602 322.764 377.593 322.842H372.102C372.162 323.182 372.291 323.448 372.495 323.641C372.702 323.833 372.942 323.97 373.22 324.047C373.495 324.127 373.767 324.166 374.034 324.166C374.359 324.166 374.672 324.118 374.973 324.018C375.273 323.92 375.502 323.733 375.662 323.456L377.215 324.003C376.968 324.467 376.664 324.829 376.305 325.09C375.945 325.353 375.558 325.532 375.144 325.63C374.729 325.728 374.304 325.778 373.871 325.778ZM372.102 321.407H375.765C375.665 320.963 375.434 320.636 375.07 320.423C374.703 320.213 374.324 320.105 373.93 320.105C373.505 320.105 373.118 320.216 372.768 320.438C372.422 320.66 372.2 320.984 372.102 321.407Z" fill="#41A3E0"/>
<path d="M339.986 346.543C339.423 346.543 338.846 346.493 338.254 346.395C337.662 346.295 337.104 346.127 336.582 345.885C336.064 345.645 335.629 345.299 335.28 344.85C334.928 344.402 334.719 343.834 334.651 343.148L336.693 342.897C336.732 343.293 336.858 343.614 337.07 343.866C337.287 344.114 337.559 344.306 337.884 344.443C338.21 344.581 338.554 344.678 338.92 344.731C339.285 344.787 339.63 344.813 339.956 344.813C340.152 344.813 340.415 344.796 340.74 344.761C341.066 344.728 341.392 344.661 341.717 344.561C342.046 344.463 342.331 344.321 342.568 344.132C342.805 343.945 342.938 343.707 342.968 343.415C342.997 343.071 342.925 342.799 342.753 342.601C342.579 342.405 342.346 342.257 342.05 342.157C341.758 342.059 341.432 341.991 341.073 341.95C340.713 341.912 340.356 341.888 340 341.876L339.305 341.847C338.82 341.828 338.315 341.784 337.788 341.714C337.265 341.645 336.776 341.518 336.323 341.329C335.868 341.142 335.498 340.863 335.213 340.493C334.926 340.124 334.784 339.628 334.784 339.007C334.784 338.471 334.891 338.008 335.109 337.624C335.326 337.239 335.616 336.925 335.983 336.677C336.347 336.431 336.752 336.239 337.196 336.1C337.644 335.963 338.102 335.867 338.572 335.812C339.04 335.758 339.486 335.73 339.912 335.73C340.444 335.73 340.986 335.771 341.54 335.849C342.096 335.928 342.612 336.074 343.086 336.285C343.56 336.498 343.948 336.808 344.255 337.217C344.56 337.627 344.732 338.156 344.773 338.807L342.731 339.007C342.701 338.678 342.585 338.404 342.383 338.186C342.18 337.97 341.932 337.801 341.636 337.683C341.343 337.565 341.04 337.483 340.726 337.439C340.409 337.395 340.123 337.372 339.867 337.372C339.69 337.372 339.438 337.391 339.113 337.424C338.787 337.459 338.454 337.528 338.114 337.631C337.773 337.735 337.485 337.894 337.248 338.105C337.015 338.317 336.9 338.604 336.9 338.962C336.9 339.308 337.013 339.565 337.24 339.732C337.472 339.9 337.773 340.013 338.143 340.072C338.513 340.131 338.909 340.172 339.335 340.19C340.045 340.201 340.74 340.242 341.421 340.316C342.106 340.39 342.725 340.529 343.278 340.73C343.83 340.933 344.27 341.231 344.596 341.625C344.921 342.021 345.084 342.542 345.084 343.193C345.084 343.79 344.923 344.31 344.603 344.753C344.281 345.197 343.863 345.558 343.345 345.833C342.827 346.111 342.274 346.301 341.688 346.41C341.214 346.499 340.646 346.543 339.986 346.543Z" fill="#41A3E0"/>
<path d="M349.938 346.418C348.94 346.407 348.178 346.115 347.651 345.538C347.128 344.961 346.867 344.227 346.867 343.334V340.686H345.564V339.251H346.867V335.945H348.739V339.251H351.255V340.686H348.739V343.334C348.728 343.753 348.861 344.103 349.138 344.384C349.414 344.665 349.764 344.806 350.189 344.806C350.337 344.806 350.493 344.787 350.655 344.746C350.818 344.708 350.983 344.643 351.151 344.554L351.654 345.944C351.318 346.113 351.01 346.233 350.729 346.307C350.448 346.381 350.184 346.418 349.938 346.418Z" fill="#41A3E0"/>
<path d="M355.992 346.406C355.567 346.406 355.145 346.347 354.727 346.228C354.313 346.11 353.935 345.914 353.595 345.637C353.254 345.361 352.983 344.993 352.781 344.535C352.577 344.076 352.478 343.514 352.478 342.848V339.254H354.409V342.893C354.409 343.357 354.485 343.727 354.638 344.002C354.79 344.274 354.99 344.472 355.238 344.594C355.484 344.718 355.744 344.784 356.022 344.793C356.318 344.793 356.603 344.731 356.88 344.601C357.156 344.474 357.383 344.272 357.561 343.995C357.739 343.714 357.827 343.347 357.827 342.893V339.254H359.744V346.287H358.109L357.931 345.429C357.733 345.766 357.452 346.012 357.087 346.169C356.721 346.326 356.357 346.406 355.992 346.406Z" fill="#41A3E0"/>
<path d="M364.483 346.403C363.684 346.344 363.026 346.142 362.508 345.797C361.994 345.453 361.612 345.016 361.361 344.488C361.109 343.955 360.984 343.384 360.984 342.772C360.984 342.062 361.135 341.433 361.442 340.886C361.748 340.338 362.182 339.909 362.745 339.599C363.311 339.288 363.984 339.133 364.765 339.133C365.149 339.133 365.531 339.218 365.912 339.384C366.291 339.553 366.585 339.795 366.792 340.109V335.945H368.694V346.285H367.103L366.911 345.308C366.624 345.743 366.261 346.041 365.823 346.203C365.383 346.366 364.937 346.433 364.483 346.403ZM364.868 344.732C365.479 344.732 365.965 344.547 366.326 344.177C366.685 343.803 366.866 343.339 366.866 342.786C366.866 342.235 366.69 341.766 366.341 341.381C365.989 340.997 365.499 340.804 364.868 340.804C364.434 340.804 364.069 340.901 363.773 341.093C363.477 341.285 363.257 341.533 363.115 341.832C362.976 342.134 362.907 342.446 362.907 342.772C362.907 343.079 362.976 343.384 363.115 343.689C363.257 343.99 363.477 344.24 363.773 344.436C364.069 344.634 364.434 344.732 364.868 344.732Z" fill="#41A3E0"/>
<path d="M370.303 338.223V335.945H372.19V338.223H370.303ZM370.303 346.285V339.251H372.19V346.285H370.303Z" fill="#41A3E0"/>
<path d="M377.348 346.406C376.608 346.406 375.944 346.251 375.357 345.94C374.775 345.629 374.316 345.2 373.981 344.653C373.645 344.106 373.478 343.475 373.478 342.76C373.478 342.041 373.645 341.41 373.981 340.867C374.316 340.325 374.775 339.898 375.357 339.587C375.944 339.276 376.608 339.121 377.348 339.121C378.088 339.121 378.746 339.276 379.324 339.587C379.901 339.898 380.354 340.325 380.685 340.867C381.02 341.41 381.188 342.041 381.188 342.76C381.188 343.475 381.02 344.106 380.685 344.653C380.354 345.2 379.901 345.629 379.324 345.94C378.746 346.251 378.088 346.406 377.348 346.406ZM377.348 344.764C377.899 344.764 378.356 344.577 378.717 344.202C379.076 343.823 379.257 343.342 379.257 342.76C379.257 342.179 379.076 341.7 378.717 341.325C378.356 340.952 377.899 340.763 377.348 340.763C376.786 340.763 376.323 340.952 375.964 341.325C375.609 341.7 375.431 342.179 375.431 342.76C375.431 343.342 375.609 343.823 375.964 344.202C376.323 344.577 376.786 344.764 377.348 344.764Z" fill="#41A3E0"/>
</svg>
