<svg width="358" height="345" viewBox="0 0 358 345" fill="none" xmlns="http://www.w3.org/2000/svg">
<mask id="mask0_1048_6304" style="mask-type:luminance" maskUnits="userSpaceOnUse" x="78" y="214" width="201" height="100">
<path d="M78.6782 214.924H278.865V313.855H78.6782V214.924Z" fill="white"/>
</mask>
<g mask="url(#mask0_1048_6304)">
<path d="M278.543 274.379C276.886 275.949 275.193 277.479 273.464 278.969C271.734 280.458 269.968 281.905 268.168 283.311C266.367 284.718 264.534 286.081 262.668 287.4C260.801 288.721 258.904 289.995 256.976 291.224C255.047 292.455 253.09 293.638 251.104 294.777C249.118 295.915 247.106 297.004 245.066 298.048C243.028 299.091 240.965 300.084 238.877 301.03C236.79 301.976 234.682 302.87 232.551 303.717C230.42 304.563 228.27 305.358 226.101 306.103C223.931 306.847 221.746 307.54 219.542 308.181C217.34 308.822 215.122 309.412 212.891 309.948C210.659 310.485 208.416 310.969 206.161 311.399C203.906 311.831 201.642 312.207 199.369 312.531C197.095 312.855 194.816 313.126 192.529 313.342C190.242 313.559 187.953 313.72 185.658 313.829C183.364 313.938 181.068 313.992 178.77 313.992C176.474 313.992 174.178 313.938 171.884 313.829C169.59 313.72 167.3 313.559 165.013 313.342C162.726 313.126 160.447 312.855 158.174 312.531C155.899 312.207 153.635 311.831 151.38 311.399C149.125 310.969 146.882 310.485 144.651 309.948C142.419 309.412 140.202 308.822 137.998 308.181C135.796 307.54 133.609 306.847 131.441 306.103C129.271 305.358 127.122 304.563 124.991 303.717C122.86 302.87 120.751 301.976 118.664 301.03C116.577 300.084 114.514 299.091 112.475 298.048C110.436 297.004 108.424 295.915 106.437 294.777C104.452 293.638 102.495 292.455 100.566 291.224C98.6385 289.995 96.7396 288.721 94.874 287.4C93.007 286.081 91.1733 284.718 89.3729 283.311C87.5725 281.905 85.8085 280.458 84.0778 278.969C82.3472 277.479 80.6544 275.949 78.9995 274.379L110.909 242.925C115.716 238.182 120.973 233.987 126.684 230.343C158.278 210.175 199.262 210.175 230.858 230.343C236.567 233.987 241.826 238.182 246.633 242.925L278.543 274.379Z" fill="#00537D"/>
</g>
<mask id="mask1_1048_6304" style="mask-type:luminance" maskUnits="userSpaceOnUse" x="78" y="30" width="201" height="100">
<path d="M78.6782 30.1875H278.865V129.259H78.6782V30.1875Z" fill="white"/>
</mask>
<g mask="url(#mask1_1048_6304)">
<path d="M278.543 69.7988L246.633 101.254C241.826 105.998 236.567 110.193 230.858 113.836C199.262 134.005 158.278 134.005 126.684 113.836C120.973 110.193 115.716 105.998 110.909 101.254L78.9995 69.7988C80.6544 68.2302 82.3472 66.7005 84.0778 65.2111C85.8085 63.7218 87.5725 62.2742 89.3729 60.867C91.1733 59.4613 93.007 58.0989 94.874 56.7783C96.7396 55.4592 98.6385 54.1849 100.566 52.954C102.495 51.7245 104.452 50.5399 106.437 49.4031C108.424 48.2647 110.436 47.1742 112.475 46.1315C114.514 45.0888 116.577 44.0954 118.664 43.1498C120.751 42.2041 122.86 41.3078 124.991 40.4623C127.122 39.6168 129.271 38.8205 131.441 38.0766C133.609 37.3327 135.796 36.6395 137.998 35.9986C140.202 35.3563 142.419 34.7677 144.651 34.2314C146.882 33.6936 149.125 33.2111 151.38 32.7794C153.635 32.3491 155.899 31.9712 158.174 31.647C160.447 31.3228 162.726 31.0539 165.013 30.8373C167.3 30.6207 169.59 30.4579 171.884 30.3503C174.178 30.2413 176.474 30.1875 178.77 30.1875C181.068 30.1875 183.364 30.2413 185.658 30.3503C187.953 30.4579 190.242 30.6207 192.529 30.8373C194.816 31.0539 197.095 31.3228 199.369 31.647C201.642 31.9712 203.906 32.3491 206.161 32.7794C208.416 33.2111 210.659 33.6936 212.891 34.2314C215.122 34.7677 217.339 35.3563 219.542 35.9986C221.746 36.6395 223.931 37.3327 226.101 38.0766C228.27 38.8205 230.42 39.6168 232.551 40.4623C234.682 41.3078 236.79 42.2041 238.877 43.1498C240.965 44.0954 243.028 45.0888 245.066 46.1315C247.106 47.1742 249.118 48.2647 251.104 49.4031C253.09 50.5399 255.047 51.7245 256.976 52.954C258.904 54.1849 260.801 55.4592 262.668 56.7783C264.534 58.0989 266.367 59.4613 268.168 60.867C269.968 62.2742 271.734 63.7218 273.464 65.2111C275.193 66.7005 276.886 68.2302 278.543 69.7988Z" fill="#038FBD"/>
</g>
<mask id="mask2_1048_6304" style="mask-type:luminance" maskUnits="userSpaceOnUse" x="222" y="73" width="101" height="198">
<path d="M222.223 73.4238H322.585V270.757H222.223V73.4238Z" fill="white"/>
</mask>
<g mask="url(#mask2_1048_6304)">
<path d="M322.726 172.091C322.729 174.355 322.676 176.619 322.57 178.882C322.462 181.144 322.3 183.402 322.083 185.657C321.865 187.911 321.594 190.159 321.266 192.4C320.939 194.642 320.559 196.874 320.122 199.098C319.687 201.321 319.198 203.534 318.654 205.734C318.111 207.935 317.514 210.12 316.864 212.292C316.214 214.464 315.512 216.62 314.756 218.759C314.001 220.898 313.195 223.018 312.337 225.118C311.478 227.219 310.569 229.298 309.609 231.355C308.65 233.414 307.641 235.447 306.582 237.456C305.524 239.467 304.416 241.451 303.261 243.408C302.105 245.365 300.903 247.293 299.654 249.195C298.404 251.095 297.11 252.964 295.769 254.803C294.429 256.643 293.044 258.45 291.615 260.223C290.187 261.996 288.716 263.735 287.202 265.439C285.689 267.142 284.136 268.809 282.54 270.441L250.63 238.986C245.819 234.247 241.563 229.064 237.867 223.436C217.407 192.291 217.407 151.891 237.867 120.747C241.563 115.118 245.819 109.936 250.63 105.197L282.54 73.7422C284.136 75.372 285.689 77.0391 287.202 78.7436C288.716 80.4467 290.187 82.1855 291.615 83.9602C293.044 85.7334 294.429 87.5395 295.769 89.3785C297.11 91.2174 298.404 93.0877 299.654 94.9879C300.903 96.8881 302.105 98.8167 303.261 100.775C304.416 102.732 305.524 104.716 306.582 106.725C307.641 108.736 308.65 110.769 309.609 112.826C310.569 114.885 311.478 116.963 312.337 119.065C313.195 121.165 314.001 123.285 314.756 125.424C315.512 127.562 316.214 129.717 316.864 131.889C317.514 134.061 318.111 136.248 318.654 138.449C319.198 140.649 319.687 142.86 320.122 145.085C320.559 147.308 320.939 149.541 321.266 151.782C321.594 154.024 321.865 156.272 322.083 158.526C322.3 160.781 322.462 163.039 322.57 165.301C322.676 167.563 322.729 169.826 322.726 172.091Z" fill="#1FBEDE"/>
</g>
<mask id="mask3_1048_6304" style="mask-type:luminance" maskUnits="userSpaceOnUse" x="34" y="73" width="102" height="198">
<path d="M34.8164 73.4238H135.321V270.757H34.8164V73.4238Z" fill="white"/>
</mask>
<g mask="url(#mask3_1048_6304)">
<path d="M119.675 223.436C115.979 229.064 111.723 234.247 106.91 238.986L75.0005 270.441C73.4093 268.808 71.8575 267.139 70.3465 265.435C68.8356 263.729 67.3671 261.989 65.9396 260.214C64.5135 258.439 63.1314 256.632 61.7917 254.793C60.4536 252.952 59.1609 251.082 57.9121 249.182C56.6649 247.28 55.4631 245.351 54.3099 243.393C53.1551 241.436 52.0488 239.452 50.991 237.441C49.9332 235.432 48.9254 233.399 47.9661 231.34C47.0068 229.283 46.0975 227.205 45.2398 225.105C44.382 223.005 43.5743 220.885 42.8196 218.747C42.0649 216.608 41.3617 214.454 40.7116 212.282C40.0599 210.11 39.4628 207.924 38.9188 205.725C38.3732 203.525 37.8837 201.314 37.4457 199.091C37.0093 196.868 36.6259 194.636 36.297 192.395C35.9682 190.155 35.6954 187.908 35.4756 185.654C35.2559 183.399 35.0907 181.142 34.9816 178.88C34.871 176.619 34.8164 174.355 34.8164 172.091C34.8164 169.828 34.871 167.564 34.9816 165.303C35.0907 163.041 35.2559 160.784 35.4756 158.529C35.6954 156.275 35.9682 154.028 36.297 151.788C36.6259 149.545 37.0093 147.314 37.4457 145.091C37.8837 142.868 38.3732 140.657 38.9188 138.458C39.4628 136.257 40.0599 134.072 40.7116 131.9C41.3617 129.729 42.0649 127.574 42.8196 125.436C43.5743 123.297 44.382 121.178 45.2398 119.078C46.0975 116.978 47.0068 114.898 47.9661 112.841C48.9254 110.784 49.9332 108.751 50.991 106.74C52.0488 104.731 53.1551 102.747 54.3099 100.789C55.4631 98.8316 56.6649 96.9031 57.9121 95.0014C59.1609 93.1012 60.4536 91.2294 61.7917 89.3904C63.1314 87.55 64.5135 85.7424 65.9396 83.9677C67.3671 82.193 68.8356 80.4541 70.3465 78.7481C71.8575 77.0421 73.4093 75.3735 75.0005 73.7422L106.91 105.197C111.723 109.936 115.979 115.118 119.675 120.747C140.135 151.891 140.135 192.291 119.675 223.436Z" fill="#0074A0"/>
</g>
<mask id="mask4_1048_6304" style="mask-type:luminance" maskUnits="userSpaceOnUse" x="0" y="0" width="358" height="345">
<path d="M357.544 0H0V344.186H357.544V0Z" fill="black" fill-opacity="0.5"/>
</mask>
<g mask="url(#mask4_1048_6304)">
<mask id="mask5_1048_6304" style="mask-type:luminance" maskUnits="userSpaceOnUse" x="99" y="94" width="159" height="157">
<path d="M257.916 94.082H99.6284V250.113H257.916V94.082Z" fill="white"/>
</mask>
<g mask="url(#mask5_1048_6304)">
<mask id="mask6_1048_6304" style="mask-type:luminance" maskUnits="userSpaceOnUse" x="99" y="94" width="159" height="156">
<path d="M99.8149 94.3047H257.73V249.876H99.8149V94.3047Z" fill="white"/>
</mask>
<g mask="url(#mask6_1048_6304)">
<path d="M119.675 223.436C118.892 222.559 118.128 221.665 117.384 220.754C116.642 219.843 115.919 218.917 115.218 217.973C114.518 217.03 113.839 216.072 113.182 215.098C112.525 214.126 111.892 213.138 111.28 212.136C110.668 211.135 110.08 210.121 109.514 209.093C108.951 208.065 108.408 207.026 107.891 205.974C107.374 204.922 106.88 203.859 106.412 202.784C105.942 201.712 105.5 200.627 105.08 199.534C104.66 198.44 104.268 197.338 103.898 196.228C103.53 195.116 103.187 193.998 102.869 192.871C102.552 191.745 102.261 190.612 101.996 189.473C101.729 188.334 101.49 187.189 101.278 186.04C101.064 184.889 100.878 183.735 100.718 182.577C100.558 181.419 100.424 180.257 100.317 179.093C100.211 177.93 100.13 176.763 100.076 175.596C100.023 174.428 99.9956 173.26 99.9956 172.09C99.9956 170.922 100.023 169.754 100.076 168.585C100.13 167.417 100.211 166.252 100.317 165.087C100.424 163.923 100.558 162.762 100.718 161.605C100.878 160.445 101.064 159.292 101.278 158.142C101.49 156.992 101.729 155.847 101.996 154.707C102.261 153.569 102.552 152.435 102.869 151.309C103.187 150.183 103.53 149.065 103.898 147.954C104.268 146.842 104.66 145.74 105.08 144.646C105.5 143.553 105.942 142.47 106.412 141.396C106.88 140.322 107.374 139.259 107.891 138.208C108.408 137.156 108.951 136.116 109.514 135.089C110.08 134.061 110.668 133.046 111.28 132.044C111.892 131.043 112.525 130.056 113.182 129.082C113.839 128.109 114.518 127.152 115.218 126.208C115.919 125.265 116.642 124.339 117.384 123.427C118.128 122.516 118.892 121.623 119.675 120.746C140.136 151.89 140.136 192.29 119.675 223.436ZM126.685 230.345C127.574 231.117 128.48 231.87 129.405 232.602C130.328 233.335 131.269 234.047 132.225 234.737C133.183 235.428 134.154 236.098 135.141 236.744C136.129 237.391 137.131 238.017 138.146 238.621C139.163 239.223 140.192 239.802 141.235 240.36C142.277 240.917 143.332 241.45 144.399 241.961C145.466 242.47 146.543 242.956 147.633 243.419C148.722 243.881 149.821 244.318 150.93 244.732C152.04 245.144 153.158 245.533 154.286 245.896C155.413 246.259 156.547 246.598 157.689 246.91C158.832 247.224 159.982 247.511 161.137 247.772C162.293 248.034 163.454 248.27 164.621 248.48C165.788 248.689 166.958 248.873 168.134 249.032C169.309 249.19 170.486 249.321 171.667 249.426C172.849 249.532 174.031 249.611 175.216 249.663C176.401 249.717 177.586 249.743 178.771 249.743C179.958 249.743 181.143 249.717 182.328 249.663C183.512 249.611 184.695 249.532 185.876 249.426C187.056 249.321 188.235 249.19 189.41 249.032C190.584 248.873 191.756 248.689 192.923 248.48C194.088 248.27 195.25 248.034 196.405 247.772C197.561 247.511 198.71 247.224 199.853 246.91C200.995 246.598 202.131 246.259 203.258 245.896C204.384 245.533 205.502 245.144 206.612 244.732C207.721 244.318 208.821 243.881 209.909 243.419C210.999 242.956 212.078 242.47 213.145 241.961C214.212 241.45 215.267 240.917 216.309 240.36C217.352 239.802 218.381 239.223 219.396 238.621C220.413 238.017 221.415 237.391 222.401 236.744C223.39 236.098 224.361 235.428 225.317 234.737C226.275 234.047 227.215 233.335 228.139 232.602C229.063 231.87 229.97 231.117 230.859 230.345C199.263 210.176 158.279 210.176 126.685 230.345ZM230.859 113.837C229.97 113.064 229.063 112.312 228.139 111.578C227.215 110.846 226.275 110.134 225.317 109.443C224.361 108.753 223.39 108.084 222.401 107.436C221.415 106.789 220.413 106.164 219.396 105.561C218.381 104.957 217.352 104.378 216.309 103.82C215.267 103.265 214.212 102.73 213.145 102.221C212.078 101.711 210.999 101.224 209.909 100.763C208.821 100.301 207.721 99.8632 206.612 99.4494C205.502 99.0356 204.384 98.6487 203.258 98.2842C202.131 97.9212 200.995 97.5836 199.853 97.2699C198.71 96.9576 197.561 96.6708 196.405 96.4094C195.25 96.1465 194.088 95.9105 192.923 95.7013C191.756 95.4907 190.584 95.3069 189.41 95.1501C188.235 94.9917 187.056 94.8603 185.876 94.7542C184.695 94.6496 183.512 94.5705 182.328 94.5167C181.143 94.4644 179.958 94.4375 178.771 94.4375C177.586 94.4375 176.401 94.4644 175.216 94.5167C174.031 94.5705 172.849 94.6496 171.667 94.7542C170.486 94.8603 169.309 94.9917 168.134 95.1501C166.958 95.3069 165.788 95.4907 164.621 95.7013C163.454 95.9105 162.293 96.1465 161.137 96.4094C159.982 96.6708 158.832 96.9576 157.689 97.2699C156.547 97.5836 155.413 97.9212 154.286 98.2842C153.158 98.6487 152.04 99.0356 150.93 99.4494C149.821 99.8632 148.722 100.301 147.633 100.763C146.543 101.224 145.466 101.711 144.399 102.221C143.332 102.73 142.277 103.265 141.235 103.82C140.192 104.378 139.163 104.959 138.146 105.561C137.131 106.164 136.129 106.789 135.141 107.436C134.154 108.084 133.183 108.753 132.225 109.443C131.269 110.134 130.328 110.846 129.405 111.578C128.48 112.312 127.574 113.064 126.685 113.837C158.279 134.005 199.263 134.005 230.859 113.837ZM237.868 120.746C217.408 151.89 217.408 192.29 237.868 223.436C238.652 222.559 239.416 221.665 240.158 220.754C240.902 219.843 241.624 218.917 242.324 217.973C243.025 217.03 243.704 216.072 244.361 215.098C245.017 214.126 245.652 213.138 246.264 212.136C246.875 211.135 247.463 210.121 248.028 209.093C248.593 208.065 249.134 207.026 249.653 205.974C250.169 204.922 250.662 203.859 251.132 202.784C251.6 201.712 252.044 200.627 252.464 199.534C252.882 198.44 253.276 197.338 253.644 196.228C254.013 195.116 254.357 193.998 254.673 192.871C254.992 191.745 255.283 190.612 255.548 189.473C255.813 188.334 256.052 187.189 256.266 186.04C256.478 184.889 256.665 183.735 256.825 182.577C256.986 181.419 257.119 180.257 257.225 179.093C257.333 177.93 257.413 176.763 257.466 175.596C257.521 174.428 257.547 173.26 257.547 172.09C257.547 170.922 257.521 169.754 257.466 168.585C257.413 167.417 257.333 166.252 257.225 165.087C257.119 163.923 256.986 162.762 256.825 161.605C256.665 160.445 256.478 159.292 256.266 158.142C256.052 156.992 255.813 155.847 255.548 154.707C255.283 153.569 254.992 152.435 254.673 151.309C254.357 150.183 254.013 149.065 253.644 147.954C253.276 146.842 252.882 145.74 252.464 144.646C252.044 143.553 251.6 142.47 251.132 141.396C250.662 140.322 250.169 139.259 249.653 138.208C249.134 137.156 248.593 136.116 248.028 135.089C247.463 134.061 246.875 133.046 246.264 132.044C245.652 131.043 245.017 130.056 244.361 129.082C243.704 128.109 243.025 127.152 242.324 126.208C241.624 125.265 240.902 124.339 240.158 123.427C239.416 122.516 238.652 121.623 237.868 120.746Z" fill="#F2F2F2"/>
</g>
</g>
</g>
<mask id="mask7_1048_6304" style="mask-type:luminance" maskUnits="userSpaceOnUse" x="168" y="101" width="21" height="18">
<path d="M168.72 101.348H188.797V118.175H168.72V101.348Z" fill="white"/>
</mask>
<g mask="url(#mask7_1048_6304)">
<path d="M187.628 103.36C188.703 104.685 188.322 106.919 186.672 108.795C186.111 109.433 185.541 110.016 184.982 110.54V110.541C183.333 112.095 181.794 113.159 180.936 113.738C180.895 114.532 180.228 115.162 179.414 115.162C178.811 115.162 178.29 114.817 178.043 114.315C178.041 114.312 178.04 114.309 178.038 114.304C177.944 114.11 177.891 113.892 177.891 113.662C177.891 112.833 178.573 112.161 179.414 112.161C179.575 112.161 179.73 112.185 179.874 112.231H179.875C179.96 112.256 180.042 112.291 180.119 112.331C181.133 111.774 183.412 110.373 185.082 108.644C186.288 107.395 187.175 105.975 187.031 104.578C186.713 101.493 183.23 100.565 179.414 102.618C179.085 102.57 178.748 102.545 178.402 102.545C175.251 102.545 172.667 104.626 171.919 107.482V107.484C168.945 109.744 168.721 111.81 169.042 113.162C168.808 111.076 170.199 109.272 171.814 107.954V107.953C172.86 107.1 174.001 106.45 174.856 106.058C174.921 105.289 175.574 104.685 176.373 104.685C176.608 104.685 176.83 104.738 177.03 104.832C177.541 105.074 177.894 105.589 177.894 106.185C177.894 107.014 177.212 107.687 176.373 107.687C176.005 107.687 175.667 107.558 175.403 107.343V107.345C174.425 107.742 172.893 108.717 171.735 109.938C170.828 110.893 170.152 111.998 170.152 113.093C170.152 114.829 171.934 116.605 174.697 116.143C174.969 116.726 175.192 117.368 175.327 118.115C175.327 118.115 177.268 118.115 178.402 118.115C179.536 118.115 181.477 118.115 181.477 118.115C182.024 115.069 184.058 113.743 184.815 111.224C186.125 110.081 187.242 108.88 187.777 107.923C188.822 106.054 188.644 104.391 187.628 103.36ZM186.385 105.24C186.36 105.489 186.307 105.733 186.231 105.973V105.975C186.005 106.692 185.572 107.377 185.005 108.036C184.705 106.296 183.736 104.798 182.363 103.809C181.86 103.444 181.303 103.15 180.704 102.938C184.617 101.175 186.604 103.157 186.385 105.24ZM170.987 112.162V112.161C171.023 112.034 171.07 111.91 171.128 111.787C171.305 111.403 171.552 111.014 171.84 110.636C172.166 112.237 173.007 113.348 173.798 114.566C173.978 114.844 174.156 115.126 174.322 115.422C171.766 115.733 170.499 113.837 170.987 112.162Z" fill="#F2F2F2"/>
</g>
<path d="M177.149 106.181C177.149 106.604 176.8 106.947 176.373 106.947C175.944 106.947 175.595 106.604 175.595 106.181C175.595 105.76 175.944 105.416 176.373 105.416C176.8 105.416 177.149 105.76 177.149 106.181Z" fill="#038FBD"/>
<path d="M180.19 113.659C180.19 114.08 179.843 114.424 179.414 114.424C178.985 114.424 178.638 114.08 178.638 113.659C178.638 113.236 178.985 112.893 179.414 112.893C179.843 112.893 180.19 113.236 180.19 113.659Z" fill="#038FBD"/>
<path d="M185.596 103.263C185.097 102.718 184.356 102.43 183.456 102.43C182.768 102.43 182.004 102.596 181.181 102.924C181.636 103.12 182.068 103.365 182.471 103.655C182.492 103.671 182.513 103.688 182.536 103.702C184.097 102.878 185.896 103.478 186.216 105.016C186.237 104.352 186.017 103.723 185.596 103.263Z" fill="#038FBD"/>
<path d="M173.643 114.656C173.625 114.626 173.606 114.598 173.586 114.568C172.354 114.586 171.382 113.955 171.075 113.041C171.107 113.486 171.266 113.916 171.538 114.275C172.028 114.916 172.824 115.268 173.78 115.268C173.86 115.268 173.94 115.265 174.022 115.261C173.913 115.079 173.792 114.884 173.643 114.656Z" fill="#038FBD"/>
<path d="M181.477 119.429C181.477 119.805 181.168 120.11 180.786 120.11H176.018C175.636 120.11 175.327 119.805 175.327 119.429C175.327 119.052 175.636 118.746 176.018 118.746H180.786C181.168 118.746 181.477 119.052 181.477 119.429Z" fill="#038FBD"/>
<path d="M181.144 121.337C181.144 121.713 180.835 122.018 180.453 122.018H176.352C175.97 122.018 175.659 121.713 175.659 121.337C175.659 120.961 175.97 120.654 176.352 120.654H180.453C180.835 120.654 181.144 120.961 181.144 121.337Z" fill="#038FBD"/>
<mask id="mask8_1048_6304" style="mask-type:luminance" maskUnits="userSpaceOnUse" x="176" y="122" width="5" height="3">
<path d="M176.444 122.379H180.324V124.644H176.444V122.379Z" fill="white"/>
</mask>
<g mask="url(#mask8_1048_6304)">
<path d="M180.072 122.555H176.581V122.955C176.581 123.919 177.373 124.698 178.351 124.698C179.327 124.698 180.119 123.919 180.119 122.955V122.555H180.072Z" fill="#038FBD"/>
</g>
<mask id="mask9_1048_6304" style="mask-type:luminance" maskUnits="userSpaceOnUse" x="242" y="174" width="10" height="8">
<path d="M242.785 174.383H251.708V181.14H242.785V174.383Z" fill="white"/>
</mask>
<g mask="url(#mask9_1048_6304)">
<path d="M249.981 174.695L246.271 178.351L244.629 176.734L243.167 178.176L246.271 181.235L251.443 176.137L249.981 174.695Z" fill="#1FBEDE"/>
</g>
<mask id="mask10_1048_6304" style="mask-type:luminance" maskUnits="userSpaceOnUse" x="229" y="162" width="17" height="20">
<path d="M229.719 162.537H245.113V181.149H229.719V162.537Z" fill="white"/>
</mask>
<g mask="url(#mask10_1048_6304)">
<path d="M244.836 164.897C243.244 163.641 241.227 162.887 239.028 162.887C233.885 162.887 229.719 166.993 229.719 172.065C229.719 177.134 233.885 181.242 239.028 181.242V179.203C235.027 179.203 231.787 176.007 231.787 172.065C231.787 168.12 235.027 164.926 239.028 164.926C240.656 164.926 242.15 165.461 243.359 166.352L244.836 164.897Z" fill="#F2F2F2"/>
</g>
<path d="M244.823 167.793C245.728 168.985 246.271 170.459 246.271 172.064H248.339C248.339 169.896 247.574 167.908 246.299 166.338L244.823 167.793Z" fill="#F2F2F2"/>
<path d="M241.821 170.747C242.015 171.146 242.132 171.587 242.132 172.059C242.132 173.749 240.742 175.118 239.028 175.118C237.314 175.118 235.925 173.749 235.925 172.059C235.925 170.368 237.314 169 239.028 169C239.507 169 239.954 169.115 240.359 169.304L241.877 167.807C241.062 167.273 240.083 166.959 239.028 166.959C236.172 166.959 233.856 169.242 233.856 172.058C233.856 174.875 236.172 177.158 239.028 177.158C241.886 177.158 244.202 174.875 244.202 172.059C244.202 171.019 243.882 170.054 243.341 169.249L241.821 170.747Z" fill="#F2F2F2"/>
<mask id="mask11_1048_6304" style="mask-type:luminance" maskUnits="userSpaceOnUse" x="237" y="156" width="18" height="18">
<path d="M237.742 156.766H254.451V173.241H237.742V156.766Z" fill="white"/>
</mask>
<g mask="url(#mask11_1048_6304)">
<path d="M239.761 172.783C239.356 173.182 238.701 173.182 238.298 172.783C237.893 172.385 237.893 171.74 238.298 171.341L246.271 163.481L246.272 160.844L250.41 156.766L250.408 160.845L254.547 160.847L250.408 164.924H247.733L239.761 172.783Z" fill="#1FBEDE"/>
</g>
<path d="M184.705 236.049C184.624 235.607 184.779 235.153 185.106 234.836L188.78 231.308C189.603 230.516 189.148 229.131 188.01 228.966L182.931 228.241C182.477 228.175 182.089 227.897 181.889 227.488L179.62 222.957C179.111 221.941 177.633 221.941 177.124 222.957L174.857 227.488C174.655 227.891 174.261 228.175 173.813 228.241L168.735 228.966C167.596 229.131 167.136 230.51 167.965 231.308L171.638 234.836C171.966 235.153 172.113 235.607 172.04 236.049L171.17 241.036C170.976 242.156 172.167 243.008 173.19 242.48L177.733 240.126C178.141 239.914 178.623 239.914 179.025 240.126L183.568 242.48C184.585 243.008 185.782 242.156 185.588 241.036L184.718 236.049H184.705ZM178.368 227.799C179.385 227.799 180.21 228.61 180.21 229.612C180.21 230.615 179.385 231.426 178.368 231.426C177.352 231.426 176.529 230.615 176.529 229.612C176.529 228.61 177.352 227.799 178.368 227.799ZM181.045 237.23C181.045 237.303 180.986 237.363 180.911 237.363H175.827C175.753 237.363 175.692 237.303 175.692 237.23V233.734C175.692 232.824 176.442 232.086 177.365 232.086H179.373C180.296 232.086 181.045 232.824 181.045 233.734V237.23Z" fill="#F2F2F2"/>
<mask id="mask12_1048_6304" style="mask-type:luminance" maskUnits="userSpaceOnUse" x="107" y="166" width="21" height="19">
<path d="M107.693 166.574H127.77V184.644H107.693V166.574Z" fill="white"/>
</mask>
<g mask="url(#mask12_1048_6304)">
<path d="M109.525 166.574C108.515 166.574 107.696 167.381 107.696 168.377V179.197C107.696 180.194 108.515 181 109.525 181H115.93V182.804H115.014C114.51 182.804 114.099 183.208 114.099 183.706C114.099 184.203 114.51 184.608 115.014 184.608H120.504C121.008 184.608 121.417 184.203 121.417 183.706C121.417 183.208 121.008 182.804 120.504 182.804H119.588V181H125.991C127.002 181 127.82 180.194 127.82 179.197V168.377C127.82 167.381 127.002 166.574 125.991 166.574H109.525ZM109.525 168.377H125.991V179.197H109.525V168.377ZM118.402 170.168C118.138 170.209 117.912 170.401 117.842 170.673L116.345 176.576C116.253 176.937 116.477 177.303 116.844 177.394C117.212 177.485 117.583 177.263 117.674 176.901L119.171 170.999C119.264 170.638 119.041 170.272 118.673 170.18C118.582 170.158 118.489 170.155 118.402 170.168ZM114.099 171.083C113.929 171.083 113.76 171.145 113.629 171.274L111.55 173.322C111.291 173.579 111.291 173.994 111.55 174.25L113.628 176.298C113.888 176.555 114.31 176.555 114.569 176.298C114.83 176.042 114.83 175.629 114.569 175.372L112.964 173.787L114.569 172.202C114.831 171.945 114.831 171.529 114.572 171.274C114.442 171.145 114.27 171.083 114.099 171.083ZM121.413 171.083C121.242 171.083 121.07 171.145 120.94 171.274C120.681 171.529 120.681 171.945 120.94 172.202L122.548 173.787L120.94 175.372C120.681 175.629 120.681 176.042 120.94 176.298C121.201 176.555 121.622 176.555 121.883 176.298L123.96 174.25C124.219 173.994 124.219 173.579 123.96 173.322L121.883 171.274C121.752 171.145 121.583 171.083 121.413 171.083Z" fill="#F2F2F2"/>
</g>
<path d="M130.24 70.5961L126.143 61.627H128.107L130.574 67.1901L131.131 68.7198L131.713 67.1901L133.69 62.9894H135.005L137.048 67.2021L137.63 68.7318L138.188 67.1901L140.564 61.627H142.558L138.485 70.5961H136.854L134.763 66.252L134.35 65.0628L133.95 66.252L131.907 70.5961H130.24Z" fill="white"/>
<path d="M145.41 70.6652C144.989 70.6563 144.58 70.5846 144.18 70.4501C143.782 70.3157 143.46 70.102 143.21 69.8107C142.963 69.5164 142.84 69.1295 142.84 68.6515C142.84 68.1854 142.967 67.8194 143.222 67.552C143.476 67.2861 143.807 67.0919 144.216 66.9724C144.624 66.8529 145.052 66.7931 145.501 66.7931H147.453C147.339 66.4391 147.127 66.1777 146.816 66.0103C146.509 65.843 146.177 65.7594 145.822 65.7594C145.51 65.7594 145.207 65.8221 144.913 65.9446C144.622 66.0686 144.392 66.2419 144.222 66.4645L143.161 65.5562C143.488 65.0588 143.901 64.7196 144.398 64.5404C144.898 64.3611 145.412 64.2715 145.937 64.2715C146.333 64.2715 146.722 64.3297 147.107 64.4448C147.491 64.5613 147.838 64.7316 148.15 64.9587C148.461 65.1827 148.708 65.4591 148.89 65.7893C149.074 66.1209 149.168 66.5033 149.168 66.9365V69.2431L149.235 70.5397H147.738L147.58 69.6852C147.365 70.0169 147.054 70.2634 146.647 70.4262C146.242 70.5846 145.83 70.6652 145.41 70.6652ZM145.58 69.267C145.837 69.267 146.104 69.2341 146.38 69.1654C146.654 69.0982 146.897 68.9712 147.107 68.783C147.321 68.5962 147.448 68.3333 147.489 67.9942H145.446C145.224 67.9942 145.012 68.051 144.81 68.1615C144.607 68.2691 144.507 68.4289 144.507 68.6395C144.507 68.7949 144.564 68.9204 144.683 69.016C144.804 69.1086 144.949 69.1743 145.119 69.2132C145.289 69.249 145.442 69.267 145.58 69.267Z" fill="white"/>
<path d="M153.049 70.5516L149.763 64.5284V64.4746H151.588L153.14 67.4444L153.758 68.998L154.328 67.4683L155.892 64.4746H157.741V64.5284L154.419 70.5516H153.049Z" fill="white"/>
<path d="M161.202 70.6433C160.571 70.6433 160.009 70.5118 159.516 70.2489C159.027 69.986 158.643 69.62 158.365 69.1494C158.086 68.6758 157.946 68.1306 157.946 67.5121C157.946 66.8907 158.086 66.3454 158.365 65.8748C158.643 65.4013 159.031 65.0323 159.528 64.7694C160.029 64.5065 160.598 64.375 161.238 64.375C161.9 64.375 162.471 64.5154 162.953 64.7933C163.438 65.0682 163.811 65.4551 164.075 65.9525C164.337 66.447 164.469 67.0311 164.469 67.7033C164.469 67.7601 164.469 67.8258 164.469 67.9005C164.469 67.9722 164.464 68.0424 164.457 68.1097H159.65C159.701 68.4054 159.816 68.6355 159.995 68.8028C160.177 68.9701 160.389 69.0881 160.632 69.1554C160.874 69.2241 161.111 69.2569 161.341 69.2569C161.627 69.2569 161.902 69.2151 162.165 69.1315C162.428 69.0448 162.628 68.8805 162.765 68.6415L164.123 69.1135C163.905 69.5124 163.638 69.8246 163.323 70.0517C163.011 70.2758 162.675 70.4311 162.311 70.5178C161.95 70.6014 161.58 70.6433 161.202 70.6433ZM159.65 66.8727H162.856C162.767 66.4903 162.562 66.208 162.244 66.0242C161.929 65.842 161.597 65.7494 161.25 65.7494C160.882 65.7494 160.544 65.845 160.238 66.0362C159.93 66.2274 159.735 66.5067 159.65 66.8727Z" fill="white"/>
<path d="M169.158 70.5331V61.5879H173.402C174.294 61.5879 175.081 61.7836 175.76 62.1735C176.442 62.5649 176.973 63.0982 177.354 63.7749C177.733 64.4486 177.924 65.212 177.924 66.0635C177.924 66.912 177.733 67.6754 177.354 68.3521C176.973 69.0258 176.445 69.5577 175.766 69.9476C175.09 70.3389 174.302 70.5331 173.402 70.5331H169.158ZM170.995 69.0273H173.426C173.967 69.0273 174.44 68.9018 174.844 68.6509C175.252 68.3969 175.567 68.0503 175.79 67.6112C176.011 67.1734 176.123 66.6775 176.123 66.1233C176.123 65.5661 176.014 65.0596 175.796 64.6055C175.578 64.1484 175.264 63.7854 174.856 63.518C174.452 63.2521 173.974 63.1176 173.426 63.1176H170.995V69.0273Z" fill="white"/>
<path d="M178.954 63.5869V61.627H180.609V63.5869H178.954ZM178.954 70.5423V64.4772H180.609V70.5423H178.954Z" fill="white"/>
<path d="M184.781 70.6579C184.247 70.6579 183.75 70.5921 183.29 70.4607C182.829 70.3292 182.448 70.1111 182.15 69.8034C181.854 69.4926 181.689 69.0729 181.653 68.5425L183.259 68.5724C183.274 68.7756 183.356 68.9339 183.502 69.0445C183.65 69.152 183.843 69.2282 184.078 69.2715C184.316 69.3164 184.564 69.3373 184.823 69.3373C185.272 69.3373 185.625 69.2775 185.884 69.158C186.142 69.0385 186.272 68.8861 186.272 68.6979C186.272 68.547 186.16 68.423 185.939 68.3274C185.72 68.2288 185.352 68.1691 184.835 68.1482C184.491 68.1332 184.14 68.0989 183.781 68.0466C183.424 67.9958 183.093 67.9091 182.786 67.7896C182.479 67.6671 182.232 67.4879 182.047 67.2518C181.865 67.0173 181.774 66.7051 181.774 66.3137C181.774 65.9313 181.867 65.6176 182.053 65.3696C182.242 65.1186 182.489 64.9184 182.792 64.7661C183.096 64.6107 183.418 64.5016 183.762 64.4374C184.105 64.3747 184.437 64.3418 184.757 64.3418C185.099 64.3418 185.445 64.3717 185.793 64.4314C186.145 64.4912 186.467 64.5972 186.763 64.7481C187.062 64.9005 187.306 65.1111 187.496 65.3815C187.686 65.6489 187.8 65.985 187.836 66.3914L186.284 66.4452C186.239 66.2061 186.12 66.0314 185.926 65.9193C185.732 65.8088 185.522 65.7371 185.296 65.7042C185.073 65.6683 184.897 65.6504 184.769 65.6504C184.417 65.6504 184.105 65.7027 183.835 65.8058C183.564 65.9104 183.429 66.0747 183.429 66.3017C183.429 66.4377 183.502 66.5438 183.647 66.6184C183.793 66.6902 183.984 66.7409 184.223 66.7678C184.466 66.7962 184.726 66.8201 185.005 66.8395C185.364 66.8634 185.723 66.9038 186.084 66.959C186.448 67.0158 186.777 67.1084 187.072 67.2399C187.371 67.3714 187.606 67.5656 187.775 67.8195C187.945 68.075 188.015 68.42 187.987 68.8533C187.927 69.2596 187.734 69.5972 187.412 69.8631C187.087 70.1305 186.692 70.3292 186.223 70.4607C185.754 70.5921 185.273 70.6579 184.781 70.6579Z" fill="white"/>
<path d="M191.905 70.6579C191.274 70.6579 190.712 70.5264 190.22 70.2635C189.73 70.0006 189.342 69.6346 189.056 69.164C188.772 68.6904 188.631 68.1452 188.631 67.5267C188.631 66.8903 188.766 66.3346 189.037 65.8596C189.312 65.3815 189.694 65.0096 190.183 64.7422C190.676 64.4762 191.25 64.3418 191.905 64.3418C192.344 64.3418 192.761 64.4075 193.154 64.539C193.544 64.6704 193.89 64.89 194.19 65.1963C194.493 65.4995 194.717 65.9104 194.863 66.4272L193.426 66.6722C193.325 66.4093 193.19 66.2166 193.02 66.0926C192.853 65.9701 192.672 65.8879 192.475 65.8476C192.276 65.8043 192.087 65.7819 191.905 65.7819C191.403 65.7819 191.014 65.9492 190.735 66.2838C190.456 66.6184 190.317 67.0337 190.317 67.5267C190.317 67.9928 190.459 68.3961 190.747 68.7338C191.033 69.0684 191.42 69.2357 191.905 69.2357C192.074 69.2357 192.253 69.2148 192.444 69.17C192.634 69.1266 192.817 69.0325 192.996 68.8891C193.173 68.7457 193.323 68.5246 193.444 68.2258L194.899 68.5425C194.754 69.0534 194.525 69.4628 194.214 69.7735C193.907 70.0842 193.551 70.3098 193.147 70.4487C192.747 70.5876 192.332 70.6579 191.905 70.6579Z" fill="white"/>
<path d="M198.896 70.6435C198.249 70.6435 197.668 70.5105 197.156 70.2431C196.642 69.9772 196.238 69.6082 195.944 69.1377C195.653 68.6641 195.507 68.1159 195.507 67.4944C195.507 66.8775 195.653 66.3352 195.944 65.8691C196.238 65.4 196.642 65.031 197.156 64.7636C197.668 64.4977 198.249 64.3633 198.896 64.3633C199.541 64.3633 200.116 64.4977 200.617 64.7636C201.122 65.031 201.521 65.4 201.812 65.8691C202.106 66.3352 202.254 66.8775 202.254 67.4944C202.254 68.1159 202.106 68.6641 201.812 69.1377C201.521 69.6082 201.122 69.9772 200.617 70.2431C200.116 70.5105 199.541 70.6435 198.896 70.6435ZM198.896 69.2273C199.376 69.2273 199.775 69.0645 200.09 68.7373C200.405 68.4117 200.563 67.9964 200.563 67.4944C200.563 66.997 200.405 66.5862 200.09 66.2635C199.775 65.9408 199.376 65.7795 198.896 65.7795C198.402 65.7795 197.999 65.9408 197.684 66.2635C197.371 66.5862 197.217 66.997 197.217 67.4944C197.217 67.9964 197.371 68.4117 197.684 68.7373C197.999 69.0645 198.402 69.2273 198.896 69.2273Z" fill="white"/>
<path d="M205.823 70.5516L202.538 64.5284V64.4746H204.362L205.914 67.4444L206.532 68.998L207.102 67.4683L208.666 64.4746H210.515V64.5284L207.193 70.5516H205.823Z" fill="white"/>
<path d="M213.976 70.6433C213.345 70.6433 212.783 70.5118 212.291 70.2489C211.801 69.986 211.418 69.62 211.139 69.1494C210.86 68.6758 210.721 68.1306 210.721 67.5121C210.721 66.8907 210.86 66.3454 211.139 65.8748C211.418 65.4013 211.806 65.0323 212.303 64.7694C212.803 64.5065 213.373 64.375 214.012 64.375C214.675 64.375 215.246 64.5154 215.728 64.7933C216.213 65.0682 216.586 65.4551 216.849 65.9525C217.111 66.447 217.243 67.0311 217.243 67.7033C217.243 67.7601 217.243 67.8258 217.243 67.9005C217.243 67.9722 217.239 68.0424 217.231 68.1097H212.424C212.476 68.4054 212.591 68.6355 212.77 68.8028C212.951 68.9701 213.164 69.0881 213.406 69.1554C213.649 69.2241 213.885 69.2569 214.115 69.2569C214.402 69.2569 214.676 69.2151 214.94 69.1315C215.202 69.0448 215.402 68.8805 215.54 68.6415L216.898 69.1135C216.68 69.5124 216.413 69.8246 216.098 70.0517C215.785 70.2758 215.449 70.4311 215.085 70.5178C214.725 70.6014 214.355 70.6433 213.976 70.6433ZM212.424 66.8727H215.631C215.541 66.4903 215.337 66.208 215.019 66.0242C214.703 65.842 214.371 65.7494 214.024 65.7494C213.656 65.7494 213.318 65.845 213.012 66.0362C212.704 66.2274 212.509 66.5067 212.424 66.8727Z" fill="white"/>
<path d="M218.405 70.5443V64.4792H219.83L219.933 65.1963C220.154 64.8467 220.419 64.6167 220.727 64.5091C221.033 64.3986 221.306 64.3418 221.545 64.3418C221.848 64.3418 222.179 64.4016 222.539 64.5211C222.903 64.6376 223.206 64.8437 223.449 65.1425L222.709 66.236C222.409 65.9656 222.056 65.8297 221.648 65.8297C221.236 65.8297 220.874 65.9671 220.563 66.242C220.256 66.5139 220.092 66.8739 220.072 67.3235V70.5443H218.405Z" fill="white"/>
<path d="M224.571 73.2944L226.317 70.1214L223.122 64.4985V64.4746H225.007L226.82 67.7492L227.208 68.7172L227.596 67.7611L229.378 64.4746H231.215V64.5284L226.408 73.2944H224.571Z" fill="white"/>
<path d="M141.542 280.686L137.444 271.717H139.408L141.875 277.28L142.433 278.81L143.015 277.28L144.991 273.079H146.306L148.349 277.292L148.931 278.822L149.489 277.28L151.865 271.717H153.859L149.786 280.686H148.155L146.064 276.342L145.652 275.153L145.252 276.342L143.209 280.686H141.542Z" fill="white"/>
<path d="M156.711 280.753C156.29 280.744 155.88 280.672 155.48 280.538C155.083 280.404 154.76 280.19 154.51 279.899C154.263 279.604 154.141 279.217 154.141 278.739C154.141 278.273 154.268 277.907 154.523 277.64C154.777 277.374 155.107 277.18 155.517 277.06C155.924 276.941 156.353 276.881 156.802 276.881H158.754C158.64 276.527 158.428 276.266 158.117 276.098C157.81 275.931 157.478 275.847 157.123 275.847C156.811 275.847 156.508 275.91 156.214 276.033C155.923 276.156 155.692 276.33 155.523 276.552L154.462 275.644C154.789 275.147 155.201 274.808 155.699 274.628C156.199 274.449 156.712 274.359 157.238 274.359C157.634 274.359 158.023 274.418 158.408 274.533C158.792 274.649 159.139 274.819 159.451 275.047C159.761 275.271 160.009 275.547 160.19 275.877C160.375 276.209 160.469 276.591 160.469 277.024V279.331L160.536 280.628H159.039L158.881 279.773C158.666 280.105 158.355 280.351 157.947 280.514C157.543 280.672 157.131 280.753 156.711 280.753ZM156.881 279.355C157.138 279.355 157.405 279.322 157.681 279.253C157.955 279.186 158.198 279.059 158.408 278.871C158.622 278.684 158.749 278.421 158.79 278.082H156.747C156.524 278.082 156.312 278.139 156.111 278.249C155.908 278.357 155.808 278.517 155.808 278.727C155.808 278.883 155.865 279.008 155.983 279.104C156.105 279.197 156.25 279.262 156.42 279.301C156.59 279.337 156.743 279.355 156.881 279.355Z" fill="white"/>
<path d="M164.35 280.63L161.064 274.607V274.553H162.889L164.441 277.523L165.059 279.076L165.629 277.546L167.193 274.553H169.042V274.607L165.72 280.63H164.35Z" fill="white"/>
<path d="M172.503 280.725C171.872 280.725 171.31 280.594 170.818 280.331C170.328 280.068 169.945 279.702 169.666 279.231C169.387 278.758 169.248 278.213 169.248 277.594C169.248 276.973 169.387 276.427 169.666 275.957C169.945 275.483 170.333 275.114 170.83 274.851C171.33 274.588 171.9 274.457 172.539 274.457C173.201 274.457 173.773 274.597 174.255 274.875C174.74 275.15 175.112 275.537 175.376 276.035C175.638 276.529 175.77 277.113 175.77 277.785C175.77 277.842 175.77 277.908 175.77 277.983C175.77 278.054 175.766 278.124 175.758 278.192H170.951C171.002 278.487 171.118 278.718 171.296 278.885C171.478 279.052 171.69 279.17 171.933 279.237C172.175 279.306 172.412 279.339 172.642 279.339C172.929 279.339 173.203 279.297 173.467 279.213C173.729 279.127 173.929 278.963 174.067 278.724L175.425 279.196C175.206 279.594 174.94 279.907 174.624 280.134C174.312 280.358 173.976 280.513 173.612 280.6C173.251 280.683 172.882 280.725 172.503 280.725ZM170.951 276.955H174.158C174.068 276.572 173.864 276.29 173.545 276.106C173.23 275.924 172.898 275.831 172.551 275.831C172.183 275.831 171.845 275.927 171.539 276.118C171.231 276.309 171.036 276.589 170.951 276.955Z" fill="white"/>
<path d="M183.345 280.632V273.229H179.829V271.717H188.655V273.229H185.151V280.632H183.345Z" fill="white"/>
<path d="M191.614 280.753C191.193 280.744 190.784 280.672 190.384 280.538C189.987 280.404 189.664 280.19 189.414 279.899C189.167 279.604 189.044 279.217 189.044 278.739C189.044 278.273 189.171 277.907 189.426 277.64C189.68 277.374 190.011 277.18 190.42 277.06C190.828 276.941 191.257 276.881 191.705 276.881H193.657C193.543 276.527 193.331 276.266 193.021 276.098C192.713 275.931 192.381 275.847 192.026 275.847C191.714 275.847 191.411 275.91 191.117 276.033C190.826 276.156 190.596 276.33 190.426 276.552L189.365 275.644C189.693 275.147 190.105 274.808 190.602 274.628C191.102 274.449 191.616 274.359 192.142 274.359C192.537 274.359 192.927 274.418 193.312 274.533C193.695 274.649 194.042 274.819 194.354 275.047C194.665 275.271 194.912 275.547 195.094 275.877C195.279 276.209 195.373 276.591 195.373 277.024V279.331L195.439 280.628H193.942L193.784 279.773C193.569 280.105 193.258 280.351 192.851 280.514C192.446 280.672 192.034 280.753 191.614 280.753ZM191.784 279.355C192.042 279.355 192.308 279.322 192.584 279.253C192.858 279.186 193.101 279.059 193.312 278.871C193.525 278.684 193.652 278.421 193.693 278.082H191.651C191.428 278.082 191.216 278.139 191.014 278.249C190.811 278.357 190.711 278.517 190.711 278.727C190.711 278.883 190.769 279.008 190.887 279.104C191.008 279.197 191.153 279.262 191.323 279.301C191.493 279.337 191.646 279.355 191.784 279.355Z" fill="white"/>
<path d="M196.768 280.632V271.717H198.435V280.632H196.768Z" fill="white"/>
<path d="M202.715 280.725C202.084 280.725 201.522 280.594 201.029 280.331C200.54 280.068 200.157 279.702 199.878 279.231C199.599 278.758 199.459 278.213 199.459 277.594C199.459 276.973 199.599 276.427 199.878 275.957C200.157 275.483 200.545 275.114 201.042 274.851C201.542 274.588 202.112 274.457 202.751 274.457C203.413 274.457 203.985 274.597 204.467 274.875C204.952 275.15 205.324 275.537 205.588 276.035C205.85 276.529 205.982 277.113 205.982 277.785C205.982 277.842 205.982 277.908 205.982 277.983C205.982 278.054 205.977 278.124 205.97 278.192H201.163C201.214 278.487 201.33 278.718 201.508 278.885C201.69 279.052 201.902 279.17 202.145 279.237C202.387 279.306 202.624 279.339 202.854 279.339C203.141 279.339 203.415 279.297 203.679 279.213C203.941 279.127 204.141 278.963 204.279 278.724L205.637 279.196C205.418 279.594 205.152 279.907 204.836 280.134C204.524 280.358 204.188 280.513 203.824 280.6C203.463 280.683 203.094 280.725 202.715 280.725ZM201.163 276.955H204.37C204.28 276.572 204.076 276.29 203.757 276.106C203.442 275.924 203.11 275.831 202.763 275.831C202.395 275.831 202.057 275.927 201.751 276.118C201.443 276.309 201.248 276.589 201.163 276.955Z" fill="white"/>
<path d="M207.144 280.624V274.559H208.581L208.738 275.3C208.908 275.001 209.152 274.786 209.472 274.654C209.79 274.523 210.11 274.457 210.43 274.457C210.808 274.457 211.178 274.509 211.539 274.612C211.903 274.712 212.231 274.881 212.527 275.12C212.826 275.359 213.062 275.676 213.236 276.07C213.414 276.465 213.503 276.952 213.503 277.528V280.624H211.812V277.493C211.819 277.091 211.754 276.773 211.618 276.536C211.48 276.297 211.302 276.123 211.084 276.011C210.869 275.9 210.643 275.843 210.405 275.843C210.146 275.843 209.896 275.9 209.654 276.011C209.411 276.123 209.211 276.3 209.054 276.542C208.899 276.781 208.823 277.098 208.823 277.493V280.624H207.144Z" fill="white"/>
<path d="M218.17 280.746C217.297 280.737 216.631 280.487 216.17 279.993C215.709 279.495 215.479 278.86 215.479 278.087V275.804H214.345V274.567H215.479V271.717H217.122V274.567H219.322V275.804H217.122V278.087C217.112 278.45 217.228 278.753 217.467 278.995C217.71 279.238 218.016 279.359 218.388 279.359C218.517 279.359 218.652 279.344 218.795 279.312C218.936 279.276 219.081 279.22 219.231 279.144L219.668 280.339C219.377 280.483 219.107 280.587 218.861 280.65C218.614 280.713 218.384 280.746 218.17 280.746Z" fill="white"/>
<path d="M285.916 124.678L295.015 120.639V122.575L289.371 125.007L287.819 125.556L289.371 126.13L293.633 128.078V129.375L289.359 131.389L287.807 131.962L289.371 132.512L295.015 134.854V136.82L285.916 132.805V131.197L290.323 129.136L291.529 128.729L290.323 128.335L285.916 126.321V124.678Z" fill="white"/>
<path d="M285.843 139.631C285.852 139.216 285.925 138.813 286.061 138.418C286.198 138.027 286.414 137.709 286.71 137.462C287.008 137.219 287.401 137.098 287.886 137.098C288.359 137.098 288.73 137.223 289.001 137.474C289.271 137.725 289.468 138.051 289.589 138.454C289.71 138.856 289.771 139.279 289.771 139.721V141.645C290.13 141.533 290.395 141.324 290.565 141.018C290.735 140.714 290.82 140.387 290.82 140.038C290.82 139.73 290.756 139.431 290.632 139.141C290.506 138.854 290.33 138.627 290.105 138.46L291.026 137.414C291.531 137.737 291.875 138.143 292.056 138.633C292.238 139.126 292.329 139.633 292.329 140.151C292.329 140.541 292.27 140.925 292.153 141.304C292.035 141.682 291.862 142.024 291.632 142.332C291.405 142.638 291.124 142.882 290.79 143.061C290.453 143.243 290.065 143.336 289.626 143.336H287.286L285.97 143.402V141.926L286.837 141.77C286.501 141.558 286.251 141.252 286.085 140.85C285.925 140.451 285.843 140.045 285.843 139.631ZM287.261 139.799C287.261 140.053 287.295 140.315 287.365 140.587C287.433 140.858 287.562 141.097 287.753 141.304C287.942 141.515 288.209 141.64 288.553 141.681V139.667C288.553 139.448 288.495 139.238 288.383 139.04C288.274 138.84 288.112 138.741 287.898 138.741C287.74 138.741 287.613 138.798 287.516 138.914C287.422 139.034 287.355 139.177 287.316 139.344C287.28 139.512 287.261 139.663 287.261 139.799Z" fill="white"/>
<path d="M285.958 147.164L292.068 143.926H292.123V145.724L289.11 147.254L287.534 147.864L289.086 148.425L292.123 149.967V151.789H292.068L285.958 148.515V147.164Z" fill="white"/>
<path d="M285.867 155.205C285.867 154.583 286 154.029 286.267 153.544C286.534 153.061 286.905 152.683 287.382 152.408C287.863 152.134 288.416 151.996 289.043 151.996C289.674 151.996 290.227 152.134 290.704 152.408C291.185 152.683 291.559 153.066 291.826 153.556C292.092 154.049 292.226 154.61 292.226 155.241C292.226 155.894 292.083 156.457 291.802 156.932C291.523 157.41 291.13 157.777 290.626 158.037C290.124 158.296 289.531 158.426 288.849 158.426C288.792 158.426 288.725 158.426 288.649 158.426C288.577 158.426 288.505 158.421 288.437 158.414V153.675C288.137 153.726 287.904 153.84 287.734 154.016C287.564 154.195 287.445 154.404 287.376 154.643C287.307 154.882 287.273 155.115 287.273 155.342C287.273 155.625 287.316 155.895 287.401 156.155C287.488 156.413 287.655 156.611 287.898 156.747L287.419 158.085C287.014 157.87 286.697 157.607 286.467 157.296C286.24 156.989 286.082 156.657 285.994 156.298C285.909 155.943 285.867 155.578 285.867 155.205ZM289.692 153.675V156.836C290.08 156.748 290.366 156.546 290.553 156.233C290.738 155.922 290.832 155.595 290.832 155.253C290.832 154.89 290.735 154.557 290.541 154.255C290.347 153.952 290.063 153.759 289.692 153.675Z" fill="white"/>
<path d="M285.97 163.186H295.014V167.793C295.014 168.378 294.92 168.895 294.735 169.346C294.554 169.796 294.272 170.15 293.893 170.41C293.512 170.673 293.021 170.804 292.42 170.804C292.144 170.804 291.853 170.718 291.547 170.547C291.239 170.376 291.001 170.129 290.832 169.806C290.742 170.136 290.585 170.411 290.359 170.631C290.136 170.854 289.883 171.022 289.601 171.139C289.318 171.254 289.039 171.312 288.764 171.312C288.263 171.312 287.832 171.217 287.473 171.025C287.117 170.834 286.828 170.577 286.606 170.255C286.388 169.932 286.226 169.569 286.122 169.167C286.02 168.768 285.97 168.357 285.97 167.936V163.186ZM291.414 164.901V167.894C291.421 168.236 291.498 168.523 291.644 168.755C291.789 168.989 292.056 169.107 292.444 169.107C292.718 169.107 292.932 169.043 293.087 168.916C293.244 168.788 293.356 168.626 293.426 168.432C293.494 168.236 293.529 168.029 293.529 167.811V164.901H291.414ZM287.455 164.901V167.936C287.463 168.223 287.505 168.492 287.582 168.743C287.663 168.994 287.792 169.194 287.97 169.346C288.152 169.502 288.402 169.579 288.722 169.579C289.04 169.579 289.292 169.497 289.474 169.334C289.656 169.174 289.783 168.97 289.856 168.719C289.928 168.468 289.965 168.206 289.965 167.936V164.901H287.455Z" fill="white"/>
<path d="M285.867 175.346C285.867 174.979 285.919 174.614 286.019 174.253C286.123 173.894 286.298 173.567 286.54 173.273C286.783 172.981 287.104 172.748 287.504 172.573C287.904 172.397 288.397 172.311 288.983 172.311H292.123V173.978H288.941C288.536 173.978 288.213 174.043 287.971 174.175C287.731 174.309 287.558 174.483 287.449 174.695C287.34 174.905 287.281 175.131 287.274 175.37C287.274 175.624 287.33 175.869 287.443 176.105C287.555 176.344 287.734 176.538 287.977 176.691C288.222 176.846 288.544 176.924 288.941 176.924H292.123V178.579H285.97V177.163L286.722 177.013C286.426 176.841 286.21 176.598 286.073 176.284C285.937 175.969 285.867 175.657 285.867 175.346Z" fill="white"/>
<path d="M285.843 182.689C285.843 182.163 285.91 181.673 286.043 181.219C286.176 180.765 286.398 180.39 286.71 180.095C287.025 179.804 287.451 179.641 287.989 179.605L287.959 181.189C287.753 181.204 287.592 181.285 287.48 181.428C287.371 181.574 287.293 181.764 287.249 181.996C287.204 182.23 287.183 182.475 287.183 182.731C287.183 183.173 287.243 183.521 287.365 183.776C287.486 184.03 287.64 184.159 287.831 184.159C287.984 184.159 288.11 184.048 288.207 183.83C288.307 183.615 288.368 183.252 288.389 182.743C288.404 182.403 288.439 182.057 288.492 181.703C288.544 181.352 288.631 181.025 288.753 180.723C288.877 180.42 289.059 180.176 289.298 179.994C289.536 179.815 289.853 179.725 290.25 179.725C290.638 179.725 290.956 179.816 291.208 180C291.462 180.187 291.665 180.43 291.82 180.729C291.978 181.028 292.088 181.346 292.153 181.685C292.217 182.023 292.25 182.35 292.25 182.665C292.25 183.003 292.22 183.343 292.159 183.687C292.099 184.033 291.991 184.351 291.838 184.643C291.684 184.937 291.47 185.178 291.196 185.366C290.924 185.553 290.583 185.665 290.171 185.7L290.117 184.171C290.359 184.126 290.536 184.009 290.65 183.818C290.762 183.627 290.835 183.419 290.868 183.197C290.905 182.977 290.923 182.804 290.923 182.677C290.923 182.33 290.87 182.023 290.765 181.757C290.659 181.489 290.492 181.356 290.262 181.356C290.124 181.356 290.017 181.428 289.941 181.571C289.868 181.715 289.817 181.903 289.789 182.139C289.761 182.378 289.736 182.635 289.717 182.91C289.692 183.264 289.651 183.618 289.595 183.974C289.538 184.332 289.444 184.656 289.31 184.948C289.177 185.242 288.98 185.473 288.722 185.641C288.463 185.808 288.113 185.877 287.674 185.85C287.261 185.79 286.919 185.6 286.649 185.282C286.378 184.962 286.176 184.573 286.043 184.111C285.91 183.648 285.843 183.174 285.843 182.689Z" fill="white"/>
<path d="M293.026 186.857H295.014V188.489H293.026V186.857ZM285.97 186.857H292.123V188.489H285.97V186.857Z" fill="white"/>
<path d="M285.97 189.879H292.123V191.295L291.371 191.45C291.674 191.618 291.892 191.858 292.026 192.173C292.159 192.487 292.226 192.802 292.226 193.118C292.226 193.491 292.173 193.856 292.068 194.211C291.967 194.57 291.795 194.894 291.553 195.185C291.31 195.479 290.989 195.712 290.589 195.884C290.189 196.059 289.695 196.147 289.11 196.147H285.97V194.48H289.146C289.554 194.487 289.877 194.423 290.116 194.289C290.359 194.153 290.536 193.978 290.65 193.763C290.762 193.551 290.819 193.328 290.819 193.094C290.819 192.838 290.762 192.592 290.65 192.353C290.536 192.114 290.356 191.917 290.11 191.761C289.868 191.609 289.546 191.534 289.146 191.534H285.97V189.879Z" fill="white"/>
<path d="M285.867 200.373C285.867 199.751 286.001 199.197 286.268 198.712C286.534 198.229 286.906 197.851 287.383 197.576C287.863 197.301 288.416 197.164 289.044 197.164C289.674 197.164 290.227 197.301 290.705 197.576C291.185 197.851 291.56 198.234 291.826 198.724C292.093 199.217 292.226 199.778 292.226 200.409C292.226 201.062 292.084 201.625 291.802 202.1C291.523 202.578 291.131 202.945 290.626 203.205C290.124 203.464 289.532 203.594 288.85 203.594C288.792 203.594 288.726 203.594 288.65 203.594C288.577 203.594 288.506 203.589 288.438 203.582V198.843C288.138 198.894 287.904 199.007 287.734 199.184C287.565 199.363 287.445 199.572 287.377 199.811C287.307 200.05 287.274 200.283 287.274 200.51C287.274 200.793 287.316 201.063 287.401 201.323C287.489 201.581 287.656 201.779 287.898 201.915L287.419 203.253C287.015 203.038 286.698 202.775 286.468 202.464C286.24 202.157 286.083 201.825 285.995 201.466C285.91 201.111 285.867 200.746 285.867 200.373ZM289.692 198.843V202.004C290.08 201.916 290.367 201.714 290.553 201.401C290.738 201.09 290.832 200.763 290.832 200.421C290.832 200.058 290.735 199.725 290.541 199.423C290.347 199.12 290.064 198.927 289.692 198.843Z" fill="white"/>
<path d="M285.843 207.447C285.843 206.921 285.909 206.431 286.043 205.977C286.176 205.523 286.397 205.148 286.71 204.853C287.025 204.562 287.451 204.399 287.989 204.363L287.958 205.947C287.752 205.962 287.592 206.042 287.479 206.186C287.37 206.332 287.293 206.522 287.249 206.753C287.204 206.988 287.182 207.233 287.182 207.488C287.182 207.931 287.243 208.279 287.364 208.534C287.486 208.788 287.64 208.917 287.831 208.917C287.984 208.917 288.11 208.806 288.207 208.588C288.307 208.373 288.368 208.01 288.389 207.5C288.404 207.161 288.439 206.815 288.492 206.461C288.543 206.11 288.631 205.782 288.752 205.481C288.877 205.177 289.059 204.934 289.298 204.752C289.536 204.572 289.853 204.483 290.25 204.483C290.638 204.483 290.956 204.574 291.208 204.758C291.462 204.944 291.665 205.188 291.82 205.487C291.977 205.785 292.088 206.104 292.153 206.443C292.217 206.78 292.25 207.108 292.25 207.423C292.25 207.76 292.22 208.101 292.159 208.445C292.099 208.791 291.991 209.109 291.838 209.401C291.683 209.695 291.47 209.935 291.195 210.124C290.924 210.31 290.583 210.422 290.171 210.458L290.116 208.929C290.359 208.884 290.536 208.767 290.65 208.576C290.762 208.385 290.835 208.177 290.868 207.955C290.904 207.735 290.923 207.562 290.923 207.435C290.923 207.088 290.87 206.78 290.765 206.514C290.659 206.247 290.492 206.114 290.262 206.114C290.124 206.114 290.016 206.186 289.941 206.329C289.868 206.473 289.816 206.661 289.789 206.897C289.76 207.136 289.736 207.393 289.716 207.668C289.692 208.022 289.651 208.376 289.595 208.731C289.537 209.09 289.444 209.414 289.31 209.705C289.177 210 288.98 210.231 288.722 210.398C288.463 210.566 288.113 210.635 287.673 210.608C287.261 210.548 286.919 210.358 286.649 210.04C286.378 209.72 286.176 209.33 286.043 208.869C285.909 208.406 285.843 207.932 285.843 207.447Z" fill="white"/>
<path d="M285.843 214.326C285.843 213.8 285.91 213.31 286.043 212.856C286.176 212.401 286.398 212.026 286.71 211.732C287.025 211.441 287.451 211.278 287.989 211.242L287.959 212.826C287.753 212.841 287.592 212.921 287.48 213.065C287.371 213.211 287.293 213.401 287.249 213.632C287.204 213.867 287.183 214.112 287.183 214.367C287.183 214.81 287.243 215.158 287.365 215.413C287.486 215.667 287.64 215.795 287.831 215.795C287.984 215.795 288.11 215.685 288.207 215.467C288.307 215.252 288.368 214.889 288.389 214.379C288.404 214.04 288.439 213.694 288.492 213.34C288.544 212.989 288.631 212.661 288.753 212.36C288.877 212.056 289.059 211.813 289.298 211.631C289.536 211.451 289.853 211.362 290.25 211.362C290.638 211.362 290.956 211.453 291.208 211.637C291.462 211.823 291.665 212.067 291.82 212.366C291.978 212.664 292.088 212.983 292.153 213.322C292.217 213.659 292.25 213.986 292.25 214.302C292.25 214.639 292.22 214.98 292.159 215.323C292.099 215.67 291.991 215.988 291.838 216.279C291.684 216.574 291.47 216.814 291.196 217.003C290.924 217.189 290.583 217.301 290.171 217.337L290.117 215.807C290.359 215.763 290.536 215.646 290.65 215.455C290.762 215.264 290.835 215.056 290.868 214.833C290.905 214.614 290.923 214.441 290.923 214.314C290.923 213.967 290.87 213.659 290.765 213.393C290.659 213.126 290.492 212.993 290.262 212.993C290.124 212.993 290.017 213.065 289.941 213.208C289.868 213.352 289.817 213.54 289.789 213.776C289.761 214.015 289.736 214.272 289.717 214.547C289.692 214.901 289.651 215.255 289.595 215.61C289.538 215.969 289.444 216.293 289.31 216.584C289.177 216.879 288.98 217.11 288.722 217.277C288.463 217.445 288.113 217.513 287.674 217.487C287.261 217.427 286.919 217.237 286.649 216.919C286.378 216.599 286.176 216.209 286.043 215.748C285.91 215.285 285.843 214.811 285.843 214.326Z" fill="white"/>
<path d="M267.851 142.1C267.851 141.589 267.904 141.093 268.009 140.612C268.109 140.134 268.276 139.701 268.506 139.315C268.739 138.928 269.046 138.622 269.421 138.395C269.797 138.171 270.255 138.061 270.797 138.061C271.254 138.061 271.678 138.199 272.07 138.479C272.461 138.761 272.771 139.127 272.998 139.578C273.119 139.414 273.268 139.28 273.446 139.172C273.628 139.067 273.816 138.993 274.01 138.945C274.204 138.897 274.369 138.873 274.507 138.873C274.971 138.873 275.371 138.969 275.708 139.16C276.047 139.351 276.327 139.604 276.55 139.919C276.771 140.233 276.938 140.578 277.047 140.953C277.156 141.326 277.211 141.695 277.211 142.058C277.211 142.644 277.114 143.183 276.92 143.677C276.726 144.17 276.42 144.563 276.005 144.855C275.592 145.149 275.054 145.297 274.392 145.297V143.719C274.727 143.719 274.998 143.636 275.204 143.468C275.41 143.301 275.559 143.093 275.653 142.847C275.75 142.603 275.798 142.354 275.798 142.1C275.798 141.613 275.674 141.237 275.429 140.971C275.186 140.703 274.874 140.57 274.495 140.57C274.297 140.57 274.122 140.621 273.974 140.726C273.828 140.833 273.704 140.954 273.604 141.09L270.797 144.622C270.926 144.672 271.078 144.714 271.252 144.747C271.425 144.783 271.696 144.801 272.064 144.801V146.343C271.119 146.343 270.376 146.189 269.84 145.882L268.112 147.765H268.033V145.566L268.682 144.801C268.379 144.402 268.164 143.964 268.039 143.486C267.915 143.011 267.851 142.55 267.851 142.1ZM269.312 141.933C269.312 142.518 269.441 143.044 269.7 143.51L271.986 140.57C271.848 140.291 271.678 140.082 271.476 139.943C271.273 139.807 271.066 139.74 270.852 139.74C270.419 139.74 270.047 139.964 269.737 140.415C269.591 140.637 269.483 140.881 269.415 141.144C269.346 141.407 269.312 141.67 269.312 141.933Z" fill="white"/>
<path d="M268.033 151.961H277.078V156.359C277.078 157.055 276.965 157.669 276.744 158.199C276.521 158.728 276.183 159.145 275.732 159.448C275.279 159.75 274.698 159.902 273.992 159.902C273.268 159.902 272.674 159.741 272.21 159.418C271.745 159.096 271.399 158.662 271.173 158.122C270.95 157.584 270.84 156.988 270.84 156.335V153.724H268.033V151.961ZM272.337 153.724V156.347C272.345 156.873 272.467 157.306 272.707 157.65C272.949 157.996 273.377 158.169 273.992 158.169C274.388 158.169 274.697 158.087 274.919 157.924C275.145 157.765 275.303 157.548 275.392 157.273C275.485 157.001 275.532 156.696 275.532 156.359V153.724H272.337Z" fill="white"/>
<path d="M268.033 160.918H274.186V162.322L273.459 162.424C273.813 162.642 274.047 162.903 274.156 163.207C274.268 163.508 274.326 163.777 274.326 164.013C274.326 164.312 274.265 164.638 274.144 164.993C274.026 165.352 273.816 165.651 273.513 165.89L272.404 165.161C272.678 164.865 272.816 164.517 272.816 164.115C272.816 163.709 272.677 163.351 272.398 163.045C272.122 162.742 271.757 162.581 271.301 162.561H268.033V160.918Z" fill="white"/>
<path d="M267.93 169.506C267.93 168.868 268.065 168.296 268.337 167.791C268.606 167.285 268.981 166.886 269.458 166.596C269.938 166.309 270.495 166.166 271.125 166.166C271.751 166.166 272.301 166.309 272.774 166.596C273.25 166.886 273.624 167.285 273.895 167.791C274.165 168.296 274.301 168.868 274.301 169.506C274.301 170.143 274.165 170.709 273.895 171.203C273.624 171.701 273.25 172.094 272.774 172.38C272.301 172.67 271.751 172.817 271.125 172.817C270.495 172.817 269.938 172.67 269.458 172.38C268.981 172.094 268.606 171.701 268.337 171.203C268.065 170.709 267.93 170.143 267.93 169.506ZM269.367 169.506C269.367 169.98 269.532 170.373 269.864 170.683C270.195 170.994 270.616 171.15 271.125 171.15C271.63 171.15 272.046 170.994 272.374 170.683C272.701 170.373 272.865 169.98 272.865 169.506C272.865 169.019 272.701 168.622 272.374 168.311C272.046 168.003 271.63 167.851 271.125 167.851C270.616 167.851 270.195 168.003 269.864 168.311C269.532 168.622 269.367 169.019 269.367 169.506Z" fill="white"/>
<path d="M267.906 176.729C267.906 176.107 268.039 175.553 268.306 175.068C268.573 174.585 268.944 174.203 269.421 173.92C269.902 173.641 270.455 173.502 271.082 173.502C271.728 173.502 272.292 173.635 272.774 173.902C273.259 174.173 273.636 174.549 273.907 175.032C274.177 175.517 274.313 176.083 274.313 176.729C274.313 177.162 274.247 177.573 274.113 177.96C273.98 178.345 273.757 178.686 273.447 178.981C273.139 179.28 272.722 179.501 272.198 179.645L271.949 178.229C272.216 178.128 272.411 177.995 272.537 177.828C272.662 177.664 272.745 177.485 272.786 177.29C272.83 177.095 272.852 176.908 272.852 176.729C272.852 176.234 272.683 175.85 272.343 175.575C272.004 175.301 271.583 175.163 271.082 175.163C270.61 175.163 270.2 175.304 269.858 175.587C269.518 175.87 269.349 176.251 269.349 176.729C269.349 176.896 269.37 177.072 269.415 177.261C269.459 177.447 269.555 177.628 269.7 177.804C269.846 177.979 270.07 178.127 270.373 178.246L270.052 179.681C269.534 179.537 269.118 179.312 268.803 179.005C268.488 178.702 268.259 178.351 268.118 177.954C267.977 177.559 267.906 177.15 267.906 176.729Z" fill="white"/>
<path d="M267.93 183.435C267.93 182.814 268.064 182.26 268.331 181.774C268.597 181.292 268.969 180.914 269.446 180.639C269.926 180.364 270.479 180.227 271.107 180.227C271.737 180.227 272.29 180.364 272.768 180.639C273.248 180.914 273.623 181.296 273.889 181.786C274.156 182.279 274.289 182.841 274.289 183.471C274.289 184.124 274.147 184.687 273.865 185.162C273.586 185.64 273.194 186.008 272.689 186.268C272.187 186.526 271.595 186.656 270.913 186.656C270.855 186.656 270.789 186.656 270.713 186.656C270.64 186.656 270.569 186.652 270.501 186.644V181.906C270.201 181.956 269.967 182.07 269.797 182.246C269.628 182.426 269.508 182.635 269.44 182.874C269.37 183.113 269.337 183.346 269.337 183.573C269.337 183.855 269.379 184.126 269.464 184.385C269.552 184.644 269.719 184.841 269.961 184.977L269.482 186.316C269.078 186.1 268.761 185.838 268.531 185.527C268.303 185.219 268.146 184.887 268.058 184.529C267.973 184.173 267.93 183.809 267.93 183.435ZM271.755 181.906V185.067C272.143 184.979 272.43 184.777 272.616 184.463C272.801 184.152 272.895 183.825 272.895 183.483C272.895 183.12 272.798 182.787 272.604 182.485C272.41 182.182 272.127 181.989 271.755 181.906Z" fill="white"/>
<path d="M267.906 190.503C267.906 189.977 267.973 189.487 268.106 189.033C268.239 188.579 268.461 188.204 268.773 187.91C269.088 187.619 269.514 187.456 270.052 187.42L270.022 189.003C269.815 189.018 269.655 189.099 269.543 189.242C269.434 189.389 269.356 189.579 269.312 189.81C269.267 190.045 269.246 190.29 269.246 190.545C269.246 190.987 269.306 191.335 269.428 191.591C269.549 191.845 269.703 191.973 269.894 191.973C270.047 191.973 270.173 191.863 270.27 191.645C270.37 191.429 270.431 191.066 270.452 190.557C270.467 190.218 270.502 189.871 270.555 189.517C270.607 189.166 270.694 188.839 270.816 188.537C270.94 188.234 271.122 187.991 271.361 187.808C271.599 187.629 271.916 187.539 272.313 187.539C272.701 187.539 273.019 187.631 273.271 187.814C273.525 188.001 273.728 188.245 273.883 188.543C274.041 188.842 274.151 189.16 274.216 189.499C274.28 189.837 274.313 190.164 274.313 190.479C274.313 190.817 274.283 191.158 274.222 191.501C274.162 191.848 274.054 192.166 273.901 192.457C273.747 192.752 273.533 192.992 273.259 193.18C272.987 193.367 272.646 193.479 272.234 193.515L272.18 191.985C272.422 191.94 272.599 191.824 272.713 191.633C272.825 191.441 272.898 191.234 272.931 191.011C272.968 190.792 272.986 190.618 272.986 190.491C272.986 190.145 272.933 189.837 272.828 189.571C272.722 189.304 272.555 189.171 272.325 189.171C272.187 189.171 272.08 189.242 272.004 189.386C271.931 189.529 271.88 189.717 271.852 189.954C271.823 190.193 271.799 190.449 271.78 190.724C271.755 191.078 271.714 191.432 271.658 191.788C271.601 192.147 271.507 192.471 271.373 192.762C271.24 193.056 271.043 193.288 270.785 193.455C270.526 193.622 270.176 193.691 269.737 193.664C269.324 193.605 268.982 193.415 268.712 193.097C268.441 192.777 268.239 192.387 268.106 191.925C267.973 191.462 267.906 190.989 267.906 190.503Z" fill="white"/>
<path d="M267.906 197.386C267.906 196.86 267.973 196.37 268.106 195.916C268.239 195.462 268.461 195.087 268.773 194.793C269.088 194.501 269.514 194.339 270.052 194.303L270.022 195.886C269.815 195.901 269.655 195.982 269.543 196.125C269.434 196.272 269.356 196.461 269.312 196.693C269.267 196.927 269.246 197.172 269.246 197.428C269.246 197.87 269.306 198.218 269.428 198.474C269.549 198.728 269.703 198.856 269.894 198.856C270.047 198.856 270.173 198.745 270.27 198.527C270.37 198.312 270.431 197.949 270.452 197.44C270.467 197.101 270.502 196.754 270.555 196.4C270.607 196.049 270.694 195.722 270.816 195.42C270.94 195.117 271.122 194.873 271.361 194.691C271.599 194.512 271.916 194.422 272.313 194.422C272.701 194.422 273.019 194.513 273.271 194.697C273.525 194.884 273.728 195.127 273.883 195.426C274.041 195.725 274.151 196.043 274.216 196.382C274.28 196.72 274.313 197.047 274.313 197.362C274.313 197.7 274.283 198.04 274.222 198.384C274.162 198.731 274.054 199.049 273.901 199.34C273.747 199.634 273.533 199.875 273.259 200.063C272.987 200.25 272.646 200.362 272.234 200.398L272.18 198.868C272.422 198.823 272.599 198.707 272.713 198.515C272.825 198.324 272.898 198.117 272.931 197.894C272.968 197.674 272.986 197.501 272.986 197.374C272.986 197.028 272.933 196.72 272.828 196.454C272.722 196.186 272.555 196.054 272.325 196.054C272.187 196.054 272.08 196.125 272.004 196.269C271.931 196.412 271.88 196.6 271.852 196.836C271.823 197.075 271.799 197.332 271.78 197.607C271.755 197.961 271.714 198.315 271.658 198.671C271.601 199.029 271.507 199.353 271.373 199.645C271.24 199.939 271.043 200.171 270.785 200.338C270.526 200.505 270.176 200.574 269.737 200.547C269.324 200.487 268.982 200.298 268.712 199.979C268.441 199.66 268.239 199.27 268.106 198.808C267.973 198.345 267.906 197.872 267.906 197.386Z" fill="white"/>
<path d="M70.532 201.628L61.4331 205.668V203.732L67.0767 201.3L68.6285 200.75L67.0767 200.176L62.8152 198.228V196.932L67.0888 194.918L68.6407 194.344L67.0767 193.795L61.4331 191.452V189.486L70.532 193.502V195.109L66.125 197.171L64.9187 197.577L66.125 197.971L70.532 199.985V201.628Z" fill="white"/>
<path d="M70.6049 186.671C70.5958 187.086 70.523 187.49 70.3866 187.884C70.2502 188.275 70.0335 188.594 69.738 188.84C69.4395 189.083 69.047 189.204 68.562 189.204C68.0892 189.204 67.7179 189.079 67.4466 188.828C67.1769 188.577 66.9799 188.251 66.8586 187.848C66.7374 187.446 66.6768 187.023 66.6768 186.581V184.657C66.3176 184.769 66.0524 184.978 65.8827 185.285C65.7129 185.588 65.6281 185.915 65.6281 186.265C65.6281 186.572 65.6917 186.871 65.816 187.161C65.9418 187.448 66.1176 187.675 66.3434 187.842L65.422 188.888C64.9173 188.565 64.5733 188.159 64.3914 187.669C64.2096 187.176 64.1187 186.669 64.1187 186.151C64.1187 185.761 64.1778 185.377 64.2944 184.998C64.4127 184.62 64.5854 184.278 64.8158 183.97C65.0431 183.664 65.3234 183.42 65.6584 183.241C65.9948 183.059 66.3828 182.966 66.8222 182.966H69.1621L70.4776 182.9V184.376L69.6107 184.532C69.9471 184.744 70.1972 185.05 70.3624 185.452C70.523 185.851 70.6049 186.257 70.6049 186.671ZM69.1864 186.504C69.1864 186.25 69.153 185.987 69.0833 185.715C69.0151 185.444 68.8863 185.205 68.6954 184.998C68.5059 184.787 68.2392 184.662 67.8952 184.621V186.635C67.8952 186.855 67.9528 187.064 68.0649 187.262C68.174 187.463 68.3362 187.561 68.5499 187.561C68.7075 187.561 68.8348 187.504 68.9318 187.388C69.0257 187.268 69.0924 187.125 69.1318 186.958C69.1682 186.79 69.1864 186.64 69.1864 186.504Z" fill="white"/>
<path d="M70.4901 179.129L64.3798 182.368H64.3252V180.569L67.3379 179.039L68.914 178.43L67.3622 177.868L64.3252 176.326V174.504H64.3798L70.4901 177.778V179.129Z" fill="white"/>
<path d="M70.5806 171.096C70.5806 171.717 70.4472 172.271 70.1805 172.757C69.9138 173.239 69.5425 173.617 69.0651 173.892C68.5847 174.167 68.0316 174.305 67.4042 174.305C66.7737 174.305 66.2206 174.167 65.7432 173.892C65.2628 173.617 64.8885 173.235 64.6218 172.745C64.355 172.252 64.2217 171.69 64.2217 171.06C64.2217 170.407 64.3641 169.844 64.646 169.369C64.9249 168.891 65.3174 168.523 65.822 168.263C66.3236 168.005 66.9162 167.875 67.5981 167.875C67.6557 167.875 67.7224 167.875 67.7982 167.875C67.8709 167.875 67.9422 167.879 68.0103 167.887V172.625C68.3104 172.575 68.5438 172.461 68.7135 172.285C68.8833 172.106 69.003 171.896 69.0712 171.657C69.1409 171.418 69.1742 171.185 69.1742 170.958C69.1742 170.676 69.1318 170.406 69.0469 170.146C68.959 169.887 68.7923 169.69 68.5499 169.554L69.0287 168.216C69.4334 168.431 69.7501 168.694 69.9805 169.004C70.2078 169.312 70.3654 169.644 70.4533 170.002C70.5381 170.358 70.5806 170.722 70.5806 171.096ZM66.7555 172.625V169.464C66.3676 169.553 66.0812 169.754 65.8948 170.068C65.7099 170.379 65.6159 170.706 65.6159 171.048C65.6159 171.411 65.7129 171.744 65.9069 172.046C66.1009 172.349 66.3843 172.542 66.7555 172.625Z" fill="white"/>
<path d="M70.4774 160.416H62.9668V163.882H61.4331V155.182H62.9668V158.635H70.4774V160.416Z" fill="white"/>
<path d="M70.5801 151.598C70.5801 152.219 70.4467 152.773 70.18 153.259C69.9133 153.741 69.542 154.119 69.0646 154.394C68.5842 154.669 68.0311 154.807 67.4037 154.807C66.7732 154.807 66.2201 154.669 65.7427 154.394C65.2623 154.119 64.888 153.737 64.6213 153.247C64.3546 152.754 64.2212 152.192 64.2212 151.562C64.2212 150.909 64.3636 150.346 64.6455 149.871C64.9244 149.393 65.3169 149.025 65.8215 148.765C66.3231 148.507 66.9157 148.377 67.5977 148.377C67.6552 148.377 67.7219 148.377 67.7977 148.377C67.8704 148.377 67.9417 148.381 68.0099 148.389V153.127C68.3099 153.077 68.5433 152.963 68.713 152.787C68.8828 152.608 69.0025 152.398 69.0707 152.159C69.1404 151.92 69.1737 151.687 69.1737 151.46C69.1737 151.178 69.1313 150.908 69.0464 150.648C68.9585 150.389 68.7918 150.192 68.5494 150.056L69.0283 148.718C69.4329 148.933 69.7496 149.196 69.98 149.506C70.2073 149.814 70.3649 150.146 70.4528 150.504C70.5377 150.86 70.5801 151.224 70.5801 151.598ZM66.7551 153.127V149.966C66.3671 150.055 66.0807 150.256 65.8943 150.57C65.7094 150.881 65.6154 151.208 65.6154 151.55C65.6154 151.913 65.7124 152.246 65.9064 152.548C66.1004 152.851 66.3838 153.044 66.7551 153.127Z" fill="white"/>
<path d="M70.6047 144.37C70.6047 144.991 70.4713 145.546 70.2046 146.031C69.9379 146.514 69.5666 146.896 69.0892 147.178C68.6088 147.458 68.0556 147.597 67.4282 147.597C66.7827 147.597 66.2189 147.464 65.737 147.196C65.252 146.926 64.8747 146.549 64.6034 146.067C64.3337 145.581 64.1973 145.015 64.1973 144.37C64.1973 143.937 64.2639 143.526 64.3973 143.139C64.5307 142.753 64.7534 142.413 65.0641 142.117C65.3718 141.818 65.7885 141.597 66.3129 141.454L66.5614 142.87C66.2947 142.97 66.0992 143.103 65.9734 143.27C65.8491 143.435 65.7658 143.614 65.7249 143.808C65.6809 144.004 65.6582 144.191 65.6582 144.37C65.6582 144.864 65.8279 145.248 66.1674 145.523C66.5068 145.798 66.9281 145.935 67.4282 145.935C67.9011 145.935 68.3102 145.795 68.6527 145.511C68.9922 145.229 69.1619 144.848 69.1619 144.37C69.1619 144.203 69.1407 144.026 69.0953 143.838C69.0513 143.651 68.9558 143.471 68.8103 143.294C68.6649 143.119 68.4406 142.972 68.1375 142.852L68.4588 141.418C68.977 141.561 69.3923 141.787 69.7075 142.093C70.0227 142.396 70.2516 142.748 70.3925 143.145C70.5334 143.539 70.6047 143.949 70.6047 144.37Z" fill="white"/>
<path d="M70.4774 140.524H61.4331V138.869H65.0217C64.7717 138.723 64.5762 138.498 64.4337 138.2C64.2928 137.898 64.2216 137.593 64.2216 137.285C64.2216 136.912 64.2746 136.547 64.3792 136.192C64.4807 135.833 64.652 135.509 64.8944 135.218C65.1369 134.924 65.4582 134.691 65.8583 134.519C66.2584 134.344 66.7524 134.256 67.3374 134.256H70.4774V135.923H67.3252C66.9221 135.916 66.5963 135.98 66.3493 136.114C66.1038 136.25 65.9219 136.425 65.8037 136.64C65.687 136.852 65.6279 137.075 65.6279 137.309C65.6279 137.565 65.687 137.811 65.8037 138.05C65.9219 138.289 66.1038 138.486 66.3493 138.642C66.5963 138.794 66.9176 138.869 67.3131 138.869H70.4774V140.524Z" fill="white"/>
<path d="M155.467 163.616L149.938 151.504H152.588L155.922 159.021L156.673 161.083L157.455 159.021L160.128 153.344H161.905L164.663 159.039L165.445 161.1L166.196 159.021L169.409 151.504H172.095L166.596 163.616H164.402L161.577 157.748L161.014 156.147L160.474 157.748L157.722 163.616H155.467Z" fill="white"/>
<path d="M175.942 163.715C175.372 163.703 174.817 163.604 174.281 163.422C173.747 163.24 173.311 162.95 172.971 162.555C172.635 162.158 172.468 161.638 172.468 160.996C172.468 160.367 172.64 159.871 172.984 159.508C173.326 159.146 173.775 158.885 174.329 158.725C174.882 158.567 175.46 158.486 176.063 158.486H178.7C178.545 158.005 178.259 157.653 177.839 157.428C177.422 157.206 176.975 157.094 176.499 157.094C176.083 157.094 175.677 157.177 175.281 157.345C174.884 157.509 174.569 157.739 174.335 158.038L172.905 156.819C173.349 156.142 173.908 155.684 174.584 155.445C175.258 155.203 175.949 155.08 176.657 155.08C177.193 155.08 177.721 155.158 178.239 155.313C178.756 155.468 179.223 155.699 179.639 156C180.059 156.304 180.394 156.68 180.646 157.13C180.896 157.576 181.022 158.092 181.022 158.677V161.785L181.106 163.541H179.082L178.876 162.388C178.585 162.835 178.163 163.168 177.615 163.386C177.069 163.604 176.512 163.715 175.942 163.715ZM176.172 161.82C176.519 161.82 176.878 161.776 177.251 161.683C177.622 161.592 177.95 161.42 178.233 161.169C178.52 160.918 178.691 160.563 178.748 160.099H175.996C175.693 160.099 175.404 160.176 175.129 160.327C174.858 160.474 174.723 160.691 174.723 160.978C174.723 161.186 174.804 161.353 174.966 161.48C175.126 161.604 175.32 161.692 175.548 161.743C175.778 161.795 175.986 161.82 176.172 161.82Z" fill="white"/>
<path d="M186.252 163.57L181.82 155.437V155.365H184.275L186.373 159.375L187.209 161.472L187.979 159.405L190.089 155.365H192.58V155.437L188.1 163.57H186.252Z" fill="white"/>
<path d="M197.256 163.682C196.408 163.682 195.651 163.506 194.989 163.15C194.325 162.796 193.804 162.3 193.425 161.662C193.049 161.026 192.861 160.288 192.861 159.451C192.861 158.615 193.049 157.878 193.425 157.24C193.804 156.604 194.33 156.108 195.001 155.753C195.676 155.398 196.444 155.221 197.305 155.221C198.202 155.221 198.975 155.409 199.626 155.782C200.277 156.153 200.78 156.676 201.136 157.348C201.49 158.017 201.669 158.804 201.669 159.708C201.669 159.789 201.669 159.879 201.669 159.977C201.669 160.073 201.663 160.167 201.651 160.258H195.159C195.232 160.661 195.389 160.974 195.632 161.196C195.877 161.42 196.162 161.577 196.486 161.668C196.814 161.761 197.132 161.806 197.444 161.806C197.828 161.806 198.197 161.75 198.553 161.638C198.908 161.523 199.179 161.304 199.366 160.981L201.196 161.62C200.905 162.158 200.548 162.579 200.123 162.881C199.699 163.184 199.241 163.394 198.753 163.509C198.264 163.624 197.765 163.682 197.256 163.682ZM195.159 158.591H199.487C199.369 158.077 199.094 157.698 198.663 157.45C198.234 157.203 197.787 157.079 197.323 157.079C196.826 157.079 196.368 157.209 195.953 157.467C195.541 157.723 195.275 158.098 195.159 158.591Z" fill="white"/>
<path d="M157.235 187.872C156.572 187.872 155.891 187.813 155.192 187.698C154.497 187.582 153.841 187.386 153.222 187.107C152.607 186.824 152.095 186.422 151.683 185.9C151.27 185.378 151.022 184.716 150.937 183.916L153.35 183.623C153.394 184.082 153.544 184.458 153.798 184.752C154.056 185.044 154.377 185.271 154.762 185.434C155.145 185.593 155.552 185.705 155.98 185.768C156.412 185.828 156.82 185.858 157.205 185.858C157.435 185.858 157.741 185.838 158.126 185.798C158.51 185.759 158.896 185.682 159.284 185.565C159.675 185.45 160.012 185.284 160.29 185.069C160.569 184.851 160.727 184.57 160.763 184.227C160.795 183.825 160.71 183.509 160.509 183.282C160.306 183.052 160.03 182.879 159.678 182.763C159.33 182.647 158.945 182.568 158.52 182.524C158.096 182.476 157.673 182.446 157.253 182.434L156.435 182.404C155.865 182.38 155.268 182.329 154.647 182.249C154.024 182.169 153.444 182.02 152.907 181.8C152.374 181.582 151.937 181.257 151.598 180.826C151.261 180.396 151.095 179.821 151.095 179.1C151.095 178.471 151.222 177.933 151.477 177.486C151.734 177.037 152.078 176.668 152.507 176.381C152.939 176.094 153.419 175.871 153.95 175.711C154.479 175.553 155.018 175.441 155.568 175.377C156.121 175.314 156.649 175.281 157.15 175.281C157.776 175.281 158.419 175.328 159.078 175.419C159.736 175.511 160.345 175.68 160.903 175.927C161.46 176.175 161.918 176.536 162.279 177.014C162.638 177.489 162.843 178.105 162.891 178.861L160.484 179.1C160.448 178.71 160.31 178.388 160.072 178.138C159.833 177.887 159.539 177.694 159.187 177.558C158.839 177.419 158.479 177.323 158.108 177.271C157.735 177.22 157.399 177.193 157.096 177.193C156.89 177.193 156.594 177.214 156.211 177.253C155.826 177.293 155.432 177.373 155.029 177.492C154.629 177.612 154.289 177.795 154.01 178.042C153.732 178.29 153.592 178.626 153.592 179.052C153.592 179.451 153.727 179.748 153.998 179.942C154.273 180.138 154.629 180.271 155.065 180.342C155.502 180.411 155.97 180.455 156.471 180.474C157.308 180.486 158.129 180.537 158.939 180.623C159.746 180.707 160.475 180.867 161.127 181.101C161.777 181.337 162.294 181.685 162.679 182.147C163.062 182.606 163.255 183.214 163.255 183.97C163.255 184.667 163.064 185.275 162.685 185.792C162.309 186.306 161.815 186.724 161.206 187.047C160.595 187.367 159.94 187.588 159.242 187.716C158.684 187.819 158.014 187.872 157.235 187.872Z" fill="white"/>
<path d="M168.99 187.725C167.814 187.713 166.914 187.373 166.293 186.703C165.675 186.031 165.365 185.172 165.365 184.128V181.051H163.826V179.383H165.365V175.529H167.578V179.383H170.542V181.051H167.578V184.128C167.566 184.622 167.72 185.033 168.045 185.359C168.372 185.686 168.786 185.849 169.287 185.849C169.46 185.849 169.642 185.828 169.833 185.783C170.027 185.735 170.222 185.661 170.421 185.556L171.015 187.175C170.618 187.371 170.254 187.51 169.924 187.594C169.592 187.68 169.281 187.725 168.99 187.725Z" fill="white"/>
<path d="M176.14 187.722C175.639 187.722 175.141 187.654 174.649 187.519C174.155 187.38 173.706 187.152 173.303 186.832C172.903 186.509 172.583 186.082 172.345 185.547C172.106 185.014 171.988 184.357 171.988 183.575V179.398H174.273V183.629C174.273 184.167 174.361 184.597 174.54 184.92C174.722 185.239 174.958 185.47 175.249 185.613C175.54 185.756 175.849 185.834 176.177 185.846C176.524 185.846 176.859 185.773 177.183 185.625C177.51 185.474 177.778 185.235 177.989 184.908C178.198 184.582 178.304 184.155 178.304 183.629V179.398H180.571V187.585H178.638L178.425 186.587C178.195 186.978 177.863 187.265 177.431 187.447C177.002 187.63 176.572 187.722 176.14 187.722Z" fill="white"/>
<path d="M186.168 187.707C185.225 187.639 184.449 187.406 183.84 187.002C183.229 186.6 182.775 186.091 182.476 185.472C182.181 184.851 182.034 184.186 182.034 183.477C182.034 182.652 182.213 181.922 182.573 181.284C182.937 180.647 183.452 180.148 184.119 179.79C184.789 179.428 185.583 179.246 186.501 179.246C186.953 179.246 187.405 179.345 187.853 179.539C188.302 179.735 188.647 180.015 188.89 180.381V175.529H191.139V187.57H189.259L189.029 186.435C188.693 186.941 188.267 187.289 187.75 187.48C187.232 187.667 186.704 187.743 186.168 187.707ZM186.623 185.765C187.345 185.765 187.92 185.549 188.344 185.114C188.768 184.676 188.981 184.137 188.981 183.495C188.981 182.854 188.771 182.31 188.356 181.863C187.944 181.414 187.365 181.188 186.623 181.188C186.109 181.188 185.678 181.302 185.331 181.529C184.983 181.753 184.725 182.04 184.555 182.389C184.386 182.736 184.301 183.099 184.301 183.477C184.301 183.832 184.386 184.188 184.555 184.546C184.725 184.902 184.983 185.195 185.331 185.425C185.678 185.652 186.109 185.765 186.623 185.765Z" fill="white"/>
<path d="M193.039 178.182V175.529H195.276V178.182H193.039ZM193.039 187.57V179.383H195.276V187.57H193.039Z" fill="white"/>
<path d="M201.36 187.706C200.487 187.706 199.705 187.526 199.014 187.168C198.323 186.806 197.779 186.306 197.384 185.668C196.987 185.032 196.79 184.294 196.79 183.457C196.79 182.621 196.987 181.889 197.384 181.258C197.779 180.625 198.323 180.129 199.014 179.77C199.705 179.409 200.487 179.227 201.36 179.227C202.233 179.227 203.009 179.409 203.688 179.77C204.37 180.129 204.908 180.625 205.3 181.258C205.696 181.889 205.894 182.621 205.894 183.457C205.894 184.294 205.696 185.032 205.3 185.668C204.908 186.306 204.37 186.806 203.688 187.168C203.009 187.526 202.233 187.706 201.36 187.706ZM201.36 185.8C202.01 185.8 202.548 185.578 202.973 185.136C203.397 184.694 203.609 184.135 203.609 183.457C203.609 182.78 203.397 182.225 202.973 181.79C202.548 181.357 202.01 181.139 201.36 181.139C200.696 181.139 200.154 181.357 199.73 181.79C199.305 182.225 199.093 182.78 199.093 183.457C199.093 184.135 199.305 184.694 199.73 185.136C200.154 185.578 200.696 185.8 201.36 185.8Z" fill="white"/>
</svg>
