<svg width="908" height="887" viewBox="0 0 908 887" fill="none" xmlns="http://www.w3.org/2000/svg">
<mask id="mask0_1063_3443" style="mask-type:luminance" maskUnits="userSpaceOnUse" x="126" y="126" width="635" height="635">
<path d="M126.505 126.547H760.214V760.456H126.505V126.547Z" fill="white"/>
</mask>
<g mask="url(#mask0_1063_3443)">
<mask id="mask1_1063_3443" style="mask-type:luminance" maskUnits="userSpaceOnUse" x="0" y="-1" width="887" height="888">
<path d="M0 386.834L500.003 -0.00390625L886.719 500.158L386.72 886.996L0 386.834Z" fill="white"/>
</mask>
<g mask="url(#mask1_1063_3443)">
<mask id="mask2_1063_3443" style="mask-type:luminance" maskUnits="userSpaceOnUse" x="127" y="127" width="633" height="633">
<path d="M250.004 193.418C111.93 300.242 86.5705 498.8 193.36 636.918C300.15 775.032 498.65 800.399 636.719 693.58C774.794 586.757 800.153 388.193 693.363 250.08C586.574 111.962 388.073 86.5948 250.004 193.418Z" fill="white"/>
</mask>
<g mask="url(#mask2_1063_3443)">
<path d="M0 386.834L500.003 -0.00390625L886.719 500.158L386.72 886.996L0 386.834Z" fill="#E0E7EB"/>
</g>
</g>
</g>
<mask id="mask3_1063_3443" style="mask-type:luminance" maskUnits="userSpaceOnUse" x="156" y="144" width="528" height="529">
<path d="M156.062 144.285H683.365V672.937H156.062V144.285Z" fill="white"/>
</mask>
<g mask="url(#mask3_1063_3443)">
<mask id="mask4_1063_3443" style="mask-type:luminance" maskUnits="userSpaceOnUse" x="50" y="38" width="740" height="741">
<path d="M50.3444 361.368L467.07 38.957L789.383 455.819L372.653 778.23L50.3444 361.368Z" fill="white"/>
</mask>
<g mask="url(#mask4_1063_3443)">
<mask id="mask5_1063_3443" style="mask-type:luminance" maskUnits="userSpaceOnUse" x="156" y="145" width="528" height="528">
<path d="M258.709 200.165C143.63 289.198 122.496 454.688 211.496 569.799C300.501 684.915 465.943 706.056 581.018 617.023C696.093 527.995 717.231 362.5 628.226 247.389C539.222 132.277 373.784 111.133 258.709 200.165Z" fill="white"/>
</mask>
<g mask="url(#mask5_1063_3443)">
<path d="M50.3444 361.368L467.07 38.957L789.383 455.819L372.653 778.23L50.3444 361.368Z" fill="#3C98D1"/>
</g>
</g>
</g>
<mask id="mask6_1063_3443" style="mask-type:luminance" maskUnits="userSpaceOnUse" x="179" y="170" width="434" height="432">
<path d="M179.708 170.305H612.427V601.978H179.708V170.305Z" fill="white"/>
</mask>
<g mask="url(#mask6_1063_3443)">
<mask id="mask7_1063_3443" style="mask-type:luminance" maskUnits="userSpaceOnUse" x="93" y="83" width="606" height="606">
<path d="M93.9738 347.509L434.802 83.8203L698.407 424.752L357.579 688.445L93.9738 347.509Z" fill="white"/>
</mask>
<g mask="url(#mask7_1063_3443)">
<mask id="mask8_1063_3443" style="mask-type:luminance" maskUnits="userSpaceOnUse" x="180" y="170" width="432" height="432">
<path d="M264.385 215.666C170.269 288.478 152.982 423.829 225.776 517.976C298.57 612.122 433.878 629.414 527.995 556.602C622.112 483.784 639.398 348.434 566.604 254.287C493.81 160.14 358.502 142.848 264.385 215.666Z" fill="white"/>
</mask>
<g mask="url(#mask8_1063_3443)">
<path d="M93.9738 347.509L434.802 83.8203L698.407 424.752L357.579 688.445L93.9738 347.509Z" fill="#B5C3C6"/>
</g>
</g>
</g>
<mask id="mask9_1063_3443" style="mask-type:luminance" maskUnits="userSpaceOnUse" x="210" y="186" width="336" height="336">
<path d="M210.448 186.859H545.036V521.554H210.448V186.859Z" fill="white"/>
</mask>
<g mask="url(#mask9_1063_3443)">
<mask id="mask10_1063_3443" style="mask-type:luminance" maskUnits="userSpaceOnUse" x="143" y="119" width="470" height="470">
<path d="M143.491 324.426L407.78 119.949L612.187 384.326L347.898 588.798L143.491 324.426Z" fill="white"/>
</mask>
<g mask="url(#mask10_1063_3443)">
<mask id="mask11_1063_3443" style="mask-type:luminance" maskUnits="userSpaceOnUse" x="210" y="187" width="335" height="335">
<path d="M275.635 222.191C202.652 278.654 189.25 383.607 245.695 456.613C302.14 529.615 407.064 543.027 480.043 486.564C553.026 430.1 566.428 325.143 509.983 252.137C453.538 179.135 348.614 165.724 275.635 222.191Z" fill="white"/>
</mask>
<g mask="url(#mask11_1063_3443)">
<path d="M143.491 324.426L407.78 119.949L612.187 384.326L347.898 588.798L143.491 324.426Z" fill="#92A3A6"/>
</g>
</g>
</g>
<mask id="mask12_1063_3443" style="mask-type:luminance" maskUnits="userSpaceOnUse" x="230" y="205" width="255" height="256">
<path d="M230.547 205.785H484.74V460.059H230.547V205.785Z" fill="white"/>
</mask>
<g mask="url(#mask12_1063_3443)">
<mask id="mask13_1063_3443" style="mask-type:luminance" maskUnits="userSpaceOnUse" x="180" y="155" width="356" height="356">
<path d="M180.276 310.489L381.054 155.148L535.735 355.209L334.958 510.544L180.276 310.489Z" fill="white"/>
</mask>
<g mask="url(#mask13_1063_3443)">
<mask id="mask14_1063_3443" style="mask-type:luminance" maskUnits="userSpaceOnUse" x="231" y="206" width="254" height="254">
<path d="M280.499 232.947C225.148 275.772 214.9 355.274 257.615 410.518C300.33 465.761 379.83 475.832 435.18 433.007C490.536 390.181 500.779 310.679 458.064 255.436C415.349 200.192 335.849 190.121 280.499 232.947Z" fill="white"/>
</mask>
<g mask="url(#mask14_1063_3443)">
<path d="M180.276 310.489L381.054 155.148L535.735 355.209L334.958 510.544L180.276 310.489Z" fill="#F1F1F1"/>
</g>
</g>
</g>
<mask id="mask15_1063_3443" style="mask-type:luminance" maskUnits="userSpaceOnUse" x="231" y="206" width="255" height="254">
<path d="M231.304 206.148H485.136V459.855H231.304V206.148Z" fill="white"/>
</mask>
<g mask="url(#mask15_1063_3443)">
<mask id="mask16_1063_3443" style="mask-type:luminance" maskUnits="userSpaceOnUse" x="180" y="155" width="357" height="356">
<path d="M180.582 310.518L381.443 155.242L536.191 355.222L335.33 510.497L180.582 310.518Z" fill="white"/>
</mask>
<g mask="url(#mask16_1063_3443)">
<mask id="mask17_1063_3443" style="mask-type:luminance" maskUnits="userSpaceOnUse" x="231" y="206" width="254" height="254">
<path d="M280.847 233.01C225.473 275.817 215.223 355.288 257.955 410.51C300.687 465.733 380.22 475.799 435.595 432.99C490.969 390.183 501.219 310.713 458.487 255.49C415.755 200.267 336.223 190.203 280.847 233.01Z" fill="white"/>
</mask>
<g mask="url(#mask17_1063_3443)">
<path d="M180.582 310.518L381.443 155.242L536.191 355.222L335.33 510.497L180.582 310.518Z" fill="white"/>
</g>
</g>
</g>
<mask id="mask18_1063_3443" style="mask-type:luminance" maskUnits="userSpaceOnUse" x="273" y="369" width="170" height="86">
<path d="M273.451 369.922H442.989V454.686H273.451V369.922Z" fill="white"/>
</mask>
<g mask="url(#mask18_1063_3443)">
<path d="M442.709 420.836C441.307 422.184 439.873 423.497 438.408 424.774C436.943 426.054 435.449 427.298 433.924 428.506C432.4 429.713 430.848 430.882 429.266 432.015C427.686 433.148 426.079 434.243 424.445 435.299C422.814 436.356 421.156 437.373 419.473 438.35C417.791 439.326 416.088 440.263 414.362 441.158C412.634 442.053 410.888 442.907 409.121 443.719C407.353 444.531 405.568 445.3 403.762 446.026C401.958 446.753 400.138 447.435 398.301 448.075C396.464 448.713 394.613 449.308 392.746 449.859C390.881 450.41 389.004 450.915 387.113 451.377C385.224 451.838 383.325 452.252 381.416 452.624C379.505 452.993 377.588 453.317 375.662 453.594C373.739 453.873 371.807 454.105 369.871 454.291C367.934 454.476 365.995 454.617 364.053 454.709C362.108 454.802 360.164 454.848 358.22 454.848C356.274 454.848 354.332 454.802 352.387 454.709C350.445 454.617 348.504 454.476 346.569 454.291C344.633 454.105 342.701 453.873 340.778 453.594C338.852 453.317 336.935 452.993 335.024 452.624C333.115 452.252 331.216 451.838 329.325 451.377C327.436 450.915 325.559 450.41 323.692 449.859C321.827 449.308 319.976 448.713 318.139 448.075C316.302 447.435 314.482 446.753 312.678 446.026C310.872 445.3 309.087 444.531 307.319 443.719C305.552 442.907 303.806 442.053 302.078 441.158C300.352 440.263 298.649 439.326 296.965 438.35C295.284 437.373 293.626 436.356 291.995 435.299C290.361 434.243 288.754 433.148 287.174 432.015C285.592 430.882 284.04 429.713 282.516 428.506C280.991 427.298 279.497 426.054 278.032 424.774C276.567 423.497 275.133 422.184 273.731 420.836L300.752 393.827C304.823 389.753 309.276 386.152 314.11 383.023C340.866 365.706 375.574 365.706 402.33 383.023C407.164 386.152 411.617 389.753 415.686 393.827L442.709 420.836Z" fill="#B1BFC2"/>
</g>
<mask id="mask19_1063_3443" style="mask-type:luminance" maskUnits="userSpaceOnUse" x="273" y="211" width="170" height="86">
<path d="M273.451 211.152H442.989V296.079H273.451V211.152Z" fill="white"/>
</mask>
<g mask="url(#mask19_1063_3443)">
<path d="M442.709 245.166L415.686 272.175C411.617 276.249 407.164 279.85 402.33 282.979C375.574 300.296 340.866 300.296 314.11 282.979C309.276 279.85 304.823 276.249 300.752 272.175L273.731 245.166C275.133 243.818 276.567 242.505 278.032 241.226C279.497 239.948 280.991 238.704 282.516 237.496C284.04 236.289 285.592 235.119 287.174 233.987C288.754 232.854 290.361 231.759 291.995 230.701C293.626 229.646 295.284 228.629 296.965 227.652C298.649 226.676 300.352 225.739 302.078 224.844C303.806 223.949 305.552 223.095 307.319 222.283C309.087 221.471 310.872 220.702 312.678 219.976C314.482 219.249 316.302 218.567 318.139 217.927C319.976 217.289 321.827 216.694 323.692 216.143C325.559 215.592 327.436 215.087 329.325 214.625C331.216 214.164 333.115 213.748 335.024 213.378C336.935 213.009 338.852 212.685 340.778 212.408C342.701 212.129 344.633 211.897 346.569 211.711C348.504 211.526 350.445 211.385 352.387 211.293C354.332 211.2 356.274 211.152 358.22 211.152C360.164 211.152 362.108 211.2 364.053 211.293C365.995 211.385 367.934 211.526 369.871 211.711C371.807 211.897 373.739 212.129 375.662 212.408C377.588 212.685 379.505 213.009 381.416 213.378C383.325 213.748 385.224 214.164 387.113 214.625C389.004 215.087 390.881 215.592 392.746 216.143C394.613 216.694 396.464 217.289 398.301 217.927C400.138 218.567 401.958 219.249 403.762 219.976C405.568 220.702 407.353 221.471 409.121 222.283C410.888 223.095 412.634 223.949 414.362 224.844C416.088 225.739 417.791 226.676 419.473 227.652C421.156 228.629 422.814 229.646 424.445 230.701C426.079 231.759 427.686 232.854 429.266 233.987C430.848 235.119 432.4 236.289 433.924 237.496C435.449 238.704 436.943 239.948 438.408 241.226C439.873 242.505 441.307 243.818 442.709 245.166Z" fill="#B1BFC2"/>
</g>
<mask id="mask20_1063_3443" style="mask-type:luminance" maskUnits="userSpaceOnUse" x="395" y="248" width="85" height="170">
<path d="M395.158 248.273H479.964V417.727H395.158V248.273Z" fill="white"/>
</mask>
<g mask="url(#mask20_1063_3443)">
<path d="M480.125 332.998C480.13 336.89 479.949 340.771 479.581 344.647C479.213 348.52 478.66 352.368 477.921 356.188C477.183 360.008 476.264 363.785 475.161 367.516C474.061 371.25 472.783 374.92 471.329 378.531C469.873 382.14 468.248 385.671 466.454 389.125C464.66 392.577 462.704 395.937 460.588 399.204C458.47 402.469 456.202 405.625 453.781 408.672C451.359 411.72 448.797 414.645 446.096 417.446L419.073 390.436C414.998 386.368 411.394 381.918 408.264 377.087C390.939 350.343 390.939 315.653 408.264 288.91C411.394 284.079 414.998 279.628 419.073 275.559L446.096 248.551C448.797 251.352 451.359 254.277 453.781 257.324C456.202 260.371 458.47 263.527 460.588 266.793C462.704 270.058 464.66 273.417 466.454 276.871C468.248 280.325 469.873 283.857 471.329 287.466C472.783 291.075 474.061 294.747 475.161 298.478C476.264 302.211 477.183 305.989 477.921 309.809C478.66 313.629 479.213 317.476 479.581 321.35C479.949 325.223 480.13 329.106 480.125 332.998Z" fill="#1FBEDE"/>
</g>
<mask id="mask21_1063_3443" style="mask-type:luminance" maskUnits="userSpaceOnUse" x="236" y="248" width="86" height="170">
<path d="M236.313 248.273H321.282V417.727H236.313V248.273Z" fill="white"/>
</mask>
<g mask="url(#mask21_1063_3443)">
<path d="M308.176 377.087C305.046 381.918 301.442 386.368 297.367 390.436L270.344 417.446C268.995 416.044 267.682 414.611 266.402 413.147C265.123 411.683 263.878 410.189 262.67 408.665C261.463 407.141 260.292 405.59 259.159 404.009C258.025 402.43 256.93 400.824 255.872 399.191C254.816 397.558 253.798 395.904 252.822 394.221C251.845 392.54 250.907 390.837 250.012 389.112C249.116 387.385 248.262 385.64 247.45 383.872C246.638 382.107 245.868 380.322 245.141 378.518C244.414 376.715 243.731 374.896 243.091 373.06C242.453 371.224 241.858 369.373 241.306 367.507C240.755 365.643 240.25 363.767 239.788 361.877C239.327 359.989 238.911 358.09 238.541 356.182C238.171 354.272 237.847 352.357 237.57 350.432C237.29 348.509 237.059 346.579 236.872 344.643C236.687 342.707 236.547 340.769 236.454 338.828C236.362 336.885 236.313 334.942 236.313 332.998C236.313 331.053 236.362 329.112 236.454 327.168C236.547 325.227 236.687 323.288 236.872 321.354C237.059 319.418 237.29 317.487 237.57 315.564C237.847 313.64 238.171 311.722 238.541 309.814C238.911 307.906 239.327 306.007 239.788 304.118C240.25 302.23 240.755 300.353 241.306 298.487C241.858 296.624 242.453 294.773 243.091 292.937C243.731 291.101 244.414 289.281 245.141 287.479C245.868 285.674 246.638 283.89 247.45 282.122C248.262 280.357 249.116 278.611 250.012 276.884C250.907 275.159 251.845 273.456 252.822 271.774C253.798 270.093 254.816 268.436 255.872 266.806C256.93 265.173 258.025 263.566 259.159 261.987C260.292 260.406 261.463 258.855 262.67 257.331C263.878 255.808 265.123 254.314 266.402 252.85C267.682 251.385 268.995 249.952 270.344 248.551L297.367 275.559C301.442 279.628 305.046 284.079 308.176 288.91C325.501 315.653 325.501 350.343 308.176 377.087Z" fill="#B1BFC2"/>
</g>
<mask id="mask22_1063_3443" style="mask-type:luminance" maskUnits="userSpaceOnUse" x="140" y="120" width="437" height="426">
<path d="M576.44 120H140V546H576.44V120Z" fill="black" fill-opacity="0.5"/>
</mask>
<g mask="url(#mask22_1063_3443)">
<mask id="mask23_1063_3443" style="mask-type:luminance" maskUnits="userSpaceOnUse" x="290" y="265" width="136" height="136">
<path d="M425.467 265.785H290.973V400.212H425.467V265.785Z" fill="white"/>
</mask>
<g mask="url(#mask23_1063_3443)">
<path d="M308.175 377.086C307.511 376.331 306.864 375.564 306.235 374.782C305.606 374 304.995 373.205 304.402 372.395C303.808 371.585 303.232 370.762 302.677 369.927C302.121 369.091 301.584 368.242 301.066 367.383C300.548 366.523 300.049 365.652 299.572 364.77C299.092 363.886 298.634 362.995 298.195 362.091C297.759 361.189 297.341 360.275 296.943 359.353C296.547 358.432 296.17 357.502 295.816 356.562C295.461 355.623 295.126 354.676 294.815 353.722C294.503 352.768 294.212 351.809 293.944 350.842C293.674 349.875 293.428 348.9 293.202 347.922C292.979 346.944 292.775 345.962 292.596 344.975C292.414 343.988 292.257 342.997 292.122 342.002C291.985 341.007 291.872 340.011 291.782 339.01C291.691 338.01 291.624 337.01 291.578 336.008C291.534 335.004 291.51 334.001 291.51 332.997C291.51 331.993 291.534 330.991 291.578 329.987C291.624 328.985 291.691 327.983 291.782 326.985C291.872 325.984 291.985 324.988 292.122 323.993C292.257 322.998 292.414 322.007 292.596 321.02C292.775 320.033 292.979 319.051 293.202 318.071C293.428 317.093 293.674 316.12 293.944 315.153C294.212 314.186 294.503 313.227 294.815 312.272C295.126 311.318 295.461 310.372 295.816 309.432C296.17 308.493 296.547 307.563 296.943 306.641C297.341 305.72 297.759 304.806 298.195 303.904C298.634 303 299.092 302.107 299.572 301.225C300.049 300.343 300.548 299.472 301.066 298.612C301.584 297.753 302.121 296.904 302.677 296.068C303.232 295.232 303.808 294.41 304.402 293.6C304.995 292.79 305.606 291.995 306.235 291.213C306.864 290.431 307.511 289.663 308.175 288.909C325.501 315.652 325.501 350.343 308.175 377.086ZM314.11 383.017C314.864 383.681 315.632 384.326 316.415 384.957C317.197 385.586 317.993 386.196 318.803 386.789C319.613 387.383 320.436 387.958 321.272 388.512C322.109 389.069 322.958 389.605 323.818 390.123C324.678 390.641 325.549 391.138 326.432 391.617C327.314 392.096 328.208 392.554 329.112 392.991C330.015 393.429 330.929 393.847 331.85 394.244C332.773 394.64 333.704 395.015 334.643 395.37C335.583 395.725 336.53 396.058 337.485 396.371C338.439 396.683 339.399 396.973 340.367 397.241C341.334 397.511 342.307 397.757 343.288 397.981C344.266 398.207 345.249 398.41 346.236 398.589C347.224 398.77 348.216 398.928 349.211 399.063C350.206 399.199 351.203 399.312 352.204 399.403C353.203 399.493 354.206 399.56 355.208 399.606C356.213 399.651 357.215 399.675 358.22 399.675C359.224 399.675 360.227 399.651 361.232 399.606C362.234 399.56 363.235 399.493 364.236 399.403C365.236 399.312 366.234 399.199 367.229 399.063C368.224 398.928 369.216 398.77 370.203 398.589C371.191 398.41 372.174 398.207 373.152 397.981C374.131 397.757 375.106 397.511 376.073 397.241C377.041 396.973 378.001 396.683 378.955 396.371C379.91 396.058 380.857 395.725 381.797 395.37C382.736 395.015 383.667 394.64 384.588 394.244C385.511 393.847 386.425 393.429 387.328 392.991C388.232 392.554 389.124 392.096 390.008 391.617C390.891 391.138 391.762 390.641 392.622 390.123C393.482 389.605 394.331 389.069 395.167 388.512C396.004 387.958 396.827 387.383 397.637 386.789C398.447 386.196 399.243 385.586 400.025 384.957C400.808 384.326 401.575 383.681 402.33 383.017C375.574 365.7 340.866 365.7 314.11 383.017ZM402.33 282.978C401.575 282.314 400.808 281.667 400.025 281.038C399.243 280.409 398.447 279.799 397.637 279.206C396.827 278.612 396.004 278.037 395.167 277.482C394.331 276.926 393.482 276.39 392.622 275.872C391.762 275.354 390.891 274.855 390.008 274.378C389.124 273.899 388.232 273.441 387.328 273.002C386.425 272.566 385.511 272.148 384.588 271.751C383.667 271.355 382.736 270.978 381.797 270.625C380.857 270.27 379.91 269.935 378.955 269.624C378.001 269.312 377.041 269.022 376.073 268.754C375.106 268.484 374.131 268.238 373.152 268.012C372.174 267.788 371.191 267.585 370.203 267.406C369.216 267.224 368.224 267.067 367.229 266.932C366.234 266.795 365.236 266.683 364.236 266.592C363.235 266.502 362.234 266.435 361.232 266.389C360.227 266.344 359.224 266.32 358.22 266.32C357.215 266.32 356.213 266.344 355.208 266.389C354.206 266.435 353.203 266.502 352.204 266.592C351.203 266.683 350.206 266.795 349.211 266.932C348.216 267.067 347.224 267.224 346.236 267.406C345.249 267.585 344.266 267.788 343.288 268.012C342.307 268.238 341.334 268.484 340.367 268.754C339.399 269.022 338.439 269.312 337.485 269.624C336.53 269.935 335.583 270.27 334.643 270.625C333.704 270.978 332.773 271.355 331.85 271.751C330.929 272.148 330.015 272.566 329.112 273.002C328.208 273.441 327.314 273.899 326.432 274.378C325.549 274.855 324.678 275.354 323.818 275.872C322.958 276.39 322.109 276.926 321.272 277.482C320.436 278.037 319.613 278.612 318.803 279.206C317.993 279.799 317.197 280.409 316.415 281.038C315.632 281.667 314.864 282.314 314.11 282.978C340.866 300.295 375.574 300.295 402.33 282.978ZM408.265 288.909C390.939 315.652 390.939 350.343 408.265 377.086C408.929 376.331 409.574 375.564 410.205 374.782C410.834 374 411.444 373.205 412.038 372.395C412.632 371.585 413.207 370.762 413.762 369.927C414.319 369.091 414.856 368.242 415.374 367.383C415.892 366.523 416.389 365.652 416.868 364.77C417.347 363.886 417.806 362.995 418.243 362.091C418.681 361.189 419.099 360.275 419.497 359.353C419.893 358.432 420.268 357.502 420.624 356.562C420.979 355.623 421.314 354.676 421.624 353.722C421.937 352.768 422.227 351.809 422.496 350.842C422.766 349.875 423.012 348.9 423.236 347.922C423.461 346.944 423.665 345.962 423.844 344.975C424.025 343.988 424.183 342.997 424.318 342.002C424.455 341.007 424.567 340.011 424.658 339.01C424.749 338.01 424.815 337.01 424.862 336.008C424.906 335.004 424.93 334.001 424.93 332.997C424.93 331.993 424.906 330.991 424.862 329.987C424.815 328.985 424.749 327.983 424.658 326.985C424.567 325.984 424.455 324.988 424.318 323.993C424.183 322.998 424.025 322.007 423.844 321.02C423.665 320.033 423.461 319.051 423.236 318.071C423.012 317.093 422.766 316.12 422.496 315.153C422.227 314.186 421.937 313.227 421.624 312.272C421.314 311.318 420.979 310.372 420.624 309.432C420.268 308.493 419.893 307.563 419.497 306.641C419.099 305.72 418.681 304.806 418.243 303.904C417.806 303 417.347 302.107 416.868 301.225C416.389 300.343 415.892 299.472 415.374 298.612C414.856 297.753 414.319 296.904 413.762 296.068C413.207 295.232 412.632 294.41 412.038 293.6C411.444 292.79 410.834 291.995 410.205 291.213C409.574 290.431 408.929 289.663 408.265 288.909Z" fill="#F2F2F2"/>
</g>
</g>
<mask id="mask24_1063_3443" style="mask-type:luminance" maskUnits="userSpaceOnUse" x="349" y="271" width="18" height="17">
<path d="M349.709 271.941H366.744V287.088H349.709V271.941Z" fill="white"/>
</mask>
<g mask="url(#mask24_1063_3443)">
<path d="M365.719 273.978C366.629 275.115 366.308 277.034 364.911 278.644C364.435 279.192 363.953 279.693 363.479 280.144C362.082 281.477 360.778 282.392 360.051 282.888C360.018 283.57 359.454 284.112 358.764 284.112C358.253 284.112 357.811 283.814 357.604 283.383C357.602 283.381 357.6 283.378 357.598 283.376C357.519 283.208 357.474 283.021 357.474 282.823C357.474 282.111 358.052 281.534 358.764 281.534C358.899 281.534 359.03 281.555 359.154 281.593C359.226 281.617 359.295 281.645 359.361 281.68C360.22 281.201 362.149 279.998 363.564 278.515C364.585 277.442 365.336 276.222 365.214 275.022C364.944 272.374 361.996 271.578 358.764 273.34C358.484 273.299 358.2 273.277 357.907 273.277C355.24 273.277 353.05 275.065 352.417 277.516V277.518C349.899 279.46 349.709 281.233 349.981 282.392C349.783 280.604 350.959 279.053 352.328 277.921C353.214 277.189 354.18 276.629 354.903 276.294C354.959 275.634 355.512 275.115 356.187 275.115C356.387 275.115 356.575 275.161 356.746 275.242C357.178 275.449 357.476 275.891 357.476 276.403C357.476 277.115 356.899 277.692 356.187 277.692C355.876 277.692 355.591 277.581 355.367 277.398C354.541 277.74 353.242 278.578 352.261 279.626C351.494 280.445 350.92 281.394 350.92 282.333C350.92 283.825 352.43 285.35 354.77 284.953C354.999 285.454 355.19 286.007 355.303 286.647C355.303 286.647 356.945 286.647 357.907 286.647C358.867 286.647 360.51 286.647 360.51 286.647C360.974 284.032 362.697 282.891 363.339 280.73C364.447 279.748 365.392 278.716 365.845 277.895C366.731 276.291 366.579 274.863 365.719 273.978ZM364.667 275.592C364.645 275.804 364.6 276.015 364.537 276.222C364.345 276.838 363.979 277.428 363.498 277.992C363.244 276.498 362.425 275.211 361.261 274.362C360.834 274.05 360.364 273.798 359.855 273.615C363.17 272.101 364.852 273.804 364.667 275.592ZM351.627 281.536V281.534C351.658 281.425 351.699 281.318 351.747 281.212C351.897 280.883 352.106 280.549 352.35 280.225C352.626 281.601 353.338 282.553 354.008 283.599C354.159 283.838 354.309 284.08 354.452 284.334C352.287 284.602 351.214 282.973 351.627 281.536Z" fill="#F2F2F2"/>
</g>
<path d="M356.846 276.402C356.846 276.767 356.551 277.061 356.187 277.061C355.824 277.061 355.53 276.767 355.53 276.402C355.53 276.04 355.824 275.746 356.187 275.746C356.551 275.746 356.846 276.04 356.846 276.402Z" fill="#B1BFC2"/>
<path d="M359.421 282.822C359.421 283.185 359.126 283.479 358.764 283.479C358.401 283.479 358.107 283.185 358.107 282.822C358.107 282.46 358.401 282.164 358.764 282.164C359.126 282.164 359.421 282.46 359.421 282.822Z" fill="#B1BFC2"/>
<path d="M326.643 423.839L323.076 415.918H324.786L326.932 420.836L327.42 422.182L327.923 420.836L329.647 417.123H330.794L332.57 420.844L333.081 422.197L333.562 420.836L335.633 415.918H337.365L333.82 423.839H332.407L330.58 420L330.217 418.958L329.869 420L328.093 423.839H326.643Z" fill="white"/>
<path d="M339.851 423.905C339.485 423.899 339.13 423.838 338.786 423.72C338.44 423.598 338.158 423.407 337.942 423.15C337.724 422.89 337.616 422.549 337.616 422.13C337.616 421.716 337.727 421.39 337.949 421.153C338.171 420.917 338.46 420.747 338.815 420.643C339.17 420.54 339.542 420.488 339.932 420.488H341.634C341.534 420.174 341.35 419.944 341.079 419.8C340.807 419.652 340.519 419.578 340.214 419.578C339.942 419.578 339.677 419.634 339.422 419.741C339.17 419.85 338.971 420 338.823 420.192L337.898 419.393C338.183 418.955 338.543 418.657 338.978 418.498C339.411 418.341 339.859 418.262 340.317 418.262C340.661 418.262 341 418.313 341.331 418.417C341.666 418.517 341.969 418.665 342.241 418.861C342.511 419.059 342.726 419.305 342.885 419.6C343.048 419.892 343.129 420.229 343.129 420.614V422.647L343.188 423.794H341.879L341.745 423.039C341.557 423.332 341.287 423.548 340.931 423.69C340.58 423.833 340.221 423.905 339.851 423.905ZM339.999 422.67C340.225 422.67 340.458 422.64 340.695 422.581C340.935 422.522 341.148 422.411 341.331 422.248C341.518 422.082 341.629 421.847 341.664 421.545H339.888C339.69 421.545 339.503 421.595 339.326 421.693C339.152 421.788 339.067 421.928 339.067 422.115C339.067 422.254 339.119 422.365 339.222 422.448C339.329 422.527 339.455 422.585 339.6 422.618C339.748 422.653 339.881 422.67 339.999 422.67Z" fill="white"/>
<path d="M346.507 423.807L343.651 418.482V418.438H345.234L346.588 421.056L347.128 422.431L347.617 421.078L348.978 418.438H350.591V418.482L347.698 423.807H346.507Z" fill="white"/>
<path d="M353.611 423.888C353.064 423.888 352.575 423.773 352.146 423.54C351.717 423.309 351.378 422.985 351.132 422.571C350.89 422.153 350.77 421.669 350.77 421.122C350.77 420.574 350.89 420.093 351.132 419.679C351.378 419.261 351.719 418.936 352.153 418.703C352.592 418.472 353.088 418.355 353.641 418.355C354.218 418.355 354.716 418.479 355.135 418.725C355.559 418.967 355.885 419.308 356.112 419.746C356.338 420.186 356.453 420.7 356.453 421.292C356.453 421.342 356.453 421.399 356.453 421.462C356.453 421.526 356.449 421.587 356.445 421.647H352.257C352.301 421.913 352.401 422.12 352.56 422.268C352.718 422.412 352.901 422.512 353.108 422.571C353.319 422.63 353.526 422.66 353.73 422.66C353.976 422.66 354.212 422.623 354.44 422.549C354.671 422.475 354.849 422.333 354.973 422.12L356.149 422.542C355.961 422.893 355.729 423.168 355.454 423.37C355.182 423.568 354.888 423.703 354.573 423.777C354.257 423.851 353.937 423.888 353.611 423.888ZM352.257 420.559H355.047C354.973 420.225 354.795 419.975 354.514 419.812C354.236 419.65 353.952 419.568 353.656 419.568C353.33 419.568 353.034 419.655 352.768 419.827C352.501 419.995 352.331 420.24 352.257 420.559Z" fill="white"/>
<path d="M363.05 423.795V417.257H359.987V415.918H367.675V417.257H364.626V423.795H363.05Z" fill="white"/>
<path d="M370.25 423.905C369.884 423.899 369.528 423.838 369.184 423.72C368.838 423.598 368.557 423.407 368.341 423.15C368.122 422.89 368.015 422.549 368.015 422.13C368.015 421.716 368.126 421.39 368.348 421.153C368.57 420.917 368.859 420.747 369.214 420.643C369.569 420.54 369.941 420.488 370.331 420.488H372.033C371.933 420.174 371.748 419.944 371.478 419.8C371.206 419.652 370.918 419.578 370.612 419.578C370.34 419.578 370.076 419.634 369.821 419.741C369.569 419.85 369.369 420 369.221 420.192L368.296 419.393C368.581 418.955 368.942 418.657 369.377 418.498C369.81 418.341 370.257 418.262 370.716 418.262C371.06 418.262 371.399 418.313 371.73 418.417C372.065 418.517 372.368 418.665 372.64 418.861C372.91 419.059 373.124 419.305 373.284 419.6C373.446 419.892 373.528 420.229 373.528 420.614V422.647L373.587 423.794H372.277L372.144 423.039C371.955 423.332 371.685 423.548 371.33 423.69C370.979 423.833 370.62 423.905 370.25 423.905ZM370.398 422.67C370.623 422.67 370.857 422.64 371.093 422.581C371.334 422.522 371.547 422.411 371.73 422.248C371.917 422.082 372.028 421.847 372.063 421.545H370.287C370.089 421.545 369.902 421.595 369.724 421.693C369.551 421.788 369.465 421.928 369.465 422.115C369.465 422.254 369.517 422.365 369.621 422.448C369.728 422.527 369.854 422.585 369.998 422.618C370.146 422.653 370.279 422.67 370.398 422.67Z" fill="white"/>
<path d="M374.745 423.795V415.918H376.195V423.795H374.745Z" fill="white"/>
<path d="M379.924 423.888C379.377 423.888 378.888 423.773 378.459 423.54C378.03 423.309 377.692 422.985 377.446 422.571C377.203 422.153 377.083 421.669 377.083 421.122C377.083 420.574 377.203 420.093 377.446 419.679C377.692 419.261 378.032 418.936 378.467 418.703C378.905 418.472 379.401 418.355 379.954 418.355C380.531 418.355 381.029 418.479 381.449 418.725C381.872 418.967 382.198 419.308 382.425 419.746C382.651 420.186 382.766 420.7 382.766 421.292C382.766 421.342 382.766 421.399 382.766 421.462C382.766 421.526 382.762 421.587 382.758 421.647H378.57C378.615 421.913 378.715 422.12 378.874 422.268C379.031 422.412 379.214 422.512 379.421 422.571C379.632 422.63 379.839 422.66 380.043 422.66C380.289 422.66 380.526 422.623 380.753 422.549C380.984 422.475 381.162 422.333 381.286 422.12L382.462 422.542C382.274 422.893 382.043 423.168 381.767 423.37C381.495 423.568 381.201 423.703 380.886 423.777C380.57 423.851 380.25 423.888 379.924 423.888ZM378.57 420.559H381.36C381.286 420.225 381.108 419.975 380.827 419.812C380.55 419.65 380.265 419.568 379.969 419.568C379.643 419.568 379.347 419.655 379.081 419.827C378.814 419.995 378.644 420.24 378.57 420.559Z" fill="white"/>
<path d="M383.782 423.799V418.444H385.033L385.166 419.095C385.314 418.834 385.525 418.648 385.802 418.533C386.083 418.415 386.361 418.355 386.638 418.355C386.968 418.355 387.291 418.4 387.608 418.489C387.922 418.577 388.209 418.729 388.466 418.94C388.727 419.152 388.934 419.433 389.088 419.783C389.239 420.129 389.317 420.556 389.317 421.062V423.799H387.845V421.033C387.848 420.678 387.793 420.397 387.674 420.19C387.556 419.979 387.402 419.825 387.216 419.731C387.027 419.633 386.827 419.583 386.616 419.583C386.394 419.583 386.176 419.633 385.965 419.731C385.752 419.825 385.58 419.981 385.447 420.197C385.314 420.41 385.247 420.689 385.247 421.033V423.799H383.782Z" fill="white"/>
<path d="M393.38 423.898C392.625 423.887 392.044 423.665 391.641 423.225C391.242 422.787 391.042 422.227 391.042 421.546V419.535H390.05V418.44H391.042V415.918H392.47V418.44H394.386V419.535H392.47V421.546C392.459 421.868 392.561 422.136 392.773 422.352C392.984 422.565 393.251 422.67 393.572 422.67C393.685 422.67 393.804 422.656 393.928 422.626C394.05 422.596 394.176 422.548 394.305 422.478L394.69 423.536C394.433 423.665 394.196 423.756 393.979 423.809C393.767 423.868 393.567 423.898 393.38 423.898Z" fill="white"/>
<path d="M363.999 273.899C363.577 273.431 362.95 273.184 362.186 273.184C361.603 273.184 360.958 273.328 360.26 273.609C360.645 273.777 361.011 273.988 361.352 274.236C361.37 274.25 361.389 274.263 361.407 274.278C362.73 273.568 364.252 274.084 364.524 275.404C364.543 274.837 364.356 274.295 363.999 273.899Z" fill="#B1BFC2"/>
<path d="M353.878 283.68C353.862 283.654 353.845 283.63 353.828 283.604C352.785 283.619 351.962 283.079 351.701 282.293C351.729 282.676 351.864 283.045 352.095 283.352C352.509 283.903 353.183 284.205 353.993 284.205C354.06 284.205 354.128 284.203 354.198 284.199C354.106 284.042 354.002 283.876 353.878 283.68Z" fill="#B1BFC2"/>
<path d="M360.51 287.781C360.51 288.105 360.249 288.368 359.926 288.368H355.889C355.565 288.368 355.303 288.105 355.303 287.781C355.303 287.458 355.565 287.195 355.889 287.195H359.926C360.249 287.195 360.51 287.458 360.51 287.781Z" fill="#B1BFC2"/>
<path d="M360.229 289.414C360.229 289.738 359.966 289.999 359.643 289.999H356.17C355.847 289.999 355.584 289.738 355.584 289.414C355.584 289.091 355.847 288.828 356.17 288.828H359.643C359.966 288.828 360.229 289.091 360.229 289.414Z" fill="#B1BFC2"/>
<mask id="mask25_1063_3443" style="mask-type:luminance" maskUnits="userSpaceOnUse" x="356" y="290" width="4" height="3">
<path d="M356.326 290.398H359.641V292.157H356.326V290.398Z" fill="white"/>
</mask>
<g mask="url(#mask25_1063_3443)">
<path d="M359.321 290.461H356.365V290.803C356.365 291.631 357.036 292.301 357.863 292.301C358.69 292.301 359.361 291.631 359.361 290.803V290.461H359.321Z" fill="#B1BFC2"/>
</g>
<mask id="mask26_1063_3443" style="mask-type:luminance" maskUnits="userSpaceOnUse" x="412" y="334" width="8" height="7">
<path d="M412.68 334.891H419.784V340.781H412.68V334.891Z" fill="white"/>
</mask>
<g mask="url(#mask26_1063_3443)">
<path d="M418.518 335.234L415.377 338.372L413.988 336.985L412.75 338.222L415.377 340.85L419.758 336.471L418.518 335.234Z" fill="#1FBEDE"/>
</g>
<path d="M316.8 238.304L313.234 230.383H314.943L317.089 235.301L317.577 236.647L318.08 235.301L319.804 231.588H320.951L322.727 235.308L323.238 236.662L323.719 235.301L325.791 230.383H327.522L323.978 238.304H322.564L320.737 234.465L320.374 233.423L320.026 234.465L318.251 238.304H316.8Z" fill="white"/>
<path d="M330.008 238.366C329.642 238.36 329.287 238.299 328.943 238.181C328.597 238.059 328.316 237.868 328.099 237.611C327.881 237.351 327.774 237.01 327.774 236.591C327.774 236.177 327.885 235.851 328.107 235.614C328.329 235.378 328.617 235.208 328.972 235.104C329.328 235.001 329.699 234.949 330.09 234.949H331.792C331.692 234.634 331.507 234.405 331.237 234.261C330.965 234.113 330.676 234.039 330.371 234.039C330.099 234.039 329.834 234.095 329.579 234.202C329.328 234.311 329.128 234.461 328.98 234.653L328.055 233.854C328.34 233.416 328.7 233.118 329.135 232.959C329.568 232.802 330.016 232.723 330.474 232.723C330.819 232.723 331.157 232.774 331.488 232.878C331.823 232.978 332.126 233.126 332.398 233.322C332.668 233.52 332.883 233.765 333.042 234.061C333.205 234.353 333.286 234.69 333.286 235.075V237.108L333.346 238.255H332.036L331.903 237.5C331.714 237.793 331.444 238.009 331.089 238.151C330.737 238.294 330.378 238.366 330.008 238.366ZM330.156 237.131C330.382 237.131 330.615 237.101 330.852 237.042C331.092 236.983 331.305 236.872 331.488 236.709C331.675 236.543 331.786 236.308 331.821 236.006H330.045C329.847 236.006 329.661 236.056 329.483 236.154C329.309 236.249 329.224 236.389 329.224 236.576C329.224 236.715 329.276 236.825 329.379 236.909C329.487 236.988 329.612 237.046 329.757 237.079C329.905 237.114 330.038 237.131 330.156 237.131Z" fill="white"/>
<path d="M336.664 238.268L333.808 232.943V232.898H335.391L336.745 235.517L337.286 236.892L337.774 235.539L339.135 232.898H340.749V232.943L337.855 238.268H336.664Z" fill="white"/>
<path d="M343.768 238.345C343.221 238.345 342.732 238.23 342.303 237.997C341.874 237.766 341.535 237.442 341.289 237.028C341.047 236.61 340.927 236.126 340.927 235.579C340.927 235.031 341.047 234.551 341.289 234.136C341.535 233.718 341.876 233.393 342.31 233.16C342.749 232.929 343.245 232.812 343.798 232.812C344.375 232.812 344.873 232.936 345.292 233.182C345.716 233.425 346.042 233.765 346.269 234.203C346.495 234.643 346.61 235.157 346.61 235.749C346.61 235.799 346.61 235.856 346.61 235.919C346.61 235.983 346.606 236.044 346.602 236.104H342.414C342.458 236.37 342.558 236.577 342.717 236.725C342.875 236.869 343.058 236.969 343.265 237.028C343.476 237.087 343.683 237.117 343.887 237.117C344.133 237.117 344.369 237.08 344.597 237.006C344.828 236.932 345.006 236.79 345.13 236.577L346.306 236.999C346.118 237.35 345.886 237.625 345.611 237.827C345.339 238.025 345.045 238.16 344.73 238.234C344.414 238.308 344.094 238.345 343.768 238.345ZM342.414 235.016H345.204C345.13 234.682 344.952 234.432 344.671 234.269C344.393 234.107 344.109 234.025 343.813 234.025C343.487 234.025 343.191 234.112 342.925 234.284C342.658 234.453 342.488 234.697 342.414 235.016Z" fill="white"/>
<path d="M350.699 238.254V230.355H354.391C355.17 230.355 355.856 230.529 356.448 230.873C357.04 231.219 357.501 231.69 357.832 232.286C358.161 232.883 358.328 233.556 358.328 234.305C358.328 235.056 358.161 235.729 357.832 236.324C357.501 236.921 357.04 237.393 356.448 237.737C355.86 238.082 355.175 238.254 354.391 238.254H350.699ZM352.297 236.93H354.413C354.887 236.93 355.298 236.818 355.649 236.59C356.004 236.365 356.278 236.058 356.47 235.673C356.666 235.288 356.766 234.852 356.766 234.364C356.766 233.867 356.67 233.417 356.478 233.018C356.285 232.619 356.012 232.301 355.656 232.064C355.305 231.827 354.891 231.709 354.413 231.709H352.297V236.93Z" fill="white"/>
<path d="M359.23 232.121V230.383H360.673V232.121H359.23ZM359.23 238.259V232.905H360.673V238.259H359.23Z" fill="white"/>
<path d="M364.306 238.369C363.842 238.369 363.407 238.312 363.004 238.199C362.604 238.081 362.273 237.887 362.012 237.615C361.755 237.34 361.613 236.97 361.583 236.506L362.974 236.528C362.989 236.705 363.059 236.844 363.189 236.942C363.316 237.042 363.485 237.11 363.692 237.149C363.899 237.184 364.114 237.201 364.336 237.201C364.724 237.201 365.033 237.149 365.261 237.046C365.486 236.938 365.601 236.802 365.601 236.639C365.601 236.506 365.505 236.398 365.312 236.313C365.12 236.225 364.798 236.173 364.35 236.158C364.049 236.143 363.744 236.114 363.433 236.069C363.122 236.021 362.834 235.942 362.567 235.833C362.301 235.725 362.086 235.57 361.923 235.367C361.761 235.16 361.679 234.884 361.679 234.538C361.679 234.198 361.761 233.917 361.923 233.695C362.09 233.473 362.304 233.296 362.567 233.163C362.834 233.03 363.115 232.937 363.411 232.882C363.71 232.823 364.003 232.793 364.284 232.793C364.584 232.793 364.885 232.821 365.187 232.874C365.492 232.924 365.773 233.019 366.03 233.155C366.291 233.288 366.504 233.473 366.666 233.71C366.833 233.947 366.933 234.246 366.962 234.605L365.608 234.649C365.573 234.439 365.47 234.285 365.298 234.191C365.129 234.093 364.946 234.028 364.75 233.998C364.558 233.965 364.404 233.947 364.291 233.947C363.984 233.947 363.714 233.995 363.477 234.087C363.24 234.176 363.122 234.322 363.122 234.524C363.122 234.642 363.185 234.734 363.314 234.797C363.442 234.862 363.61 234.908 363.818 234.938C364.029 234.964 364.256 234.982 364.498 234.997C364.813 235.017 365.127 235.052 365.438 235.1C365.753 235.15 366.039 235.234 366.296 235.352C366.557 235.467 366.763 235.637 366.911 235.862C367.059 236.09 367.12 236.393 367.096 236.772C367.04 237.132 366.874 237.43 366.592 237.667C366.311 237.903 365.965 238.081 365.557 238.199C365.151 238.312 364.735 238.369 364.306 238.369Z" fill="white"/>
<path d="M370.509 238.369C369.962 238.369 369.474 238.255 369.044 238.022C368.615 237.791 368.277 237.467 368.031 237.053C367.783 236.635 367.661 236.151 367.661 235.603C367.661 235.041 367.779 234.551 368.016 234.132C368.253 233.714 368.582 233.385 369.007 233.148C369.437 232.911 369.936 232.793 370.509 232.793C370.889 232.793 371.249 232.852 371.59 232.97C371.934 233.085 372.237 233.277 372.5 233.547C372.761 233.814 372.955 234.176 373.084 234.635L371.834 234.849C371.745 234.618 371.627 234.448 371.479 234.339C371.331 234.231 371.17 234.159 370.998 234.124C370.824 234.085 370.661 234.065 370.509 234.065C370.069 234.065 369.727 234.213 369.481 234.509C369.239 234.805 369.118 235.171 369.118 235.603C369.118 236.018 369.244 236.373 369.496 236.668C369.747 236.964 370.084 237.112 370.509 237.112C370.657 237.112 370.813 237.095 370.976 237.06C371.142 237.022 371.303 236.938 371.457 236.809C371.608 236.681 371.74 236.487 371.849 236.225L373.114 236.506C372.99 236.955 372.792 237.317 372.522 237.593C372.25 237.865 371.939 238.063 371.59 238.185C371.244 238.307 370.883 238.369 370.509 238.369Z" fill="white"/>
<path d="M376.592 238.344C376.03 238.344 375.523 238.225 375.075 237.989C374.631 237.752 374.28 237.427 374.024 237.012C373.773 236.598 373.647 236.116 373.647 235.563C373.647 235.016 373.773 234.539 374.024 234.128C374.28 233.714 374.631 233.389 375.075 233.152C375.523 232.915 376.03 232.797 376.592 232.797C377.154 232.797 377.654 232.915 378.094 233.152C378.532 233.389 378.88 233.714 379.137 234.128C379.393 234.539 379.522 235.016 379.522 235.563C379.522 236.116 379.393 236.598 379.137 237.012C378.88 237.427 378.532 237.752 378.094 237.989C377.654 238.225 377.154 238.344 376.592 238.344ZM376.592 237.094C377.016 237.094 377.363 236.951 377.635 236.665C377.911 236.375 378.05 236.007 378.05 235.563C378.05 235.125 377.911 234.762 377.635 234.476C377.363 234.191 377.016 234.047 376.592 234.047C376.167 234.047 375.817 234.191 375.541 234.476C375.269 234.762 375.134 235.125 375.134 235.563C375.134 236.007 375.269 236.375 375.541 236.665C375.817 236.951 376.167 237.094 376.592 237.094Z" fill="white"/>
<path d="M382.628 238.268L379.771 232.943V232.898H381.355L382.709 235.517L383.249 236.892L383.738 235.539L385.099 232.898H386.712V232.943L383.819 238.268H382.628Z" fill="white"/>
<path d="M389.732 238.345C389.184 238.345 388.696 238.23 388.267 237.997C387.838 237.766 387.499 237.442 387.253 237.028C387.011 236.61 386.891 236.126 386.891 235.579C386.891 235.031 387.011 234.551 387.253 234.136C387.499 233.718 387.84 233.393 388.274 233.16C388.713 232.929 389.209 232.812 389.762 232.812C390.339 232.812 390.836 232.936 391.256 233.182C391.68 233.425 392.006 233.765 392.233 234.203C392.459 234.643 392.573 235.157 392.573 235.749C392.573 235.799 392.573 235.856 392.573 235.919C392.573 235.983 392.57 236.044 392.566 236.104H388.378C388.422 236.37 388.522 236.577 388.681 236.725C388.839 236.869 389.022 236.969 389.229 237.028C389.44 237.087 389.647 237.117 389.85 237.117C390.096 237.117 390.333 237.08 390.561 237.006C390.792 236.932 390.97 236.79 391.094 236.577L392.27 236.999C392.081 237.35 391.85 237.625 391.575 237.827C391.303 238.025 391.008 238.16 390.694 238.234C390.378 238.308 390.058 238.345 389.732 238.345ZM388.378 235.016H391.168C391.094 234.682 390.916 234.432 390.635 234.269C390.357 234.107 390.072 234.025 389.776 234.025C389.451 234.025 389.155 234.112 388.888 234.284C388.622 234.453 388.452 234.697 388.378 235.016Z" fill="white"/>
<path d="M393.59 238.258V232.903H394.826L394.915 233.532C395.111 233.227 395.344 233.025 395.61 232.925C395.877 232.827 396.114 232.777 396.321 232.777C396.587 232.777 396.876 232.833 397.186 232.94C397.501 233.044 397.765 233.227 397.978 233.487L397.334 234.456C397.072 234.216 396.767 234.094 396.417 234.094C396.056 234.094 395.74 234.216 395.47 234.456C395.198 234.698 395.055 235.016 395.041 235.41V238.258H393.59Z" fill="white"/>
<path d="M398.956 240.686L400.48 237.883L397.698 232.921V232.898H399.34L400.917 235.79L401.257 236.641L401.59 235.798L403.144 232.898H404.742V232.943L400.554 240.686H398.956Z" fill="white"/>
<mask id="mask27_1063_3443" style="mask-type:luminance" maskUnits="userSpaceOnUse" x="401" y="324" width="14" height="17">
<path d="M401.363 324.953H414.575V340.784H401.363V324.953Z" fill="white"/>
</mask>
<g mask="url(#mask27_1063_3443)">
<path d="M414.162 326.819C412.815 325.741 411.108 325.094 409.247 325.094C404.891 325.094 401.363 328.62 401.363 332.972C401.363 337.325 404.891 340.852 409.247 340.852V339.101C405.858 339.101 403.115 336.358 403.115 332.972C403.115 329.587 405.858 326.843 409.247 326.843C410.623 326.843 411.889 327.303 412.913 328.069L414.162 326.819Z" fill="#F2F2F2"/>
</g>
<path d="M414.153 329.305C414.919 330.327 415.377 331.594 415.377 332.969H417.129C417.129 331.109 416.482 329.403 415.401 328.055L414.153 329.305Z" fill="#F2F2F2"/>
<path d="M411.611 331.846C411.774 332.188 411.874 332.567 411.874 332.972C411.874 334.424 410.698 335.599 409.247 335.599C407.795 335.599 406.619 334.424 406.619 332.972C406.619 331.521 407.795 330.347 409.247 330.347C409.652 330.347 410.03 330.445 410.372 330.609L411.659 329.322C410.968 328.864 410.139 328.594 409.247 328.594C406.828 328.594 404.867 330.554 404.867 332.972C404.867 335.391 406.828 337.35 409.247 337.35C411.665 337.35 413.626 335.391 413.626 332.972C413.626 332.081 413.356 331.253 412.897 330.561L411.611 331.846Z" fill="#F2F2F2"/>
<mask id="mask28_1063_3443" style="mask-type:luminance" maskUnits="userSpaceOnUse" x="407" y="319" width="16" height="15">
<path d="M407.944 319.84H422.318V333.947H407.944V319.84Z" fill="white"/>
</mask>
<g mask="url(#mask28_1063_3443)">
<path d="M409.865 333.591C409.523 333.933 408.97 333.933 408.627 333.591C408.285 333.248 408.285 332.696 408.627 332.354L415.377 325.605L415.379 323.34L418.883 319.84L418.881 323.342H422.385L418.881 326.844L416.617 326.842L409.865 333.591Z" fill="#1FBEDE"/>
</g>
<mask id="mask29_1063_3443" style="mask-type:luminance" maskUnits="userSpaceOnUse" x="348" y="375" width="20" height="19">
<path d="M348.275 375.809H367.218V393.586H348.275V375.809Z" fill="white"/>
</mask>
<g mask="url(#mask29_1063_3443)">
<path d="M363.242 387.918C363.174 387.539 363.303 387.147 363.583 386.875L366.692 383.846C367.39 383.166 367.003 381.977 366.041 381.837L361.74 381.213C361.355 381.156 361.026 380.919 360.856 380.568L358.936 376.678C358.507 375.805 357.254 375.805 356.823 376.678L354.903 380.568C354.733 380.914 354.398 381.156 354.019 381.213L349.72 381.837C348.756 381.977 348.366 383.16 349.067 383.846L352.178 386.875C352.456 387.147 352.58 387.539 352.517 387.918L351.781 392.198C351.618 393.161 352.626 393.892 353.492 393.439L357.339 391.416C357.683 391.235 358.092 391.235 358.433 391.416L362.279 393.439C363.141 393.892 364.154 393.161 363.99 392.198L363.253 387.918H363.242ZM357.878 380.834C358.738 380.834 359.435 381.53 359.435 382.391C359.435 383.251 358.738 383.948 357.878 383.948C357.016 383.948 356.318 383.251 356.318 382.391C356.318 381.53 357.016 380.834 357.878 380.834ZM360.144 388.931C360.144 388.994 360.092 389.044 360.029 389.044H355.724C355.662 389.044 355.612 388.994 355.612 388.931V385.93C355.612 385.148 356.246 384.514 357.027 384.514H358.727C359.509 384.514 360.144 385.148 360.144 385.93V388.931Z" fill="#F2F2F2"/>
</g>
<mask id="mask30_1063_3443" style="mask-type:luminance" maskUnits="userSpaceOnUse" x="298" y="328" width="18" height="16">
<path d="M298.029 328.266H315.077V343.886H298.029V328.266Z" fill="white"/>
</mask>
<g mask="url(#mask30_1063_3443)">
<path d="M299.583 328.266C298.726 328.266 298.034 328.959 298.034 329.815V339.102C298.034 339.958 298.726 340.652 299.583 340.652H305.005V342.199H304.229C303.802 342.199 303.454 342.547 303.454 342.974C303.454 343.401 303.802 343.747 304.229 343.747H308.876C309.304 343.747 309.651 343.401 309.651 342.974C309.651 342.547 309.304 342.199 308.876 342.199H308.101V340.652H313.523C314.378 340.652 315.072 339.958 315.072 339.102V329.815C315.072 328.959 314.378 328.266 313.523 328.266H299.583ZM299.583 329.815H313.523V339.102H299.583V329.815ZM307.097 331.352C306.873 331.387 306.682 331.553 306.623 331.786L305.356 336.852C305.278 337.163 305.467 337.477 305.778 337.555C306.09 337.632 306.405 337.444 306.481 337.131L307.75 332.065C307.827 331.755 307.639 331.44 307.328 331.363C307.248 331.342 307.173 331.34 307.097 331.352ZM303.454 332.137C303.31 332.137 303.168 332.191 303.057 332.302L301.296 334.06C301.077 334.28 301.077 334.637 301.296 334.857L303.055 336.616C303.275 336.834 303.632 336.834 303.852 336.616C304.072 336.395 304.072 336.039 303.852 335.819L302.492 334.46L303.852 333.099C304.074 332.877 304.074 332.522 303.854 332.302C303.745 332.191 303.599 332.137 303.454 332.137ZM309.646 332.137C309.502 332.137 309.357 332.191 309.246 332.302C309.026 332.522 309.026 332.877 309.246 333.099L310.608 334.46L309.246 335.819C309.026 336.039 309.026 336.395 309.246 336.616C309.466 336.834 309.823 336.834 310.044 336.616L311.803 334.857C312.023 334.637 312.023 334.28 311.803 334.06L310.044 332.302C309.934 332.191 309.79 332.137 309.646 332.137Z" fill="#F2F2F2"/>
</g>
<path d="M448.954 292.293L456.656 288.824V290.488L451.876 292.581L450.559 293.047L451.876 293.543L455.487 295.214V296.331L451.862 298.062L450.552 298.55L451.876 299.023L456.656 301.035V302.721L448.954 299.275V297.892L452.683 296.124L453.704 295.776L452.683 295.436L448.954 293.705V292.293Z" fill="white"/>
<path d="M448.887 305.135C448.898 304.774 448.959 304.427 449.072 304.092C449.191 303.756 449.376 303.482 449.627 303.271C449.879 303.059 450.208 302.953 450.619 302.953C451.018 302.953 451.331 303.059 451.558 303.271C451.79 303.487 451.958 303.769 452.062 304.114C452.165 304.464 452.217 304.828 452.217 305.209V306.858C452.522 306.764 452.746 306.586 452.89 306.326C453.033 306.063 453.105 305.782 453.105 305.483C453.105 305.22 453.049 304.965 452.942 304.713C452.839 304.466 452.691 304.27 452.498 304.122L453.275 303.227C453.708 303.502 454.002 303.852 454.156 304.277C454.307 304.7 454.385 305.135 454.385 305.579C454.385 305.913 454.335 306.244 454.237 306.57C454.137 306.895 453.989 307.187 453.793 307.45C453.601 307.71 453.36 307.919 453.075 308.078C452.794 308.236 452.469 308.315 452.099 308.315H450.116L448.998 308.367V307.102L449.731 306.969C449.444 306.786 449.231 306.522 449.094 306.178C448.958 305.838 448.887 305.49 448.887 305.135ZM450.093 305.275C450.093 305.492 450.123 305.715 450.182 305.948C450.241 306.185 450.349 306.392 450.508 306.57C450.67 306.747 450.896 306.854 451.188 306.895V305.164C451.188 304.976 451.139 304.797 451.04 304.625C450.946 304.451 450.807 304.366 450.626 304.366C450.497 304.366 450.391 304.414 450.308 304.514C450.228 304.617 450.171 304.739 450.138 304.883C450.108 305.026 450.093 305.157 450.093 305.275Z" fill="white"/>
<path d="M448.991 311.597L454.163 308.816H454.207V310.362L451.655 311.671L450.323 312.196L451.632 312.684L454.207 314.008V315.569H454.163L448.991 312.758V311.597Z" fill="white"/>
<path d="M448.909 318.497C448.909 317.965 449.022 317.492 449.25 317.077C449.475 316.663 449.792 316.338 450.197 316.101C450.6 315.864 451.07 315.746 451.603 315.746C452.135 315.746 452.603 315.864 453.009 316.101C453.412 316.338 453.728 316.665 453.956 317.085C454.181 317.508 454.296 317.991 454.296 318.534C454.296 319.096 454.178 319.579 453.941 319.984C453.704 320.393 453.371 320.709 452.942 320.931C452.516 321.156 452.017 321.271 451.44 321.271C451.384 321.271 451.325 321.271 451.262 321.271C451.203 321.271 451.144 321.265 451.085 321.256V317.188C450.833 317.233 450.635 317.331 450.493 317.484C450.348 317.636 450.248 317.813 450.189 318.017C450.13 318.224 450.1 318.425 450.1 318.623C450.1 318.863 450.137 319.096 450.211 319.318C450.285 319.54 450.422 319.707 450.626 319.821L450.226 320.975C449.88 320.792 449.612 320.568 449.42 320.302C449.227 320.036 449.094 319.749 449.02 319.444C448.946 319.137 448.909 318.823 448.909 318.497ZM452.15 317.188V319.903C452.479 319.829 452.722 319.655 452.875 319.385C453.033 319.119 453.112 318.838 453.112 318.542C453.112 318.231 453.031 317.945 452.868 317.684C452.705 317.427 452.465 317.262 452.15 317.188Z" fill="white"/>
<path d="M448.998 325.348H456.657V329.304C456.657 329.807 456.577 330.251 456.42 330.636C456.266 331.024 456.029 331.331 455.709 331.553C455.388 331.775 454.971 331.886 454.459 331.886C454.226 331.886 453.98 331.812 453.719 331.664C453.462 331.519 453.26 331.311 453.112 331.035C453.038 331.32 452.905 331.556 452.713 331.745C452.524 331.937 452.309 332.082 452.069 332.181C451.832 332.279 451.595 332.329 451.358 332.329C450.939 332.329 450.576 332.244 450.271 332.078C449.969 331.915 449.725 331.695 449.538 331.42C449.35 331.142 449.213 330.832 449.124 330.488C449.039 330.148 448.998 329.794 448.998 329.43V325.348ZM453.608 326.827V329.393C453.612 329.683 453.676 329.929 453.8 330.133C453.922 330.334 454.15 330.436 454.481 330.436C454.712 330.436 454.895 330.379 455.029 330.266C455.162 330.157 455.254 330.018 455.31 329.852C455.369 329.683 455.399 329.506 455.399 329.319V326.827H453.608ZM450.256 326.827V329.43C450.265 329.676 450.302 329.905 450.367 330.118C450.43 330.334 450.539 330.506 450.693 330.636C450.844 330.769 451.057 330.835 451.329 330.835C451.599 330.835 451.812 330.765 451.965 330.628C452.117 330.49 452.224 330.312 452.283 330.096C452.346 329.883 452.38 329.661 452.38 329.43V326.827H450.256Z" fill="white"/>
<path d="M448.909 335.803C448.909 335.486 448.954 335.174 449.042 334.863C449.131 334.553 449.275 334.272 449.479 334.02C449.681 333.769 449.953 333.569 450.293 333.421C450.633 333.273 451.051 333.199 451.551 333.199H454.207V334.627H451.514C451.173 334.627 450.9 334.682 450.692 334.797C450.489 334.91 450.341 335.057 450.248 335.24C450.16 335.422 450.11 335.618 450.1 335.825C450.1 336.041 450.147 336.25 450.241 336.453C450.339 336.66 450.493 336.827 450.7 336.956C450.907 337.089 451.177 337.156 451.514 337.156H454.207V338.576H448.998V337.363L449.634 337.23C449.383 337.086 449.198 336.879 449.079 336.609C448.967 336.337 448.909 336.069 448.909 335.803Z" fill="white"/>
<path d="M448.887 342.101C448.887 341.646 448.945 341.224 449.057 340.836C449.17 340.446 449.361 340.126 449.627 339.875C449.894 339.623 450.252 339.483 450.707 339.453L450.685 340.814C450.508 340.829 450.371 340.897 450.278 341.021C450.184 341.143 450.117 341.304 450.079 341.502C450.043 341.703 450.027 341.916 450.027 342.138C450.027 342.517 450.075 342.815 450.175 343.033C450.278 343.249 450.412 343.358 450.574 343.358C450.707 343.358 450.815 343.264 450.9 343.077C450.983 342.894 451.033 342.583 451.048 342.145C451.063 341.853 451.089 341.555 451.129 341.25C451.174 340.949 451.248 340.668 451.351 340.407C451.459 340.15 451.614 339.943 451.817 339.786C452.019 339.632 452.287 339.557 452.624 339.557C452.95 339.557 453.218 339.634 453.43 339.793C453.647 339.956 453.823 340.163 453.956 340.415C454.089 340.67 454.182 340.943 454.237 341.236C454.291 341.531 454.318 341.812 454.318 342.079C454.318 342.369 454.291 342.663 454.237 342.959C454.187 343.255 454.096 343.528 453.963 343.78C453.834 344.031 453.654 344.235 453.423 344.394C453.196 344.556 452.907 344.652 452.557 344.682L452.513 343.373C452.715 343.332 452.863 343.232 452.957 343.07C453.055 342.907 453.116 342.729 453.142 342.537C453.172 342.349 453.186 342.201 453.186 342.093C453.186 341.792 453.142 341.526 453.053 341.295C452.968 341.067 452.827 340.954 452.631 340.954C452.513 340.954 452.42 341.015 452.358 341.139C452.298 341.261 452.256 341.424 452.232 341.628C452.206 341.835 452.187 342.053 452.173 342.286C452.147 342.591 452.11 342.896 452.062 343.203C452.017 343.513 451.938 343.794 451.825 344.046C451.71 344.297 451.545 344.492 451.329 344.63C451.111 344.773 450.815 344.834 450.441 344.815C450.09 344.765 449.799 344.602 449.568 344.327C449.34 344.055 449.17 343.721 449.057 343.321C448.945 342.922 448.887 342.515 448.887 342.101Z" fill="white"/>
<path d="M454.977 345.676H456.657V347.074H454.977V345.676ZM448.998 345.676H454.207V347.074H448.998V345.676Z" fill="white"/>
<path d="M448.998 348.281H454.207V349.494L453.571 349.627C453.826 349.775 454.011 349.982 454.126 350.249C454.239 350.518 454.296 350.79 454.296 351.062C454.296 351.382 454.252 351.694 454.163 352.001C454.074 352.306 453.928 352.586 453.726 352.837C453.523 353.089 453.253 353.288 452.912 353.436C452.572 353.588 452.152 353.665 451.654 353.665H448.998V352.231H451.691C452.032 352.24 452.302 352.186 452.505 352.068C452.713 351.95 452.862 351.798 452.957 351.617C453.055 351.434 453.105 351.241 453.105 351.04C453.105 350.818 453.055 350.605 452.957 350.404C452.862 350.2 452.713 350.034 452.505 349.901C452.298 349.768 452.026 349.701 451.691 349.701H448.998V348.281Z" fill="white"/>
<path d="M448.909 357.279C448.909 356.746 449.022 356.273 449.25 355.859C449.475 355.444 449.792 355.119 450.197 354.882C450.6 354.646 451.07 354.527 451.603 354.527C452.135 354.527 452.603 354.646 453.009 354.882C453.412 355.119 453.728 355.446 453.956 355.866C454.181 356.289 454.296 356.772 454.296 357.316C454.296 357.878 454.178 358.36 453.941 358.765C453.704 359.174 453.371 359.49 452.942 359.712C452.516 359.937 452.017 360.052 451.44 360.052C451.384 360.052 451.325 360.052 451.262 360.052C451.203 360.052 451.144 360.046 451.085 360.037V355.97C450.833 356.014 450.635 356.112 450.493 356.265C450.348 356.417 450.248 356.594 450.189 356.798C450.13 357.005 450.1 357.206 450.1 357.404C450.1 357.645 450.137 357.878 450.211 358.1C450.285 358.321 450.422 358.488 450.626 358.602L450.226 359.756C449.88 359.573 449.612 359.349 449.42 359.083C449.227 358.817 449.094 358.53 449.02 358.225C448.946 357.918 448.909 357.604 448.909 357.279ZM452.15 355.97V358.684C452.479 358.61 452.722 358.436 452.875 358.166C453.033 357.9 453.112 357.619 453.112 357.323C453.112 357.012 453.031 356.726 452.868 356.465C452.705 356.208 452.465 356.043 452.15 355.97Z" fill="white"/>
<path d="M448.887 363.366C448.887 362.912 448.945 362.49 449.057 362.102C449.17 361.712 449.361 361.392 449.627 361.14C449.894 360.889 450.252 360.748 450.707 360.719L450.685 362.08C450.508 362.094 450.371 362.163 450.278 362.287C450.184 362.409 450.117 362.57 450.079 362.767C450.043 362.969 450.027 363.182 450.027 363.403C450.027 363.782 450.075 364.08 450.175 364.298C450.278 364.515 450.412 364.624 450.574 364.624C450.707 364.624 450.815 364.529 450.9 364.343C450.983 364.16 451.033 363.849 451.048 363.411C451.063 363.119 451.089 362.821 451.129 362.516C451.174 362.215 451.248 361.934 451.351 361.673C451.459 361.416 451.614 361.209 451.817 361.052C452.019 360.898 452.287 360.822 452.624 360.822C452.95 360.822 453.218 360.9 453.43 361.059C453.647 361.222 453.823 361.429 453.956 361.68C454.089 361.935 454.182 362.209 454.237 362.501C454.291 362.797 454.318 363.078 454.318 363.344C454.318 363.635 454.291 363.929 454.237 364.224C454.187 364.52 454.096 364.794 453.963 365.045C453.834 365.297 453.654 365.5 453.423 365.659C453.196 365.822 452.907 365.918 452.557 365.948L452.513 364.639C452.715 364.598 452.863 364.498 452.957 364.335C453.055 364.173 453.116 363.995 453.142 363.803C453.172 363.614 453.186 363.466 453.186 363.359C453.186 363.058 453.142 362.791 453.053 362.56C452.968 362.333 452.827 362.22 452.631 362.22C452.513 362.22 452.42 362.281 452.358 362.405C452.298 362.527 452.256 362.69 452.232 362.893C452.206 363.1 452.187 363.318 452.173 363.551C452.147 363.856 452.11 364.162 452.062 364.468C452.017 364.779 451.938 365.06 451.825 365.312C451.71 365.563 451.545 365.757 451.329 365.896C451.111 366.038 450.815 366.099 450.441 366.081C450.09 366.031 449.799 365.868 449.568 365.593C449.34 365.321 449.17 364.986 449.057 364.587C448.945 364.187 448.887 363.781 448.887 363.366Z" fill="white"/>
<path d="M448.887 369.273C448.887 368.818 448.945 368.396 449.057 368.008C449.17 367.618 449.361 367.298 449.627 367.047C449.894 366.795 450.252 366.655 450.707 366.625L450.685 367.986C450.508 368.001 450.371 368.069 450.278 368.193C450.184 368.315 450.117 368.476 450.079 368.674C450.043 368.875 450.027 369.088 450.027 369.31C450.027 369.689 450.075 369.986 450.175 370.205C450.278 370.421 450.412 370.53 450.574 370.53C450.707 370.53 450.815 370.436 450.9 370.249C450.983 370.066 451.033 369.755 451.048 369.317C451.063 369.025 451.089 368.727 451.129 368.422C451.174 368.121 451.248 367.84 451.351 367.579C451.459 367.322 451.614 367.115 451.817 366.958C452.019 366.804 452.287 366.729 452.624 366.729C452.95 366.729 453.218 366.806 453.43 366.965C453.647 367.128 453.823 367.335 453.956 367.586C454.089 367.842 454.182 368.115 454.237 368.407C454.291 368.703 454.318 368.984 454.318 369.251C454.318 369.541 454.291 369.835 454.237 370.131C454.187 370.426 454.096 370.7 453.963 370.952C453.834 371.203 453.654 371.406 453.423 371.565C453.196 371.728 452.907 371.824 452.557 371.854L452.513 370.545C452.715 370.504 452.863 370.404 452.957 370.242C453.055 370.079 453.116 369.901 453.142 369.709C453.172 369.52 453.186 369.373 453.186 369.265C453.186 368.964 453.142 368.698 453.053 368.467C452.968 368.239 452.827 368.126 452.631 368.126C452.513 368.126 452.42 368.187 452.358 368.311C452.298 368.433 452.256 368.596 452.232 368.799C452.206 369.006 452.187 369.225 452.173 369.458C452.147 369.763 452.11 370.068 452.062 370.375C452.017 370.685 451.938 370.966 451.825 371.218C451.71 371.469 451.545 371.663 451.329 371.802C451.111 371.944 450.815 372.005 450.441 371.987C450.09 371.937 449.799 371.774 449.568 371.499C449.34 371.227 449.17 370.892 449.057 370.493C448.945 370.094 448.887 369.687 448.887 369.273Z" fill="white"/>
<path d="M433.653 307.254C433.653 306.82 433.698 306.396 433.787 305.982C433.875 305.572 434.018 305.2 434.216 304.865C434.412 304.534 434.669 304.274 434.985 304.081C435.3 303.889 435.69 303.793 436.154 303.793C436.539 303.793 436.896 303.911 437.227 304.148C437.557 304.388 437.819 304.705 438.012 305.095C438.115 304.95 438.243 304.832 438.396 304.74C438.548 304.651 438.707 304.586 438.87 304.547C439.033 304.507 439.173 304.488 439.292 304.488C439.686 304.488 440.024 304.57 440.305 304.732C440.59 304.899 440.827 305.117 441.016 305.383C441.208 305.653 441.349 305.949 441.438 306.271C441.53 306.59 441.578 306.908 441.578 307.225C441.578 307.728 441.497 308.19 441.334 308.615C441.171 309.038 440.914 309.377 440.564 309.628C440.213 309.88 439.758 310.005 439.196 310.005V308.645C439.477 308.645 439.702 308.573 439.876 308.43C440.054 308.291 440.182 308.116 440.261 307.905C440.344 307.692 440.387 307.476 440.387 307.254C440.387 306.84 440.283 306.516 440.076 306.285C439.869 306.058 439.604 305.945 439.284 305.945C439.11 305.945 438.962 305.99 438.84 306.078C438.716 306.171 438.611 306.278 438.522 306.396L436.154 309.421C436.262 309.466 436.387 309.503 436.532 309.532C436.68 309.562 436.909 309.577 437.22 309.577V310.9C436.421 310.9 435.794 310.769 435.34 310.508L433.875 312.128H433.809V310.235L434.356 309.577C434.099 309.231 433.916 308.854 433.809 308.445C433.705 308.04 433.653 307.643 433.653 307.254ZM434.889 307.114C434.889 307.617 435 308.07 435.222 308.475L437.161 305.945C437.042 305.703 436.896 305.524 436.724 305.405C436.55 305.291 436.373 305.235 436.191 305.235C435.825 305.235 435.512 305.427 435.252 305.812C435.128 306.004 435.037 306.211 434.978 306.433C434.919 306.659 434.889 306.886 434.889 307.114Z" fill="white"/>
<path d="M433.809 315.719H441.467V319.498C441.467 320.093 441.371 320.618 441.178 321.073C440.99 321.532 440.705 321.889 440.32 322.146C439.939 322.406 439.451 322.538 438.855 322.538C438.243 322.538 437.74 322.397 437.346 322.116C436.95 321.839 436.657 321.469 436.465 321.007C436.276 320.548 436.184 320.038 436.184 319.476V317.235H433.809V315.719ZM437.457 317.235V319.483C437.46 319.936 437.564 320.312 437.767 320.607C437.975 320.903 438.337 321.051 438.855 321.051C439.19 321.051 439.451 320.981 439.639 320.844C439.832 320.705 439.965 320.519 440.039 320.282C440.117 320.049 440.157 319.788 440.157 319.498V317.235H437.457Z" fill="white"/>
<path d="M433.809 323.41H439.018V324.616L438.404 324.704C438.703 324.891 438.901 325.113 438.996 325.37C439.088 325.631 439.136 325.866 439.136 326.073C439.136 326.324 439.084 326.601 438.981 326.908C438.881 327.219 438.703 327.474 438.448 327.678L437.508 327.056C437.74 326.799 437.856 326.498 437.856 326.154C437.856 325.803 437.74 325.498 437.508 325.237C437.275 324.974 436.964 324.838 436.576 324.823H433.809V323.41Z" fill="white"/>
<path d="M433.72 330.772C433.72 330.225 433.833 329.733 434.061 329.3C434.292 328.866 434.61 328.524 435.015 328.272C435.424 328.024 435.892 327.902 436.421 327.902C436.954 327.902 437.42 328.024 437.82 328.272C438.223 328.524 438.539 328.866 438.767 329.3C438.998 329.733 439.114 330.225 439.114 330.772C439.114 331.319 438.998 331.804 438.767 332.229C438.539 332.658 438.223 332.994 437.82 333.242C437.42 333.488 436.954 333.612 436.421 333.612C435.892 333.612 435.424 333.488 435.015 333.242C434.61 332.994 434.292 332.658 434.061 332.229C433.833 331.804 433.72 331.319 433.72 330.772ZM434.934 330.772C434.934 331.175 435.074 331.512 435.356 331.778C435.637 332.044 435.992 332.177 436.421 332.177C436.854 332.177 437.209 332.044 437.487 331.778C437.762 331.512 437.901 331.175 437.901 330.772C437.901 330.352 437.762 330.01 437.487 329.744C437.209 329.478 436.854 329.345 436.421 329.345C435.992 329.345 435.637 329.478 435.356 329.744C435.074 330.01 434.934 330.352 434.934 330.772Z" fill="white"/>
<path d="M433.698 336.981C433.698 336.448 433.811 335.975 434.038 335.561C434.264 335.147 434.58 334.818 434.985 334.577C435.389 334.335 435.858 334.215 436.391 334.215C436.939 334.215 437.416 334.328 437.827 334.555C438.235 334.786 438.554 335.11 438.781 335.524C439.012 335.942 439.129 336.428 439.129 336.981C439.129 337.354 439.072 337.708 438.959 338.038C438.844 338.368 438.655 338.662 438.389 338.919C438.126 339.174 437.775 339.364 437.331 339.488L437.124 338.275C437.349 338.186 437.516 338.07 437.619 337.928C437.727 337.789 437.799 337.635 437.834 337.469C437.873 337.301 437.893 337.138 437.893 336.981C437.893 336.561 437.747 336.234 437.457 335.997C437.17 335.761 436.815 335.642 436.391 335.642C435.992 335.642 435.646 335.762 435.355 336.005C435.069 336.251 434.926 336.576 434.926 336.981C434.926 337.129 434.943 337.28 434.978 337.439C435.017 337.602 435.098 337.757 435.222 337.905C435.344 338.057 435.535 338.183 435.792 338.283L435.518 339.525C435.078 339.396 434.726 339.201 434.46 338.941C434.194 338.678 433.997 338.379 433.875 338.038C433.757 337.698 433.698 337.345 433.698 336.981Z" fill="white"/>
<path d="M433.72 342.732C433.72 342.199 433.833 341.726 434.061 341.312C434.286 340.898 434.603 340.572 435.008 340.335C435.411 340.099 435.881 339.98 436.414 339.98C436.946 339.98 437.414 340.099 437.82 340.335C438.223 340.572 438.539 340.899 438.767 341.319C438.992 341.743 439.107 342.225 439.107 342.769C439.107 343.331 438.989 343.813 438.752 344.218C438.515 344.627 438.182 344.943 437.753 345.165C437.327 345.391 436.828 345.505 436.251 345.505C436.195 345.505 436.136 345.505 436.073 345.505C436.014 345.505 435.955 345.5 435.896 345.49V341.423C435.644 341.467 435.446 341.565 435.304 341.718C435.159 341.87 435.06 342.048 435 342.251C434.941 342.458 434.912 342.66 434.912 342.857C434.912 343.098 434.949 343.331 435.023 343.553C435.097 343.775 435.233 343.941 435.437 344.056L435.037 345.209C434.691 345.026 434.423 344.803 434.231 344.536C434.038 344.27 433.905 343.983 433.831 343.678C433.757 343.371 433.72 343.057 433.72 342.732ZM436.961 341.423V344.137C437.29 344.063 437.533 343.889 437.686 343.619C437.844 343.353 437.923 343.072 437.923 342.776C437.923 342.465 437.842 342.179 437.679 341.918C437.516 341.661 437.276 341.497 436.961 341.423Z" fill="white"/>
<path d="M433.698 348.816C433.698 348.361 433.755 347.939 433.868 347.551C433.981 347.161 434.171 346.841 434.438 346.59C434.704 346.338 435.063 346.198 435.518 346.168L435.496 347.529C435.318 347.544 435.181 347.612 435.089 347.736C434.995 347.858 434.928 348.019 434.889 348.217C434.854 348.418 434.837 348.631 434.837 348.853C434.837 349.232 434.885 349.529 434.985 349.748C435.089 349.964 435.222 350.073 435.385 350.073C435.518 350.073 435.625 349.979 435.71 349.792C435.794 349.609 435.844 349.298 435.858 348.86C435.873 348.568 435.899 348.27 435.94 347.965C435.984 347.664 436.058 347.383 436.162 347.122C436.269 346.865 436.424 346.658 436.628 346.501C436.83 346.347 437.098 346.272 437.434 346.272C437.76 346.272 438.028 346.349 438.241 346.508C438.457 346.671 438.633 346.878 438.766 347.129C438.9 347.385 438.992 347.658 439.048 347.95C439.101 348.246 439.129 348.527 439.129 348.793C439.129 349.084 439.101 349.378 439.048 349.674C438.998 349.969 438.907 350.243 438.774 350.495C438.644 350.746 438.465 350.949 438.234 351.108C438.006 351.271 437.718 351.367 437.368 351.397L437.324 350.088C437.525 350.047 437.673 349.947 437.767 349.785C437.866 349.622 437.927 349.444 437.952 349.252C437.982 349.063 437.997 348.916 437.997 348.808C437.997 348.507 437.952 348.241 437.864 348.01C437.779 347.782 437.638 347.669 437.442 347.669C437.324 347.669 437.231 347.73 437.168 347.854C437.109 347.976 437.066 348.139 437.042 348.342C437.016 348.549 436.998 348.768 436.983 349.001C436.957 349.306 436.92 349.611 436.872 349.918C436.828 350.228 436.748 350.509 436.635 350.761C436.521 351.012 436.356 351.206 436.14 351.345C435.921 351.487 435.625 351.548 435.252 351.53C434.9 351.48 434.61 351.317 434.379 351.042C434.151 350.77 433.981 350.435 433.868 350.036C433.755 349.637 433.698 349.23 433.698 348.816Z" fill="white"/>
<path d="M433.698 354.722C433.698 354.267 433.755 353.846 433.868 353.457C433.981 353.067 434.171 352.747 434.438 352.496C434.704 352.244 435.063 352.104 435.518 352.074L435.496 353.435C435.318 353.45 435.181 353.518 435.089 353.642C434.995 353.764 434.928 353.925 434.889 354.123C434.854 354.324 434.837 354.537 434.837 354.759C434.837 355.138 434.885 355.436 434.985 355.654C435.089 355.87 435.222 355.979 435.385 355.979C435.518 355.979 435.625 355.885 435.71 355.698C435.794 355.515 435.844 355.205 435.858 354.766C435.873 354.474 435.899 354.176 435.94 353.871C435.984 353.57 436.058 353.289 436.162 353.028C436.269 352.771 436.424 352.564 436.628 352.407C436.83 352.254 437.098 352.178 437.434 352.178C437.76 352.178 438.028 352.255 438.241 352.414C438.457 352.577 438.633 352.784 438.766 353.036C438.9 353.291 438.992 353.564 439.048 353.857C439.101 354.152 439.129 354.433 439.129 354.7C439.129 354.99 439.101 355.284 439.048 355.58C438.998 355.876 438.907 356.149 438.774 356.401C438.644 356.652 438.465 356.856 438.234 357.015C438.006 357.177 437.718 357.273 437.368 357.303L437.324 355.994C437.525 355.953 437.673 355.853 437.767 355.691C437.866 355.528 437.927 355.351 437.952 355.158C437.982 354.97 437.997 354.822 437.997 354.715C437.997 354.413 437.952 354.147 437.864 353.916C437.779 353.688 437.638 353.576 437.442 353.576C437.324 353.576 437.231 353.637 437.168 353.76C437.109 353.882 437.066 354.045 437.042 354.249C437.016 354.456 436.998 354.674 436.983 354.907C436.957 355.212 436.92 355.517 436.872 355.824C436.828 356.135 436.748 356.416 436.635 356.667C436.521 356.918 436.356 357.113 436.14 357.251C435.921 357.394 435.625 357.455 435.252 357.436C434.9 357.386 434.61 357.224 434.379 356.948C434.151 356.676 433.981 356.342 433.868 355.942C433.755 355.543 433.698 355.136 433.698 354.722Z" fill="white"/>
<path d="M266.559 358.354L258.856 361.823V360.158L263.636 358.065L264.953 357.6L263.636 357.104L260.025 355.433V354.316L263.651 352.585L264.961 352.097L263.636 351.624L258.856 349.612V347.926L266.559 351.372V352.755L262.829 354.523L261.808 354.87L262.829 355.211L266.559 356.941V358.354Z" fill="white"/>
<path d="M266.625 345.509C266.614 345.87 266.553 346.217 266.44 346.552C266.322 346.889 266.137 347.162 265.885 347.373C265.634 347.586 265.304 347.691 264.894 347.691C264.494 347.691 264.182 347.586 263.954 347.373C263.723 347.157 263.554 346.876 263.451 346.53C263.347 346.18 263.295 345.816 263.295 345.435V343.786C262.99 343.88 262.766 344.058 262.622 344.319C262.48 344.581 262.408 344.862 262.408 345.162C262.408 345.424 262.463 345.679 262.57 345.931C262.674 346.179 262.822 346.375 263.014 346.523L262.237 347.417C261.804 347.142 261.51 346.793 261.357 346.367C261.205 345.944 261.127 345.509 261.127 345.066C261.127 344.731 261.177 344.4 261.275 344.075C261.375 343.749 261.523 343.457 261.719 343.194C261.912 342.934 262.152 342.725 262.437 342.566C262.718 342.409 263.044 342.329 263.414 342.329H265.397L266.514 342.277V343.542L265.782 343.675C266.068 343.858 266.281 344.123 266.418 344.467C266.555 344.807 266.625 345.154 266.625 345.509ZM265.419 345.369C265.419 345.152 265.39 344.929 265.33 344.696C265.271 344.459 265.164 344.252 265.005 344.075C264.842 343.897 264.616 343.79 264.324 343.749V345.48C264.324 345.668 264.374 345.848 264.472 346.02C264.566 346.193 264.705 346.278 264.886 346.278C265.016 346.278 265.121 346.23 265.205 346.131C265.284 346.027 265.341 345.905 265.375 345.761C265.404 345.618 265.419 345.487 265.419 345.369Z" fill="white"/>
<path d="M266.522 339.05L261.35 341.831H261.305V340.285L263.858 338.976L265.19 338.451L263.88 337.963L261.305 336.639V335.078H261.35L266.522 337.889V339.05Z" fill="white"/>
<path d="M266.603 332.152C266.603 332.685 266.49 333.158 266.263 333.572C266.037 333.987 265.721 334.312 265.316 334.549C264.912 334.785 264.442 334.904 263.91 334.904C263.377 334.904 262.909 334.785 262.504 334.549C262.101 334.312 261.784 333.985 261.557 333.565C261.331 333.142 261.216 332.659 261.216 332.115C261.216 331.553 261.335 331.071 261.571 330.666C261.808 330.257 262.141 329.941 262.57 329.719C262.996 329.494 263.495 329.379 264.073 329.379C264.128 329.379 264.187 329.379 264.25 329.379C264.309 329.379 264.368 329.384 264.428 329.394V333.461C264.679 333.417 264.877 333.319 265.02 333.166C265.164 333.014 265.264 332.836 265.323 332.633C265.382 332.426 265.412 332.224 265.412 332.027C265.412 331.786 265.375 331.553 265.301 331.331C265.227 331.11 265.09 330.943 264.886 330.828L265.286 329.675C265.632 329.858 265.9 330.082 266.093 330.348C266.285 330.614 266.418 330.901 266.492 331.206C266.566 331.513 266.603 331.827 266.603 332.152ZM263.362 333.461V330.747C263.033 330.821 262.791 330.995 262.637 331.265C262.48 331.531 262.4 331.812 262.4 332.108C262.4 332.419 262.482 332.705 262.644 332.966C262.807 333.223 263.048 333.387 263.362 333.461Z" fill="white"/>
<path d="M266.514 322.969H260.158V325.942H258.856V318.473H260.158V321.438H266.514V322.969Z" fill="white"/>
<path d="M266.603 315.406C266.603 315.939 266.49 316.412 266.263 316.826C266.037 317.24 265.721 317.566 265.316 317.802C264.912 318.039 264.442 318.157 263.91 318.157C263.377 318.157 262.909 318.039 262.504 317.802C262.101 317.566 261.784 317.239 261.557 316.819C261.331 316.395 261.216 315.913 261.216 315.369C261.216 314.807 261.335 314.325 261.571 313.92C261.808 313.511 262.141 313.195 262.57 312.973C262.996 312.747 263.495 312.633 264.073 312.633C264.128 312.633 264.187 312.633 264.25 312.633C264.309 312.633 264.368 312.638 264.428 312.648V316.715C264.679 316.671 264.877 316.573 265.02 316.419C265.164 316.268 265.264 316.09 265.323 315.887C265.382 315.68 265.412 315.478 265.412 315.281C265.412 315.04 265.375 314.807 265.301 314.585C265.227 314.363 265.09 314.197 264.886 314.082L265.286 312.929C265.632 313.112 265.9 313.335 266.093 313.602C266.285 313.868 266.418 314.155 266.492 314.46C266.566 314.767 266.603 315.081 266.603 315.406ZM263.362 316.715V314.001C263.033 314.075 262.791 314.249 262.637 314.519C262.48 314.785 262.4 315.066 262.4 315.362C262.4 315.672 262.482 315.959 262.644 316.22C262.807 316.477 263.048 316.641 263.362 316.715Z" fill="white"/>
<path d="M266.626 309.2C266.626 309.733 266.513 310.206 266.285 310.62C266.06 311.035 265.743 311.364 265.338 311.604C264.935 311.846 264.465 311.966 263.932 311.966C263.385 311.966 262.907 311.854 262.497 311.626C262.088 311.395 261.77 311.072 261.542 310.657C261.311 310.24 261.194 309.753 261.194 309.2C261.194 308.827 261.252 308.474 261.365 308.143C261.479 307.814 261.668 307.52 261.934 307.263C262.197 307.008 262.548 306.817 262.992 306.693L263.2 307.906C262.974 307.995 262.807 308.111 262.704 308.254C262.597 308.392 262.524 308.546 262.489 308.712C262.45 308.881 262.43 309.043 262.43 309.2C262.43 309.62 262.576 309.947 262.867 310.184C263.153 310.421 263.509 310.539 263.932 310.539C264.332 310.539 264.678 310.419 264.968 310.177C265.255 309.931 265.397 309.605 265.397 309.2C265.397 309.053 265.381 308.901 265.345 308.742C265.307 308.579 265.225 308.424 265.101 308.276C264.979 308.124 264.789 307.999 264.532 307.899L264.805 306.656C265.246 306.786 265.597 306.98 265.863 307.241C266.13 307.503 266.326 307.803 266.448 308.143C266.566 308.483 266.626 308.836 266.626 309.2Z" fill="white"/>
<path d="M266.514 305.896H258.856V304.476H261.897C261.686 304.348 261.52 304.156 261.401 303.899C261.279 303.638 261.216 303.378 261.216 303.115C261.216 302.795 261.261 302.483 261.35 302.176C261.438 301.871 261.585 301.592 261.786 301.34C261.99 301.089 262.26 300.889 262.6 300.741C262.94 300.589 263.36 300.512 263.858 300.512H266.514V301.947H263.843C263.503 301.937 263.229 301.991 263.022 302.109C262.811 302.228 262.656 302.379 262.556 302.56C262.458 302.743 262.408 302.936 262.408 303.137C262.408 303.359 262.458 303.572 262.556 303.773C262.656 303.977 262.811 304.143 263.022 304.276C263.229 304.409 263.501 304.476 263.836 304.476H266.514V305.896Z" fill="white"/>
<path d="M338.486 325.719L333.802 315.32H336.052L338.871 321.777L339.507 323.544L340.173 321.777L342.43 316.903H343.94L346.278 321.792L346.936 323.559L347.573 321.777L350.296 315.32H352.567L347.913 325.719H346.056L343.658 320.682L343.185 319.307L342.726 320.682L340.395 325.719H338.486Z" fill="#41A3E0"/>
<path d="M355.822 325.805C355.343 325.794 354.877 325.71 354.423 325.553C353.968 325.396 353.598 325.147 353.313 324.806C353.027 324.466 352.884 324.02 352.884 323.468C352.884 322.931 353.029 322.506 353.321 322.196C353.611 321.885 353.989 321.661 354.453 321.523C354.921 321.386 355.411 321.315 355.925 321.315H358.16C358.031 320.901 357.79 320.598 357.435 320.406C357.08 320.213 356.699 320.117 356.295 320.117C355.94 320.117 355.594 320.189 355.26 320.332C354.928 320.476 354.664 320.676 354.468 320.931L353.254 319.881C353.628 319.3 354.1 318.904 354.668 318.697C355.239 318.49 355.826 318.387 356.429 318.387C356.882 318.387 357.328 318.453 357.768 318.586C358.206 318.72 358.604 318.917 358.959 319.178C359.314 319.441 359.596 319.762 359.803 320.147C360.014 320.532 360.121 320.975 360.121 321.478V324.148L360.195 325.657H358.486L358.308 324.666C358.06 325.05 357.705 325.337 357.243 325.524C356.778 325.71 356.305 325.805 355.822 325.805ZM356.014 324.178C356.31 324.178 356.615 324.139 356.932 324.059C357.246 323.982 357.526 323.834 357.768 323.616C358.008 323.399 358.155 323.096 358.205 322.706H355.866C355.609 322.706 355.365 322.771 355.134 322.898C354.906 323.028 354.793 323.213 354.793 323.453C354.793 323.63 354.86 323.775 354.993 323.882C355.13 323.991 355.297 324.067 355.489 324.111C355.681 324.155 355.855 324.178 356.014 324.178Z" fill="#41A3E0"/>
<path d="M364.551 325.673L360.799 318.684V318.625H362.886L364.654 322.071L365.365 323.869L366.016 322.101L367.807 318.625H369.915V318.684L366.12 325.673H364.551Z" fill="#41A3E0"/>
<path d="M373.871 325.778C373.149 325.778 372.509 325.626 371.947 325.319C371.388 325.014 370.95 324.587 370.63 324.04C370.308 323.493 370.149 322.862 370.149 322.147C370.149 321.427 370.308 320.793 370.63 320.246C370.95 319.699 371.394 319.273 371.962 318.966C372.533 318.661 373.185 318.508 373.915 318.508C374.674 318.508 375.33 318.669 375.884 318.989C376.435 319.31 376.86 319.758 377.156 320.335C377.456 320.911 377.608 321.59 377.608 322.368C377.608 322.439 377.608 322.515 377.608 322.598C377.608 322.683 377.602 322.764 377.593 322.842H372.102C372.162 323.182 372.291 323.448 372.495 323.641C372.702 323.833 372.942 323.97 373.22 324.047C373.495 324.127 373.767 324.166 374.034 324.166C374.359 324.166 374.672 324.118 374.973 324.018C375.273 323.92 375.502 323.733 375.662 323.456L377.215 324.003C376.968 324.467 376.664 324.829 376.305 325.09C375.945 325.353 375.558 325.532 375.144 325.63C374.729 325.728 374.304 325.778 373.871 325.778ZM372.102 321.407H375.765C375.665 320.963 375.434 320.636 375.07 320.423C374.703 320.213 374.324 320.105 373.93 320.105C373.505 320.105 373.118 320.216 372.768 320.438C372.422 320.66 372.2 320.984 372.102 321.407Z" fill="#41A3E0"/>
<path d="M339.986 346.543C339.423 346.543 338.846 346.493 338.254 346.395C337.662 346.295 337.104 346.127 336.582 345.885C336.064 345.645 335.629 345.299 335.28 344.85C334.928 344.402 334.719 343.834 334.651 343.148L336.693 342.897C336.732 343.293 336.858 343.614 337.07 343.866C337.287 344.114 337.559 344.306 337.884 344.443C338.21 344.581 338.554 344.678 338.92 344.731C339.285 344.787 339.63 344.813 339.956 344.813C340.152 344.813 340.415 344.796 340.74 344.761C341.066 344.728 341.392 344.661 341.717 344.561C342.046 344.463 342.331 344.321 342.568 344.132C342.805 343.945 342.938 343.707 342.968 343.415C342.997 343.071 342.925 342.799 342.753 342.601C342.579 342.405 342.346 342.257 342.05 342.157C341.758 342.059 341.432 341.991 341.073 341.95C340.713 341.912 340.356 341.888 340 341.876L339.305 341.847C338.82 341.828 338.315 341.784 337.788 341.714C337.265 341.645 336.776 341.518 336.323 341.329C335.868 341.142 335.498 340.863 335.213 340.493C334.926 340.124 334.784 339.628 334.784 339.007C334.784 338.471 334.891 338.008 335.109 337.624C335.326 337.239 335.616 336.925 335.983 336.677C336.347 336.431 336.752 336.239 337.196 336.1C337.644 335.963 338.102 335.867 338.572 335.812C339.04 335.758 339.486 335.73 339.912 335.73C340.444 335.73 340.986 335.771 341.54 335.849C342.096 335.928 342.612 336.074 343.086 336.285C343.56 336.498 343.948 336.808 344.255 337.217C344.56 337.627 344.732 338.156 344.773 338.807L342.731 339.007C342.701 338.678 342.585 338.404 342.383 338.186C342.18 337.97 341.932 337.801 341.636 337.683C341.343 337.565 341.04 337.483 340.726 337.439C340.409 337.395 340.123 337.372 339.867 337.372C339.69 337.372 339.438 337.391 339.113 337.424C338.787 337.459 338.454 337.528 338.114 337.631C337.773 337.735 337.485 337.894 337.248 338.105C337.015 338.317 336.9 338.604 336.9 338.962C336.9 339.308 337.013 339.565 337.24 339.732C337.472 339.9 337.773 340.013 338.143 340.072C338.513 340.131 338.909 340.172 339.335 340.19C340.045 340.201 340.74 340.242 341.421 340.316C342.106 340.39 342.725 340.529 343.278 340.73C343.83 340.933 344.27 341.231 344.596 341.625C344.921 342.021 345.084 342.542 345.084 343.193C345.084 343.79 344.923 344.31 344.603 344.753C344.281 345.197 343.863 345.558 343.345 345.833C342.827 346.111 342.274 346.301 341.688 346.41C341.214 346.499 340.646 346.543 339.986 346.543Z" fill="#41A3E0"/>
<path d="M349.938 346.426C348.94 346.415 348.178 346.122 347.651 345.546C347.128 344.969 346.867 344.235 346.867 343.342V340.694H345.564V339.259H346.867V335.953H348.739V339.259H351.255V340.694H348.739V343.342C348.728 343.761 348.861 344.111 349.138 344.392C349.414 344.673 349.764 344.813 350.189 344.813C350.337 344.813 350.493 344.795 350.655 344.754C350.818 344.715 350.983 344.651 351.151 344.562L351.654 345.952C351.318 346.121 351.01 346.241 350.729 346.315C350.448 346.389 350.184 346.426 349.938 346.426Z" fill="#41A3E0"/>
<path d="M355.992 346.41C355.567 346.41 355.145 346.35 354.727 346.232C354.313 346.114 353.935 345.918 353.595 345.64C353.254 345.365 352.983 344.997 352.781 344.538C352.577 344.08 352.478 343.518 352.478 342.852V339.258H354.409V342.897C354.409 343.361 354.485 343.73 354.638 344.006C354.79 344.278 354.99 344.476 355.238 344.598C355.484 344.721 355.744 344.788 356.022 344.797C356.318 344.797 356.603 344.734 356.88 344.605C357.156 344.477 357.383 344.276 357.561 343.999C357.739 343.718 357.827 343.351 357.827 342.897V339.258H359.744V346.291H358.109L357.931 345.433C357.733 345.77 357.452 346.016 357.087 346.173C356.721 346.33 356.357 346.41 355.992 346.41Z" fill="#41A3E0"/>
<path d="M364.483 346.411C363.684 346.352 363.026 346.15 362.508 345.804C361.993 345.46 361.612 345.024 361.361 344.495C361.109 343.963 360.983 343.391 360.983 342.779C360.983 342.069 361.135 341.441 361.442 340.894C361.747 340.346 362.182 339.917 362.744 339.607C363.311 339.296 363.984 339.141 364.765 339.141C365.149 339.141 365.53 339.226 365.911 339.392C366.291 339.56 366.585 339.803 366.792 340.117V335.953H368.694V346.293H367.103L366.91 345.316C366.624 345.751 366.261 346.048 365.823 346.211C365.382 346.374 364.937 346.44 364.483 346.411ZM364.868 344.739C365.479 344.739 365.965 344.554 366.326 344.185C366.685 343.811 366.866 343.347 366.866 342.794C366.866 342.243 366.69 341.774 366.341 341.389C365.989 341.004 365.499 340.812 364.868 340.812C364.433 340.812 364.069 340.908 363.773 341.101C363.477 341.293 363.257 341.541 363.114 341.84C362.976 342.142 362.907 342.454 362.907 342.779C362.907 343.086 362.976 343.391 363.114 343.697C363.257 343.998 363.477 344.248 363.773 344.444C364.069 344.641 364.433 344.739 364.868 344.739Z" fill="#41A3E0"/>
<path d="M370.304 338.231V335.953H372.191V338.231H370.304ZM370.304 346.293V339.259H372.191V346.293H370.304Z" fill="#41A3E0"/>
<path d="M377.348 346.406C376.608 346.406 375.944 346.251 375.357 345.94C374.775 345.629 374.316 345.2 373.981 344.653C373.645 344.106 373.478 343.475 373.478 342.76C373.478 342.041 373.645 341.41 373.981 340.867C374.316 340.325 374.775 339.898 375.357 339.587C375.944 339.276 376.608 339.121 377.348 339.121C378.088 339.121 378.746 339.276 379.324 339.587C379.901 339.898 380.354 340.325 380.685 340.867C381.02 341.41 381.188 342.041 381.188 342.76C381.188 343.475 381.02 344.106 380.685 344.653C380.354 345.2 379.901 345.629 379.324 345.94C378.746 346.251 378.088 346.406 377.348 346.406ZM377.348 344.764C377.899 344.764 378.356 344.577 378.717 344.202C379.076 343.823 379.257 343.342 379.257 342.76C379.257 342.179 379.076 341.7 378.717 341.325C378.356 340.952 377.899 340.763 377.348 340.763C376.786 340.763 376.323 340.952 375.964 341.325C375.609 341.7 375.431 342.179 375.431 342.76C375.431 343.342 375.609 343.823 375.964 344.202C376.323 344.577 376.786 344.764 377.348 344.764Z" fill="#41A3E0"/>
</svg>
