<svg width="908" height="887" viewBox="0 0 908 887" fill="none" xmlns="http://www.w3.org/2000/svg">
<mask id="mask0_1063_3844" style="mask-type:luminance" maskUnits="userSpaceOnUse" x="126" y="126" width="635" height="635">
<path d="M126.505 126.547H760.214V760.456H126.505V126.547Z" fill="white"/>
</mask>
<g mask="url(#mask0_1063_3844)">
<mask id="mask1_1063_3844" style="mask-type:luminance" maskUnits="userSpaceOnUse" x="0" y="-1" width="887" height="888">
<path d="M0 386.834L500.003 -0.00390625L886.719 500.158L386.72 886.996L0 386.834Z" fill="white"/>
</mask>
<g mask="url(#mask1_1063_3844)">
<mask id="mask2_1063_3844" style="mask-type:luminance" maskUnits="userSpaceOnUse" x="127" y="127" width="633" height="633">
<path d="M250.004 193.418C111.93 300.242 86.5705 498.8 193.36 636.918C300.15 775.032 498.65 800.399 636.719 693.58C774.794 586.757 800.153 388.193 693.363 250.08C586.574 111.962 388.073 86.5948 250.004 193.418Z" fill="white"/>
</mask>
<g mask="url(#mask2_1063_3844)">
<path d="M0 386.834L500.003 -0.00390625L886.719 500.158L386.72 886.996L0 386.834Z" fill="#E0E7EB"/>
</g>
</g>
</g>
<mask id="mask3_1063_3844" style="mask-type:luminance" maskUnits="userSpaceOnUse" x="156" y="144" width="528" height="529">
<path d="M156.062 144.285H683.365V672.937H156.062V144.285Z" fill="white"/>
</mask>
<g mask="url(#mask3_1063_3844)">
<mask id="mask4_1063_3844" style="mask-type:luminance" maskUnits="userSpaceOnUse" x="50" y="38" width="740" height="741">
<path d="M50.3444 361.368L467.07 38.957L789.383 455.819L372.653 778.23L50.3444 361.368Z" fill="white"/>
</mask>
<g mask="url(#mask4_1063_3844)">
<mask id="mask5_1063_3844" style="mask-type:luminance" maskUnits="userSpaceOnUse" x="156" y="145" width="528" height="528">
<path d="M258.709 200.165C143.63 289.198 122.496 454.688 211.496 569.799C300.501 684.915 465.943 706.056 581.018 617.023C696.093 527.995 717.231 362.5 628.226 247.389C539.222 132.277 373.784 111.133 258.709 200.165Z" fill="white"/>
</mask>
<g mask="url(#mask5_1063_3844)">
<path d="M50.3444 361.368L467.07 38.957L789.383 455.819L372.653 778.23L50.3444 361.368Z" fill="#D0D9DE"/>
</g>
</g>
</g>
<mask id="mask6_1063_3844" style="mask-type:luminance" maskUnits="userSpaceOnUse" x="179" y="170" width="434" height="432">
<path d="M179.708 170.305H612.427V601.978H179.708V170.305Z" fill="white"/>
</mask>
<g mask="url(#mask6_1063_3844)">
<mask id="mask7_1063_3844" style="mask-type:luminance" maskUnits="userSpaceOnUse" x="93" y="83" width="606" height="606">
<path d="M93.9738 347.509L434.802 83.8203L698.407 424.752L357.579 688.445L93.9738 347.509Z" fill="white"/>
</mask>
<g mask="url(#mask7_1063_3844)">
<mask id="mask8_1063_3844" style="mask-type:luminance" maskUnits="userSpaceOnUse" x="180" y="170" width="432" height="432">
<path d="M264.385 215.666C170.269 288.478 152.982 423.829 225.776 517.976C298.57 612.122 433.878 629.414 527.995 556.602C622.112 483.784 639.398 348.434 566.604 254.287C493.81 160.14 358.502 142.848 264.385 215.666Z" fill="white"/>
</mask>
<g mask="url(#mask8_1063_3844)">
<path d="M93.9738 347.509L434.802 83.8203L698.407 424.752L357.579 688.445L93.9738 347.509Z" fill="#388DC3"/>
</g>
</g>
</g>
<mask id="mask9_1063_3844" style="mask-type:luminance" maskUnits="userSpaceOnUse" x="210" y="186" width="336" height="336">
<path d="M210.448 186.859H545.036V521.554H210.448V186.859Z" fill="white"/>
</mask>
<g mask="url(#mask9_1063_3844)">
<mask id="mask10_1063_3844" style="mask-type:luminance" maskUnits="userSpaceOnUse" x="143" y="119" width="470" height="470">
<path d="M143.491 324.426L407.78 119.949L612.187 384.326L347.898 588.798L143.491 324.426Z" fill="white"/>
</mask>
<g mask="url(#mask10_1063_3844)">
<mask id="mask11_1063_3844" style="mask-type:luminance" maskUnits="userSpaceOnUse" x="210" y="187" width="335" height="335">
<path d="M275.635 222.191C202.652 278.654 189.25 383.607 245.695 456.613C302.14 529.615 407.064 543.027 480.043 486.564C553.026 430.1 566.428 325.143 509.983 252.137C453.538 179.135 348.614 165.724 275.635 222.191Z" fill="white"/>
</mask>
<g mask="url(#mask11_1063_3844)">
<path d="M143.491 324.426L407.78 119.949L612.187 384.326L347.898 588.798L143.491 324.426Z" fill="#92A3A6"/>
</g>
</g>
</g>
<mask id="mask12_1063_3844" style="mask-type:luminance" maskUnits="userSpaceOnUse" x="230" y="205" width="255" height="256">
<path d="M230.547 205.785H484.74V460.059H230.547V205.785Z" fill="white"/>
</mask>
<g mask="url(#mask12_1063_3844)">
<mask id="mask13_1063_3844" style="mask-type:luminance" maskUnits="userSpaceOnUse" x="180" y="155" width="356" height="356">
<path d="M180.276 310.489L381.054 155.148L535.735 355.209L334.958 510.544L180.276 310.489Z" fill="white"/>
</mask>
<g mask="url(#mask13_1063_3844)">
<mask id="mask14_1063_3844" style="mask-type:luminance" maskUnits="userSpaceOnUse" x="231" y="206" width="254" height="254">
<path d="M280.499 232.947C225.148 275.772 214.9 355.274 257.615 410.518C300.33 465.761 379.83 475.832 435.18 433.007C490.536 390.181 500.779 310.679 458.064 255.436C415.349 200.192 335.849 190.121 280.499 232.947Z" fill="white"/>
</mask>
<g mask="url(#mask14_1063_3844)">
<path d="M180.276 310.489L381.054 155.148L535.735 355.209L334.958 510.544L180.276 310.489Z" fill="#F1F1F1"/>
</g>
</g>
</g>
<mask id="mask15_1063_3844" style="mask-type:luminance" maskUnits="userSpaceOnUse" x="231" y="206" width="255" height="254">
<path d="M231.304 206.145H485.136V459.851H231.304V206.145Z" fill="white"/>
</mask>
<g mask="url(#mask15_1063_3844)">
<mask id="mask16_1063_3844" style="mask-type:luminance" maskUnits="userSpaceOnUse" x="180" y="155" width="357" height="356">
<path d="M180.582 310.516L381.443 155.242L536.191 355.222L335.33 510.497L180.582 310.516Z" fill="white"/>
</mask>
<g mask="url(#mask16_1063_3844)">
<mask id="mask17_1063_3844" style="mask-type:luminance" maskUnits="userSpaceOnUse" x="231" y="206" width="254" height="254">
<path d="M280.849 233.006C225.473 275.815 215.225 355.283 257.957 410.506C300.689 465.73 380.221 475.794 435.595 432.987C490.971 390.18 501.219 310.71 458.487 255.487C415.755 200.264 336.223 190.199 280.849 233.006Z" fill="white"/>
</mask>
<g mask="url(#mask17_1063_3844)">
<path d="M180.582 310.516L381.443 155.242L536.191 355.222L335.33 510.497L180.582 310.516Z" fill="white"/>
</g>
</g>
</g>
<mask id="mask18_1063_3844" style="mask-type:luminance" maskUnits="userSpaceOnUse" x="273" y="369" width="170" height="86">
<path d="M273.451 369.922H442.989V454.663H273.451V369.922Z" fill="white"/>
</mask>
<g mask="url(#mask18_1063_3844)">
<path d="M442.704 420.827C441.302 422.174 439.868 423.487 438.403 424.767C436.938 426.046 435.443 427.289 433.919 428.496C432.394 429.703 430.841 430.874 429.261 432.007C427.681 433.141 426.073 434.235 424.44 435.291C422.807 436.347 421.149 437.364 419.467 438.34C417.786 439.318 416.082 440.254 414.356 441.148C412.629 442.043 410.882 442.898 409.116 443.709C407.347 444.521 405.562 445.29 403.758 446.017C401.953 446.743 400.133 447.426 398.296 448.065C396.459 448.703 394.607 449.299 392.742 449.85C390.876 450.401 388.998 450.905 387.109 451.368C385.219 451.828 383.321 452.242 381.41 452.614C379.501 452.984 377.584 453.307 375.659 453.585C373.733 453.864 371.804 454.095 369.867 454.282C367.93 454.467 365.991 454.607 364.049 454.699C362.105 454.792 360.161 454.838 358.216 454.838C356.27 454.838 354.328 454.792 352.384 454.699C350.441 454.607 348.503 454.467 346.566 454.282C344.629 454.095 342.7 453.864 340.774 453.585C338.848 453.307 336.932 452.984 335.023 452.614C333.112 452.242 331.212 451.828 329.323 451.368C327.433 450.905 325.555 450.401 323.69 449.85C321.826 449.299 319.974 448.703 318.137 448.065C316.3 447.426 314.48 446.743 312.674 446.017C310.871 445.29 309.086 444.521 307.317 443.709C305.55 442.898 303.802 442.043 302.076 441.148C300.35 440.254 298.647 439.318 296.963 438.34C295.282 437.364 293.624 436.347 291.993 435.291C290.359 434.235 288.752 433.141 287.172 432.007C285.59 430.874 284.038 429.703 282.514 428.496C280.99 427.289 279.495 426.046 278.03 424.767C276.565 423.487 275.131 422.174 273.729 420.827L300.75 393.819C304.822 389.746 309.274 386.144 314.108 383.015C340.863 365.698 375.57 365.698 402.325 383.015C407.158 386.144 411.611 389.746 415.683 393.819L442.704 420.827Z" fill="#B1BFC2"/>
</g>
<mask id="mask19_1063_3844" style="mask-type:luminance" maskUnits="userSpaceOnUse" x="273" y="211" width="170" height="86">
<path d="M273.451 211.152H442.989V296.079H273.451V211.152Z" fill="white"/>
</mask>
<g mask="url(#mask19_1063_3844)">
<path d="M442.704 245.166L415.683 272.174C411.611 276.247 407.158 279.849 402.325 282.977C375.57 300.294 340.863 300.294 314.108 282.977C309.274 279.849 304.822 276.247 300.75 272.174L273.729 245.166C275.131 243.818 276.565 242.505 278.03 241.226C279.495 239.946 280.99 238.704 282.514 237.496C284.038 236.289 285.59 235.119 287.172 233.985C288.752 232.852 290.359 231.757 291.993 230.701C293.624 229.646 295.282 228.629 296.963 227.652C298.647 226.674 300.35 225.739 302.076 224.844C303.802 223.949 305.55 223.095 307.317 222.283C309.086 221.471 310.871 220.702 312.674 219.976C314.48 219.249 316.3 218.567 318.137 217.927C319.974 217.287 321.826 216.694 323.69 216.143C325.555 215.592 327.433 215.087 329.323 214.625C331.212 214.164 333.112 213.748 335.023 213.378C336.932 213.009 338.848 212.685 340.774 212.408C342.7 212.129 344.629 211.897 346.566 211.711C348.503 211.526 350.441 211.385 352.384 211.293C354.328 211.2 356.27 211.152 358.216 211.152C360.161 211.152 362.105 211.2 364.049 211.293C365.991 211.385 367.93 211.526 369.867 211.711C371.804 211.897 373.733 212.129 375.659 212.408C377.584 212.685 379.501 213.009 381.41 213.378C383.321 213.748 385.219 214.164 387.109 214.625C388.998 215.087 390.876 215.592 392.742 216.143C394.607 216.694 396.459 217.287 398.296 217.927C400.133 218.567 401.953 219.249 403.758 219.976C405.562 220.702 407.347 221.471 409.116 222.283C410.882 223.095 412.629 223.949 414.356 224.844C416.082 225.739 417.786 226.674 419.467 227.652C421.149 228.629 422.807 229.646 424.44 230.701C426.073 231.757 427.681 232.852 429.261 233.985C430.841 235.119 432.394 236.289 433.919 237.496C435.443 238.704 436.938 239.946 438.403 241.226C439.868 242.505 441.302 243.818 442.704 245.166Z" fill="#B1BFC2"/>
</g>
<mask id="mask20_1063_3844" style="mask-type:luminance" maskUnits="userSpaceOnUse" x="395" y="248" width="85" height="170">
<path d="M395.158 248.273H479.942V417.727H395.158V248.273Z" fill="white"/>
</mask>
<g mask="url(#mask20_1063_3844)">
<path d="M480.117 332.996C480.123 336.887 479.942 340.769 479.574 344.643C479.205 348.517 478.652 352.364 477.914 356.186C477.176 360.006 476.257 363.782 475.154 367.515C474.054 371.246 472.775 374.918 471.321 378.527C469.867 382.136 468.241 385.668 466.449 389.122C464.654 392.574 462.699 395.933 460.581 399.198C458.463 402.465 456.195 405.622 453.773 408.669C451.354 411.716 448.792 414.641 446.089 417.442L419.068 390.432C414.993 386.365 411.389 381.914 408.259 377.083C390.933 350.341 390.933 315.651 408.259 288.91C411.389 284.077 414.993 279.628 419.068 275.559L446.089 248.551C448.792 251.352 451.354 254.277 453.773 257.324C456.195 260.371 458.463 263.527 460.581 266.793C462.699 270.058 464.654 273.417 466.449 276.871C468.241 280.325 469.867 283.857 471.321 287.466C472.775 291.075 474.054 294.745 475.154 298.478C476.257 302.211 477.176 305.987 477.914 309.807C478.652 313.629 479.205 317.474 479.574 321.348C479.942 325.223 480.123 329.104 480.117 332.996Z" fill="#B1BFC2"/>
</g>
<mask id="mask21_1063_3844" style="mask-type:luminance" maskUnits="userSpaceOnUse" x="236" y="248" width="86" height="170">
<path d="M236.313 248.273H321.282V417.727H236.313V248.273Z" fill="white"/>
</mask>
<g mask="url(#mask21_1063_3844)">
<path d="M308.174 377.083C305.044 381.914 301.44 386.365 297.365 390.432L270.344 417.442C268.995 416.041 267.682 414.608 266.402 413.143C265.121 411.679 263.878 410.185 262.67 408.661C261.462 407.138 260.291 405.585 259.157 404.006C258.023 402.427 256.928 400.82 255.872 399.187C254.816 397.555 253.798 395.898 252.822 394.217C251.843 392.537 250.907 390.834 250.012 389.109C249.116 387.382 248.262 385.636 247.45 383.87C246.638 382.103 245.868 380.319 245.141 378.516C244.414 376.711 243.731 374.892 243.091 373.056C242.451 371.22 241.857 369.369 241.306 367.505C240.755 365.64 240.25 363.763 239.787 361.875C239.327 359.986 238.911 358.089 238.541 356.179C238.171 354.271 237.847 352.355 237.569 350.43C237.29 348.505 237.059 346.577 236.872 344.641C236.687 342.705 236.546 340.768 236.454 338.826C236.361 336.883 236.313 334.94 236.313 332.996C236.313 331.051 236.361 329.11 236.454 327.167C236.546 325.225 236.687 323.288 236.872 321.352C237.059 319.416 237.29 317.487 237.569 315.563C237.847 313.638 238.171 311.722 238.541 309.814C238.911 307.904 239.327 306.005 239.787 304.118C240.25 302.228 240.755 300.351 241.306 298.487C241.857 296.624 242.451 294.773 243.091 292.937C243.731 291.101 244.414 289.281 245.141 287.477C245.868 285.674 246.638 283.89 247.45 282.122C248.262 280.357 249.116 278.609 250.012 276.884C250.907 275.159 251.843 273.456 252.822 271.774C253.798 270.093 254.816 268.436 255.872 266.806C256.928 265.173 258.023 263.566 259.157 261.987C260.291 260.406 261.462 258.855 262.67 257.331C263.878 255.808 265.121 254.314 266.402 252.85C267.682 251.385 268.995 249.952 270.344 248.551L297.365 275.559C301.44 279.628 305.044 284.077 308.174 288.91C325.499 315.651 325.499 350.341 308.174 377.083Z" fill="#0074A0"/>
</g>
<mask id="mask22_1063_3844" style="mask-type:luminance" maskUnits="userSpaceOnUse" x="140" y="120" width="437" height="426">
<path d="M576.44 120H140V546H576.44V120Z" fill="black" fill-opacity="0.5"/>
</mask>
<g mask="url(#mask22_1063_3844)">
<mask id="mask23_1063_3844" style="mask-type:luminance" maskUnits="userSpaceOnUse" x="290" y="265" width="136" height="136">
<path d="M425.467 265.785H290.973V400.212H425.467V265.785Z" fill="white"/>
</mask>
<g mask="url(#mask23_1063_3844)">
<path d="M308.174 377.082C307.509 376.33 306.862 375.56 306.233 374.778C305.604 373.996 304.992 373.201 304.4 372.391C303.806 371.582 303.231 370.759 302.676 369.923C302.119 369.087 301.582 368.24 301.065 367.381C300.547 366.521 300.047 365.648 299.57 364.766C299.091 363.884 298.632 362.991 298.194 362.089C297.757 361.185 297.339 360.273 296.941 359.351C296.545 358.428 296.168 357.498 295.815 356.559C295.459 355.621 295.125 354.675 294.814 353.721C294.501 352.767 294.211 351.805 293.942 350.838C293.672 349.871 293.426 348.898 293.201 347.92C292.977 346.942 292.773 345.96 292.594 344.973C292.413 343.986 292.255 342.995 292.12 342C291.983 341.005 291.871 340.009 291.78 339.008C291.689 338.008 291.623 337.008 291.577 336.006C291.532 335.002 291.508 334 291.508 332.996C291.508 331.992 291.532 330.989 291.577 329.985C291.623 328.983 291.689 327.983 291.78 326.983C291.871 325.982 291.983 324.986 292.12 323.991C292.255 322.996 292.413 322.005 292.594 321.018C292.773 320.031 292.977 319.049 293.201 318.071C293.426 317.093 293.672 316.12 293.942 315.153C294.211 314.186 294.501 313.225 294.814 312.271C295.125 311.317 295.459 310.37 295.815 309.431C296.168 308.493 296.545 307.561 296.941 306.641C297.339 305.718 297.757 304.806 298.194 303.902C298.632 303 299.091 302.107 299.57 301.225C300.047 300.341 300.547 299.47 301.065 298.611C301.582 297.751 302.119 296.904 302.676 296.068C303.231 295.232 303.806 294.41 304.4 293.6C304.992 292.79 305.604 291.993 306.233 291.211C306.862 290.429 307.509 289.662 308.174 288.909C325.499 315.651 325.499 350.341 308.174 377.082ZM314.108 383.014C314.861 383.677 315.629 384.325 316.411 384.953C317.194 385.582 317.991 386.192 318.801 386.785C319.611 387.379 320.435 387.954 321.271 388.509C322.107 389.065 322.954 389.601 323.814 390.119C324.674 390.637 325.546 391.134 326.43 391.613C327.312 392.092 328.206 392.551 329.109 392.987C330.013 393.425 330.925 393.843 331.848 394.24C332.769 394.636 333.702 395.012 334.64 395.367C335.579 395.722 336.527 396.054 337.481 396.367C338.436 396.679 339.398 396.97 340.365 397.238C341.333 397.506 342.306 397.754 343.284 397.977C344.263 398.203 345.245 398.404 346.233 398.586C347.221 398.765 348.212 398.924 349.207 399.059C350.203 399.194 351.2 399.308 352.201 399.399C353.201 399.49 354.202 399.556 355.205 399.602C356.209 399.647 357.212 399.671 358.216 399.671C359.221 399.671 360.223 399.647 361.228 399.602C362.231 399.556 363.231 399.49 364.232 399.399C365.233 399.308 366.23 399.194 367.225 399.059C368.22 398.924 369.212 398.765 370.2 398.586C371.188 398.404 372.17 398.203 373.149 397.977C374.127 397.754 375.1 397.506 376.068 397.238C377.035 396.97 377.997 396.679 378.952 396.367C379.906 396.054 380.853 395.722 381.791 395.367C382.731 395.012 383.661 394.636 384.584 394.24C385.508 393.843 386.42 393.425 387.324 392.987C388.227 392.551 389.12 392.092 390.003 391.613C390.885 391.134 391.758 390.637 392.618 390.119C393.479 389.601 394.326 389.065 395.162 388.509C395.998 387.954 396.821 387.379 397.632 386.785C398.442 386.192 399.237 385.582 400.02 384.953C400.804 384.325 401.572 383.677 402.325 383.014C375.57 365.696 340.863 365.696 314.108 383.014ZM402.325 282.978C401.572 282.314 400.802 281.667 400.02 281.038C399.237 280.409 398.442 279.797 397.632 279.206C396.821 278.612 395.998 278.037 395.162 277.482C394.326 276.926 393.479 276.39 392.618 275.872C391.758 275.354 390.885 274.855 390.003 274.378C389.12 273.899 388.227 273.441 387.324 273.002C386.42 272.566 385.508 272.148 384.584 271.751C383.661 271.355 382.731 270.978 381.791 270.625C380.853 270.27 379.906 269.935 378.952 269.624C377.997 269.312 377.035 269.022 376.068 268.754C375.1 268.484 374.127 268.238 373.149 268.012C372.17 267.788 371.188 267.585 370.2 267.406C369.212 267.224 368.22 267.067 367.225 266.932C366.23 266.795 365.233 266.683 364.232 266.592C363.231 266.502 362.231 266.435 361.228 266.389C360.223 266.344 359.221 266.32 358.216 266.32C357.212 266.32 356.209 266.344 355.205 266.389C354.202 266.435 353.201 266.502 352.201 266.592C351.2 266.683 350.203 266.795 349.207 266.932C348.212 267.067 347.221 267.224 346.233 267.406C345.245 267.585 344.263 267.788 343.284 268.012C342.306 268.238 341.333 268.484 340.365 268.754C339.398 269.022 338.436 269.312 337.481 269.624C336.527 269.935 335.579 270.27 334.64 270.625C333.702 270.978 332.769 271.355 331.848 271.751C330.925 272.148 330.013 272.566 329.109 273.002C328.206 273.441 327.312 273.899 326.43 274.378C325.546 274.855 324.674 275.354 323.814 275.872C322.954 276.39 322.107 276.926 321.271 277.482C320.435 278.037 319.611 278.612 318.801 279.206C317.991 279.797 317.194 280.409 316.411 281.038C315.629 281.667 314.861 282.314 314.108 282.978C340.863 300.295 375.57 300.295 402.325 282.978ZM408.259 288.909C390.933 315.651 390.933 350.341 408.259 377.082C408.923 376.33 409.571 375.56 410.2 374.778C410.829 373.996 411.439 373.201 412.033 372.391C412.627 371.582 413.202 370.759 413.757 369.923C414.314 369.087 414.85 368.24 415.368 367.381C415.886 366.521 416.386 365.648 416.863 364.766C417.342 363.884 417.801 362.991 418.237 362.089C418.676 361.185 419.094 360.273 419.492 359.351C419.887 358.428 420.263 357.498 420.618 356.559C420.973 355.621 421.306 354.675 421.619 353.721C421.932 352.767 422.222 351.805 422.49 350.838C422.758 349.871 423.006 348.898 423.23 347.92C423.456 346.942 423.657 345.96 423.839 344.973C424.018 343.986 424.177 342.995 424.312 342C424.447 341.005 424.562 340.009 424.653 339.008C424.743 338.008 424.81 337.008 424.856 336.006C424.901 335.002 424.925 334 424.925 332.996C424.925 331.992 424.901 330.989 424.856 329.985C424.81 328.983 424.743 327.983 424.653 326.983C424.562 325.982 424.447 324.986 424.312 323.991C424.177 322.996 424.018 322.005 423.839 321.018C423.657 320.031 423.456 319.049 423.23 318.071C423.006 317.093 422.758 316.12 422.49 315.153C422.222 314.186 421.932 313.225 421.619 312.271C421.306 311.317 420.973 310.37 420.618 309.431C420.263 308.493 419.887 307.561 419.492 306.641C419.094 305.718 418.676 304.806 418.237 303.902C417.801 303 417.342 302.107 416.863 301.225C416.386 300.341 415.886 299.47 415.368 298.611C414.85 297.751 414.314 296.904 413.757 296.068C413.202 295.232 412.627 294.41 412.033 293.6C411.439 292.79 410.829 291.993 410.2 291.211C409.571 290.429 408.923 289.662 408.259 288.909Z" fill="#F2F2F2"/>
</g>
</g>
<mask id="mask24_1063_3844" style="mask-type:luminance" maskUnits="userSpaceOnUse" x="349" y="271" width="18" height="17">
<path d="M349.709 271.941H366.298V287.088H349.709V271.941Z" fill="white"/>
</mask>
<g mask="url(#mask24_1063_3844)">
<path d="M365.714 273.978C366.622 275.115 366.302 277.032 364.904 278.642C364.43 279.19 363.947 279.689 363.474 280.14C362.079 281.473 360.775 282.388 360.048 282.884C360.014 283.566 359.45 284.108 358.76 284.108C358.25 284.108 357.807 283.81 357.6 283.379C357.598 283.378 357.597 283.374 357.595 283.37C357.517 283.204 357.471 283.017 357.471 282.819C357.471 282.107 358.048 281.531 358.76 281.531C358.895 281.531 359.026 281.551 359.15 281.592C359.223 281.614 359.291 281.643 359.358 281.678C360.214 281.198 362.145 279.996 363.559 278.513C364.58 277.441 365.329 276.222 365.207 275.022C364.939 272.374 361.99 271.578 358.76 273.34C358.481 273.299 358.196 273.277 357.904 273.277C355.236 273.277 353.05 275.065 352.415 277.516C349.899 279.456 349.709 281.229 349.981 282.39C349.783 280.6 350.959 279.051 352.326 277.919C353.212 277.187 354.178 276.629 354.901 276.292C354.957 275.632 355.51 275.115 356.185 275.115C356.385 275.115 356.574 275.159 356.742 275.24C357.175 275.447 357.474 275.891 357.474 276.403C357.474 277.113 356.897 277.69 356.185 277.69C355.874 277.69 355.588 277.581 355.366 277.396C354.539 277.738 353.24 278.576 352.26 279.622C351.492 280.443 350.92 281.392 350.92 282.331C350.92 283.821 352.428 285.345 354.768 284.949C354.997 285.448 355.186 286.001 355.301 286.641C355.301 286.641 356.944 286.641 357.904 286.641C358.864 286.641 360.506 286.641 360.506 286.641C360.969 284.027 362.691 282.888 363.333 280.726C364.441 279.746 365.386 278.715 365.84 277.894C366.724 276.289 366.572 274.861 365.714 273.978ZM364.661 275.592C364.639 275.804 364.595 276.013 364.532 276.22C364.339 276.838 363.973 277.426 363.494 277.99C363.239 276.498 362.419 275.211 361.256 274.362C360.83 274.05 360.358 273.798 359.852 273.615C363.165 272.101 364.846 273.804 364.661 275.592ZM351.627 281.532V281.531C351.658 281.423 351.697 281.316 351.745 281.211C351.897 280.882 352.104 280.547 352.348 280.221C352.624 281.597 353.336 282.549 354.006 283.596C354.158 283.832 354.309 284.077 354.45 284.33C352.287 284.598 351.213 282.969 351.627 281.532Z" fill="#F2F2F2"/>
</g>
<path d="M356.842 276.404C356.842 276.767 356.548 277.061 356.185 277.061C355.823 277.061 355.529 276.767 355.529 276.404C355.529 276.04 355.823 275.746 356.185 275.746C356.548 275.746 356.842 276.04 356.842 276.404Z" fill="#B1BFC2"/>
<path d="M359.417 282.82C359.417 283.183 359.123 283.477 358.76 283.477C358.398 283.477 358.104 283.183 358.104 282.82C358.104 282.458 358.398 282.164 358.76 282.164C359.123 282.164 359.417 282.458 359.417 282.82Z" fill="#B1BFC2"/>
<path d="M363.993 273.899C363.572 273.431 362.945 273.184 362.181 273.184C361.6 273.184 360.952 273.328 360.255 273.609C360.642 273.777 361.008 273.988 361.348 274.236C361.367 274.25 361.385 274.263 361.404 274.278C362.724 273.568 364.247 274.084 364.519 275.404C364.535 274.835 364.351 274.295 363.993 273.899Z" fill="#B1BFC2"/>
<path d="M353.876 283.68C353.86 283.654 353.843 283.63 353.826 283.604C352.783 283.619 351.962 283.079 351.701 282.293C351.729 282.676 351.862 283.045 352.093 283.352C352.507 283.902 353.181 284.205 353.991 284.205C354.058 284.205 354.126 284.203 354.196 284.197C354.104 284.042 354 283.876 353.876 283.68Z" fill="#B1BFC2"/>
<path d="M360.507 287.778C360.507 288.101 360.244 288.362 359.922 288.362H355.886C355.562 288.362 355.301 288.101 355.301 287.778C355.301 287.454 355.562 287.191 355.886 287.191H359.922C360.244 287.191 360.507 287.454 360.507 287.778Z" fill="#B1BFC2"/>
<path d="M360.225 289.408C360.225 289.732 359.963 289.995 359.639 289.995H356.168C355.845 289.995 355.582 289.732 355.582 289.408C355.582 289.087 355.845 288.824 356.168 288.824H359.639C359.963 288.824 360.225 289.087 360.225 289.408Z" fill="#B1BFC2"/>
<mask id="mask25_1063_3844" style="mask-type:luminance" maskUnits="userSpaceOnUse" x="356" y="290" width="4" height="3">
<path d="M356.326 290.398H359.641V292.514H356.326V290.398Z" fill="white"/>
</mask>
<g mask="url(#mask25_1063_3844)">
<path d="M359.317 290.457H356.363V290.801C356.363 291.627 357.032 292.297 357.859 292.297C358.686 292.297 359.358 291.627 359.358 290.801V290.457H359.317Z" fill="#B1BFC2"/>
</g>
<mask id="mask26_1063_3844" style="mask-type:luminance" maskUnits="userSpaceOnUse" x="412" y="334" width="8" height="7">
<path d="M412.68 334.895H419.784V340.787H412.68V334.895Z" fill="white"/>
</mask>
<g mask="url(#mask26_1063_3844)">
<path d="M418.522 335.238L415.379 338.376L413.99 336.989L412.752 338.228L415.379 340.855L419.76 336.477L418.522 335.238Z" fill="#B1BFC2"/>
</g>
<mask id="mask27_1063_3844" style="mask-type:luminance" maskUnits="userSpaceOnUse" x="401" y="324" width="14" height="17">
<path d="M401.363 324.953H414.575V340.786H401.363V324.953Z" fill="white"/>
</mask>
<g mask="url(#mask27_1063_3844)">
<path d="M414.166 326.817C412.817 325.739 411.11 325.09 409.247 325.09C404.891 325.09 401.363 328.616 401.363 332.97C401.363 337.323 404.891 340.852 409.247 340.852V339.099C405.86 339.099 403.115 336.357 403.115 332.97C403.115 329.585 405.86 326.841 409.247 326.841C410.625 326.841 411.89 327.299 412.915 328.067L414.166 326.817Z" fill="#F2F2F2"/>
</g>
<path d="M414.155 329.305C414.92 330.329 415.379 331.595 415.379 332.971H417.131C417.131 331.111 416.484 329.403 415.405 328.055L414.155 329.305Z" fill="#F2F2F2"/>
<path d="M411.613 331.846C411.776 332.188 411.876 332.567 411.876 332.972C411.876 334.424 410.699 335.599 409.247 335.599C407.797 335.599 406.618 334.424 406.618 332.972C406.618 331.521 407.797 330.345 409.247 330.345C409.652 330.345 410.031 330.445 410.374 330.609L411.659 329.322C410.969 328.864 410.14 328.594 409.247 328.594C406.827 328.594 404.866 330.554 404.866 332.972C404.866 335.391 406.827 337.35 409.247 337.35C411.667 337.35 413.627 335.391 413.627 332.972C413.627 332.081 413.357 331.253 412.899 330.561L411.613 331.846Z" fill="#F2F2F2"/>
<mask id="mask28_1063_3844" style="mask-type:luminance" maskUnits="userSpaceOnUse" x="407" y="319" width="16" height="15">
<path d="M407.945 319.84H422.32V333.947H407.945V319.84Z" fill="white"/>
</mask>
<g mask="url(#mask28_1063_3844)">
<path d="M409.867 333.592C409.524 333.934 408.97 333.934 408.627 333.592C408.285 333.25 408.285 332.697 408.627 332.355L415.379 325.605L415.381 323.34L418.885 319.84V323.342L422.388 323.344L418.885 326.844H416.619L409.867 333.592Z" fill="#B1BFC2"/>
</g>
<mask id="mask29_1063_3844" style="mask-type:luminance" maskUnits="userSpaceOnUse" x="348" y="375" width="20" height="19">
<path d="M348.275 375.809H367.218V393.586H348.275V375.809Z" fill="white"/>
</mask>
<g mask="url(#mask29_1063_3844)">
<path d="M363.239 387.92C363.172 387.541 363.302 387.149 363.579 386.877L366.689 383.849C367.386 383.17 367.001 381.981 366.038 381.839L361.738 381.216C361.354 381.161 361.024 380.922 360.854 380.571L358.934 376.68C358.503 375.81 357.253 375.81 356.822 376.68L354.901 380.571C354.731 380.916 354.396 381.161 354.017 381.216L349.718 381.839C348.754 381.981 348.364 383.165 349.067 383.849L352.176 386.877C352.454 387.149 352.578 387.541 352.517 387.92L351.781 392.201C351.616 393.162 352.624 393.892 353.49 393.439L357.338 391.419C357.682 391.237 358.091 391.237 358.431 391.419L362.277 393.439C363.137 393.892 364.151 393.162 363.986 392.201L363.25 387.92H363.239ZM357.874 380.837C358.736 380.837 359.434 381.534 359.434 382.394C359.434 383.255 358.736 383.951 357.874 383.951C357.014 383.951 356.317 383.255 356.317 382.394C356.317 381.534 357.014 380.837 357.874 380.837ZM360.14 388.934C360.14 388.996 360.09 389.046 360.027 389.046H355.723C355.66 389.046 355.61 388.996 355.61 388.934V385.933C355.61 385.151 356.244 384.516 357.025 384.516H358.725C359.506 384.516 360.14 385.151 360.14 385.933V388.934Z" fill="#F2F2F2"/>
</g>
<mask id="mask30_1063_3844" style="mask-type:luminance" maskUnits="userSpaceOnUse" x="298" y="328" width="18" height="16">
<path d="M298.029 328.266H315.125V343.889H298.029V328.266Z" fill="white"/>
</mask>
<g mask="url(#mask30_1063_3844)">
<path d="M299.581 328.266C298.724 328.266 298.032 328.959 298.032 329.813V339.101C298.032 339.957 298.724 340.648 299.581 340.648H305.001V342.198H304.226C303.799 342.198 303.453 342.543 303.453 342.97C303.453 343.397 303.799 343.745 304.226 343.745H308.873C309.3 343.745 309.646 343.397 309.646 342.97C309.646 342.543 309.3 342.198 308.873 342.198H308.098V340.648H313.518C314.374 340.648 315.066 339.957 315.066 339.101V329.813C315.066 328.959 314.374 328.266 313.518 328.266H299.581ZM299.581 329.813H313.518V339.101H299.581V329.813ZM307.093 331.352C306.869 331.387 306.679 331.551 306.62 331.786L305.352 336.85C305.275 337.161 305.463 337.475 305.774 337.553C306.087 337.631 306.401 337.442 306.479 337.13L307.746 332.065C307.824 331.755 307.635 331.44 307.324 331.363C307.245 331.342 307.169 331.34 307.093 331.352ZM303.453 332.135C303.308 332.135 303.164 332.191 303.055 332.3L301.294 334.058C301.074 334.278 301.074 334.635 301.294 334.855L303.053 336.614C303.273 336.834 303.63 336.834 303.85 336.614C304.07 336.394 304.07 336.039 303.85 335.819L302.491 334.458L303.85 333.097C304.07 332.877 304.07 332.52 303.852 332.3C303.741 332.191 303.597 332.135 303.453 332.135ZM309.642 332.135C309.498 332.135 309.352 332.191 309.243 332.3C309.023 332.52 309.023 332.877 309.243 333.097L310.604 334.458L309.243 335.819C309.023 336.039 309.023 336.394 309.243 336.614C309.463 336.834 309.82 336.834 310.04 336.614L311.799 334.855C312.018 334.635 312.018 334.278 311.799 334.058L310.04 332.3C309.929 332.191 309.787 332.135 309.642 332.135Z" fill="#F2F2F2"/>
</g>
<path d="M317.12 245.84L313.649 238.141H315.314L317.408 242.918L317.874 244.235L318.37 242.918L320.042 239.309H321.16L322.891 242.933L323.38 244.242L323.853 242.918L325.866 238.141H327.553L324.105 245.84H322.721L320.952 242.112L320.605 241.092L320.264 242.112L318.533 245.84H317.12Z" fill="white"/>
<path d="M329.971 245.905C329.61 245.894 329.262 245.833 328.928 245.72C328.591 245.602 328.317 245.417 328.106 245.166C327.894 244.914 327.788 244.585 327.788 244.175C327.788 243.775 327.894 243.463 328.106 243.235C328.323 243.004 328.604 242.836 328.95 242.732C329.299 242.629 329.664 242.577 330.045 242.577H331.695C331.601 242.272 331.423 242.048 331.162 241.904C330.9 241.762 330.618 241.69 330.319 241.69C330.056 241.69 329.801 241.745 329.549 241.852C329.301 241.956 329.105 242.104 328.957 242.296L328.062 241.52C328.337 241.087 328.687 240.793 329.113 240.639C329.536 240.488 329.971 240.41 330.415 240.41C330.75 240.41 331.081 240.46 331.406 240.558C331.732 240.658 332.024 240.806 332.287 241.002C332.548 241.194 332.757 241.434 332.916 241.719C333.073 242 333.153 242.326 333.153 242.695V244.678L333.205 245.794H331.939L331.806 245.062C331.623 245.349 331.358 245.561 331.014 245.698C330.674 245.835 330.326 245.905 329.971 245.905ZM330.112 244.7C330.328 244.7 330.552 244.67 330.785 244.611C331.022 244.552 331.229 244.445 331.406 244.286C331.584 244.123 331.691 243.897 331.732 243.605H330.001C329.812 243.605 329.632 243.655 329.46 243.753C329.286 243.847 329.201 243.986 329.201 244.167C329.201 244.297 329.249 244.402 329.349 244.485C329.453 244.565 329.575 244.622 329.719 244.655C329.862 244.685 329.993 244.7 330.112 244.7Z" fill="white"/>
<path d="M336.434 245.804L333.652 240.634V240.59H335.198L336.508 243.141L337.033 244.473L337.522 243.164L338.846 240.59H340.408V240.634L337.596 245.804H336.434Z" fill="white"/>
<path d="M343.337 245.884C342.804 245.884 342.33 245.771 341.916 245.544C341.502 245.318 341.176 245.002 340.939 244.597C340.702 244.194 340.584 243.725 340.584 243.192C340.584 242.66 340.702 242.192 340.939 241.787C341.176 241.384 341.503 241.068 341.923 240.84C342.347 240.615 342.83 240.5 343.374 240.5C343.936 240.5 344.419 240.618 344.824 240.855C345.233 241.092 345.549 241.424 345.771 241.853C345.997 242.279 346.111 242.778 346.111 243.355C346.111 243.41 346.111 243.469 346.111 243.532C346.111 243.591 346.106 243.651 346.097 243.71H342.027C342.071 243.961 342.169 244.159 342.323 244.301C342.475 244.446 342.652 244.546 342.856 244.605C343.063 244.664 343.264 244.693 343.462 244.693C343.703 244.693 343.936 244.656 344.158 244.582C344.38 244.509 344.546 244.372 344.661 244.168L345.815 244.568C345.632 244.913 345.408 245.182 345.142 245.374C344.876 245.566 344.589 245.699 344.284 245.773C343.977 245.847 343.662 245.884 343.337 245.884ZM342.027 242.645H344.743C344.669 242.316 344.495 242.073 344.225 241.92C343.958 241.763 343.677 241.683 343.381 241.683C343.07 241.683 342.783 241.765 342.523 241.927C342.266 242.09 342.101 242.33 342.027 242.645Z" fill="white"/>
<path d="M350.079 245.794V238.117H353.668C354.427 238.117 355.096 238.285 355.673 238.62C356.251 238.957 356.698 239.415 357.02 239.996C357.34 240.573 357.501 241.227 357.501 241.956C357.501 242.686 357.34 243.342 357.02 243.923C356.698 244.5 356.252 244.956 355.681 245.291C355.107 245.628 354.438 245.794 353.668 245.794H350.079ZM351.633 244.5H353.69C354.149 244.5 354.549 244.393 354.889 244.174C355.233 243.958 355.499 243.662 355.688 243.287C355.881 242.908 355.977 242.481 355.977 242.007C355.977 241.53 355.882 241.096 355.696 240.706C355.512 240.312 355.248 240.001 354.904 239.774C354.563 239.543 354.158 239.426 353.69 239.426H351.633V244.5Z" fill="white"/>
<path d="M358.374 239.819V238.141H359.773V239.819H358.374ZM358.374 245.795V240.589H359.773V245.795H358.374Z" fill="white"/>
<path d="M363.309 245.905C362.854 245.905 362.433 245.848 362.044 245.735C361.654 245.622 361.334 245.432 361.082 245.166C360.831 244.899 360.69 244.541 360.66 244.086L362.022 244.108C362.037 244.285 362.105 244.422 362.229 244.515C362.351 244.609 362.512 244.676 362.71 244.714C362.912 244.75 363.124 244.766 363.346 244.766C363.726 244.766 364.023 244.718 364.242 244.618C364.458 244.515 364.567 244.382 364.567 244.219C364.567 244.086 364.473 243.978 364.286 243.893C364.103 243.81 363.792 243.76 363.354 243.746C363.062 243.731 362.764 243.705 362.458 243.664C362.157 243.62 361.876 243.546 361.615 243.442C361.358 243.335 361.151 243.18 360.993 242.976C360.84 242.775 360.764 242.507 360.764 242.17C360.764 241.845 360.842 241.577 361.001 241.364C361.164 241.148 361.371 240.972 361.622 240.839C361.878 240.706 362.151 240.613 362.444 240.558C362.74 240.504 363.021 240.477 363.287 240.477C363.578 240.477 363.872 240.504 364.168 240.558C364.464 240.608 364.738 240.698 364.989 240.832C365.241 240.961 365.444 241.14 365.603 241.371C365.766 241.599 365.862 241.887 365.892 242.237L364.582 242.281C364.541 242.08 364.442 241.932 364.279 241.837C364.116 241.739 363.938 241.678 363.746 241.652C363.557 241.623 363.409 241.608 363.302 241.608C363 241.608 362.734 241.652 362.503 241.741C362.275 241.826 362.162 241.967 362.162 242.163C362.162 242.281 362.224 242.374 362.347 242.436C362.47 242.496 362.632 242.538 362.836 242.562C363.043 242.588 363.261 242.607 363.494 242.621C363.8 242.647 364.105 242.684 364.412 242.732C364.723 242.777 365.004 242.856 365.255 242.969C365.507 243.084 365.701 243.248 365.84 243.464C365.982 243.683 366.044 243.978 366.025 244.352C365.975 244.703 365.812 244.994 365.537 245.225C365.265 245.452 364.93 245.622 364.53 245.735C364.131 245.848 363.724 245.905 363.309 245.905Z" fill="white"/>
<path d="M369.337 245.905C368.804 245.905 368.33 245.792 367.916 245.565C367.502 245.339 367.172 245.023 366.932 244.618C366.69 244.215 366.569 243.746 366.569 243.213C366.569 242.666 366.682 242.189 366.91 241.778C367.141 241.37 367.465 241.052 367.879 240.824C368.297 240.593 368.784 240.477 369.337 240.477C369.71 240.477 370.064 240.534 370.395 240.647C370.724 240.761 371.018 240.95 371.275 241.216C371.531 241.479 371.721 241.83 371.845 242.274L370.632 242.481C370.543 242.255 370.426 242.089 370.284 241.985C370.145 241.878 369.992 241.806 369.825 241.771C369.657 241.732 369.494 241.712 369.337 241.712C368.917 241.712 368.589 241.858 368.353 242.148C368.116 242.435 367.997 242.79 367.997 243.213C367.997 243.612 368.118 243.958 368.36 244.248C368.606 244.535 368.932 244.677 369.337 244.677C369.485 244.677 369.636 244.661 369.796 244.626C369.958 244.587 370.114 244.505 370.262 244.382C370.413 244.26 370.539 244.069 370.639 243.812L371.882 244.086C371.753 244.526 371.558 244.877 371.298 245.143C371.035 245.41 370.735 245.606 370.395 245.728C370.054 245.846 369.701 245.905 369.337 245.905Z" fill="white"/>
<path d="M375.263 245.884C374.716 245.884 374.223 245.771 373.791 245.544C373.356 245.312 373.014 244.994 372.762 244.589C372.514 244.181 372.392 243.713 372.392 243.184C372.392 242.652 372.514 242.186 372.762 241.786C373.014 241.383 373.356 241.067 373.791 240.84C374.223 240.609 374.716 240.492 375.263 240.492C375.811 240.492 376.295 240.609 376.721 240.84C377.15 241.067 377.487 241.383 377.735 241.786C377.981 242.186 378.104 242.652 378.104 243.184C378.104 243.713 377.981 244.181 377.735 244.589C377.487 244.994 377.15 245.312 376.721 245.544C376.295 245.771 375.811 245.884 375.263 245.884ZM375.263 244.671C375.666 244.671 376.003 244.53 376.269 244.249C376.536 243.968 376.669 243.613 376.669 243.184C376.669 242.752 376.536 242.397 376.269 242.119C376.003 241.844 375.666 241.705 375.263 241.705C374.843 241.705 374.501 241.844 374.235 242.119C373.968 242.397 373.835 242.752 373.835 243.184C373.835 243.613 373.968 243.968 374.235 244.249C374.501 244.53 374.843 244.671 375.263 244.671Z" fill="white"/>
<path d="M381.125 245.804L378.343 240.634V240.59H379.889L381.199 243.141L381.724 244.473L382.213 243.164L383.537 240.59H385.099V240.634L382.287 245.804H381.125Z" fill="white"/>
<path d="M388.027 245.884C387.495 245.884 387.021 245.771 386.607 245.544C386.192 245.318 385.867 245.002 385.63 244.597C385.393 244.194 385.275 243.725 385.275 243.192C385.275 242.66 385.393 242.192 385.63 241.787C385.867 241.384 386.194 241.068 386.614 240.84C387.038 240.615 387.52 240.5 388.064 240.5C388.627 240.5 389.109 240.618 389.515 240.855C389.923 241.092 390.24 241.424 390.462 241.853C390.687 242.279 390.802 242.778 390.802 243.355C390.802 243.41 390.802 243.469 390.802 243.532C390.802 243.591 390.797 243.651 390.787 243.71H386.718C386.762 243.961 386.86 244.159 387.014 244.301C387.165 244.446 387.343 244.546 387.546 244.605C387.753 244.664 387.955 244.693 388.153 244.693C388.394 244.693 388.627 244.656 388.849 244.582C389.071 244.509 389.237 244.372 389.352 244.168L390.506 244.568C390.323 244.913 390.099 245.182 389.833 245.374C389.566 245.566 389.28 245.699 388.974 245.773C388.667 245.847 388.353 245.884 388.027 245.884ZM386.718 242.645H389.433C389.359 242.316 389.185 242.073 388.915 241.92C388.649 241.763 388.368 241.683 388.072 241.683C387.761 241.683 387.474 241.765 387.213 241.927C386.956 242.09 386.792 242.33 386.718 242.645Z" fill="white"/>
<path d="M391.783 245.794V240.587H392.989L393.078 241.201C393.264 240.901 393.486 240.704 393.744 240.609C394.004 240.517 394.239 240.469 394.447 240.469C394.698 240.469 394.976 240.521 395.283 240.624C395.593 240.724 395.849 240.901 396.052 241.157L395.431 242.096C395.174 241.865 394.872 241.748 394.528 241.748C394.176 241.748 393.871 241.865 393.61 242.096C393.348 242.329 393.211 242.639 393.196 243.028V245.794H391.783Z" fill="white"/>
<path d="M397.005 248.156L398.478 245.434L395.777 240.612V240.59H397.375L398.907 243.4L399.233 244.236L399.566 243.415L401.075 240.59H402.629V240.634L398.559 248.156H397.005Z" fill="white"/>
<path d="M326.69 426.242L323.219 418.543H324.884L326.978 423.321L327.445 424.637L327.94 423.321L329.613 419.712H330.73L332.461 423.335L332.95 424.645L333.423 423.321L335.436 418.543H337.123L333.675 426.242H332.291L330.523 422.515L330.175 421.494L329.835 422.515L328.103 426.242H326.69Z" fill="white"/>
<path d="M339.541 426.308C339.181 426.297 338.833 426.235 338.498 426.123C338.161 426.004 337.887 425.819 337.677 425.568C337.464 425.317 337.358 424.987 337.358 424.577C337.358 424.178 337.464 423.865 337.677 423.638C337.893 423.407 338.174 423.238 338.52 423.135C338.87 423.031 339.234 422.979 339.615 422.979H341.265C341.171 422.674 340.993 422.451 340.733 422.306C340.47 422.164 340.189 422.092 339.889 422.092C339.626 422.092 339.371 422.147 339.119 422.255C338.872 422.358 338.676 422.506 338.528 422.698L337.632 421.922C337.908 421.489 338.257 421.195 338.683 421.042C339.107 420.89 339.541 420.812 339.985 420.812C340.32 420.812 340.651 420.862 340.977 420.96C341.302 421.06 341.595 421.208 341.857 421.404C342.118 421.596 342.327 421.837 342.486 422.122C342.643 422.403 342.723 422.728 342.723 423.098V425.08L342.775 426.197H341.51L341.376 425.464C341.193 425.751 340.929 425.964 340.585 426.101C340.244 426.237 339.896 426.308 339.541 426.308ZM339.682 425.102C339.898 425.102 340.122 425.073 340.355 425.013C340.592 424.954 340.799 424.847 340.977 424.688C341.154 424.525 341.262 424.3 341.302 424.008H339.571C339.382 424.008 339.203 424.057 339.031 424.155C338.857 424.25 338.772 424.388 338.772 424.57C338.772 424.699 338.82 424.804 338.92 424.888C339.023 424.967 339.145 425.024 339.29 425.058C339.432 425.087 339.563 425.102 339.682 425.102Z" fill="white"/>
<path d="M346.004 426.202L343.222 421.033V420.988H344.769L346.078 423.54L346.604 424.871L347.092 423.562L348.417 420.988H349.978V421.033L347.166 426.202H346.004Z" fill="white"/>
<path d="M352.907 426.287C352.374 426.287 351.901 426.174 351.486 425.946C351.072 425.721 350.746 425.405 350.509 425C350.273 424.597 350.154 424.127 350.154 423.594C350.154 423.062 350.273 422.594 350.509 422.189C350.746 421.786 351.074 421.47 351.494 421.243C351.917 421.017 352.4 420.902 352.944 420.902C353.506 420.902 353.989 421.021 354.394 421.257C354.803 421.494 355.119 421.827 355.341 422.256C355.567 422.681 355.682 423.18 355.682 423.757C355.682 423.813 355.682 423.872 355.682 423.935C355.682 423.994 355.676 424.053 355.667 424.112H351.597C351.642 424.364 351.74 424.561 351.893 424.704C352.045 424.848 352.222 424.948 352.426 425.007C352.633 425.066 352.835 425.096 353.033 425.096C353.273 425.096 353.506 425.059 353.728 424.985C353.95 424.911 354.117 424.774 354.231 424.571L355.386 424.97C355.203 425.316 354.979 425.584 354.712 425.776C354.446 425.968 354.159 426.102 353.854 426.176C353.547 426.25 353.232 426.287 352.907 426.287ZM351.597 423.047H354.313C354.239 422.718 354.065 422.476 353.795 422.322C353.528 422.165 353.247 422.086 352.951 422.086C352.641 422.086 352.354 422.167 352.093 422.33C351.836 422.492 351.671 422.733 351.597 423.047Z" fill="white"/>
<path d="M362.092 426.198V419.845H359.117V418.543H366.59V419.845H363.623V426.198H362.092Z" fill="white"/>
<path d="M369.098 426.308C368.737 426.297 368.39 426.235 368.055 426.123C367.718 426.004 367.444 425.819 367.233 425.568C367.021 425.317 366.915 424.987 366.915 424.577C366.915 424.178 367.021 423.865 367.233 423.638C367.45 423.407 367.731 423.238 368.077 423.135C368.427 423.031 368.791 422.979 369.172 422.979H370.822C370.728 422.674 370.55 422.451 370.289 422.306C370.027 422.164 369.746 422.092 369.446 422.092C369.183 422.092 368.928 422.147 368.676 422.255C368.428 422.358 368.232 422.506 368.084 422.698L367.189 421.922C367.465 421.489 367.814 421.195 368.24 421.042C368.663 420.89 369.098 420.812 369.542 420.812C369.877 420.812 370.208 420.862 370.534 420.96C370.859 421.06 371.151 421.208 371.414 421.404C371.675 421.596 371.884 421.837 372.043 422.122C372.2 422.403 372.28 422.728 372.28 423.098V425.08L372.332 426.197H371.066L370.933 425.464C370.75 425.751 370.486 425.964 370.141 426.101C369.801 426.237 369.453 426.308 369.098 426.308ZM369.239 425.102C369.455 425.102 369.679 425.073 369.912 425.013C370.149 424.954 370.356 424.847 370.534 424.688C370.711 424.525 370.819 424.3 370.859 424.008H369.128C368.939 424.008 368.76 424.057 368.588 424.155C368.414 424.25 368.329 424.388 368.329 424.57C368.329 424.699 368.377 424.804 368.477 424.888C368.58 424.967 368.702 425.024 368.847 425.058C368.989 425.087 369.12 425.102 369.239 425.102Z" fill="white"/>
<path d="M373.459 426.198V418.543H374.873V426.198H373.459Z" fill="white"/>
<path d="M378.491 426.287C377.959 426.287 377.485 426.174 377.071 425.946C376.656 425.721 376.331 425.405 376.094 425C375.857 424.597 375.739 424.127 375.739 423.594C375.739 423.062 375.857 422.594 376.094 422.189C376.331 421.786 376.658 421.47 377.078 421.243C377.502 421.017 377.985 420.902 378.528 420.902C379.091 420.902 379.574 421.021 379.979 421.257C380.388 421.494 380.704 421.827 380.926 422.256C381.152 422.681 381.266 423.18 381.266 423.757C381.266 423.813 381.266 423.872 381.266 423.935C381.266 423.994 381.261 424.053 381.251 424.112H377.182C377.226 424.364 377.324 424.561 377.478 424.704C377.629 424.848 377.807 424.948 378.01 425.007C378.218 425.066 378.419 425.096 378.617 425.096C378.858 425.096 379.091 425.059 379.313 424.985C379.535 424.911 379.701 424.774 379.816 424.571L380.97 424.97C380.787 425.316 380.563 425.584 380.297 425.776C380.03 425.968 379.744 426.102 379.439 426.176C379.131 426.25 378.817 426.287 378.491 426.287ZM377.182 423.047H379.897C379.823 422.718 379.649 422.476 379.379 422.322C379.113 422.165 378.832 422.086 378.536 422.086C378.225 422.086 377.938 422.167 377.677 422.33C377.42 422.492 377.256 422.733 377.182 423.047Z" fill="white"/>
<path d="M382.247 426.198V420.991H383.46L383.594 421.627C383.742 421.372 383.949 421.187 384.215 421.072C384.485 420.96 384.757 420.902 385.029 420.902C385.349 420.902 385.662 420.947 385.969 421.035C386.274 421.124 386.553 421.27 386.805 421.472C387.056 421.675 387.256 421.945 387.404 422.285C387.556 422.626 387.634 423.045 387.634 423.543V426.198H386.198V423.506C386.207 423.165 386.154 422.896 386.035 422.692C385.917 422.485 385.765 422.335 385.584 422.241C385.401 422.143 385.208 422.093 385.007 422.093C384.785 422.093 384.572 422.143 384.37 422.241C384.167 422.335 384.001 422.485 383.867 422.692C383.734 422.899 383.668 423.171 383.668 423.506V426.198H382.247Z" fill="white"/>
<path d="M391.584 426.294C390.844 426.288 390.278 426.076 389.889 425.65C389.499 425.221 389.305 424.674 389.305 424.008V422.049H388.343V420.991H389.305V418.543H390.696V420.991H392.553V422.049H390.696V424.008C390.69 424.325 390.788 424.585 390.992 424.792C391.193 425 391.452 425.103 391.769 425.103C391.876 425.103 391.991 425.088 392.109 425.059C392.231 425.029 392.355 424.983 392.479 424.918L392.849 425.946C392.601 426.07 392.375 426.159 392.168 426.212C391.961 426.266 391.765 426.294 391.584 426.294Z" fill="white"/>
<path d="M448.951 292.297L456.654 288.828V290.492L451.873 292.585L450.556 293.051L451.873 293.547L455.484 295.218V296.335L451.859 298.066L450.549 298.554L451.873 299.027L456.654 301.039V302.725L448.951 299.278V297.895L452.68 296.128L453.701 295.78L452.68 295.44L448.951 293.709V292.297Z" fill="white"/>
<path d="M448.884 305.143C448.895 304.782 448.956 304.435 449.069 304.1C449.187 303.763 449.372 303.49 449.624 303.279C449.876 303.066 450.205 302.961 450.616 302.961C451.015 302.961 451.328 303.066 451.555 303.279C451.786 303.495 451.955 303.776 452.058 304.122C452.162 304.472 452.214 304.836 452.214 305.217V306.866C452.519 306.772 452.743 306.594 452.887 306.333C453.03 306.071 453.102 305.79 453.102 305.49C453.102 305.228 453.046 304.973 452.939 304.721C452.835 304.473 452.687 304.277 452.495 304.129L453.272 303.235C453.705 303.51 453.999 303.86 454.152 304.285C454.304 304.708 454.382 305.143 454.382 305.586C454.382 305.921 454.332 306.252 454.234 306.577C454.134 306.903 453.986 307.195 453.79 307.458C453.598 307.718 453.357 307.927 453.072 308.086C452.791 308.243 452.465 308.323 452.095 308.323H450.112L448.995 308.375V307.11L449.728 306.977C449.441 306.794 449.228 306.529 449.091 306.186C448.954 305.845 448.884 305.498 448.884 305.143ZM450.09 305.283C450.09 305.5 450.12 305.723 450.179 305.956C450.238 306.193 450.345 306.4 450.505 306.577C450.667 306.755 450.893 306.862 451.185 306.903V305.172C451.185 304.984 451.135 304.804 451.037 304.632C450.943 304.459 450.804 304.374 450.623 304.374C450.493 304.374 450.388 304.422 450.305 304.521C450.225 304.625 450.168 304.747 450.135 304.891C450.105 305.034 450.09 305.165 450.09 305.283Z" fill="white"/>
<path d="M448.988 311.601L454.16 308.82H454.204V310.366L451.651 311.675L450.319 312.2L451.629 312.688L454.204 314.012V315.573H454.16L448.988 312.762V311.601Z" fill="white"/>
<path d="M448.906 318.501C448.906 317.969 449.019 317.495 449.247 317.081C449.472 316.667 449.789 316.342 450.194 316.105C450.597 315.868 451.067 315.75 451.6 315.75C452.132 315.75 452.6 315.868 453.006 316.105C453.409 316.342 453.725 316.669 453.953 317.089C454.178 317.512 454.293 317.995 454.293 318.538C454.293 319.1 454.175 319.583 453.938 319.988C453.701 320.396 453.368 320.713 452.939 320.934C452.514 321.16 452.014 321.275 451.437 321.275C451.381 321.275 451.322 321.275 451.259 321.275C451.2 321.275 451.141 321.269 451.082 321.26V317.192C450.83 317.237 450.632 317.335 450.49 317.488C450.345 317.64 450.246 317.817 450.186 318.021C450.127 318.228 450.098 318.429 450.098 318.627C450.098 318.867 450.135 319.1 450.209 319.322C450.283 319.544 450.419 319.71 450.623 319.825L450.223 320.979C449.877 320.796 449.609 320.572 449.417 320.306C449.224 320.04 449.091 319.753 449.017 319.448C448.943 319.141 448.906 318.827 448.906 318.501ZM452.147 317.192V319.906C452.477 319.832 452.719 319.659 452.872 319.389C453.03 319.122 453.109 318.841 453.109 318.546C453.109 318.235 453.028 317.948 452.865 317.688C452.702 317.431 452.462 317.266 452.147 317.192Z" fill="white"/>
<path d="M448.995 325.348H456.654V329.304C456.654 329.807 456.574 330.251 456.417 330.636C456.263 331.024 456.026 331.331 455.706 331.553C455.385 331.775 454.968 331.886 454.456 331.886C454.223 331.886 453.977 331.812 453.716 331.664C453.459 331.519 453.257 331.311 453.109 331.035C453.035 331.32 452.902 331.556 452.71 331.745C452.521 331.937 452.306 332.082 452.066 332.181C451.829 332.279 451.592 332.329 451.356 332.329C450.936 332.329 450.573 332.244 450.268 332.078C449.966 331.915 449.722 331.695 449.535 331.42C449.347 331.142 449.21 330.832 449.121 330.488C449.036 330.148 448.995 329.794 448.995 329.43V325.348ZM453.605 326.827V329.393C453.609 329.683 453.673 329.929 453.797 330.133C453.919 330.334 454.147 330.436 454.478 330.436C454.709 330.436 454.893 330.379 455.026 330.266C455.159 330.157 455.251 330.018 455.307 329.852C455.366 329.683 455.396 329.506 455.396 329.319V326.827H453.605ZM450.253 326.827V329.43C450.262 329.676 450.299 329.905 450.364 330.118C450.427 330.334 450.536 330.506 450.69 330.636C450.841 330.769 451.054 330.835 451.326 330.835C451.596 330.835 451.809 330.765 451.962 330.628C452.114 330.49 452.221 330.312 452.28 330.096C452.343 329.883 452.377 329.661 452.377 329.43V326.827H450.253Z" fill="white"/>
<path d="M448.906 335.81C448.906 335.494 448.951 335.182 449.039 334.871C449.128 334.56 449.273 334.279 449.476 334.028C449.678 333.777 449.95 333.577 450.29 333.429C450.63 333.281 451.048 333.207 451.548 333.207H454.204V334.634H451.511C451.17 334.634 450.897 334.69 450.69 334.805C450.486 334.917 450.338 335.065 450.246 335.248C450.157 335.429 450.107 335.625 450.098 335.833C450.098 336.049 450.144 336.258 450.238 336.461C450.336 336.668 450.49 336.835 450.697 336.964C450.904 337.097 451.174 337.164 451.511 337.164H454.204V338.584H448.995V337.371L449.631 337.238C449.38 337.094 449.195 336.886 449.076 336.617C448.964 336.345 448.906 336.077 448.906 335.81Z" fill="white"/>
<path d="M448.884 342.109C448.884 341.654 448.941 341.232 449.054 340.844C449.167 340.454 449.358 340.134 449.624 339.882C449.89 339.631 450.249 339.491 450.704 339.461L450.682 340.822C450.505 340.837 450.368 340.905 450.275 341.029C450.181 341.151 450.114 341.312 450.075 341.51C450.04 341.711 450.024 341.924 450.024 342.146C450.024 342.525 450.072 342.822 450.172 343.041C450.275 343.257 450.408 343.366 450.571 343.366C450.704 343.366 450.812 343.272 450.897 343.085C450.98 342.902 451.03 342.591 451.045 342.153C451.059 341.861 451.085 341.563 451.126 341.258C451.17 340.957 451.244 340.676 451.348 340.415C451.455 340.158 451.611 339.951 451.814 339.794C452.016 339.64 452.284 339.564 452.621 339.564C452.946 339.564 453.215 339.642 453.427 339.801C453.644 339.964 453.819 340.171 453.953 340.422C454.086 340.678 454.178 340.951 454.234 341.243C454.288 341.539 454.315 341.82 454.315 342.086C454.315 342.377 454.288 342.671 454.234 342.967C454.184 343.262 454.093 343.536 453.96 343.787C453.831 344.039 453.651 344.242 453.42 344.401C453.192 344.564 452.904 344.66 452.554 344.69L452.51 343.381C452.711 343.34 452.859 343.24 452.954 343.077C453.052 342.915 453.113 342.737 453.139 342.545C453.168 342.356 453.183 342.208 453.183 342.101C453.183 341.8 453.139 341.534 453.05 341.302C452.965 341.075 452.824 340.962 452.628 340.962C452.51 340.962 452.417 341.023 452.354 341.147C452.295 341.269 452.253 341.432 452.229 341.635C452.203 341.842 452.184 342.061 452.169 342.294C452.144 342.599 452.107 342.904 452.058 343.211C452.014 343.521 451.934 343.802 451.822 344.054C451.707 344.305 451.542 344.499 451.326 344.638C451.108 344.78 450.812 344.841 450.438 344.823C450.086 344.773 449.796 344.61 449.565 344.335C449.337 344.063 449.167 343.728 449.054 343.329C448.941 342.93 448.884 342.523 448.884 342.109Z" fill="white"/>
<path d="M454.974 345.68H456.654V347.077H454.974V345.68ZM448.995 345.68H454.204V347.077H448.995V345.68Z" fill="white"/>
<path d="M448.995 348.285H454.204V349.498L453.568 349.631C453.823 349.779 454.008 349.986 454.123 350.252C454.236 350.522 454.293 350.794 454.293 351.066C454.293 351.386 454.249 351.698 454.16 352.005C454.071 352.31 453.925 352.59 453.723 352.841C453.52 353.092 453.25 353.292 452.909 353.44C452.569 353.592 452.149 353.669 451.652 353.669H448.995V352.235H451.689C452.029 352.244 452.299 352.19 452.502 352.072C452.71 351.953 452.86 351.802 452.954 351.621C453.052 351.438 453.102 351.245 453.102 351.044C453.102 350.822 453.052 350.609 452.954 350.408C452.86 350.204 452.71 350.038 452.502 349.905C452.295 349.772 452.023 349.705 451.689 349.705H448.995V348.285Z" fill="white"/>
<path d="M448.906 357.286C448.906 356.754 449.019 356.281 449.247 355.866C449.472 355.452 449.789 355.127 450.194 354.89C450.597 354.653 451.067 354.535 451.6 354.535C452.132 354.535 452.6 354.653 453.006 354.89C453.409 355.127 453.725 355.454 453.953 355.874C454.178 356.297 454.293 356.78 454.293 357.323C454.293 357.885 454.175 358.368 453.938 358.773C453.701 359.182 453.368 359.498 452.939 359.72C452.514 359.945 452.014 360.06 451.437 360.06C451.381 360.06 451.322 360.06 451.259 360.06C451.2 360.06 451.141 360.054 451.082 360.045V355.977C450.83 356.022 450.632 356.12 450.49 356.273C450.345 356.425 450.246 356.602 450.186 356.806C450.127 357.013 450.098 357.214 450.098 357.412C450.098 357.653 450.135 357.885 450.209 358.107C450.283 358.329 450.419 358.496 450.623 358.61L450.223 359.764C449.877 359.581 449.609 359.357 449.417 359.091C449.224 358.825 449.091 358.538 449.017 358.233C448.943 357.926 448.906 357.612 448.906 357.286ZM452.147 355.977V358.692C452.477 358.618 452.719 358.444 452.872 358.174C453.03 357.908 453.109 357.627 453.109 357.331C453.109 357.02 453.028 356.734 452.865 356.473C452.702 356.216 452.462 356.051 452.147 355.977Z" fill="white"/>
<path d="M448.884 363.366C448.884 362.912 448.941 362.49 449.054 362.102C449.167 361.712 449.358 361.392 449.624 361.14C449.89 360.889 450.249 360.748 450.704 360.719L450.682 362.08C450.505 362.094 450.368 362.163 450.275 362.287C450.181 362.409 450.114 362.57 450.075 362.767C450.04 362.969 450.024 363.182 450.024 363.403C450.024 363.782 450.072 364.08 450.172 364.298C450.275 364.515 450.408 364.624 450.571 364.624C450.704 364.624 450.812 364.529 450.897 364.343C450.98 364.16 451.03 363.849 451.045 363.411C451.059 363.119 451.085 362.821 451.126 362.516C451.17 362.215 451.244 361.934 451.348 361.673C451.455 361.416 451.611 361.209 451.814 361.052C452.016 360.898 452.284 360.822 452.621 360.822C452.946 360.822 453.215 360.9 453.427 361.059C453.644 361.222 453.819 361.429 453.953 361.68C454.086 361.935 454.178 362.209 454.234 362.501C454.288 362.797 454.315 363.078 454.315 363.344C454.315 363.635 454.288 363.929 454.234 364.224C454.184 364.52 454.093 364.794 453.96 365.045C453.831 365.297 453.651 365.5 453.42 365.659C453.192 365.822 452.904 365.918 452.554 365.948L452.51 364.639C452.711 364.598 452.859 364.498 452.954 364.335C453.052 364.173 453.113 363.995 453.139 363.803C453.168 363.614 453.183 363.466 453.183 363.359C453.183 363.058 453.139 362.791 453.05 362.56C452.965 362.333 452.824 362.22 452.628 362.22C452.51 362.22 452.417 362.281 452.354 362.405C452.295 362.527 452.253 362.69 452.229 362.893C452.203 363.1 452.184 363.318 452.169 363.551C452.144 363.856 452.107 364.162 452.058 364.468C452.014 364.779 451.934 365.06 451.822 365.312C451.707 365.563 451.542 365.757 451.326 365.896C451.108 366.038 450.812 366.099 450.438 366.081C450.086 366.031 449.796 365.868 449.565 365.593C449.337 365.321 449.167 364.986 449.054 364.587C448.941 364.187 448.884 363.781 448.884 363.366Z" fill="white"/>
<path d="M448.884 369.273C448.884 368.818 448.941 368.396 449.054 368.008C449.167 367.618 449.358 367.298 449.624 367.047C449.89 366.795 450.249 366.655 450.704 366.625L450.682 367.986C450.505 368.001 450.368 368.069 450.275 368.193C450.181 368.315 450.114 368.476 450.075 368.674C450.04 368.875 450.024 369.088 450.024 369.31C450.024 369.689 450.072 369.986 450.172 370.205C450.275 370.421 450.408 370.53 450.571 370.53C450.704 370.53 450.812 370.436 450.897 370.249C450.98 370.066 451.03 369.755 451.045 369.317C451.059 369.025 451.085 368.727 451.126 368.422C451.17 368.121 451.244 367.84 451.348 367.579C451.455 367.322 451.611 367.115 451.814 366.958C452.016 366.804 452.284 366.729 452.621 366.729C452.946 366.729 453.215 366.806 453.427 366.965C453.644 367.128 453.819 367.335 453.953 367.586C454.086 367.842 454.178 368.115 454.234 368.407C454.288 368.703 454.315 368.984 454.315 369.251C454.315 369.541 454.288 369.835 454.234 370.131C454.184 370.426 454.093 370.7 453.96 370.952C453.831 371.203 453.651 371.406 453.42 371.565C453.192 371.728 452.904 371.824 452.554 371.854L452.51 370.545C452.711 370.504 452.859 370.404 452.954 370.242C453.052 370.079 453.113 369.901 453.139 369.709C453.168 369.52 453.183 369.373 453.183 369.265C453.183 368.964 453.139 368.698 453.05 368.467C452.965 368.239 452.824 368.126 452.628 368.126C452.51 368.126 452.417 368.187 452.354 368.311C452.295 368.433 452.253 368.596 452.229 368.799C452.203 369.006 452.184 369.225 452.169 369.458C452.144 369.763 452.107 370.068 452.058 370.375C452.014 370.685 451.934 370.966 451.822 371.218C451.707 371.469 451.542 371.663 451.326 371.802C451.108 371.944 450.812 372.005 450.438 371.987C450.086 371.937 449.796 371.774 449.565 371.499C449.337 371.227 449.167 370.892 449.054 370.493C448.941 370.094 448.884 369.687 448.884 369.273Z" fill="white"/>
<path d="M433.65 307.254C433.65 306.82 433.695 306.396 433.784 305.982C433.872 305.572 434.015 305.2 434.213 304.865C434.409 304.534 434.666 304.274 434.982 304.081C435.297 303.889 435.687 303.793 436.151 303.793C436.536 303.793 436.893 303.911 437.224 304.148C437.554 304.388 437.816 304.705 438.009 305.095C438.112 304.95 438.24 304.832 438.393 304.74C438.545 304.651 438.704 304.586 438.867 304.547C439.03 304.507 439.17 304.488 439.289 304.488C439.683 304.488 440.021 304.57 440.303 304.732C440.587 304.899 440.824 305.117 441.013 305.383C441.205 305.653 441.346 305.949 441.435 306.271C441.527 306.59 441.575 306.908 441.575 307.225C441.575 307.728 441.494 308.19 441.331 308.615C441.168 309.038 440.911 309.377 440.562 309.628C440.21 309.88 439.755 310.005 439.193 310.005V308.645C439.474 308.645 439.699 308.573 439.873 308.43C440.051 308.291 440.179 308.116 440.258 307.905C440.341 307.692 440.384 307.476 440.384 307.254C440.384 306.84 440.28 306.516 440.073 306.285C439.866 306.058 439.601 305.945 439.281 305.945C439.108 305.945 438.96 305.99 438.837 306.078C438.713 306.171 438.608 306.278 438.519 306.396L436.151 309.421C436.259 309.466 436.385 309.503 436.529 309.532C436.677 309.562 436.906 309.577 437.217 309.577V310.9C436.418 310.9 435.791 310.769 435.337 310.508L433.872 312.128H433.806V310.235L434.353 309.577C434.096 309.231 433.913 308.854 433.806 308.445C433.702 308.04 433.65 307.643 433.65 307.254ZM434.886 307.114C434.886 307.617 434.997 308.07 435.219 308.475L437.158 305.945C437.039 305.703 436.893 305.524 436.721 305.405C436.547 305.291 436.37 305.235 436.188 305.235C435.822 305.235 435.51 305.427 435.249 305.812C435.125 306.004 435.034 306.211 434.975 306.433C434.916 306.659 434.886 306.886 434.886 307.114Z" fill="white"/>
<path d="M433.806 315.723H441.464V319.502C441.464 320.097 441.368 320.622 441.176 321.077C440.987 321.536 440.702 321.893 440.317 322.15C439.936 322.41 439.448 322.542 438.852 322.542C438.24 322.542 437.737 322.401 437.343 322.12C436.947 321.843 436.654 321.473 436.462 321.011C436.273 320.552 436.181 320.042 436.181 319.48V317.239H433.806V315.723ZM437.454 317.239V319.487C437.457 319.94 437.561 320.315 437.764 320.611C437.972 320.907 438.334 321.055 438.852 321.055C439.187 321.055 439.448 320.985 439.636 320.848C439.829 320.709 439.962 320.523 440.036 320.286C440.114 320.053 440.154 319.792 440.154 319.502V317.239H437.454Z" fill="white"/>
<path d="M433.806 323.41H439.015V324.616L438.401 324.704C438.7 324.891 438.898 325.113 438.993 325.37C439.085 325.631 439.133 325.866 439.133 326.073C439.133 326.324 439.082 326.601 438.978 326.908C438.878 327.219 438.7 327.474 438.445 327.678L437.505 327.056C437.737 326.799 437.853 326.498 437.853 326.154C437.853 325.803 437.737 325.498 437.505 325.237C437.272 324.974 436.962 324.838 436.573 324.823H433.806V323.41Z" fill="white"/>
<path d="M433.717 330.78C433.717 330.232 433.83 329.741 434.057 329.308C434.289 328.873 434.607 328.531 435.012 328.28C435.421 328.032 435.889 327.91 436.418 327.91C436.951 327.91 437.417 328.032 437.816 328.28C438.22 328.531 438.536 328.873 438.763 329.308C438.995 329.741 439.111 330.232 439.111 330.78C439.111 331.327 438.995 331.811 438.763 332.237C438.536 332.666 438.22 333.002 437.816 333.25C437.417 333.496 436.951 333.62 436.418 333.62C435.889 333.62 435.421 333.496 435.012 333.25C434.607 333.002 434.289 332.666 434.057 332.237C433.83 331.811 433.717 331.327 433.717 330.78ZM434.931 330.78C434.931 331.183 435.071 331.519 435.352 331.786C435.634 332.052 435.989 332.185 436.418 332.185C436.851 332.185 437.206 332.052 437.483 331.786C437.759 331.519 437.898 331.183 437.898 330.78C437.898 330.36 437.759 330.018 437.483 329.752C437.206 329.485 436.851 329.352 436.418 329.352C435.989 329.352 435.634 329.485 435.352 329.752C435.071 330.018 434.931 330.36 434.931 330.78Z" fill="white"/>
<path d="M433.695 336.985C433.695 336.452 433.808 335.979 434.035 335.565C434.261 335.151 434.577 334.822 434.982 334.581C435.386 334.339 435.855 334.219 436.388 334.219C436.936 334.219 437.413 334.332 437.824 334.559C438.233 334.79 438.551 335.114 438.778 335.528C439.01 335.946 439.126 336.432 439.126 336.985C439.126 337.358 439.069 337.711 438.956 338.042C438.841 338.372 438.652 338.665 438.386 338.922C438.123 339.178 437.772 339.368 437.328 339.492L437.121 338.279C437.346 338.19 437.513 338.074 437.617 337.931C437.724 337.793 437.796 337.639 437.831 337.473C437.87 337.305 437.89 337.142 437.89 336.985C437.89 336.565 437.744 336.238 437.454 336.001C437.167 335.764 436.812 335.646 436.388 335.646C435.989 335.646 435.643 335.766 435.352 336.009C435.066 336.254 434.923 336.58 434.923 336.985C434.923 337.133 434.94 337.284 434.975 337.443C435.014 337.606 435.095 337.761 435.219 337.909C435.341 338.061 435.532 338.187 435.789 338.286L435.515 339.529C435.075 339.4 434.723 339.205 434.457 338.945C434.191 338.682 433.995 338.383 433.872 338.042C433.754 337.702 433.695 337.349 433.695 336.985Z" fill="white"/>
<path d="M433.717 342.74C433.717 342.207 433.83 341.734 434.057 341.32C434.283 340.905 434.599 340.58 435.005 340.343C435.408 340.107 435.878 339.988 436.41 339.988C436.943 339.988 437.411 340.107 437.816 340.343C438.22 340.58 438.536 340.907 438.763 341.327C438.989 341.75 439.104 342.233 439.104 342.777C439.104 343.339 438.985 343.821 438.749 344.226C438.512 344.635 438.179 344.951 437.75 345.173C437.324 345.398 436.825 345.513 436.248 345.513C436.192 345.513 436.133 345.513 436.07 345.513C436.011 345.513 435.952 345.507 435.892 345.498V341.43C435.641 341.475 435.443 341.573 435.301 341.726C435.156 341.878 435.056 342.055 434.997 342.259C434.938 342.466 434.908 342.667 434.908 342.865C434.908 343.106 434.945 343.339 435.019 343.56C435.093 343.782 435.23 343.949 435.434 344.063L435.034 345.217C434.688 345.034 434.42 344.81 434.228 344.544C434.035 344.278 433.902 343.991 433.828 343.686C433.754 343.379 433.717 343.065 433.717 342.74ZM436.958 341.43V344.145C437.287 344.071 437.53 343.897 437.683 343.627C437.84 343.361 437.92 343.08 437.92 342.784C437.92 342.473 437.839 342.187 437.676 341.926C437.513 341.669 437.272 341.504 436.958 341.43Z" fill="white"/>
<path d="M433.695 348.82C433.695 348.365 433.752 347.943 433.865 347.555C433.978 347.165 434.168 346.845 434.435 346.593C434.701 346.342 435.06 346.201 435.515 346.172L435.493 347.533C435.315 347.547 435.178 347.616 435.086 347.74C434.992 347.862 434.925 348.023 434.886 348.221C434.851 348.422 434.834 348.635 434.834 348.857C434.834 349.236 434.882 349.533 434.982 349.751C435.086 349.968 435.219 350.077 435.382 350.077C435.515 350.077 435.622 349.983 435.707 349.796C435.791 349.613 435.841 349.302 435.855 348.864C435.87 348.572 435.896 348.274 435.937 347.969C435.981 347.668 436.055 347.387 436.159 347.126C436.266 346.869 436.422 346.662 436.625 346.505C436.827 346.351 437.095 346.275 437.432 346.275C437.757 346.275 438.025 346.353 438.238 346.512C438.455 346.675 438.63 346.882 438.763 347.133C438.897 347.388 438.989 347.662 439.045 347.954C439.098 348.25 439.126 348.531 439.126 348.797C439.126 349.088 439.098 349.382 439.045 349.677C438.995 349.973 438.904 350.247 438.771 350.498C438.641 350.75 438.462 350.953 438.231 351.112C438.003 351.275 437.715 351.371 437.365 351.401L437.321 350.092C437.522 350.051 437.67 349.951 437.765 349.788C437.863 349.626 437.924 349.448 437.95 349.256C437.979 349.067 437.994 348.919 437.994 348.812C437.994 348.511 437.95 348.245 437.861 348.013C437.776 347.786 437.635 347.673 437.439 347.673C437.321 347.673 437.228 347.734 437.165 347.858C437.106 347.98 437.063 348.143 437.039 348.346C437.013 348.553 436.995 348.772 436.98 349.004C436.954 349.31 436.917 349.615 436.869 349.922C436.825 350.232 436.745 350.513 436.632 350.765C436.518 351.016 436.353 351.21 436.137 351.349C435.918 351.491 435.622 351.552 435.249 351.534C434.897 351.484 434.607 351.321 434.376 351.046C434.148 350.774 433.978 350.439 433.865 350.04C433.752 349.641 433.695 349.234 433.695 348.82Z" fill="white"/>
<path d="M433.695 354.726C433.695 354.271 433.752 353.849 433.865 353.461C433.978 353.071 434.168 352.751 434.435 352.5C434.701 352.248 435.06 352.108 435.515 352.078L435.493 353.439C435.315 353.454 435.178 353.522 435.086 353.646C434.992 353.768 434.925 353.929 434.886 354.127C434.851 354.328 434.834 354.541 434.834 354.763C434.834 355.142 434.882 355.44 434.982 355.658C435.086 355.874 435.219 355.983 435.382 355.983C435.515 355.983 435.622 355.889 435.707 355.702C435.791 355.519 435.841 355.208 435.855 354.77C435.87 354.478 435.896 354.18 435.937 353.875C435.981 353.574 436.055 353.293 436.159 353.032C436.266 352.775 436.422 352.568 436.625 352.411C436.827 352.257 437.095 352.182 437.432 352.182C437.757 352.182 438.025 352.259 438.238 352.418C438.455 352.581 438.63 352.788 438.763 353.04C438.897 353.295 438.989 353.568 439.045 353.861C439.098 354.156 439.126 354.437 439.126 354.704C439.126 354.994 439.098 355.288 439.045 355.584C438.995 355.88 438.904 356.153 438.771 356.405C438.641 356.656 438.462 356.86 438.231 357.019C438.003 357.181 437.715 357.277 437.365 357.307L437.321 355.998C437.522 355.957 437.67 355.857 437.765 355.695C437.863 355.532 437.924 355.354 437.95 355.162C437.979 354.974 437.994 354.826 437.994 354.718C437.994 354.417 437.95 354.151 437.861 353.92C437.776 353.692 437.635 353.579 437.439 353.579C437.321 353.579 437.228 353.64 437.165 353.764C437.106 353.886 437.063 354.049 437.039 354.252C437.013 354.46 436.995 354.678 436.98 354.911C436.954 355.216 436.917 355.521 436.869 355.828C436.825 356.138 436.745 356.419 436.632 356.671C436.518 356.922 436.353 357.117 436.137 357.255C435.918 357.398 435.622 357.459 435.249 357.44C434.897 357.39 434.607 357.227 434.376 356.952C434.148 356.68 433.978 356.346 433.865 355.946C433.752 355.547 433.695 355.14 433.695 354.726Z" fill="white"/>
<path d="M266.563 358.35L258.86 361.819V360.155L263.64 358.062L264.957 357.596L263.64 357.1L260.029 355.429V354.312L263.655 352.581L264.964 352.093L263.64 351.62L258.86 349.608V347.922L266.563 351.368V352.751L262.833 354.519L261.812 354.867L262.833 355.207L266.563 356.937V358.35Z" fill="white"/>
<path d="M266.629 345.505C266.618 345.866 266.557 346.214 266.444 346.548C266.326 346.885 266.141 347.158 265.889 347.369C265.638 347.582 265.308 347.687 264.898 347.687C264.498 347.687 264.186 347.582 263.958 347.369C263.727 347.153 263.559 346.872 263.455 346.526C263.351 346.177 263.3 345.812 263.3 345.431V343.782C262.994 343.876 262.77 344.054 262.626 344.315C262.484 344.577 262.412 344.858 262.412 345.158C262.412 345.42 262.467 345.676 262.574 345.927C262.678 346.175 262.826 346.371 263.018 346.519L262.241 347.414C261.809 347.138 261.514 346.789 261.361 346.363C261.209 345.94 261.131 345.505 261.131 345.062C261.131 344.727 261.181 344.396 261.279 344.071C261.379 343.745 261.527 343.453 261.723 343.191C261.916 342.93 262.156 342.721 262.441 342.562C262.722 342.405 263.048 342.325 263.418 342.325H265.401L266.518 342.273V343.538L265.786 343.671C266.072 343.854 266.285 344.119 266.422 344.463C266.559 344.803 266.629 345.15 266.629 345.505ZM265.423 345.365C265.423 345.149 265.394 344.925 265.334 344.692C265.275 344.455 265.168 344.248 265.009 344.071C264.846 343.893 264.62 343.786 264.328 343.745V345.476C264.328 345.664 264.378 345.844 264.476 346.016C264.57 346.19 264.709 346.275 264.89 346.275C265.02 346.275 265.125 346.227 265.209 346.127C265.288 346.023 265.345 345.901 265.379 345.757C265.408 345.615 265.423 345.483 265.423 345.365Z" fill="white"/>
<path d="M266.526 339.046L261.353 341.827H261.309V340.281L263.862 338.972L265.194 338.447L263.884 337.959L261.309 336.635V335.074H261.353L266.526 337.885V339.046Z" fill="white"/>
<path d="M266.607 332.145C266.607 332.677 266.494 333.15 266.267 333.565C266.041 333.979 265.725 334.304 265.32 334.541C264.916 334.777 264.446 334.896 263.914 334.896C263.381 334.896 262.913 334.777 262.508 334.541C262.104 334.304 261.788 333.977 261.561 333.557C261.335 333.134 261.22 332.651 261.22 332.108C261.22 331.545 261.339 331.063 261.575 330.658C261.812 330.249 262.145 329.933 262.574 329.711C263 329.486 263.499 329.371 264.076 329.371C264.132 329.371 264.191 329.371 264.254 329.371C264.313 329.371 264.372 329.377 264.432 329.386V333.454C264.683 333.409 264.881 333.311 265.024 333.158C265.168 333.006 265.268 332.829 265.327 332.625C265.386 332.418 265.416 332.217 265.416 332.019C265.416 331.778 265.379 331.545 265.305 331.324C265.231 331.102 265.094 330.935 264.89 330.821L265.29 329.667C265.636 329.85 265.904 330.074 266.096 330.34C266.289 330.606 266.422 330.893 266.496 331.198C266.57 331.505 266.607 331.819 266.607 332.145ZM263.366 333.454V330.739C263.037 330.813 262.794 330.987 262.641 331.257C262.484 331.523 262.404 331.804 262.404 332.1C262.404 332.411 262.486 332.697 262.648 332.958C262.811 333.215 263.052 333.38 263.366 333.454Z" fill="white"/>
<path d="M266.518 322.965H260.162V325.939H258.86V318.469H260.162V321.434H266.518V322.965Z" fill="white"/>
<path d="M266.607 315.402C266.607 315.935 266.494 316.408 266.267 316.822C266.041 317.237 265.725 317.562 265.32 317.799C264.916 318.035 264.446 318.154 263.914 318.154C263.381 318.154 262.913 318.035 262.508 317.799C262.104 317.562 261.788 317.235 261.561 316.815C261.335 316.392 261.22 315.909 261.22 315.365C261.22 314.803 261.339 314.321 261.575 313.916C261.812 313.507 262.145 313.191 262.574 312.969C263 312.744 263.499 312.629 264.076 312.629C264.132 312.629 264.191 312.629 264.254 312.629C264.313 312.629 264.372 312.634 264.432 312.644V316.711C264.683 316.667 264.881 316.569 265.024 316.416C265.168 316.264 265.268 316.086 265.327 315.883C265.386 315.676 265.416 315.474 265.416 315.277C265.416 315.036 265.379 314.803 265.305 314.581C265.231 314.36 265.094 314.193 264.89 314.078L265.29 312.925C265.636 313.108 265.904 313.332 266.096 313.598C266.289 313.864 266.422 314.151 266.496 314.456C266.57 314.763 266.607 315.077 266.607 315.402ZM263.366 316.711V313.997C263.037 314.071 262.794 314.245 262.641 314.515C262.484 314.781 262.404 315.062 262.404 315.358C262.404 315.669 262.486 315.955 262.648 316.216C262.811 316.473 263.052 316.637 263.366 316.711Z" fill="white"/>
<path d="M266.629 309.2C266.629 309.733 266.516 310.206 266.289 310.62C266.063 311.035 265.747 311.364 265.342 311.604C264.938 311.846 264.469 311.966 263.936 311.966C263.388 311.966 262.911 311.854 262.5 311.626C262.091 311.395 261.773 311.072 261.546 310.657C261.315 310.24 261.198 309.753 261.198 309.2C261.198 308.827 261.255 308.474 261.368 308.143C261.483 307.814 261.672 307.52 261.938 307.263C262.201 307.008 262.552 306.817 262.996 306.693L263.203 307.906C262.978 307.995 262.811 308.111 262.707 308.254C262.6 308.392 262.528 308.546 262.493 308.712C262.454 308.881 262.434 309.043 262.434 309.2C262.434 309.62 262.58 309.947 262.87 310.184C263.157 310.421 263.512 310.539 263.936 310.539C264.335 310.539 264.681 310.419 264.972 310.177C265.258 309.931 265.401 309.605 265.401 309.2C265.401 309.052 265.384 308.901 265.349 308.742C265.31 308.579 265.229 308.424 265.105 308.276C264.983 308.124 264.792 307.999 264.535 307.899L264.809 306.656C265.249 306.786 265.601 306.98 265.867 307.241C266.133 307.503 266.33 307.803 266.452 308.143C266.57 308.483 266.629 308.836 266.629 309.2Z" fill="white"/>
<path d="M266.518 305.896H258.86V304.476H261.901C261.69 304.348 261.524 304.156 261.405 303.899C261.283 303.638 261.22 303.378 261.22 303.115C261.22 302.795 261.265 302.483 261.353 302.176C261.442 301.871 261.588 301.592 261.79 301.34C261.993 301.089 262.264 300.889 262.604 300.741C262.944 300.589 263.364 300.512 263.862 300.512H266.518V301.947H263.847C263.507 301.937 263.233 301.991 263.026 302.109C262.815 302.228 262.659 302.379 262.559 302.56C262.461 302.743 262.411 302.936 262.411 303.137C262.411 303.359 262.461 303.572 262.559 303.773C262.659 303.977 262.815 304.143 263.026 304.276C263.233 304.409 263.505 304.476 263.84 304.476H266.518V305.896Z" fill="white"/>
<path d="M338.486 325.719L333.802 315.32H336.052L338.871 321.777L339.507 323.544L340.173 321.777L342.43 316.903H343.94L346.278 321.792L346.936 323.559L347.573 321.777L350.296 315.32H352.567L347.913 325.719H346.056L343.658 320.682L343.185 319.307L342.726 320.682L340.395 325.719H338.486Z" fill="#41A3E0"/>
<path d="M355.822 325.809C355.343 325.798 354.877 325.714 354.423 325.557C353.968 325.4 353.598 325.15 353.313 324.81C353.027 324.47 352.884 324.024 352.884 323.472C352.884 322.935 353.029 322.51 353.321 322.199C353.611 321.889 353.989 321.665 354.453 321.526C354.921 321.39 355.411 321.319 355.925 321.319H358.16C358.031 320.905 357.79 320.602 357.435 320.41C357.08 320.217 356.699 320.121 356.295 320.121C355.94 320.121 355.594 320.193 355.26 320.336C354.928 320.48 354.664 320.68 354.468 320.935L353.254 319.885C353.628 319.304 354.1 318.908 354.668 318.701C355.239 318.494 355.826 318.391 356.429 318.391C356.882 318.391 357.328 318.457 357.768 318.59C358.206 318.723 358.604 318.921 358.959 319.182C359.314 319.445 359.596 319.766 359.803 320.151C360.014 320.535 360.121 320.979 360.121 321.482V324.152L360.195 325.661H358.486L358.308 324.67C358.06 325.054 357.705 325.341 357.243 325.528C356.778 325.714 356.305 325.809 355.822 325.809ZM356.014 324.182C356.31 324.182 356.615 324.143 356.932 324.063C357.246 323.986 357.526 323.838 357.768 323.619C358.008 323.403 358.155 323.1 358.205 322.71H355.866C355.609 322.71 355.365 322.775 355.134 322.902C354.906 323.032 354.793 323.216 354.793 323.457C354.793 323.634 354.86 323.778 354.993 323.886C355.13 323.995 355.297 324.071 355.489 324.115C355.681 324.159 355.855 324.182 356.014 324.182Z" fill="#41A3E0"/>
<path d="M364.551 325.669L360.799 318.68V318.621H362.886L364.654 322.068L365.365 323.865L366.016 322.097L367.807 318.621H369.915V318.68L366.12 325.669H364.551Z" fill="#41A3E0"/>
<path d="M373.871 325.778C373.149 325.778 372.509 325.626 371.947 325.319C371.388 325.014 370.95 324.587 370.63 324.04C370.308 323.493 370.149 322.862 370.149 322.147C370.149 321.427 370.308 320.793 370.63 320.246C370.95 319.699 371.394 319.273 371.962 318.966C372.533 318.661 373.185 318.508 373.915 318.508C374.674 318.508 375.33 318.669 375.884 318.989C376.435 319.31 376.86 319.758 377.156 320.335C377.456 320.911 377.608 321.59 377.608 322.368C377.608 322.439 377.608 322.515 377.608 322.598C377.608 322.683 377.602 322.764 377.593 322.842H372.102C372.162 323.182 372.291 323.448 372.495 323.641C372.702 323.833 372.942 323.97 373.22 324.047C373.495 324.127 373.767 324.166 374.034 324.166C374.359 324.166 374.672 324.118 374.973 324.018C375.273 323.92 375.502 323.733 375.662 323.456L377.215 324.003C376.968 324.467 376.664 324.829 376.305 325.09C375.945 325.353 375.558 325.532 375.144 325.63C374.729 325.728 374.304 325.778 373.871 325.778ZM372.102 321.407H375.765C375.665 320.963 375.434 320.636 375.07 320.423C374.703 320.213 374.324 320.105 373.93 320.105C373.505 320.105 373.118 320.216 372.768 320.438C372.422 320.66 372.2 320.984 372.102 321.407Z" fill="#41A3E0"/>
<path d="M339.986 346.543C339.423 346.543 338.846 346.493 338.254 346.395C337.662 346.295 337.104 346.127 336.582 345.885C336.064 345.645 335.629 345.299 335.28 344.85C334.928 344.402 334.719 343.834 334.651 343.148L336.693 342.897C336.732 343.293 336.858 343.614 337.07 343.866C337.287 344.114 337.559 344.306 337.884 344.443C338.21 344.581 338.554 344.678 338.92 344.731C339.285 344.787 339.63 344.813 339.956 344.813C340.152 344.813 340.415 344.796 340.74 344.761C341.066 344.728 341.392 344.661 341.717 344.561C342.046 344.463 342.331 344.321 342.568 344.132C342.805 343.945 342.938 343.707 342.968 343.415C342.997 343.071 342.925 342.799 342.753 342.601C342.579 342.405 342.346 342.257 342.05 342.157C341.758 342.059 341.432 341.991 341.073 341.95C340.713 341.912 340.356 341.888 340 341.876L339.305 341.847C338.82 341.828 338.315 341.784 337.788 341.714C337.265 341.645 336.776 341.518 336.323 341.329C335.868 341.142 335.498 340.863 335.213 340.493C334.926 340.124 334.784 339.628 334.784 339.007C334.784 338.471 334.891 338.008 335.109 337.624C335.326 337.239 335.616 336.925 335.983 336.677C336.347 336.431 336.752 336.239 337.196 336.1C337.644 335.963 338.102 335.867 338.572 335.812C339.04 335.758 339.486 335.73 339.912 335.73C340.444 335.73 340.986 335.771 341.54 335.849C342.096 335.928 342.612 336.074 343.086 336.285C343.56 336.498 343.948 336.808 344.255 337.217C344.56 337.627 344.732 338.156 344.773 338.807L342.731 339.007C342.701 338.678 342.585 338.404 342.383 338.186C342.18 337.97 341.932 337.801 341.636 337.683C341.343 337.565 341.04 337.483 340.726 337.439C340.409 337.395 340.123 337.372 339.867 337.372C339.69 337.372 339.438 337.391 339.113 337.424C338.787 337.459 338.454 337.528 338.114 337.631C337.773 337.735 337.485 337.894 337.248 338.105C337.015 338.317 336.9 338.604 336.9 338.962C336.9 339.308 337.013 339.565 337.24 339.732C337.472 339.9 337.773 340.013 338.143 340.072C338.513 340.131 338.909 340.172 339.335 340.19C340.045 340.201 340.74 340.242 341.421 340.316C342.106 340.39 342.725 340.529 343.278 340.73C343.83 340.933 344.27 341.231 344.596 341.625C344.921 342.021 345.084 342.542 345.084 343.193C345.084 343.79 344.923 344.31 344.603 344.753C344.281 345.197 343.863 345.558 343.345 345.833C342.827 346.111 342.274 346.301 341.688 346.41C341.214 346.499 340.646 346.543 339.986 346.543Z" fill="#41A3E0"/>
<path d="M349.938 346.422C348.94 346.411 348.178 346.118 347.651 345.542C347.128 344.965 346.867 344.231 346.867 343.338V340.69H345.564V339.255H346.867V335.949H348.739V339.255H351.255V340.69H348.739V343.338C348.728 343.757 348.861 344.107 349.138 344.388C349.414 344.669 349.764 344.809 350.189 344.809C350.337 344.809 350.493 344.791 350.655 344.75C350.818 344.711 350.983 344.647 351.151 344.558L351.654 345.948C351.318 346.117 351.01 346.237 350.729 346.311C350.448 346.385 350.184 346.422 349.938 346.422Z" fill="#41A3E0"/>
<path d="M355.992 346.406C355.567 346.406 355.145 346.347 354.727 346.228C354.313 346.11 353.935 345.914 353.595 345.637C353.254 345.361 352.983 344.993 352.781 344.535C352.577 344.076 352.478 343.514 352.478 342.848V339.254H354.409V342.893C354.409 343.357 354.485 343.727 354.638 344.002C354.79 344.274 354.99 344.472 355.238 344.594C355.484 344.718 355.744 344.784 356.022 344.793C356.318 344.793 356.603 344.731 356.88 344.601C357.156 344.474 357.383 344.272 357.561 343.995C357.739 343.714 357.827 343.347 357.827 342.893V339.254H359.744V346.287H358.109L357.931 345.429C357.733 345.766 357.452 346.012 357.087 346.169C356.721 346.326 356.357 346.406 355.992 346.406Z" fill="#41A3E0"/>
<path d="M364.484 346.407C363.684 346.348 363.026 346.146 362.508 345.8C361.994 345.457 361.613 345.02 361.361 344.491C361.109 343.959 360.984 343.388 360.984 342.776C360.984 342.066 361.135 341.437 361.442 340.89C361.748 340.342 362.182 339.913 362.745 339.603C363.311 339.292 363.984 339.137 364.765 339.137C365.15 339.137 365.531 339.222 365.912 339.388C366.291 339.557 366.585 339.799 366.792 340.113V335.949H368.694V346.289H367.103L366.911 345.312C366.624 345.747 366.261 346.045 365.823 346.207C365.383 346.37 364.937 346.437 364.484 346.407ZM364.868 344.735C365.479 344.735 365.965 344.551 366.326 344.181C366.685 343.807 366.866 343.343 366.866 342.79C366.866 342.239 366.691 341.77 366.341 341.385C365.989 341.001 365.499 340.808 364.868 340.808C364.434 340.808 364.069 340.904 363.773 341.097C363.477 341.289 363.257 341.537 363.115 341.836C362.976 342.138 362.908 342.45 362.908 342.776C362.908 343.083 362.976 343.388 363.115 343.693C363.257 343.994 363.477 344.244 363.773 344.44C364.069 344.637 364.434 344.735 364.868 344.735Z" fill="#41A3E0"/>
<path d="M370.303 338.227V335.949H372.19V338.227H370.303ZM370.303 346.289V339.255H372.19V346.289H370.303Z" fill="#41A3E0"/>
<path d="M377.348 346.406C376.608 346.406 375.944 346.251 375.357 345.94C374.775 345.629 374.316 345.2 373.981 344.653C373.645 344.106 373.478 343.475 373.478 342.76C373.478 342.041 373.645 341.41 373.981 340.867C374.316 340.325 374.775 339.898 375.357 339.587C375.944 339.276 376.608 339.121 377.348 339.121C378.088 339.121 378.746 339.276 379.324 339.587C379.901 339.898 380.354 340.325 380.685 340.867C381.02 341.41 381.188 342.041 381.188 342.76C381.188 343.475 381.02 344.106 380.685 344.653C380.354 345.2 379.901 345.629 379.324 345.94C378.746 346.251 378.088 346.406 377.348 346.406ZM377.348 344.764C377.899 344.764 378.356 344.577 378.717 344.202C379.076 343.823 379.257 343.342 379.257 342.76C379.257 342.179 379.076 341.7 378.717 341.325C378.356 340.952 377.899 340.763 377.348 340.763C376.786 340.763 376.323 340.952 375.964 341.325C375.609 341.7 375.431 342.179 375.431 342.76C375.431 343.342 375.609 343.823 375.964 344.202C376.323 344.577 376.786 344.764 377.348 344.764Z" fill="#41A3E0"/>
</svg>
