<svg width="25" height="25" viewBox="0 0 25 25" fill="none" xmlns="http://www.w3.org/2000/svg">
<path d="M12.0789 24.9997C18.75 24.9997 24.1579 19.5918 24.1579 12.9207C24.1579 6.24973 18.75 0.841797 12.0789 0.841797C5.40793 0.841797 0 6.24973 0 12.9207C0 19.5918 5.40793 24.9997 12.0789 24.9997Z" fill="#229E45"/>
<path d="M12.1236 19.1917L21.7753 12.9275L12.0651 6.64648L2.38184 12.9426L12.1236 19.1917Z" fill="#F8E509"/>
<path d="M16.329 12.9203C16.329 15.1718 14.5011 16.9968 12.2458 16.9968C9.99081 16.9968 8.1626 15.1715 8.1626 12.9203C8.1626 10.669 9.99081 8.84375 12.2458 8.84375C14.5011 8.84348 16.329 10.6687 16.329 12.9203Z" fill="#2B49A3"/>
<path d="M10.9038 15.3635L10.7776 15.2908L10.6466 15.3557L10.6759 15.21L10.5747 15.1034L10.7194 15.0865L10.7873 14.9558L10.848 15.0908L10.9908 15.1168L10.8837 15.217M13.6401 16.0563L13.5139 15.9836L13.3829 16.0485L13.4122 15.9028L13.311 15.7962L13.4557 15.7793L13.5236 15.6486L13.5842 15.7836L13.727 15.8096L13.6199 15.9097M12.4606 14.9496L12.3517 14.8868L12.2384 14.9426L12.2636 14.8167L12.1761 14.7247L12.3012 14.7099L12.36 14.5972L12.4123 14.7139L12.5358 14.7362L12.4432 14.8229M15.224 14.5515L15.1169 14.4898L15.0058 14.5448L15.0308 14.4214L14.9449 14.3309L15.0675 14.3164L15.1253 14.2055L15.1768 14.3202L15.2978 14.3422L15.2071 14.4273M12.4107 13.7229L12.2845 13.6502L12.1536 13.7151L12.1828 13.5694L12.0816 13.4628L12.2263 13.4459L12.2942 13.3152L12.3549 13.4502L12.4977 13.4762L12.3906 13.5764M9.04149 12.4581L8.91533 12.3854L8.78434 12.4503L8.8136 12.3049L8.7124 12.198L8.85708 12.1811L8.92499 12.0504L8.98566 12.1854L9.12845 12.2114L9.02136 12.3116M9.4468 14.1409L9.32064 14.0681L9.18965 14.1331L9.21891 13.9876L9.11772 13.8808L9.2624 13.8638L9.33031 13.7331L9.39097 13.8681L9.53377 13.8942L9.42667 13.9946M13.6511 11.5702L13.5397 11.506L13.424 11.5632L13.45 11.4346L13.3607 11.3404L13.4884 11.3254L13.5485 11.21L13.6022 11.3294L13.7284 11.3522L13.6339 11.4408" fill="#FFFFEF"/>
<path d="M10.9043 13.3247L10.7781 13.252L10.6471 13.3169L10.6764 13.1715L10.5752 13.0646L10.7199 13.0477L10.7878 12.917L10.8484 13.052L10.9912 13.078L10.8841 13.1784" fill="#FFFFEF"/>
<path d="M16.0605 14.3864C16.1228 14.2237 16.2031 13.9781 16.2457 13.7529C14.0772 11.8479 11.6595 10.8719 8.6046 11.0727C8.49509 11.2826 8.40731 11.5025 8.3335 11.7403C11.9532 11.3951 14.6062 12.9976 16.0605 14.3864Z" fill="white"/>
</svg>
