<svg width="24" height="24" viewBox="0 0 24 24" fill="none" xmlns="http://www.w3.org/2000/svg">
<g clip-path="url(#clip0_174_36)">
<path d="M0.131836 11.9869C0.131836 14.1468 0.711925 16.1703 1.72142 17.9143H22.2516C23.2611 16.1703 23.8412 14.1468 23.8412 11.9869C23.8412 9.82699 23.2611 7.80353 22.2516 6.05957H1.72142C0.711925 7.80353 0.131836 9.82699 0.131836 11.9869Z" fill="#FFC400"/>
<path d="M22.2514 6.05918C22.1805 5.93668 22.1076 5.81524 22.0325 5.69537C19.9358 2.35472 16.2216 0.131836 11.9863 0.131836C9.82585 0.131836 7.80265 0.712715 6.05895 1.723C4.38428 2.69297 2.96725 4.0589 1.94011 5.69564C1.86503 5.81524 1.79232 5.93668 1.72119 6.05918H22.2514Z" fill="#C60B1E"/>
<path d="M1.72119 17.9141C1.79206 18.0366 1.86503 18.158 1.94011 18.2776C2.96725 19.9143 4.38428 21.28 6.05895 22.2502C7.80265 23.2605 9.82585 23.8414 11.9863 23.8414C16.2216 23.8414 19.9358 21.6185 22.0325 18.2776C22.1076 18.1577 22.1805 18.0366 22.2514 17.9141H1.72119Z" fill="#C60B1E"/>
</g>
<defs>
<clipPath id="clip0_174_36">
<rect width="24" height="24" fill="white"/>
</clipPath>
</defs>
</svg>
